M48
; DRILL file {KiCad (5.1.2)-2} date 18/07/2021 13:36:12
; FORMAT={-:-/ absolute / inch / decimal}
; #@! TF.CreationDate,2021-07-18T13:36:12+02:00
; #@! TF.GenerationSoftware,Kicad,Pcbnew,(5.1.2)-2
; #@! TF.FileFunction,Plated,1,2,PTH
FMAT,2
INCH
T1C0.0118
T2C0.0315
T3C0.0394
T4C0.0433
T5C0.0480
T6C0.0559
T7C0.0563
%
G90
G05
T1
X6.89Y-5.025
X6.915Y-5.27
X6.9572Y-2.8778
X6.995Y-2.97
X6.995Y-3.295
X7.03Y-2.43
X7.035Y-5.5
X7.085Y-3.2269
X7.14Y-2.37
X7.16Y-5.175
X7.165Y-3.275
X7.17Y-5.565
X7.205Y-2.47
X7.215Y-4.995
X7.215Y-5.055
X7.325Y-2.53
X7.33Y-5.15
X7.395Y-3.17
X7.395Y-4.72
X7.4Y-2.13
X7.405Y-2.095
X7.405Y-5.69
X7.42Y-4.68
X7.465Y-5.27
X7.475Y-5.925
X7.485Y-2.935
X7.525Y-1.915
X7.57Y-5.445
X7.59Y-3.075
X7.5915Y-3.2317
X7.5982Y-3.13
X7.5997Y-4.68
X7.6Y-2.05
X7.6Y-4.63
X7.6Y-5.65
X7.6Y-5.73
X7.605Y-5.19
X7.61Y-5.845
X7.615Y-2.185
X7.615Y-5.27
X7.625Y-3.075
X7.63Y-5.14
X7.63Y-5.615
X7.635Y-2.635
X7.635Y-4.62
X7.635Y-4.92
X7.64Y-2.095
X7.64Y-2.905
X7.64Y-2.95
X7.6533Y-4.785
X7.655Y-5.8
X7.66Y-3.175
X7.665Y-5.54
X7.665Y-5.655
X7.67Y-3.365
X7.73Y-3.355
X7.735Y-4.865
X7.755Y-4.45
X7.79Y-2.25
X7.8Y-2.91
X7.8Y-3.04
X7.805Y-4.825
X7.815Y-5.21
X7.83Y-2.625
X7.835Y-4.925
X7.8699Y-4.4785
X7.935Y-2.295
X7.9465Y-4.7565
X7.955Y-3.155
X7.955Y-3.325
X7.96Y-4.64
X7.96Y-5.66
X7.965Y-2.54
X7.98Y-2.075
X8.015Y-3.16
X8.02Y-4.345
X8.025Y-4.64
T2
X6.9572Y-3.3202
X7.045Y-5.915
X7.87Y-4.065
X7.94Y-5.755
X8.02Y-2.13
T3
X7.085Y-2.0
X7.085Y-2.0984
X7.085Y-2.1969
X7.085Y-2.52
X7.085Y-2.6184
X7.085Y-2.7169
X7.085Y-4.58
X7.085Y-4.6784
X7.085Y-4.7769
X7.085Y-3.55
X7.085Y-3.6484
X7.085Y-3.7469
X7.085Y-4.065
X7.085Y-4.1634
X7.085Y-4.2619
X7.085Y-5.61
X7.085Y-5.7084
X7.085Y-5.8069
X7.085Y-3.03
X7.085Y-3.1284
X7.085Y-3.2269
X7.085Y-5.095
X7.085Y-5.1934
X7.085Y-5.2919
T5
X6.75Y-3.39
X6.75Y-4.42
X7.875Y-2.36
X7.875Y-5.45
X7.875Y-4.42
X7.875Y-3.39
X7.875Y-2.36
X6.75Y-5.45
X6.75Y-5.45
X6.75Y-4.42
X7.875Y-5.45
X6.75Y-2.36
X6.75Y-2.36
X7.875Y-3.39
X6.75Y-3.39
X7.875Y-4.42
T6
X6.75Y-3.268
X6.75Y-4.298
X7.875Y-2.482
X7.875Y-5.328
X7.875Y-4.298
X7.875Y-3.512
X7.875Y-2.238
X6.75Y-5.572
X6.75Y-5.328
X6.75Y-4.542
X7.875Y-5.572
X6.75Y-2.482
X6.75Y-2.238
X7.875Y-3.268
X6.75Y-3.512
X7.875Y-4.542
T7
X6.75Y-1.9112
X7.875Y-2.9412
X6.75Y-3.8388
X7.875Y-4.8688
X6.75Y-2.9412
X6.75Y-3.9712
X7.875Y-2.8088
X7.875Y-5.0012
X7.875Y-3.9712
X7.875Y-3.8388
X7.875Y-1.9112
X6.75Y-5.8988
X6.75Y-5.0012
X6.75Y-4.8688
X7.875Y-5.8988
X6.75Y-2.8088
T4
G00X7.3665Y-2.9394
M15
G01X7.3941Y-2.9394
M16
G05
G00X7.3665Y-3.3174
M15
G01X7.3941Y-3.3174
M16
G05
G00X7.3665Y-5.0044
M15
G01X7.3941Y-5.0044
M16
G05
G00X7.3665Y-5.3824
M15
G01X7.3941Y-5.3824
M16
G05
G00X7.3665Y-1.9094
M15
G01X7.3941Y-1.9094
M16
G05
G00X7.3665Y-2.2874
M15
G01X7.3941Y-2.2874
M16
G05
G00X7.3665Y-2.4294
M15
G01X7.3941Y-2.4294
M16
G05
G00X7.3665Y-2.8074
M15
G01X7.3941Y-2.8074
M16
G05
G00X7.3665Y-4.4894
M15
G01X7.3941Y-4.4894
M16
G05
G00X7.3665Y-4.8674
M15
G01X7.3941Y-4.8674
M16
G05
G00X7.3665Y-3.4594
M15
G01X7.3941Y-3.4594
M16
G05
G00X7.3665Y-3.8374
M15
G01X7.3941Y-3.8374
M16
G05
G00X7.3665Y-3.9744
M15
G01X7.3941Y-3.9744
M16
G05
G00X7.3665Y-4.3524
M15
G01X7.3941Y-4.3524
M16
G05
G00X7.3665Y-5.5194
M15
G01X7.3941Y-5.5194
M16
G05
G00X7.3665Y-5.8974
M15
G01X7.3941Y-5.8974
M16
G05
T0
M30
