G04 #@! TF.GenerationSoftware,KiCad,Pcbnew,(5.1.2)-2*
G04 #@! TF.CreationDate,2021-07-18T13:36:31+02:00*
G04 #@! TF.ProjectId,Octal,4f637461-6c2e-46b6-9963-61645f706362,1.0.0*
G04 #@! TF.SameCoordinates,Original*
G04 #@! TF.FileFunction,Copper,L1,Top*
G04 #@! TF.FilePolarity,Positive*
%FSLAX46Y46*%
G04 Gerber Fmt 4.6, Leading zero omitted, Abs format (unit mm)*
G04 Created by KiCad (PCBNEW (5.1.2)-2) date 2021-07-18 13:36:31*
%MOMM*%
%LPD*%
G04 APERTURE LIST*
%ADD10C,2.130000*%
%ADD11R,1.930000X1.830000*%
%ADD12R,1.800000X1.800000*%
%ADD13C,1.800000*%
%ADD14O,3.240000X2.720000*%
%ADD15C,0.600000*%
%ADD16C,1.200000*%
%ADD17C,0.254000*%
%ADD18C,0.508000*%
G04 APERTURE END LIST*
D10*
X171450000Y-115368000D03*
D11*
X171450000Y-112268000D03*
D10*
X171450000Y-123668000D03*
X200025000Y-115368000D03*
D11*
X200025000Y-112268000D03*
D10*
X200025000Y-123668000D03*
X200025000Y-56844000D03*
D11*
X200025000Y-59944000D03*
D10*
X200025000Y-48544000D03*
D12*
X179959000Y-50800000D03*
D13*
X179959000Y-53300000D03*
X179959000Y-55800000D03*
D14*
X187459000Y-58100000D03*
X187459000Y-48500000D03*
D10*
X171450000Y-56844000D03*
D11*
X171450000Y-59944000D03*
D10*
X171450000Y-48544000D03*
X171450000Y-63044000D03*
D11*
X171450000Y-59944000D03*
D10*
X171450000Y-71344000D03*
X171450000Y-83006000D03*
D11*
X171450000Y-86106000D03*
D10*
X171450000Y-74706000D03*
X171450000Y-97506000D03*
D11*
X171450000Y-86106000D03*
D10*
X171450000Y-89206000D03*
X200025000Y-71344000D03*
D11*
X200025000Y-59944000D03*
D10*
X200025000Y-63044000D03*
X200025000Y-74706000D03*
D11*
X200025000Y-86106000D03*
D10*
X200025000Y-83006000D03*
X200025000Y-97506000D03*
D11*
X200025000Y-86106000D03*
D10*
X200025000Y-89206000D03*
X171450000Y-100868000D03*
D11*
X171450000Y-112268000D03*
D10*
X171450000Y-109168000D03*
X171450000Y-135330000D03*
D11*
X171450000Y-138430000D03*
D10*
X171450000Y-127030000D03*
X171450000Y-149830000D03*
D11*
X171450000Y-138430000D03*
D10*
X171450000Y-141530000D03*
X200025000Y-109168000D03*
D11*
X200025000Y-112268000D03*
D10*
X200025000Y-100868000D03*
X200025000Y-135330000D03*
D11*
X200025000Y-138430000D03*
D10*
X200025000Y-127030000D03*
X200025000Y-149830000D03*
D11*
X200025000Y-138430000D03*
D10*
X200025000Y-141530000D03*
D14*
X187459000Y-61708000D03*
X187459000Y-71308000D03*
D13*
X179959000Y-69008000D03*
X179959000Y-66508000D03*
D12*
X179959000Y-64008000D03*
X179959000Y-76962000D03*
D13*
X179959000Y-79462000D03*
X179959000Y-81962000D03*
D14*
X187459000Y-84262000D03*
X187459000Y-74662000D03*
X187459000Y-87870000D03*
X187459000Y-97470000D03*
D13*
X179959000Y-95170000D03*
X179959000Y-92670000D03*
D12*
X179959000Y-90170000D03*
X179959000Y-103251000D03*
D13*
X179959000Y-105751000D03*
X179959000Y-108251000D03*
D14*
X187459000Y-110551000D03*
X187459000Y-100951000D03*
X187459000Y-114032000D03*
X187459000Y-123632000D03*
D13*
X179959000Y-121332000D03*
X179959000Y-118832000D03*
D12*
X179959000Y-116332000D03*
X179959000Y-129413000D03*
D13*
X179959000Y-131913000D03*
X179959000Y-134413000D03*
D14*
X187459000Y-136713000D03*
X187459000Y-127113000D03*
X187459000Y-140194000D03*
X187459000Y-149794000D03*
D13*
X179959000Y-147494000D03*
X179959000Y-144994000D03*
D12*
X179959000Y-142494000D03*
D15*
X202692000Y-52705000D03*
X191135000Y-48641000D03*
X198120000Y-77216000D03*
X190119000Y-74549000D03*
X201549000Y-58293000D03*
X197866000Y-57150000D03*
X194056000Y-74930000D03*
X183007000Y-62738000D03*
X202057000Y-84455000D03*
X198120000Y-73914000D03*
X203581000Y-80264000D03*
X202184000Y-117856000D03*
X199894957Y-113754229D03*
X196469000Y-123571000D03*
X199009000Y-125095000D03*
X203835000Y-117856000D03*
X192278000Y-138303000D03*
X181864000Y-131445000D03*
X194691000Y-140716000D03*
X194437000Y-147320000D03*
X188087000Y-144526000D03*
X194691000Y-143637000D03*
X202184000Y-143764000D03*
X189611000Y-133858000D03*
X193421000Y-133858000D03*
X188468000Y-118872000D03*
X193929000Y-124968000D03*
X193802000Y-130556000D03*
X194393456Y-121539000D03*
X196977000Y-113030000D03*
X193929000Y-66929000D03*
X202311000Y-64516000D03*
X194056000Y-53213000D03*
X187960000Y-54102000D03*
X178562000Y-61722000D03*
X181356000Y-60198000D03*
X203708000Y-110363000D03*
X175641000Y-133858000D03*
X175006000Y-127635000D03*
X192994000Y-79502000D03*
X179959000Y-81962000D03*
X196342000Y-85217000D03*
X194564000Y-80645000D03*
D16*
X203708000Y-54102000D03*
D15*
X198882000Y-66675000D03*
X202057000Y-80137000D03*
D16*
X201676000Y-146177000D03*
D15*
X198501000Y-132334000D03*
X201840040Y-120814040D03*
X178689000Y-139700000D03*
D16*
X199898000Y-103251000D03*
D15*
X188087000Y-53213000D03*
X176712813Y-73096187D03*
X187833000Y-80518000D03*
D16*
X178943000Y-150241000D03*
D15*
X189865000Y-150495000D03*
X193294000Y-148463000D03*
X187833000Y-119888000D03*
X193167000Y-131826000D03*
X193802000Y-142621000D03*
D16*
X176712813Y-84333125D03*
D15*
X193040000Y-52070000D03*
X193421000Y-55499000D03*
X192786000Y-78105000D03*
X192824539Y-82085171D03*
X194818000Y-85471000D03*
X193675000Y-78105000D03*
X193040000Y-117602000D03*
X193031456Y-118872000D03*
X193040000Y-143510000D03*
X193040000Y-145542000D03*
X186182000Y-130810000D03*
X183261000Y-128397000D03*
X181991000Y-83185000D03*
X186055000Y-64262000D03*
X194056000Y-73787000D03*
X177673000Y-83693000D03*
X177673000Y-75438000D03*
X182118000Y-141351000D03*
X198247000Y-122555000D03*
X193929000Y-117348000D03*
X183261000Y-126873000D03*
D17*
X201745919Y-52405001D02*
X197993000Y-48652082D01*
X202692000Y-52705000D02*
X202392001Y-52405001D01*
X202392001Y-52405001D02*
X201745919Y-52405001D01*
X197993000Y-48652082D02*
X191146082Y-48652082D01*
X191146082Y-48652082D02*
X191135000Y-48641000D01*
X198120000Y-77216000D02*
X192786000Y-77216000D01*
X192786000Y-77216000D02*
X190119000Y-74549000D01*
X201549000Y-58293000D02*
X199009000Y-58293000D01*
X199009000Y-58293000D02*
X197866000Y-57150000D01*
X194056000Y-74930000D02*
X183007000Y-63881000D01*
X183007000Y-63881000D02*
X183007000Y-62738000D01*
X201471001Y-85040999D02*
X202057000Y-84455000D01*
X200025000Y-97506000D02*
X201471001Y-96059999D01*
X201471001Y-96059999D02*
X201471001Y-85040999D01*
X203442918Y-80264000D02*
X203581000Y-80264000D01*
X198120000Y-73914000D02*
X198120000Y-74941082D01*
X198120000Y-74941082D02*
X203442918Y-80264000D01*
X200551311Y-113754229D02*
X199894957Y-113754229D01*
X202184000Y-117856000D02*
X202184000Y-115386918D01*
X202184000Y-115386918D02*
X200551311Y-113754229D01*
X197993000Y-125095000D02*
X196469000Y-123571000D01*
X199009000Y-125095000D02*
X197993000Y-125095000D01*
X196469000Y-123571000D02*
X196469000Y-122300990D01*
X198960001Y-101932999D02*
X200025000Y-100868000D01*
X197738990Y-103154010D02*
X198960001Y-101932999D01*
X197738990Y-121031000D02*
X197738990Y-103154010D01*
X196469000Y-122300990D02*
X197738990Y-121031000D01*
X200025000Y-123668000D02*
X200025000Y-121666000D01*
X200025000Y-121666000D02*
X203835000Y-117856000D01*
X192278000Y-138303000D02*
X185420000Y-131445000D01*
X185420000Y-131445000D02*
X181864000Y-131445000D01*
X195372001Y-146384999D02*
X194437000Y-147320000D01*
X194691000Y-140716000D02*
X195372001Y-141397001D01*
X195372001Y-141397001D02*
X195372001Y-146384999D01*
X188087000Y-144526000D02*
X193802000Y-144526000D01*
X193802000Y-144526000D02*
X194691000Y-143637000D01*
X193755999Y-144572001D02*
X193755999Y-147366001D01*
X193802000Y-144526000D02*
X193755999Y-144572001D01*
X193628000Y-147494000D02*
X179959000Y-147494000D01*
X193755999Y-147366001D02*
X193628000Y-147494000D01*
X200075000Y-138430000D02*
X200025000Y-138430000D01*
X202184000Y-140539000D02*
X200075000Y-138430000D01*
X202184000Y-143764000D02*
X202184000Y-140539000D01*
X189611000Y-133858000D02*
X193421000Y-133858000D01*
X182419000Y-118872000D02*
X179959000Y-121332000D01*
X188468000Y-118872000D02*
X182419000Y-118872000D01*
X193929000Y-130429000D02*
X193802000Y-130556000D01*
X193929000Y-124968000D02*
X193929000Y-130429000D01*
X197057990Y-113110990D02*
X196977000Y-113030000D01*
X194393456Y-121539000D02*
X197057990Y-118874466D01*
X197057990Y-118874466D02*
X197057990Y-113110990D01*
X199271434Y-64516000D02*
X202311000Y-64516000D01*
X193929000Y-66929000D02*
X196858434Y-66929000D01*
X196858434Y-66929000D02*
X199271434Y-64516000D01*
X194056000Y-55194000D02*
X194056000Y-53213000D01*
X200025000Y-59944000D02*
X198806000Y-59944000D01*
X198806000Y-59944000D02*
X194056000Y-55194000D01*
X193756001Y-53512999D02*
X194056000Y-53213000D01*
X192867001Y-54401999D02*
X193756001Y-53512999D01*
X188259999Y-54401999D02*
X192867001Y-54401999D01*
X187960000Y-54102000D02*
X188259999Y-54401999D01*
X178562000Y-61722000D02*
X179832000Y-61722000D01*
X179832000Y-61722000D02*
X181356000Y-60198000D01*
X200025000Y-112268000D02*
X201803000Y-112268000D01*
X201803000Y-112268000D02*
X203708000Y-110363000D01*
X175641000Y-133858000D02*
X175006000Y-133223000D01*
X175006000Y-133223000D02*
X175006000Y-127635000D01*
X192994000Y-79502000D02*
X182419000Y-79502000D01*
X182419000Y-79502000D02*
X179959000Y-81962000D01*
X194564000Y-83439000D02*
X194564000Y-80645000D01*
X196342000Y-85217000D02*
X194564000Y-83439000D01*
D18*
X204389001Y-54783001D02*
X203708000Y-54102000D01*
X199898000Y-103251000D02*
X204389001Y-98759999D01*
D17*
X204389001Y-67517999D02*
X204389001Y-65612999D01*
D18*
X204389001Y-67517999D02*
X204389001Y-54783001D01*
D17*
X204389001Y-65612999D02*
X199944001Y-65612999D01*
X199944001Y-65612999D02*
X198882000Y-66675000D01*
D18*
X204389001Y-98759999D02*
X204389001Y-79709999D01*
X204389001Y-79709999D02*
X204389001Y-67517999D01*
D17*
X204389001Y-79709999D02*
X204389001Y-80463881D01*
X203907881Y-80945001D02*
X202865001Y-80945001D01*
X204389001Y-80463881D02*
X203907881Y-80945001D01*
X202865001Y-80945001D02*
X202057000Y-80137000D01*
D18*
X199898000Y-103251000D02*
X205151011Y-108504011D01*
X205151011Y-145114989D02*
X204089000Y-146177000D01*
X204089000Y-146177000D02*
X201676000Y-146177000D01*
D17*
X199343989Y-131491011D02*
X198501000Y-132334000D01*
X205151011Y-131491011D02*
X199343989Y-131491011D01*
D18*
X205151011Y-131491011D02*
X205151011Y-145114989D01*
D17*
X204590091Y-118063989D02*
X201840040Y-120814040D01*
X205151011Y-118063989D02*
X204590091Y-118063989D01*
D18*
X205151011Y-118063989D02*
X205151011Y-131491011D01*
X205151011Y-108504011D02*
X205151011Y-118063989D01*
D17*
X201676000Y-147025528D02*
X201676000Y-146177000D01*
X201676000Y-150319082D02*
X201676000Y-147025528D01*
X200460072Y-151535010D02*
X201676000Y-150319082D01*
X178677999Y-148108881D02*
X182104128Y-151535010D01*
X178677999Y-141289199D02*
X178677999Y-148108881D01*
X178689000Y-141278198D02*
X178677999Y-141289199D01*
X182104128Y-151535010D02*
X200460072Y-151535010D01*
X178689000Y-139700000D02*
X178689000Y-141278198D01*
D18*
X182753000Y-55089842D02*
X182753000Y-53467000D01*
X176712813Y-61130029D02*
X182753000Y-55089842D01*
D17*
X188087000Y-53213000D02*
X183007000Y-53213000D01*
X182753000Y-53467000D02*
X183007000Y-53213000D01*
D18*
X176712813Y-84333125D02*
X176712813Y-73096187D01*
X176712813Y-73096187D02*
X176712813Y-61130029D01*
D17*
X177312812Y-84933124D02*
X176712813Y-84333125D01*
X178810876Y-84933124D02*
X177312812Y-84933124D01*
X181240001Y-82503999D02*
X178810876Y-84933124D01*
X185847001Y-82503999D02*
X181240001Y-82503999D01*
X187833000Y-80518000D02*
X185847001Y-82503999D01*
D18*
X176712813Y-148010813D02*
X178943000Y-150241000D01*
D17*
X189865000Y-150495000D02*
X191897000Y-148463000D01*
X191897000Y-148463000D02*
X193294000Y-148463000D01*
D18*
X176712813Y-84333125D02*
X176712813Y-124912187D01*
X176712813Y-124912187D02*
X176712813Y-148010813D01*
D17*
X181803902Y-121382980D02*
X178274695Y-124912187D01*
X178274695Y-124912187D02*
X176712813Y-124912187D01*
X186338020Y-121382980D02*
X181803902Y-121382980D01*
X187833000Y-119888000D02*
X186338020Y-121382980D01*
X193802000Y-134484882D02*
X193802000Y-142621000D01*
X194102001Y-134184881D02*
X193802000Y-134484882D01*
X193167000Y-131826000D02*
X194102001Y-132761001D01*
X194102001Y-132761001D02*
X194102001Y-134184881D01*
X181189000Y-52070000D02*
X179959000Y-53300000D01*
X193040000Y-52070000D02*
X181189000Y-52070000D01*
X180858999Y-65608001D02*
X179959000Y-66508000D01*
X181240001Y-65226999D02*
X180858999Y-65608001D01*
X181240001Y-61596840D02*
X181240001Y-65226999D01*
X186477851Y-56358990D02*
X181240001Y-61596840D01*
X192561010Y-56358990D02*
X186477851Y-56358990D01*
X193421000Y-55499000D02*
X192561010Y-56358990D01*
X181316000Y-78105000D02*
X179959000Y-79462000D01*
X192786000Y-78105000D02*
X181316000Y-78105000D01*
X180858999Y-91770001D02*
X179959000Y-92670000D01*
X180858999Y-91747842D02*
X180858999Y-91770001D01*
X186477851Y-86128990D02*
X180858999Y-91747842D01*
X188780720Y-86128990D02*
X186477851Y-86128990D01*
X192824539Y-82085171D02*
X188780720Y-86128990D01*
X194818000Y-85471000D02*
X193675000Y-84328000D01*
X193675000Y-84328000D02*
X193675000Y-78105000D01*
X193040000Y-113409841D02*
X193040000Y-117602000D01*
X179959000Y-105751000D02*
X185381159Y-105751000D01*
X185381159Y-105751000D02*
X193040000Y-113409841D01*
X192091457Y-117932001D02*
X193031456Y-118872000D01*
X179959000Y-118832000D02*
X180858999Y-117932001D01*
X180858999Y-117932001D02*
X192091457Y-117932001D01*
X180858999Y-132812999D02*
X179959000Y-131913000D01*
X181240001Y-133194001D02*
X180858999Y-132812999D01*
X181240001Y-136697160D02*
X181240001Y-133194001D01*
X188052841Y-143510000D02*
X181240001Y-136697160D01*
X193040000Y-143510000D02*
X188052841Y-143510000D01*
X180858999Y-145893999D02*
X179959000Y-144994000D01*
X192263737Y-145893999D02*
X180858999Y-145893999D01*
X192615736Y-145542000D02*
X192263737Y-145893999D01*
X193040000Y-145542000D02*
X192615736Y-145542000D01*
X186182000Y-130810000D02*
X183769000Y-128397000D01*
X183769000Y-128397000D02*
X183261000Y-128397000D01*
X179959000Y-85217000D02*
X179959000Y-90170000D01*
X181991000Y-83185000D02*
X179959000Y-85217000D01*
X200025000Y-63044000D02*
X198807000Y-64262000D01*
X198807000Y-64262000D02*
X186055000Y-64262000D01*
X195698882Y-73787000D02*
X194056000Y-73787000D01*
X200025000Y-83006000D02*
X200025000Y-78113118D01*
X200025000Y-78113118D02*
X195698882Y-73787000D01*
X177673000Y-83693000D02*
X177673000Y-75438000D01*
X178805000Y-129413000D02*
X179959000Y-129413000D01*
X178677999Y-129540001D02*
X178805000Y-129413000D01*
X178677999Y-137910999D02*
X178677999Y-129540001D01*
X182118000Y-141351000D02*
X178677999Y-137910999D01*
X198247000Y-110946000D02*
X200025000Y-109168000D01*
X198247000Y-122555000D02*
X198247000Y-110946000D01*
X183261000Y-125107841D02*
X183261000Y-126873000D01*
X186477851Y-121890990D02*
X183261000Y-125107841D01*
X192281802Y-121890990D02*
X186477851Y-121890990D01*
X193929000Y-117348000D02*
X193929000Y-120243792D01*
X193929000Y-120243792D02*
X192281802Y-121890990D01*
G36*
X205075000Y-54217555D02*
G01*
X205020660Y-54151342D01*
X204986742Y-54123506D01*
X204943000Y-54079764D01*
X204943000Y-53980363D01*
X204895540Y-53741764D01*
X204802443Y-53517008D01*
X204667287Y-53314733D01*
X204495267Y-53142713D01*
X204292992Y-53007557D01*
X204068236Y-52914460D01*
X203829637Y-52867000D01*
X203613094Y-52867000D01*
X203627000Y-52797089D01*
X203627000Y-52612911D01*
X203591068Y-52432271D01*
X203520586Y-52262111D01*
X203418262Y-52108972D01*
X203288028Y-51978738D01*
X203134889Y-51876414D01*
X202964729Y-51805932D01*
X202830692Y-51779270D01*
X202817393Y-51768356D01*
X202685016Y-51697599D01*
X202541379Y-51654027D01*
X202429427Y-51643001D01*
X202429424Y-51643001D01*
X202392001Y-51639315D01*
X202354578Y-51643001D01*
X202061550Y-51643001D01*
X200574857Y-50156309D01*
X200830252Y-50050521D01*
X201108687Y-49864477D01*
X201345477Y-49627687D01*
X201531521Y-49349252D01*
X201659670Y-49039872D01*
X201725000Y-48711435D01*
X201725000Y-48376565D01*
X201659670Y-48048128D01*
X201531521Y-47738748D01*
X201345477Y-47460313D01*
X201108687Y-47223523D01*
X200830252Y-47037479D01*
X200520872Y-46909330D01*
X200192435Y-46844000D01*
X199857565Y-46844000D01*
X199529128Y-46909330D01*
X199219748Y-47037479D01*
X198941313Y-47223523D01*
X198704523Y-47460313D01*
X198518479Y-47738748D01*
X198406503Y-48009082D01*
X198286015Y-47944680D01*
X198142378Y-47901108D01*
X198030426Y-47890082D01*
X198030423Y-47890082D01*
X197993000Y-47886396D01*
X197955577Y-47890082D01*
X191694128Y-47890082D01*
X191577889Y-47812414D01*
X191407729Y-47741932D01*
X191227089Y-47706000D01*
X191042911Y-47706000D01*
X190862271Y-47741932D01*
X190692111Y-47812414D01*
X190538972Y-47914738D01*
X190408738Y-48044972D01*
X190306414Y-48198111D01*
X190235932Y-48368271D01*
X190200000Y-48548911D01*
X190200000Y-48733089D01*
X190235932Y-48913729D01*
X190306414Y-49083889D01*
X190408738Y-49237028D01*
X190538972Y-49367262D01*
X190692111Y-49469586D01*
X190862271Y-49540068D01*
X191042911Y-49576000D01*
X191227089Y-49576000D01*
X191407729Y-49540068D01*
X191577889Y-49469586D01*
X191660957Y-49414082D01*
X197677370Y-49414082D01*
X201180639Y-52917352D01*
X201204497Y-52946423D01*
X201233567Y-52970280D01*
X201320526Y-53041646D01*
X201361641Y-53063622D01*
X201452904Y-53112403D01*
X201596541Y-53155975D01*
X201708493Y-53167001D01*
X201708496Y-53167001D01*
X201745919Y-53170687D01*
X201783342Y-53167001D01*
X201876184Y-53167001D01*
X201965738Y-53301028D01*
X202095972Y-53431262D01*
X202249111Y-53533586D01*
X202419271Y-53604068D01*
X202565451Y-53633145D01*
X202520460Y-53741764D01*
X202473000Y-53980363D01*
X202473000Y-54223637D01*
X202520460Y-54462236D01*
X202613557Y-54686992D01*
X202748713Y-54889267D01*
X202920733Y-55061287D01*
X203123008Y-55196443D01*
X203347764Y-55289540D01*
X203500002Y-55319822D01*
X203500001Y-64850999D01*
X199981423Y-64850999D01*
X199944000Y-64847313D01*
X199906577Y-64850999D01*
X199906575Y-64850999D01*
X199794623Y-64862025D01*
X199650986Y-64905597D01*
X199518609Y-64976354D01*
X199402579Y-65071577D01*
X199378722Y-65100648D01*
X198726820Y-65752550D01*
X198609271Y-65775932D01*
X198439111Y-65846414D01*
X198285972Y-65948738D01*
X198155738Y-66078972D01*
X198053414Y-66232111D01*
X197982932Y-66402271D01*
X197947000Y-66582911D01*
X197947000Y-66767089D01*
X197982932Y-66947729D01*
X198053414Y-67117889D01*
X198155738Y-67271028D01*
X198285972Y-67401262D01*
X198439111Y-67503586D01*
X198609271Y-67574068D01*
X198789911Y-67610000D01*
X198974089Y-67610000D01*
X199154729Y-67574068D01*
X199324889Y-67503586D01*
X199478028Y-67401262D01*
X199608262Y-67271028D01*
X199710586Y-67117889D01*
X199781068Y-66947729D01*
X199804450Y-66830180D01*
X200259632Y-66374999D01*
X203500001Y-66374999D01*
X203500001Y-67561665D01*
X203500002Y-67561675D01*
X203500001Y-79243452D01*
X200574857Y-76318309D01*
X200830252Y-76212521D01*
X201108687Y-76026477D01*
X201345477Y-75789687D01*
X201531521Y-75511252D01*
X201659670Y-75201872D01*
X201725000Y-74873435D01*
X201725000Y-74538565D01*
X201659670Y-74210128D01*
X201531521Y-73900748D01*
X201345477Y-73622313D01*
X201108687Y-73385523D01*
X200830252Y-73199479D01*
X200520872Y-73071330D01*
X200287955Y-73025000D01*
X200520872Y-72978670D01*
X200830252Y-72850521D01*
X201108687Y-72664477D01*
X201345477Y-72427687D01*
X201531521Y-72149252D01*
X201659670Y-71839872D01*
X201725000Y-71511435D01*
X201725000Y-71176565D01*
X201659670Y-70848128D01*
X201531521Y-70538748D01*
X201345477Y-70260313D01*
X201108687Y-70023523D01*
X200830252Y-69837479D01*
X200520872Y-69709330D01*
X200192435Y-69644000D01*
X199857565Y-69644000D01*
X199529128Y-69709330D01*
X199219748Y-69837479D01*
X198941313Y-70023523D01*
X198704523Y-70260313D01*
X198518479Y-70538748D01*
X198390330Y-70848128D01*
X198325000Y-71176565D01*
X198325000Y-71511435D01*
X198390330Y-71839872D01*
X198518479Y-72149252D01*
X198704523Y-72427687D01*
X198941313Y-72664477D01*
X199219748Y-72850521D01*
X199529128Y-72978670D01*
X199762045Y-73025000D01*
X199529128Y-73071330D01*
X199219748Y-73199479D01*
X198941313Y-73385523D01*
X198911391Y-73415445D01*
X198846262Y-73317972D01*
X198716028Y-73187738D01*
X198562889Y-73085414D01*
X198392729Y-73014932D01*
X198212089Y-72979000D01*
X198027911Y-72979000D01*
X197847271Y-73014932D01*
X197677111Y-73085414D01*
X197523972Y-73187738D01*
X197393738Y-73317972D01*
X197291414Y-73471111D01*
X197220932Y-73641271D01*
X197185000Y-73821911D01*
X197185000Y-74006089D01*
X197220932Y-74186729D01*
X197252533Y-74263020D01*
X196264166Y-73274654D01*
X196240304Y-73245578D01*
X196124274Y-73150355D01*
X195991897Y-73079598D01*
X195848260Y-73036026D01*
X195736308Y-73025000D01*
X195736305Y-73025000D01*
X195698882Y-73021314D01*
X195661459Y-73025000D01*
X194598542Y-73025000D01*
X194498889Y-72958414D01*
X194328729Y-72887932D01*
X194148089Y-72852000D01*
X193963911Y-72852000D01*
X193783271Y-72887932D01*
X193613111Y-72958414D01*
X193459972Y-73060738D01*
X193362170Y-73158540D01*
X183769000Y-63565370D01*
X183769000Y-63280542D01*
X183835586Y-63180889D01*
X183906068Y-63010729D01*
X183942000Y-62830089D01*
X183942000Y-62645911D01*
X183906068Y-62465271D01*
X183835586Y-62295111D01*
X183733262Y-62141972D01*
X183603028Y-62011738D01*
X183449889Y-61909414D01*
X183279729Y-61838932D01*
X183099089Y-61803000D01*
X182914911Y-61803000D01*
X182734271Y-61838932D01*
X182564111Y-61909414D01*
X182410972Y-62011738D01*
X182280738Y-62141972D01*
X182178414Y-62295111D01*
X182107932Y-62465271D01*
X182072000Y-62645911D01*
X182072000Y-62830089D01*
X182107932Y-63010729D01*
X182178414Y-63180889D01*
X182245001Y-63280543D01*
X182245000Y-63843576D01*
X182241314Y-63881000D01*
X182245000Y-63918423D01*
X182245000Y-63918425D01*
X182256026Y-64030377D01*
X182299598Y-64174014D01*
X182299599Y-64174015D01*
X182370355Y-64306392D01*
X182409499Y-64354089D01*
X182465578Y-64422422D01*
X182494654Y-64446284D01*
X187361370Y-69313000D01*
X187101002Y-69313000D01*
X186807912Y-69341867D01*
X186431853Y-69455943D01*
X186085275Y-69641193D01*
X185781497Y-69890497D01*
X185532193Y-70194275D01*
X185346943Y-70540853D01*
X185232867Y-70916912D01*
X185194348Y-71308000D01*
X185232867Y-71699088D01*
X185346943Y-72075147D01*
X185532193Y-72421725D01*
X185781497Y-72725503D01*
X186085275Y-72974807D01*
X186104345Y-72985000D01*
X186085275Y-72995193D01*
X185781497Y-73244497D01*
X185532193Y-73548275D01*
X185346943Y-73894853D01*
X185232867Y-74270912D01*
X185194348Y-74662000D01*
X185232867Y-75053088D01*
X185346943Y-75429147D01*
X185532193Y-75775725D01*
X185781497Y-76079503D01*
X186085275Y-76328807D01*
X186431853Y-76514057D01*
X186807912Y-76628133D01*
X187101002Y-76657000D01*
X187816998Y-76657000D01*
X188110088Y-76628133D01*
X188486147Y-76514057D01*
X188832725Y-76328807D01*
X189136503Y-76079503D01*
X189385807Y-75775725D01*
X189571057Y-75429147D01*
X189601767Y-75327911D01*
X189676111Y-75377586D01*
X189846271Y-75448068D01*
X189963820Y-75471450D01*
X191835370Y-77343000D01*
X181497072Y-77343000D01*
X181497072Y-76062000D01*
X181484812Y-75937518D01*
X181448502Y-75817820D01*
X181389537Y-75707506D01*
X181310185Y-75610815D01*
X181213494Y-75531463D01*
X181103180Y-75472498D01*
X180983482Y-75436188D01*
X180859000Y-75423928D01*
X179059000Y-75423928D01*
X178934518Y-75436188D01*
X178814820Y-75472498D01*
X178704506Y-75531463D01*
X178607815Y-75610815D01*
X178586864Y-75636343D01*
X178608000Y-75530089D01*
X178608000Y-75345911D01*
X178572068Y-75165271D01*
X178501586Y-74995111D01*
X178399262Y-74841972D01*
X178269028Y-74711738D01*
X178115889Y-74609414D01*
X177945729Y-74538932D01*
X177765089Y-74503000D01*
X177601813Y-74503000D01*
X177601813Y-73393223D01*
X177611881Y-73368916D01*
X177647813Y-73188276D01*
X177647813Y-73004098D01*
X177611881Y-72823458D01*
X177601813Y-72799151D01*
X177601813Y-70072080D01*
X179074525Y-70072080D01*
X179158208Y-70326261D01*
X179430775Y-70457158D01*
X179723642Y-70532365D01*
X180025553Y-70548991D01*
X180324907Y-70506397D01*
X180610199Y-70406222D01*
X180759792Y-70326261D01*
X180843475Y-70072080D01*
X179959000Y-69187605D01*
X179074525Y-70072080D01*
X177601813Y-70072080D01*
X177601813Y-69074553D01*
X178418009Y-69074553D01*
X178460603Y-69373907D01*
X178560778Y-69659199D01*
X178640739Y-69808792D01*
X178894920Y-69892475D01*
X179779395Y-69008000D01*
X180138605Y-69008000D01*
X181023080Y-69892475D01*
X181277261Y-69808792D01*
X181408158Y-69536225D01*
X181483365Y-69243358D01*
X181499991Y-68941447D01*
X181457397Y-68642093D01*
X181357222Y-68356801D01*
X181277261Y-68207208D01*
X181023080Y-68123525D01*
X180138605Y-69008000D01*
X179779395Y-69008000D01*
X178894920Y-68123525D01*
X178640739Y-68207208D01*
X178509842Y-68479775D01*
X178434635Y-68772642D01*
X178418009Y-69074553D01*
X177601813Y-69074553D01*
X177601813Y-63108000D01*
X178420928Y-63108000D01*
X178420928Y-64908000D01*
X178433188Y-65032482D01*
X178469498Y-65152180D01*
X178528463Y-65262494D01*
X178607815Y-65359185D01*
X178704506Y-65438537D01*
X178804303Y-65491880D01*
X178766688Y-65529495D01*
X178598701Y-65780905D01*
X178482989Y-66060257D01*
X178424000Y-66356816D01*
X178424000Y-66659184D01*
X178482989Y-66955743D01*
X178598701Y-67235095D01*
X178766688Y-67486505D01*
X178980495Y-67700312D01*
X179123310Y-67795738D01*
X179074525Y-67943920D01*
X179959000Y-68828395D01*
X180843475Y-67943920D01*
X180794690Y-67795738D01*
X180937505Y-67700312D01*
X181151312Y-67486505D01*
X181319299Y-67235095D01*
X181435011Y-66955743D01*
X181494000Y-66659184D01*
X181494000Y-66356816D01*
X181443201Y-66101429D01*
X181752347Y-65792283D01*
X181781423Y-65768421D01*
X181876646Y-65652391D01*
X181947403Y-65520014D01*
X181990975Y-65376377D01*
X182002001Y-65264425D01*
X182002001Y-65264423D01*
X182005687Y-65227000D01*
X182002001Y-65189577D01*
X182002001Y-61912470D01*
X185277208Y-58637263D01*
X185346943Y-58867147D01*
X185532193Y-59213725D01*
X185781497Y-59517503D01*
X186085275Y-59766807D01*
X186341945Y-59904000D01*
X186085275Y-60041193D01*
X185781497Y-60290497D01*
X185532193Y-60594275D01*
X185346943Y-60940853D01*
X185232867Y-61316912D01*
X185194348Y-61708000D01*
X185232867Y-62099088D01*
X185346943Y-62475147D01*
X185532193Y-62821725D01*
X185781497Y-63125503D01*
X186027022Y-63327000D01*
X185962911Y-63327000D01*
X185782271Y-63362932D01*
X185612111Y-63433414D01*
X185458972Y-63535738D01*
X185328738Y-63665972D01*
X185226414Y-63819111D01*
X185155932Y-63989271D01*
X185120000Y-64169911D01*
X185120000Y-64354089D01*
X185155932Y-64534729D01*
X185226414Y-64704889D01*
X185328738Y-64858028D01*
X185458972Y-64988262D01*
X185612111Y-65090586D01*
X185782271Y-65161068D01*
X185962911Y-65197000D01*
X186147089Y-65197000D01*
X186327729Y-65161068D01*
X186497889Y-65090586D01*
X186597542Y-65024000D01*
X198769577Y-65024000D01*
X198807000Y-65027686D01*
X198844423Y-65024000D01*
X198844426Y-65024000D01*
X198956378Y-65012974D01*
X199100015Y-64969402D01*
X199232392Y-64898645D01*
X199348422Y-64803422D01*
X199372284Y-64774346D01*
X199485876Y-64660754D01*
X199529128Y-64678670D01*
X199857565Y-64744000D01*
X200192435Y-64744000D01*
X200520872Y-64678670D01*
X200830252Y-64550521D01*
X201108687Y-64364477D01*
X201345477Y-64127687D01*
X201531521Y-63849252D01*
X201659670Y-63539872D01*
X201725000Y-63211435D01*
X201725000Y-62876565D01*
X201659670Y-62548128D01*
X201531521Y-62238748D01*
X201345477Y-61960313D01*
X201108687Y-61723523D01*
X200830252Y-61537479D01*
X200729860Y-61495895D01*
X200990000Y-61497072D01*
X201114482Y-61484812D01*
X201234180Y-61448502D01*
X201344494Y-61389537D01*
X201441185Y-61310185D01*
X201520537Y-61213494D01*
X201579502Y-61103180D01*
X201615812Y-60983482D01*
X201628072Y-60859000D01*
X201625000Y-60229750D01*
X201466250Y-60071000D01*
X200152000Y-60071000D01*
X200152000Y-60091000D01*
X199898000Y-60091000D01*
X199898000Y-60071000D01*
X198583750Y-60071000D01*
X198425000Y-60229750D01*
X198421928Y-60859000D01*
X198434188Y-60983482D01*
X198470498Y-61103180D01*
X198529463Y-61213494D01*
X198608815Y-61310185D01*
X198705506Y-61389537D01*
X198815820Y-61448502D01*
X198935518Y-61484812D01*
X199060000Y-61497072D01*
X199320140Y-61495895D01*
X199219748Y-61537479D01*
X198941313Y-61723523D01*
X198704523Y-61960313D01*
X198518479Y-62238748D01*
X198390330Y-62548128D01*
X198325000Y-62876565D01*
X198325000Y-63211435D01*
X198382399Y-63500000D01*
X188598506Y-63500000D01*
X188832725Y-63374807D01*
X189136503Y-63125503D01*
X189385807Y-62821725D01*
X189571057Y-62475147D01*
X189685133Y-62099088D01*
X189723652Y-61708000D01*
X189685133Y-61316912D01*
X189571057Y-60940853D01*
X189385807Y-60594275D01*
X189136503Y-60290497D01*
X188832725Y-60041193D01*
X188576055Y-59904000D01*
X188832725Y-59766807D01*
X189136503Y-59517503D01*
X189385807Y-59213725D01*
X189571057Y-58867147D01*
X189685133Y-58491088D01*
X189723652Y-58100000D01*
X189685133Y-57708912D01*
X189571057Y-57332853D01*
X189457814Y-57120990D01*
X192523587Y-57120990D01*
X192561010Y-57124676D01*
X192598433Y-57120990D01*
X192598436Y-57120990D01*
X192710388Y-57109964D01*
X192854025Y-57066392D01*
X192869891Y-57057911D01*
X196931000Y-57057911D01*
X196931000Y-57242089D01*
X196966932Y-57422729D01*
X197037414Y-57592889D01*
X197139738Y-57746028D01*
X197269972Y-57876262D01*
X197423111Y-57978586D01*
X197593271Y-58049068D01*
X197710820Y-58072450D01*
X198443721Y-58805352D01*
X198458724Y-58823633D01*
X198434188Y-58904518D01*
X198421928Y-59029000D01*
X198425000Y-59658250D01*
X198583750Y-59817000D01*
X199898000Y-59817000D01*
X199898000Y-59797000D01*
X200152000Y-59797000D01*
X200152000Y-59817000D01*
X201466250Y-59817000D01*
X201625000Y-59658250D01*
X201627100Y-59228000D01*
X201641089Y-59228000D01*
X201821729Y-59192068D01*
X201991889Y-59121586D01*
X202145028Y-59019262D01*
X202275262Y-58889028D01*
X202377586Y-58735889D01*
X202448068Y-58565729D01*
X202484000Y-58385089D01*
X202484000Y-58200911D01*
X202448068Y-58020271D01*
X202377586Y-57850111D01*
X202275262Y-57696972D01*
X202145028Y-57566738D01*
X201991889Y-57464414D01*
X201821729Y-57393932D01*
X201651318Y-57360035D01*
X201659670Y-57339872D01*
X201725000Y-57011435D01*
X201725000Y-56676565D01*
X201659670Y-56348128D01*
X201531521Y-56038748D01*
X201345477Y-55760313D01*
X201108687Y-55523523D01*
X200830252Y-55337479D01*
X200520872Y-55209330D01*
X200192435Y-55144000D01*
X199857565Y-55144000D01*
X199529128Y-55209330D01*
X199219748Y-55337479D01*
X198941313Y-55523523D01*
X198704523Y-55760313D01*
X198518479Y-56038748D01*
X198390330Y-56348128D01*
X198385466Y-56372581D01*
X198308889Y-56321414D01*
X198138729Y-56250932D01*
X197958089Y-56215000D01*
X197773911Y-56215000D01*
X197593271Y-56250932D01*
X197423111Y-56321414D01*
X197269972Y-56423738D01*
X197139738Y-56553972D01*
X197037414Y-56707111D01*
X196966932Y-56877271D01*
X196931000Y-57057911D01*
X192869891Y-57057911D01*
X192986402Y-56995635D01*
X193102432Y-56900412D01*
X193126294Y-56871336D01*
X193576180Y-56421450D01*
X193693729Y-56398068D01*
X193863889Y-56327586D01*
X194017028Y-56225262D01*
X194147262Y-56095028D01*
X194249586Y-55941889D01*
X194320068Y-55771729D01*
X194356000Y-55591089D01*
X194356000Y-55406911D01*
X194320068Y-55226271D01*
X194249586Y-55056111D01*
X194147262Y-54902972D01*
X194017028Y-54772738D01*
X193863889Y-54670414D01*
X193693729Y-54599932D01*
X193513089Y-54564000D01*
X193328911Y-54564000D01*
X193148271Y-54599932D01*
X192978111Y-54670414D01*
X192824972Y-54772738D01*
X192694738Y-54902972D01*
X192592414Y-55056111D01*
X192521932Y-55226271D01*
X192498550Y-55343820D01*
X192245380Y-55596990D01*
X186515274Y-55596990D01*
X186477851Y-55593304D01*
X186440428Y-55596990D01*
X186440425Y-55596990D01*
X186328473Y-55608016D01*
X186184836Y-55651588D01*
X186170713Y-55659137D01*
X186052458Y-55722345D01*
X186010070Y-55757133D01*
X185936429Y-55817568D01*
X185912567Y-55846644D01*
X180727655Y-61031556D01*
X180698579Y-61055418D01*
X180642984Y-61123162D01*
X180603356Y-61171448D01*
X180580882Y-61213494D01*
X180532599Y-61303826D01*
X180489027Y-61447463D01*
X180478001Y-61559414D01*
X180474315Y-61596840D01*
X180478001Y-61634263D01*
X180478001Y-62469928D01*
X179059000Y-62469928D01*
X178934518Y-62482188D01*
X178814820Y-62518498D01*
X178704506Y-62577463D01*
X178607815Y-62656815D01*
X178528463Y-62753506D01*
X178469498Y-62863820D01*
X178433188Y-62983518D01*
X178420928Y-63108000D01*
X177601813Y-63108000D01*
X177601813Y-61498264D01*
X183350737Y-55749340D01*
X183384659Y-55721501D01*
X183495753Y-55586133D01*
X183578303Y-55431693D01*
X183621424Y-55289540D01*
X183629136Y-55264118D01*
X183632406Y-55230918D01*
X183642000Y-55133509D01*
X183642000Y-55133503D01*
X183646300Y-55089843D01*
X183642000Y-55046183D01*
X183642000Y-53975000D01*
X187544458Y-53975000D01*
X187644111Y-54041586D01*
X187814271Y-54112068D01*
X187994911Y-54148000D01*
X188179089Y-54148000D01*
X188359729Y-54112068D01*
X188529889Y-54041586D01*
X188683028Y-53939262D01*
X188813262Y-53809028D01*
X188915586Y-53655889D01*
X188986068Y-53485729D01*
X189022000Y-53305089D01*
X189022000Y-53120911D01*
X188986068Y-52940271D01*
X188941221Y-52832000D01*
X192497458Y-52832000D01*
X192597111Y-52898586D01*
X192767271Y-52969068D01*
X192947911Y-53005000D01*
X193132089Y-53005000D01*
X193312729Y-52969068D01*
X193482889Y-52898586D01*
X193636028Y-52796262D01*
X193766262Y-52666028D01*
X193868586Y-52512889D01*
X193939068Y-52342729D01*
X193975000Y-52162089D01*
X193975000Y-51977911D01*
X193939068Y-51797271D01*
X193868586Y-51627111D01*
X193766262Y-51473972D01*
X193636028Y-51343738D01*
X193482889Y-51241414D01*
X193312729Y-51170932D01*
X193132089Y-51135000D01*
X192947911Y-51135000D01*
X192767271Y-51170932D01*
X192597111Y-51241414D01*
X192497458Y-51308000D01*
X181497072Y-51308000D01*
X181497072Y-49900000D01*
X181484812Y-49775518D01*
X181448502Y-49655820D01*
X181389537Y-49545506D01*
X181310185Y-49448815D01*
X181213494Y-49369463D01*
X181103180Y-49310498D01*
X180983482Y-49274188D01*
X180859000Y-49261928D01*
X179059000Y-49261928D01*
X178934518Y-49274188D01*
X178814820Y-49310498D01*
X178704506Y-49369463D01*
X178607815Y-49448815D01*
X178528463Y-49545506D01*
X178469498Y-49655820D01*
X178433188Y-49775518D01*
X178420928Y-49900000D01*
X178420928Y-51700000D01*
X178433188Y-51824482D01*
X178469498Y-51944180D01*
X178528463Y-52054494D01*
X178607815Y-52151185D01*
X178704506Y-52230537D01*
X178804303Y-52283880D01*
X178766688Y-52321495D01*
X178598701Y-52572905D01*
X178482989Y-52852257D01*
X178424000Y-53148816D01*
X178424000Y-53451184D01*
X178482989Y-53747743D01*
X178598701Y-54027095D01*
X178766688Y-54278505D01*
X178980495Y-54492312D01*
X179123310Y-54587738D01*
X179074525Y-54735920D01*
X179959000Y-55620395D01*
X180843475Y-54735920D01*
X180794690Y-54587738D01*
X180937505Y-54492312D01*
X181151312Y-54278505D01*
X181319299Y-54027095D01*
X181435011Y-53747743D01*
X181494000Y-53451184D01*
X181494000Y-53148816D01*
X181443201Y-52893429D01*
X181504630Y-52832000D01*
X182125413Y-52832000D01*
X182121342Y-52835341D01*
X182010248Y-52970709D01*
X181927698Y-53125149D01*
X181876865Y-53292726D01*
X181864001Y-53423333D01*
X181864000Y-54721607D01*
X181377904Y-55207703D01*
X181357222Y-55148801D01*
X181277261Y-54999208D01*
X181023080Y-54915525D01*
X180138605Y-55800000D01*
X180152748Y-55814143D01*
X179973143Y-55993748D01*
X179959000Y-55979605D01*
X179074525Y-56864080D01*
X179158208Y-57118261D01*
X179367051Y-57218556D01*
X176115072Y-60470535D01*
X176081155Y-60498370D01*
X176053320Y-60532287D01*
X176053318Y-60532289D01*
X175970061Y-60633738D01*
X175887511Y-60788177D01*
X175836677Y-60955755D01*
X175819513Y-61130029D01*
X175823814Y-61173699D01*
X175823813Y-72799151D01*
X175813745Y-72823458D01*
X175777813Y-73004098D01*
X175777813Y-73188276D01*
X175813745Y-73368916D01*
X175823814Y-73393225D01*
X175823813Y-83475571D01*
X175753526Y-83545858D01*
X175618370Y-83748133D01*
X175525273Y-83972889D01*
X175477813Y-84211488D01*
X175477813Y-84454762D01*
X175525273Y-84693361D01*
X175618370Y-84918117D01*
X175753526Y-85120392D01*
X175823813Y-85190679D01*
X175823814Y-124868511D01*
X175823813Y-124868521D01*
X175823814Y-147967143D01*
X175819513Y-148010813D01*
X175836677Y-148185087D01*
X175887511Y-148352665D01*
X175897264Y-148370911D01*
X175970061Y-148507104D01*
X176081155Y-148642472D01*
X176115072Y-148670307D01*
X177708000Y-150263236D01*
X177708000Y-150362637D01*
X177755460Y-150601236D01*
X177848557Y-150825992D01*
X177983713Y-151028267D01*
X178155733Y-151200287D01*
X178358008Y-151335443D01*
X178582764Y-151428540D01*
X178821363Y-151476000D01*
X179064637Y-151476000D01*
X179303236Y-151428540D01*
X179527992Y-151335443D01*
X179730267Y-151200287D01*
X179902287Y-151028267D01*
X180037443Y-150825992D01*
X180119464Y-150627976D01*
X181011487Y-151520000D01*
X171667709Y-151520000D01*
X171945872Y-151464670D01*
X172255252Y-151336521D01*
X172533687Y-151150477D01*
X172770477Y-150913687D01*
X172956521Y-150635252D01*
X173084670Y-150325872D01*
X173150000Y-149997435D01*
X173150000Y-149662565D01*
X173084670Y-149334128D01*
X172956521Y-149024748D01*
X172770477Y-148746313D01*
X172533687Y-148509523D01*
X172255252Y-148323479D01*
X171945872Y-148195330D01*
X171617435Y-148130000D01*
X171282565Y-148130000D01*
X170954128Y-148195330D01*
X170644748Y-148323479D01*
X170366313Y-148509523D01*
X170129523Y-148746313D01*
X169943479Y-149024748D01*
X169815330Y-149334128D01*
X169750000Y-149662565D01*
X169750000Y-149997435D01*
X169815330Y-150325872D01*
X169943479Y-150635252D01*
X170129523Y-150913687D01*
X170366313Y-151150477D01*
X170644748Y-151336521D01*
X170954128Y-151464670D01*
X171232291Y-151520000D01*
X166395000Y-151520000D01*
X166395000Y-141362565D01*
X169750000Y-141362565D01*
X169750000Y-141697435D01*
X169815330Y-142025872D01*
X169943479Y-142335252D01*
X170129523Y-142613687D01*
X170366313Y-142850477D01*
X170644748Y-143036521D01*
X170954128Y-143164670D01*
X171282565Y-143230000D01*
X171617435Y-143230000D01*
X171945872Y-143164670D01*
X172255252Y-143036521D01*
X172533687Y-142850477D01*
X172770477Y-142613687D01*
X172956521Y-142335252D01*
X173084670Y-142025872D01*
X173150000Y-141697435D01*
X173150000Y-141362565D01*
X173084670Y-141034128D01*
X172956521Y-140724748D01*
X172770477Y-140446313D01*
X172533687Y-140209523D01*
X172255252Y-140023479D01*
X172154860Y-139981895D01*
X172415000Y-139983072D01*
X172539482Y-139970812D01*
X172659180Y-139934502D01*
X172769494Y-139875537D01*
X172866185Y-139796185D01*
X172945537Y-139699494D01*
X173004502Y-139589180D01*
X173040812Y-139469482D01*
X173053072Y-139345000D01*
X173050000Y-138715750D01*
X172891250Y-138557000D01*
X171577000Y-138557000D01*
X171577000Y-138577000D01*
X171323000Y-138577000D01*
X171323000Y-138557000D01*
X170008750Y-138557000D01*
X169850000Y-138715750D01*
X169846928Y-139345000D01*
X169859188Y-139469482D01*
X169895498Y-139589180D01*
X169954463Y-139699494D01*
X170033815Y-139796185D01*
X170130506Y-139875537D01*
X170240820Y-139934502D01*
X170360518Y-139970812D01*
X170485000Y-139983072D01*
X170745140Y-139981895D01*
X170644748Y-140023479D01*
X170366313Y-140209523D01*
X170129523Y-140446313D01*
X169943479Y-140724748D01*
X169815330Y-141034128D01*
X169750000Y-141362565D01*
X166395000Y-141362565D01*
X166395000Y-135162565D01*
X169750000Y-135162565D01*
X169750000Y-135497435D01*
X169815330Y-135825872D01*
X169943479Y-136135252D01*
X170129523Y-136413687D01*
X170366313Y-136650477D01*
X170644748Y-136836521D01*
X170745140Y-136878105D01*
X170485000Y-136876928D01*
X170360518Y-136889188D01*
X170240820Y-136925498D01*
X170130506Y-136984463D01*
X170033815Y-137063815D01*
X169954463Y-137160506D01*
X169895498Y-137270820D01*
X169859188Y-137390518D01*
X169846928Y-137515000D01*
X169850000Y-138144250D01*
X170008750Y-138303000D01*
X171323000Y-138303000D01*
X171323000Y-138283000D01*
X171577000Y-138283000D01*
X171577000Y-138303000D01*
X172891250Y-138303000D01*
X173050000Y-138144250D01*
X173053072Y-137515000D01*
X173040812Y-137390518D01*
X173004502Y-137270820D01*
X172945537Y-137160506D01*
X172866185Y-137063815D01*
X172769494Y-136984463D01*
X172659180Y-136925498D01*
X172539482Y-136889188D01*
X172415000Y-136876928D01*
X172154860Y-136878105D01*
X172255252Y-136836521D01*
X172533687Y-136650477D01*
X172770477Y-136413687D01*
X172956521Y-136135252D01*
X173084670Y-135825872D01*
X173150000Y-135497435D01*
X173150000Y-135162565D01*
X173084670Y-134834128D01*
X172956521Y-134524748D01*
X172770477Y-134246313D01*
X172533687Y-134009523D01*
X172255252Y-133823479D01*
X171945872Y-133695330D01*
X171617435Y-133630000D01*
X171282565Y-133630000D01*
X170954128Y-133695330D01*
X170644748Y-133823479D01*
X170366313Y-134009523D01*
X170129523Y-134246313D01*
X169943479Y-134524748D01*
X169815330Y-134834128D01*
X169750000Y-135162565D01*
X166395000Y-135162565D01*
X166395000Y-123500565D01*
X169750000Y-123500565D01*
X169750000Y-123835435D01*
X169815330Y-124163872D01*
X169943479Y-124473252D01*
X170129523Y-124751687D01*
X170366313Y-124988477D01*
X170644748Y-125174521D01*
X170954128Y-125302670D01*
X171187045Y-125349000D01*
X170954128Y-125395330D01*
X170644748Y-125523479D01*
X170366313Y-125709523D01*
X170129523Y-125946313D01*
X169943479Y-126224748D01*
X169815330Y-126534128D01*
X169750000Y-126862565D01*
X169750000Y-127197435D01*
X169815330Y-127525872D01*
X169943479Y-127835252D01*
X170129523Y-128113687D01*
X170366313Y-128350477D01*
X170644748Y-128536521D01*
X170954128Y-128664670D01*
X171282565Y-128730000D01*
X171617435Y-128730000D01*
X171945872Y-128664670D01*
X172255252Y-128536521D01*
X172533687Y-128350477D01*
X172770477Y-128113687D01*
X172956521Y-127835252D01*
X173084670Y-127525872D01*
X173150000Y-127197435D01*
X173150000Y-126862565D01*
X173084670Y-126534128D01*
X172956521Y-126224748D01*
X172770477Y-125946313D01*
X172533687Y-125709523D01*
X172255252Y-125523479D01*
X171945872Y-125395330D01*
X171712955Y-125349000D01*
X171945872Y-125302670D01*
X172255252Y-125174521D01*
X172533687Y-124988477D01*
X172770477Y-124751687D01*
X172956521Y-124473252D01*
X173084670Y-124163872D01*
X173150000Y-123835435D01*
X173150000Y-123500565D01*
X173084670Y-123172128D01*
X172956521Y-122862748D01*
X172770477Y-122584313D01*
X172533687Y-122347523D01*
X172255252Y-122161479D01*
X171945872Y-122033330D01*
X171617435Y-121968000D01*
X171282565Y-121968000D01*
X170954128Y-122033330D01*
X170644748Y-122161479D01*
X170366313Y-122347523D01*
X170129523Y-122584313D01*
X169943479Y-122862748D01*
X169815330Y-123172128D01*
X169750000Y-123500565D01*
X166395000Y-123500565D01*
X166395000Y-115200565D01*
X169750000Y-115200565D01*
X169750000Y-115535435D01*
X169815330Y-115863872D01*
X169943479Y-116173252D01*
X170129523Y-116451687D01*
X170366313Y-116688477D01*
X170644748Y-116874521D01*
X170954128Y-117002670D01*
X171282565Y-117068000D01*
X171617435Y-117068000D01*
X171945872Y-117002670D01*
X172255252Y-116874521D01*
X172533687Y-116688477D01*
X172770477Y-116451687D01*
X172956521Y-116173252D01*
X173084670Y-115863872D01*
X173150000Y-115535435D01*
X173150000Y-115200565D01*
X173084670Y-114872128D01*
X172956521Y-114562748D01*
X172770477Y-114284313D01*
X172533687Y-114047523D01*
X172255252Y-113861479D01*
X172154860Y-113819895D01*
X172415000Y-113821072D01*
X172539482Y-113808812D01*
X172659180Y-113772502D01*
X172769494Y-113713537D01*
X172866185Y-113634185D01*
X172945537Y-113537494D01*
X173004502Y-113427180D01*
X173040812Y-113307482D01*
X173053072Y-113183000D01*
X173050000Y-112553750D01*
X172891250Y-112395000D01*
X171577000Y-112395000D01*
X171577000Y-112415000D01*
X171323000Y-112415000D01*
X171323000Y-112395000D01*
X170008750Y-112395000D01*
X169850000Y-112553750D01*
X169846928Y-113183000D01*
X169859188Y-113307482D01*
X169895498Y-113427180D01*
X169954463Y-113537494D01*
X170033815Y-113634185D01*
X170130506Y-113713537D01*
X170240820Y-113772502D01*
X170360518Y-113808812D01*
X170485000Y-113821072D01*
X170745140Y-113819895D01*
X170644748Y-113861479D01*
X170366313Y-114047523D01*
X170129523Y-114284313D01*
X169943479Y-114562748D01*
X169815330Y-114872128D01*
X169750000Y-115200565D01*
X166395000Y-115200565D01*
X166395000Y-109000565D01*
X169750000Y-109000565D01*
X169750000Y-109335435D01*
X169815330Y-109663872D01*
X169943479Y-109973252D01*
X170129523Y-110251687D01*
X170366313Y-110488477D01*
X170644748Y-110674521D01*
X170745140Y-110716105D01*
X170485000Y-110714928D01*
X170360518Y-110727188D01*
X170240820Y-110763498D01*
X170130506Y-110822463D01*
X170033815Y-110901815D01*
X169954463Y-110998506D01*
X169895498Y-111108820D01*
X169859188Y-111228518D01*
X169846928Y-111353000D01*
X169850000Y-111982250D01*
X170008750Y-112141000D01*
X171323000Y-112141000D01*
X171323000Y-112121000D01*
X171577000Y-112121000D01*
X171577000Y-112141000D01*
X172891250Y-112141000D01*
X173050000Y-111982250D01*
X173053072Y-111353000D01*
X173040812Y-111228518D01*
X173004502Y-111108820D01*
X172945537Y-110998506D01*
X172866185Y-110901815D01*
X172769494Y-110822463D01*
X172659180Y-110763498D01*
X172539482Y-110727188D01*
X172415000Y-110714928D01*
X172154860Y-110716105D01*
X172255252Y-110674521D01*
X172533687Y-110488477D01*
X172770477Y-110251687D01*
X172956521Y-109973252D01*
X173084670Y-109663872D01*
X173150000Y-109335435D01*
X173150000Y-109000565D01*
X173084670Y-108672128D01*
X172956521Y-108362748D01*
X172770477Y-108084313D01*
X172533687Y-107847523D01*
X172255252Y-107661479D01*
X171945872Y-107533330D01*
X171617435Y-107468000D01*
X171282565Y-107468000D01*
X170954128Y-107533330D01*
X170644748Y-107661479D01*
X170366313Y-107847523D01*
X170129523Y-108084313D01*
X169943479Y-108362748D01*
X169815330Y-108672128D01*
X169750000Y-109000565D01*
X166395000Y-109000565D01*
X166395000Y-97338565D01*
X169750000Y-97338565D01*
X169750000Y-97673435D01*
X169815330Y-98001872D01*
X169943479Y-98311252D01*
X170129523Y-98589687D01*
X170366313Y-98826477D01*
X170644748Y-99012521D01*
X170954128Y-99140670D01*
X171187045Y-99187000D01*
X170954128Y-99233330D01*
X170644748Y-99361479D01*
X170366313Y-99547523D01*
X170129523Y-99784313D01*
X169943479Y-100062748D01*
X169815330Y-100372128D01*
X169750000Y-100700565D01*
X169750000Y-101035435D01*
X169815330Y-101363872D01*
X169943479Y-101673252D01*
X170129523Y-101951687D01*
X170366313Y-102188477D01*
X170644748Y-102374521D01*
X170954128Y-102502670D01*
X171282565Y-102568000D01*
X171617435Y-102568000D01*
X171945872Y-102502670D01*
X172255252Y-102374521D01*
X172533687Y-102188477D01*
X172770477Y-101951687D01*
X172956521Y-101673252D01*
X173084670Y-101363872D01*
X173150000Y-101035435D01*
X173150000Y-100700565D01*
X173084670Y-100372128D01*
X172956521Y-100062748D01*
X172770477Y-99784313D01*
X172533687Y-99547523D01*
X172255252Y-99361479D01*
X171945872Y-99233330D01*
X171712955Y-99187000D01*
X171945872Y-99140670D01*
X172255252Y-99012521D01*
X172533687Y-98826477D01*
X172770477Y-98589687D01*
X172956521Y-98311252D01*
X173084670Y-98001872D01*
X173150000Y-97673435D01*
X173150000Y-97338565D01*
X173084670Y-97010128D01*
X172956521Y-96700748D01*
X172770477Y-96422313D01*
X172533687Y-96185523D01*
X172255252Y-95999479D01*
X171945872Y-95871330D01*
X171617435Y-95806000D01*
X171282565Y-95806000D01*
X170954128Y-95871330D01*
X170644748Y-95999479D01*
X170366313Y-96185523D01*
X170129523Y-96422313D01*
X169943479Y-96700748D01*
X169815330Y-97010128D01*
X169750000Y-97338565D01*
X166395000Y-97338565D01*
X166395000Y-89038565D01*
X169750000Y-89038565D01*
X169750000Y-89373435D01*
X169815330Y-89701872D01*
X169943479Y-90011252D01*
X170129523Y-90289687D01*
X170366313Y-90526477D01*
X170644748Y-90712521D01*
X170954128Y-90840670D01*
X171282565Y-90906000D01*
X171617435Y-90906000D01*
X171945872Y-90840670D01*
X172255252Y-90712521D01*
X172533687Y-90526477D01*
X172770477Y-90289687D01*
X172956521Y-90011252D01*
X173084670Y-89701872D01*
X173150000Y-89373435D01*
X173150000Y-89038565D01*
X173084670Y-88710128D01*
X172956521Y-88400748D01*
X172770477Y-88122313D01*
X172533687Y-87885523D01*
X172255252Y-87699479D01*
X172154860Y-87657895D01*
X172415000Y-87659072D01*
X172539482Y-87646812D01*
X172659180Y-87610502D01*
X172769494Y-87551537D01*
X172866185Y-87472185D01*
X172945537Y-87375494D01*
X173004502Y-87265180D01*
X173040812Y-87145482D01*
X173053072Y-87021000D01*
X173050000Y-86391750D01*
X172891250Y-86233000D01*
X171577000Y-86233000D01*
X171577000Y-86253000D01*
X171323000Y-86253000D01*
X171323000Y-86233000D01*
X170008750Y-86233000D01*
X169850000Y-86391750D01*
X169846928Y-87021000D01*
X169859188Y-87145482D01*
X169895498Y-87265180D01*
X169954463Y-87375494D01*
X170033815Y-87472185D01*
X170130506Y-87551537D01*
X170240820Y-87610502D01*
X170360518Y-87646812D01*
X170485000Y-87659072D01*
X170745140Y-87657895D01*
X170644748Y-87699479D01*
X170366313Y-87885523D01*
X170129523Y-88122313D01*
X169943479Y-88400748D01*
X169815330Y-88710128D01*
X169750000Y-89038565D01*
X166395000Y-89038565D01*
X166395000Y-82838565D01*
X169750000Y-82838565D01*
X169750000Y-83173435D01*
X169815330Y-83501872D01*
X169943479Y-83811252D01*
X170129523Y-84089687D01*
X170366313Y-84326477D01*
X170644748Y-84512521D01*
X170745140Y-84554105D01*
X170485000Y-84552928D01*
X170360518Y-84565188D01*
X170240820Y-84601498D01*
X170130506Y-84660463D01*
X170033815Y-84739815D01*
X169954463Y-84836506D01*
X169895498Y-84946820D01*
X169859188Y-85066518D01*
X169846928Y-85191000D01*
X169850000Y-85820250D01*
X170008750Y-85979000D01*
X171323000Y-85979000D01*
X171323000Y-85959000D01*
X171577000Y-85959000D01*
X171577000Y-85979000D01*
X172891250Y-85979000D01*
X173050000Y-85820250D01*
X173053072Y-85191000D01*
X173040812Y-85066518D01*
X173004502Y-84946820D01*
X172945537Y-84836506D01*
X172866185Y-84739815D01*
X172769494Y-84660463D01*
X172659180Y-84601498D01*
X172539482Y-84565188D01*
X172415000Y-84552928D01*
X172154860Y-84554105D01*
X172255252Y-84512521D01*
X172533687Y-84326477D01*
X172770477Y-84089687D01*
X172956521Y-83811252D01*
X173084670Y-83501872D01*
X173150000Y-83173435D01*
X173150000Y-82838565D01*
X173084670Y-82510128D01*
X172956521Y-82200748D01*
X172770477Y-81922313D01*
X172533687Y-81685523D01*
X172255252Y-81499479D01*
X171945872Y-81371330D01*
X171617435Y-81306000D01*
X171282565Y-81306000D01*
X170954128Y-81371330D01*
X170644748Y-81499479D01*
X170366313Y-81685523D01*
X170129523Y-81922313D01*
X169943479Y-82200748D01*
X169815330Y-82510128D01*
X169750000Y-82838565D01*
X166395000Y-82838565D01*
X166395000Y-71176565D01*
X169750000Y-71176565D01*
X169750000Y-71511435D01*
X169815330Y-71839872D01*
X169943479Y-72149252D01*
X170129523Y-72427687D01*
X170366313Y-72664477D01*
X170644748Y-72850521D01*
X170954128Y-72978670D01*
X171187045Y-73025000D01*
X170954128Y-73071330D01*
X170644748Y-73199479D01*
X170366313Y-73385523D01*
X170129523Y-73622313D01*
X169943479Y-73900748D01*
X169815330Y-74210128D01*
X169750000Y-74538565D01*
X169750000Y-74873435D01*
X169815330Y-75201872D01*
X169943479Y-75511252D01*
X170129523Y-75789687D01*
X170366313Y-76026477D01*
X170644748Y-76212521D01*
X170954128Y-76340670D01*
X171282565Y-76406000D01*
X171617435Y-76406000D01*
X171945872Y-76340670D01*
X172255252Y-76212521D01*
X172533687Y-76026477D01*
X172770477Y-75789687D01*
X172956521Y-75511252D01*
X173084670Y-75201872D01*
X173150000Y-74873435D01*
X173150000Y-74538565D01*
X173084670Y-74210128D01*
X172956521Y-73900748D01*
X172770477Y-73622313D01*
X172533687Y-73385523D01*
X172255252Y-73199479D01*
X171945872Y-73071330D01*
X171712955Y-73025000D01*
X171945872Y-72978670D01*
X172255252Y-72850521D01*
X172533687Y-72664477D01*
X172770477Y-72427687D01*
X172956521Y-72149252D01*
X173084670Y-71839872D01*
X173150000Y-71511435D01*
X173150000Y-71176565D01*
X173084670Y-70848128D01*
X172956521Y-70538748D01*
X172770477Y-70260313D01*
X172533687Y-70023523D01*
X172255252Y-69837479D01*
X171945872Y-69709330D01*
X171617435Y-69644000D01*
X171282565Y-69644000D01*
X170954128Y-69709330D01*
X170644748Y-69837479D01*
X170366313Y-70023523D01*
X170129523Y-70260313D01*
X169943479Y-70538748D01*
X169815330Y-70848128D01*
X169750000Y-71176565D01*
X166395000Y-71176565D01*
X166395000Y-62876565D01*
X169750000Y-62876565D01*
X169750000Y-63211435D01*
X169815330Y-63539872D01*
X169943479Y-63849252D01*
X170129523Y-64127687D01*
X170366313Y-64364477D01*
X170644748Y-64550521D01*
X170954128Y-64678670D01*
X171282565Y-64744000D01*
X171617435Y-64744000D01*
X171945872Y-64678670D01*
X172255252Y-64550521D01*
X172533687Y-64364477D01*
X172770477Y-64127687D01*
X172956521Y-63849252D01*
X173084670Y-63539872D01*
X173150000Y-63211435D01*
X173150000Y-62876565D01*
X173084670Y-62548128D01*
X172956521Y-62238748D01*
X172770477Y-61960313D01*
X172533687Y-61723523D01*
X172255252Y-61537479D01*
X172154860Y-61495895D01*
X172415000Y-61497072D01*
X172539482Y-61484812D01*
X172659180Y-61448502D01*
X172769494Y-61389537D01*
X172866185Y-61310185D01*
X172945537Y-61213494D01*
X173004502Y-61103180D01*
X173040812Y-60983482D01*
X173053072Y-60859000D01*
X173050000Y-60229750D01*
X172891250Y-60071000D01*
X171577000Y-60071000D01*
X171577000Y-60091000D01*
X171323000Y-60091000D01*
X171323000Y-60071000D01*
X170008750Y-60071000D01*
X169850000Y-60229750D01*
X169846928Y-60859000D01*
X169859188Y-60983482D01*
X169895498Y-61103180D01*
X169954463Y-61213494D01*
X170033815Y-61310185D01*
X170130506Y-61389537D01*
X170240820Y-61448502D01*
X170360518Y-61484812D01*
X170485000Y-61497072D01*
X170745140Y-61495895D01*
X170644748Y-61537479D01*
X170366313Y-61723523D01*
X170129523Y-61960313D01*
X169943479Y-62238748D01*
X169815330Y-62548128D01*
X169750000Y-62876565D01*
X166395000Y-62876565D01*
X166395000Y-56676565D01*
X169750000Y-56676565D01*
X169750000Y-57011435D01*
X169815330Y-57339872D01*
X169943479Y-57649252D01*
X170129523Y-57927687D01*
X170366313Y-58164477D01*
X170644748Y-58350521D01*
X170745140Y-58392105D01*
X170485000Y-58390928D01*
X170360518Y-58403188D01*
X170240820Y-58439498D01*
X170130506Y-58498463D01*
X170033815Y-58577815D01*
X169954463Y-58674506D01*
X169895498Y-58784820D01*
X169859188Y-58904518D01*
X169846928Y-59029000D01*
X169850000Y-59658250D01*
X170008750Y-59817000D01*
X171323000Y-59817000D01*
X171323000Y-59797000D01*
X171577000Y-59797000D01*
X171577000Y-59817000D01*
X172891250Y-59817000D01*
X173050000Y-59658250D01*
X173053072Y-59029000D01*
X173040812Y-58904518D01*
X173004502Y-58784820D01*
X172945537Y-58674506D01*
X172866185Y-58577815D01*
X172769494Y-58498463D01*
X172659180Y-58439498D01*
X172539482Y-58403188D01*
X172415000Y-58390928D01*
X172154860Y-58392105D01*
X172255252Y-58350521D01*
X172533687Y-58164477D01*
X172770477Y-57927687D01*
X172956521Y-57649252D01*
X173084670Y-57339872D01*
X173150000Y-57011435D01*
X173150000Y-56676565D01*
X173084670Y-56348128D01*
X172956521Y-56038748D01*
X172841465Y-55866553D01*
X178418009Y-55866553D01*
X178460603Y-56165907D01*
X178560778Y-56451199D01*
X178640739Y-56600792D01*
X178894920Y-56684475D01*
X179779395Y-55800000D01*
X178894920Y-54915525D01*
X178640739Y-54999208D01*
X178509842Y-55271775D01*
X178434635Y-55564642D01*
X178418009Y-55866553D01*
X172841465Y-55866553D01*
X172770477Y-55760313D01*
X172533687Y-55523523D01*
X172255252Y-55337479D01*
X171945872Y-55209330D01*
X171617435Y-55144000D01*
X171282565Y-55144000D01*
X170954128Y-55209330D01*
X170644748Y-55337479D01*
X170366313Y-55523523D01*
X170129523Y-55760313D01*
X169943479Y-56038748D01*
X169815330Y-56348128D01*
X169750000Y-56676565D01*
X166395000Y-56676565D01*
X166395000Y-48376565D01*
X169750000Y-48376565D01*
X169750000Y-48711435D01*
X169815330Y-49039872D01*
X169943479Y-49349252D01*
X170129523Y-49627687D01*
X170366313Y-49864477D01*
X170644748Y-50050521D01*
X170954128Y-50178670D01*
X171282565Y-50244000D01*
X171617435Y-50244000D01*
X171945872Y-50178670D01*
X172255252Y-50050521D01*
X172533687Y-49864477D01*
X172770477Y-49627687D01*
X172956521Y-49349252D01*
X173084670Y-49039872D01*
X173150000Y-48711435D01*
X173150000Y-48500000D01*
X185194348Y-48500000D01*
X185232867Y-48891088D01*
X185346943Y-49267147D01*
X185532193Y-49613725D01*
X185781497Y-49917503D01*
X186085275Y-50166807D01*
X186431853Y-50352057D01*
X186807912Y-50466133D01*
X187101002Y-50495000D01*
X187816998Y-50495000D01*
X188110088Y-50466133D01*
X188486147Y-50352057D01*
X188832725Y-50166807D01*
X189136503Y-49917503D01*
X189385807Y-49613725D01*
X189571057Y-49267147D01*
X189685133Y-48891088D01*
X189723652Y-48500000D01*
X189685133Y-48108912D01*
X189571057Y-47732853D01*
X189385807Y-47386275D01*
X189136503Y-47082497D01*
X188832725Y-46833193D01*
X188486147Y-46647943D01*
X188110088Y-46533867D01*
X187816998Y-46505000D01*
X187101002Y-46505000D01*
X186807912Y-46533867D01*
X186431853Y-46647943D01*
X186085275Y-46833193D01*
X185781497Y-47082497D01*
X185532193Y-47386275D01*
X185346943Y-47732853D01*
X185232867Y-48108912D01*
X185194348Y-48500000D01*
X173150000Y-48500000D01*
X173150000Y-48376565D01*
X173084670Y-48048128D01*
X172956521Y-47738748D01*
X172770477Y-47460313D01*
X172533687Y-47223523D01*
X172255252Y-47037479D01*
X171945872Y-46909330D01*
X171617435Y-46844000D01*
X171282565Y-46844000D01*
X170954128Y-46909330D01*
X170644748Y-47037479D01*
X170366313Y-47223523D01*
X170129523Y-47460313D01*
X169943479Y-47738748D01*
X169815330Y-48048128D01*
X169750000Y-48376565D01*
X166395000Y-48376565D01*
X166395000Y-43840000D01*
X205075000Y-43840000D01*
X205075000Y-54217555D01*
X205075000Y-54217555D01*
G37*
X205075000Y-54217555D02*
X205020660Y-54151342D01*
X204986742Y-54123506D01*
X204943000Y-54079764D01*
X204943000Y-53980363D01*
X204895540Y-53741764D01*
X204802443Y-53517008D01*
X204667287Y-53314733D01*
X204495267Y-53142713D01*
X204292992Y-53007557D01*
X204068236Y-52914460D01*
X203829637Y-52867000D01*
X203613094Y-52867000D01*
X203627000Y-52797089D01*
X203627000Y-52612911D01*
X203591068Y-52432271D01*
X203520586Y-52262111D01*
X203418262Y-52108972D01*
X203288028Y-51978738D01*
X203134889Y-51876414D01*
X202964729Y-51805932D01*
X202830692Y-51779270D01*
X202817393Y-51768356D01*
X202685016Y-51697599D01*
X202541379Y-51654027D01*
X202429427Y-51643001D01*
X202429424Y-51643001D01*
X202392001Y-51639315D01*
X202354578Y-51643001D01*
X202061550Y-51643001D01*
X200574857Y-50156309D01*
X200830252Y-50050521D01*
X201108687Y-49864477D01*
X201345477Y-49627687D01*
X201531521Y-49349252D01*
X201659670Y-49039872D01*
X201725000Y-48711435D01*
X201725000Y-48376565D01*
X201659670Y-48048128D01*
X201531521Y-47738748D01*
X201345477Y-47460313D01*
X201108687Y-47223523D01*
X200830252Y-47037479D01*
X200520872Y-46909330D01*
X200192435Y-46844000D01*
X199857565Y-46844000D01*
X199529128Y-46909330D01*
X199219748Y-47037479D01*
X198941313Y-47223523D01*
X198704523Y-47460313D01*
X198518479Y-47738748D01*
X198406503Y-48009082D01*
X198286015Y-47944680D01*
X198142378Y-47901108D01*
X198030426Y-47890082D01*
X198030423Y-47890082D01*
X197993000Y-47886396D01*
X197955577Y-47890082D01*
X191694128Y-47890082D01*
X191577889Y-47812414D01*
X191407729Y-47741932D01*
X191227089Y-47706000D01*
X191042911Y-47706000D01*
X190862271Y-47741932D01*
X190692111Y-47812414D01*
X190538972Y-47914738D01*
X190408738Y-48044972D01*
X190306414Y-48198111D01*
X190235932Y-48368271D01*
X190200000Y-48548911D01*
X190200000Y-48733089D01*
X190235932Y-48913729D01*
X190306414Y-49083889D01*
X190408738Y-49237028D01*
X190538972Y-49367262D01*
X190692111Y-49469586D01*
X190862271Y-49540068D01*
X191042911Y-49576000D01*
X191227089Y-49576000D01*
X191407729Y-49540068D01*
X191577889Y-49469586D01*
X191660957Y-49414082D01*
X197677370Y-49414082D01*
X201180639Y-52917352D01*
X201204497Y-52946423D01*
X201233567Y-52970280D01*
X201320526Y-53041646D01*
X201361641Y-53063622D01*
X201452904Y-53112403D01*
X201596541Y-53155975D01*
X201708493Y-53167001D01*
X201708496Y-53167001D01*
X201745919Y-53170687D01*
X201783342Y-53167001D01*
X201876184Y-53167001D01*
X201965738Y-53301028D01*
X202095972Y-53431262D01*
X202249111Y-53533586D01*
X202419271Y-53604068D01*
X202565451Y-53633145D01*
X202520460Y-53741764D01*
X202473000Y-53980363D01*
X202473000Y-54223637D01*
X202520460Y-54462236D01*
X202613557Y-54686992D01*
X202748713Y-54889267D01*
X202920733Y-55061287D01*
X203123008Y-55196443D01*
X203347764Y-55289540D01*
X203500002Y-55319822D01*
X203500001Y-64850999D01*
X199981423Y-64850999D01*
X199944000Y-64847313D01*
X199906577Y-64850999D01*
X199906575Y-64850999D01*
X199794623Y-64862025D01*
X199650986Y-64905597D01*
X199518609Y-64976354D01*
X199402579Y-65071577D01*
X199378722Y-65100648D01*
X198726820Y-65752550D01*
X198609271Y-65775932D01*
X198439111Y-65846414D01*
X198285972Y-65948738D01*
X198155738Y-66078972D01*
X198053414Y-66232111D01*
X197982932Y-66402271D01*
X197947000Y-66582911D01*
X197947000Y-66767089D01*
X197982932Y-66947729D01*
X198053414Y-67117889D01*
X198155738Y-67271028D01*
X198285972Y-67401262D01*
X198439111Y-67503586D01*
X198609271Y-67574068D01*
X198789911Y-67610000D01*
X198974089Y-67610000D01*
X199154729Y-67574068D01*
X199324889Y-67503586D01*
X199478028Y-67401262D01*
X199608262Y-67271028D01*
X199710586Y-67117889D01*
X199781068Y-66947729D01*
X199804450Y-66830180D01*
X200259632Y-66374999D01*
X203500001Y-66374999D01*
X203500001Y-67561665D01*
X203500002Y-67561675D01*
X203500001Y-79243452D01*
X200574857Y-76318309D01*
X200830252Y-76212521D01*
X201108687Y-76026477D01*
X201345477Y-75789687D01*
X201531521Y-75511252D01*
X201659670Y-75201872D01*
X201725000Y-74873435D01*
X201725000Y-74538565D01*
X201659670Y-74210128D01*
X201531521Y-73900748D01*
X201345477Y-73622313D01*
X201108687Y-73385523D01*
X200830252Y-73199479D01*
X200520872Y-73071330D01*
X200287955Y-73025000D01*
X200520872Y-72978670D01*
X200830252Y-72850521D01*
X201108687Y-72664477D01*
X201345477Y-72427687D01*
X201531521Y-72149252D01*
X201659670Y-71839872D01*
X201725000Y-71511435D01*
X201725000Y-71176565D01*
X201659670Y-70848128D01*
X201531521Y-70538748D01*
X201345477Y-70260313D01*
X201108687Y-70023523D01*
X200830252Y-69837479D01*
X200520872Y-69709330D01*
X200192435Y-69644000D01*
X199857565Y-69644000D01*
X199529128Y-69709330D01*
X199219748Y-69837479D01*
X198941313Y-70023523D01*
X198704523Y-70260313D01*
X198518479Y-70538748D01*
X198390330Y-70848128D01*
X198325000Y-71176565D01*
X198325000Y-71511435D01*
X198390330Y-71839872D01*
X198518479Y-72149252D01*
X198704523Y-72427687D01*
X198941313Y-72664477D01*
X199219748Y-72850521D01*
X199529128Y-72978670D01*
X199762045Y-73025000D01*
X199529128Y-73071330D01*
X199219748Y-73199479D01*
X198941313Y-73385523D01*
X198911391Y-73415445D01*
X198846262Y-73317972D01*
X198716028Y-73187738D01*
X198562889Y-73085414D01*
X198392729Y-73014932D01*
X198212089Y-72979000D01*
X198027911Y-72979000D01*
X197847271Y-73014932D01*
X197677111Y-73085414D01*
X197523972Y-73187738D01*
X197393738Y-73317972D01*
X197291414Y-73471111D01*
X197220932Y-73641271D01*
X197185000Y-73821911D01*
X197185000Y-74006089D01*
X197220932Y-74186729D01*
X197252533Y-74263020D01*
X196264166Y-73274654D01*
X196240304Y-73245578D01*
X196124274Y-73150355D01*
X195991897Y-73079598D01*
X195848260Y-73036026D01*
X195736308Y-73025000D01*
X195736305Y-73025000D01*
X195698882Y-73021314D01*
X195661459Y-73025000D01*
X194598542Y-73025000D01*
X194498889Y-72958414D01*
X194328729Y-72887932D01*
X194148089Y-72852000D01*
X193963911Y-72852000D01*
X193783271Y-72887932D01*
X193613111Y-72958414D01*
X193459972Y-73060738D01*
X193362170Y-73158540D01*
X183769000Y-63565370D01*
X183769000Y-63280542D01*
X183835586Y-63180889D01*
X183906068Y-63010729D01*
X183942000Y-62830089D01*
X183942000Y-62645911D01*
X183906068Y-62465271D01*
X183835586Y-62295111D01*
X183733262Y-62141972D01*
X183603028Y-62011738D01*
X183449889Y-61909414D01*
X183279729Y-61838932D01*
X183099089Y-61803000D01*
X182914911Y-61803000D01*
X182734271Y-61838932D01*
X182564111Y-61909414D01*
X182410972Y-62011738D01*
X182280738Y-62141972D01*
X182178414Y-62295111D01*
X182107932Y-62465271D01*
X182072000Y-62645911D01*
X182072000Y-62830089D01*
X182107932Y-63010729D01*
X182178414Y-63180889D01*
X182245001Y-63280543D01*
X182245000Y-63843576D01*
X182241314Y-63881000D01*
X182245000Y-63918423D01*
X182245000Y-63918425D01*
X182256026Y-64030377D01*
X182299598Y-64174014D01*
X182299599Y-64174015D01*
X182370355Y-64306392D01*
X182409499Y-64354089D01*
X182465578Y-64422422D01*
X182494654Y-64446284D01*
X187361370Y-69313000D01*
X187101002Y-69313000D01*
X186807912Y-69341867D01*
X186431853Y-69455943D01*
X186085275Y-69641193D01*
X185781497Y-69890497D01*
X185532193Y-70194275D01*
X185346943Y-70540853D01*
X185232867Y-70916912D01*
X185194348Y-71308000D01*
X185232867Y-71699088D01*
X185346943Y-72075147D01*
X185532193Y-72421725D01*
X185781497Y-72725503D01*
X186085275Y-72974807D01*
X186104345Y-72985000D01*
X186085275Y-72995193D01*
X185781497Y-73244497D01*
X185532193Y-73548275D01*
X185346943Y-73894853D01*
X185232867Y-74270912D01*
X185194348Y-74662000D01*
X185232867Y-75053088D01*
X185346943Y-75429147D01*
X185532193Y-75775725D01*
X185781497Y-76079503D01*
X186085275Y-76328807D01*
X186431853Y-76514057D01*
X186807912Y-76628133D01*
X187101002Y-76657000D01*
X187816998Y-76657000D01*
X188110088Y-76628133D01*
X188486147Y-76514057D01*
X188832725Y-76328807D01*
X189136503Y-76079503D01*
X189385807Y-75775725D01*
X189571057Y-75429147D01*
X189601767Y-75327911D01*
X189676111Y-75377586D01*
X189846271Y-75448068D01*
X189963820Y-75471450D01*
X191835370Y-77343000D01*
X181497072Y-77343000D01*
X181497072Y-76062000D01*
X181484812Y-75937518D01*
X181448502Y-75817820D01*
X181389537Y-75707506D01*
X181310185Y-75610815D01*
X181213494Y-75531463D01*
X181103180Y-75472498D01*
X180983482Y-75436188D01*
X180859000Y-75423928D01*
X179059000Y-75423928D01*
X178934518Y-75436188D01*
X178814820Y-75472498D01*
X178704506Y-75531463D01*
X178607815Y-75610815D01*
X178586864Y-75636343D01*
X178608000Y-75530089D01*
X178608000Y-75345911D01*
X178572068Y-75165271D01*
X178501586Y-74995111D01*
X178399262Y-74841972D01*
X178269028Y-74711738D01*
X178115889Y-74609414D01*
X177945729Y-74538932D01*
X177765089Y-74503000D01*
X177601813Y-74503000D01*
X177601813Y-73393223D01*
X177611881Y-73368916D01*
X177647813Y-73188276D01*
X177647813Y-73004098D01*
X177611881Y-72823458D01*
X177601813Y-72799151D01*
X177601813Y-70072080D01*
X179074525Y-70072080D01*
X179158208Y-70326261D01*
X179430775Y-70457158D01*
X179723642Y-70532365D01*
X180025553Y-70548991D01*
X180324907Y-70506397D01*
X180610199Y-70406222D01*
X180759792Y-70326261D01*
X180843475Y-70072080D01*
X179959000Y-69187605D01*
X179074525Y-70072080D01*
X177601813Y-70072080D01*
X177601813Y-69074553D01*
X178418009Y-69074553D01*
X178460603Y-69373907D01*
X178560778Y-69659199D01*
X178640739Y-69808792D01*
X178894920Y-69892475D01*
X179779395Y-69008000D01*
X180138605Y-69008000D01*
X181023080Y-69892475D01*
X181277261Y-69808792D01*
X181408158Y-69536225D01*
X181483365Y-69243358D01*
X181499991Y-68941447D01*
X181457397Y-68642093D01*
X181357222Y-68356801D01*
X181277261Y-68207208D01*
X181023080Y-68123525D01*
X180138605Y-69008000D01*
X179779395Y-69008000D01*
X178894920Y-68123525D01*
X178640739Y-68207208D01*
X178509842Y-68479775D01*
X178434635Y-68772642D01*
X178418009Y-69074553D01*
X177601813Y-69074553D01*
X177601813Y-63108000D01*
X178420928Y-63108000D01*
X178420928Y-64908000D01*
X178433188Y-65032482D01*
X178469498Y-65152180D01*
X178528463Y-65262494D01*
X178607815Y-65359185D01*
X178704506Y-65438537D01*
X178804303Y-65491880D01*
X178766688Y-65529495D01*
X178598701Y-65780905D01*
X178482989Y-66060257D01*
X178424000Y-66356816D01*
X178424000Y-66659184D01*
X178482989Y-66955743D01*
X178598701Y-67235095D01*
X178766688Y-67486505D01*
X178980495Y-67700312D01*
X179123310Y-67795738D01*
X179074525Y-67943920D01*
X179959000Y-68828395D01*
X180843475Y-67943920D01*
X180794690Y-67795738D01*
X180937505Y-67700312D01*
X181151312Y-67486505D01*
X181319299Y-67235095D01*
X181435011Y-66955743D01*
X181494000Y-66659184D01*
X181494000Y-66356816D01*
X181443201Y-66101429D01*
X181752347Y-65792283D01*
X181781423Y-65768421D01*
X181876646Y-65652391D01*
X181947403Y-65520014D01*
X181990975Y-65376377D01*
X182002001Y-65264425D01*
X182002001Y-65264423D01*
X182005687Y-65227000D01*
X182002001Y-65189577D01*
X182002001Y-61912470D01*
X185277208Y-58637263D01*
X185346943Y-58867147D01*
X185532193Y-59213725D01*
X185781497Y-59517503D01*
X186085275Y-59766807D01*
X186341945Y-59904000D01*
X186085275Y-60041193D01*
X185781497Y-60290497D01*
X185532193Y-60594275D01*
X185346943Y-60940853D01*
X185232867Y-61316912D01*
X185194348Y-61708000D01*
X185232867Y-62099088D01*
X185346943Y-62475147D01*
X185532193Y-62821725D01*
X185781497Y-63125503D01*
X186027022Y-63327000D01*
X185962911Y-63327000D01*
X185782271Y-63362932D01*
X185612111Y-63433414D01*
X185458972Y-63535738D01*
X185328738Y-63665972D01*
X185226414Y-63819111D01*
X185155932Y-63989271D01*
X185120000Y-64169911D01*
X185120000Y-64354089D01*
X185155932Y-64534729D01*
X185226414Y-64704889D01*
X185328738Y-64858028D01*
X185458972Y-64988262D01*
X185612111Y-65090586D01*
X185782271Y-65161068D01*
X185962911Y-65197000D01*
X186147089Y-65197000D01*
X186327729Y-65161068D01*
X186497889Y-65090586D01*
X186597542Y-65024000D01*
X198769577Y-65024000D01*
X198807000Y-65027686D01*
X198844423Y-65024000D01*
X198844426Y-65024000D01*
X198956378Y-65012974D01*
X199100015Y-64969402D01*
X199232392Y-64898645D01*
X199348422Y-64803422D01*
X199372284Y-64774346D01*
X199485876Y-64660754D01*
X199529128Y-64678670D01*
X199857565Y-64744000D01*
X200192435Y-64744000D01*
X200520872Y-64678670D01*
X200830252Y-64550521D01*
X201108687Y-64364477D01*
X201345477Y-64127687D01*
X201531521Y-63849252D01*
X201659670Y-63539872D01*
X201725000Y-63211435D01*
X201725000Y-62876565D01*
X201659670Y-62548128D01*
X201531521Y-62238748D01*
X201345477Y-61960313D01*
X201108687Y-61723523D01*
X200830252Y-61537479D01*
X200729860Y-61495895D01*
X200990000Y-61497072D01*
X201114482Y-61484812D01*
X201234180Y-61448502D01*
X201344494Y-61389537D01*
X201441185Y-61310185D01*
X201520537Y-61213494D01*
X201579502Y-61103180D01*
X201615812Y-60983482D01*
X201628072Y-60859000D01*
X201625000Y-60229750D01*
X201466250Y-60071000D01*
X200152000Y-60071000D01*
X200152000Y-60091000D01*
X199898000Y-60091000D01*
X199898000Y-60071000D01*
X198583750Y-60071000D01*
X198425000Y-60229750D01*
X198421928Y-60859000D01*
X198434188Y-60983482D01*
X198470498Y-61103180D01*
X198529463Y-61213494D01*
X198608815Y-61310185D01*
X198705506Y-61389537D01*
X198815820Y-61448502D01*
X198935518Y-61484812D01*
X199060000Y-61497072D01*
X199320140Y-61495895D01*
X199219748Y-61537479D01*
X198941313Y-61723523D01*
X198704523Y-61960313D01*
X198518479Y-62238748D01*
X198390330Y-62548128D01*
X198325000Y-62876565D01*
X198325000Y-63211435D01*
X198382399Y-63500000D01*
X188598506Y-63500000D01*
X188832725Y-63374807D01*
X189136503Y-63125503D01*
X189385807Y-62821725D01*
X189571057Y-62475147D01*
X189685133Y-62099088D01*
X189723652Y-61708000D01*
X189685133Y-61316912D01*
X189571057Y-60940853D01*
X189385807Y-60594275D01*
X189136503Y-60290497D01*
X188832725Y-60041193D01*
X188576055Y-59904000D01*
X188832725Y-59766807D01*
X189136503Y-59517503D01*
X189385807Y-59213725D01*
X189571057Y-58867147D01*
X189685133Y-58491088D01*
X189723652Y-58100000D01*
X189685133Y-57708912D01*
X189571057Y-57332853D01*
X189457814Y-57120990D01*
X192523587Y-57120990D01*
X192561010Y-57124676D01*
X192598433Y-57120990D01*
X192598436Y-57120990D01*
X192710388Y-57109964D01*
X192854025Y-57066392D01*
X192869891Y-57057911D01*
X196931000Y-57057911D01*
X196931000Y-57242089D01*
X196966932Y-57422729D01*
X197037414Y-57592889D01*
X197139738Y-57746028D01*
X197269972Y-57876262D01*
X197423111Y-57978586D01*
X197593271Y-58049068D01*
X197710820Y-58072450D01*
X198443721Y-58805352D01*
X198458724Y-58823633D01*
X198434188Y-58904518D01*
X198421928Y-59029000D01*
X198425000Y-59658250D01*
X198583750Y-59817000D01*
X199898000Y-59817000D01*
X199898000Y-59797000D01*
X200152000Y-59797000D01*
X200152000Y-59817000D01*
X201466250Y-59817000D01*
X201625000Y-59658250D01*
X201627100Y-59228000D01*
X201641089Y-59228000D01*
X201821729Y-59192068D01*
X201991889Y-59121586D01*
X202145028Y-59019262D01*
X202275262Y-58889028D01*
X202377586Y-58735889D01*
X202448068Y-58565729D01*
X202484000Y-58385089D01*
X202484000Y-58200911D01*
X202448068Y-58020271D01*
X202377586Y-57850111D01*
X202275262Y-57696972D01*
X202145028Y-57566738D01*
X201991889Y-57464414D01*
X201821729Y-57393932D01*
X201651318Y-57360035D01*
X201659670Y-57339872D01*
X201725000Y-57011435D01*
X201725000Y-56676565D01*
X201659670Y-56348128D01*
X201531521Y-56038748D01*
X201345477Y-55760313D01*
X201108687Y-55523523D01*
X200830252Y-55337479D01*
X200520872Y-55209330D01*
X200192435Y-55144000D01*
X199857565Y-55144000D01*
X199529128Y-55209330D01*
X199219748Y-55337479D01*
X198941313Y-55523523D01*
X198704523Y-55760313D01*
X198518479Y-56038748D01*
X198390330Y-56348128D01*
X198385466Y-56372581D01*
X198308889Y-56321414D01*
X198138729Y-56250932D01*
X197958089Y-56215000D01*
X197773911Y-56215000D01*
X197593271Y-56250932D01*
X197423111Y-56321414D01*
X197269972Y-56423738D01*
X197139738Y-56553972D01*
X197037414Y-56707111D01*
X196966932Y-56877271D01*
X196931000Y-57057911D01*
X192869891Y-57057911D01*
X192986402Y-56995635D01*
X193102432Y-56900412D01*
X193126294Y-56871336D01*
X193576180Y-56421450D01*
X193693729Y-56398068D01*
X193863889Y-56327586D01*
X194017028Y-56225262D01*
X194147262Y-56095028D01*
X194249586Y-55941889D01*
X194320068Y-55771729D01*
X194356000Y-55591089D01*
X194356000Y-55406911D01*
X194320068Y-55226271D01*
X194249586Y-55056111D01*
X194147262Y-54902972D01*
X194017028Y-54772738D01*
X193863889Y-54670414D01*
X193693729Y-54599932D01*
X193513089Y-54564000D01*
X193328911Y-54564000D01*
X193148271Y-54599932D01*
X192978111Y-54670414D01*
X192824972Y-54772738D01*
X192694738Y-54902972D01*
X192592414Y-55056111D01*
X192521932Y-55226271D01*
X192498550Y-55343820D01*
X192245380Y-55596990D01*
X186515274Y-55596990D01*
X186477851Y-55593304D01*
X186440428Y-55596990D01*
X186440425Y-55596990D01*
X186328473Y-55608016D01*
X186184836Y-55651588D01*
X186170713Y-55659137D01*
X186052458Y-55722345D01*
X186010070Y-55757133D01*
X185936429Y-55817568D01*
X185912567Y-55846644D01*
X180727655Y-61031556D01*
X180698579Y-61055418D01*
X180642984Y-61123162D01*
X180603356Y-61171448D01*
X180580882Y-61213494D01*
X180532599Y-61303826D01*
X180489027Y-61447463D01*
X180478001Y-61559414D01*
X180474315Y-61596840D01*
X180478001Y-61634263D01*
X180478001Y-62469928D01*
X179059000Y-62469928D01*
X178934518Y-62482188D01*
X178814820Y-62518498D01*
X178704506Y-62577463D01*
X178607815Y-62656815D01*
X178528463Y-62753506D01*
X178469498Y-62863820D01*
X178433188Y-62983518D01*
X178420928Y-63108000D01*
X177601813Y-63108000D01*
X177601813Y-61498264D01*
X183350737Y-55749340D01*
X183384659Y-55721501D01*
X183495753Y-55586133D01*
X183578303Y-55431693D01*
X183621424Y-55289540D01*
X183629136Y-55264118D01*
X183632406Y-55230918D01*
X183642000Y-55133509D01*
X183642000Y-55133503D01*
X183646300Y-55089843D01*
X183642000Y-55046183D01*
X183642000Y-53975000D01*
X187544458Y-53975000D01*
X187644111Y-54041586D01*
X187814271Y-54112068D01*
X187994911Y-54148000D01*
X188179089Y-54148000D01*
X188359729Y-54112068D01*
X188529889Y-54041586D01*
X188683028Y-53939262D01*
X188813262Y-53809028D01*
X188915586Y-53655889D01*
X188986068Y-53485729D01*
X189022000Y-53305089D01*
X189022000Y-53120911D01*
X188986068Y-52940271D01*
X188941221Y-52832000D01*
X192497458Y-52832000D01*
X192597111Y-52898586D01*
X192767271Y-52969068D01*
X192947911Y-53005000D01*
X193132089Y-53005000D01*
X193312729Y-52969068D01*
X193482889Y-52898586D01*
X193636028Y-52796262D01*
X193766262Y-52666028D01*
X193868586Y-52512889D01*
X193939068Y-52342729D01*
X193975000Y-52162089D01*
X193975000Y-51977911D01*
X193939068Y-51797271D01*
X193868586Y-51627111D01*
X193766262Y-51473972D01*
X193636028Y-51343738D01*
X193482889Y-51241414D01*
X193312729Y-51170932D01*
X193132089Y-51135000D01*
X192947911Y-51135000D01*
X192767271Y-51170932D01*
X192597111Y-51241414D01*
X192497458Y-51308000D01*
X181497072Y-51308000D01*
X181497072Y-49900000D01*
X181484812Y-49775518D01*
X181448502Y-49655820D01*
X181389537Y-49545506D01*
X181310185Y-49448815D01*
X181213494Y-49369463D01*
X181103180Y-49310498D01*
X180983482Y-49274188D01*
X180859000Y-49261928D01*
X179059000Y-49261928D01*
X178934518Y-49274188D01*
X178814820Y-49310498D01*
X178704506Y-49369463D01*
X178607815Y-49448815D01*
X178528463Y-49545506D01*
X178469498Y-49655820D01*
X178433188Y-49775518D01*
X178420928Y-49900000D01*
X178420928Y-51700000D01*
X178433188Y-51824482D01*
X178469498Y-51944180D01*
X178528463Y-52054494D01*
X178607815Y-52151185D01*
X178704506Y-52230537D01*
X178804303Y-52283880D01*
X178766688Y-52321495D01*
X178598701Y-52572905D01*
X178482989Y-52852257D01*
X178424000Y-53148816D01*
X178424000Y-53451184D01*
X178482989Y-53747743D01*
X178598701Y-54027095D01*
X178766688Y-54278505D01*
X178980495Y-54492312D01*
X179123310Y-54587738D01*
X179074525Y-54735920D01*
X179959000Y-55620395D01*
X180843475Y-54735920D01*
X180794690Y-54587738D01*
X180937505Y-54492312D01*
X181151312Y-54278505D01*
X181319299Y-54027095D01*
X181435011Y-53747743D01*
X181494000Y-53451184D01*
X181494000Y-53148816D01*
X181443201Y-52893429D01*
X181504630Y-52832000D01*
X182125413Y-52832000D01*
X182121342Y-52835341D01*
X182010248Y-52970709D01*
X181927698Y-53125149D01*
X181876865Y-53292726D01*
X181864001Y-53423333D01*
X181864000Y-54721607D01*
X181377904Y-55207703D01*
X181357222Y-55148801D01*
X181277261Y-54999208D01*
X181023080Y-54915525D01*
X180138605Y-55800000D01*
X180152748Y-55814143D01*
X179973143Y-55993748D01*
X179959000Y-55979605D01*
X179074525Y-56864080D01*
X179158208Y-57118261D01*
X179367051Y-57218556D01*
X176115072Y-60470535D01*
X176081155Y-60498370D01*
X176053320Y-60532287D01*
X176053318Y-60532289D01*
X175970061Y-60633738D01*
X175887511Y-60788177D01*
X175836677Y-60955755D01*
X175819513Y-61130029D01*
X175823814Y-61173699D01*
X175823813Y-72799151D01*
X175813745Y-72823458D01*
X175777813Y-73004098D01*
X175777813Y-73188276D01*
X175813745Y-73368916D01*
X175823814Y-73393225D01*
X175823813Y-83475571D01*
X175753526Y-83545858D01*
X175618370Y-83748133D01*
X175525273Y-83972889D01*
X175477813Y-84211488D01*
X175477813Y-84454762D01*
X175525273Y-84693361D01*
X175618370Y-84918117D01*
X175753526Y-85120392D01*
X175823813Y-85190679D01*
X175823814Y-124868511D01*
X175823813Y-124868521D01*
X175823814Y-147967143D01*
X175819513Y-148010813D01*
X175836677Y-148185087D01*
X175887511Y-148352665D01*
X175897264Y-148370911D01*
X175970061Y-148507104D01*
X176081155Y-148642472D01*
X176115072Y-148670307D01*
X177708000Y-150263236D01*
X177708000Y-150362637D01*
X177755460Y-150601236D01*
X177848557Y-150825992D01*
X177983713Y-151028267D01*
X178155733Y-151200287D01*
X178358008Y-151335443D01*
X178582764Y-151428540D01*
X178821363Y-151476000D01*
X179064637Y-151476000D01*
X179303236Y-151428540D01*
X179527992Y-151335443D01*
X179730267Y-151200287D01*
X179902287Y-151028267D01*
X180037443Y-150825992D01*
X180119464Y-150627976D01*
X181011487Y-151520000D01*
X171667709Y-151520000D01*
X171945872Y-151464670D01*
X172255252Y-151336521D01*
X172533687Y-151150477D01*
X172770477Y-150913687D01*
X172956521Y-150635252D01*
X173084670Y-150325872D01*
X173150000Y-149997435D01*
X173150000Y-149662565D01*
X173084670Y-149334128D01*
X172956521Y-149024748D01*
X172770477Y-148746313D01*
X172533687Y-148509523D01*
X172255252Y-148323479D01*
X171945872Y-148195330D01*
X171617435Y-148130000D01*
X171282565Y-148130000D01*
X170954128Y-148195330D01*
X170644748Y-148323479D01*
X170366313Y-148509523D01*
X170129523Y-148746313D01*
X169943479Y-149024748D01*
X169815330Y-149334128D01*
X169750000Y-149662565D01*
X169750000Y-149997435D01*
X169815330Y-150325872D01*
X169943479Y-150635252D01*
X170129523Y-150913687D01*
X170366313Y-151150477D01*
X170644748Y-151336521D01*
X170954128Y-151464670D01*
X171232291Y-151520000D01*
X166395000Y-151520000D01*
X166395000Y-141362565D01*
X169750000Y-141362565D01*
X169750000Y-141697435D01*
X169815330Y-142025872D01*
X169943479Y-142335252D01*
X170129523Y-142613687D01*
X170366313Y-142850477D01*
X170644748Y-143036521D01*
X170954128Y-143164670D01*
X171282565Y-143230000D01*
X171617435Y-143230000D01*
X171945872Y-143164670D01*
X172255252Y-143036521D01*
X172533687Y-142850477D01*
X172770477Y-142613687D01*
X172956521Y-142335252D01*
X173084670Y-142025872D01*
X173150000Y-141697435D01*
X173150000Y-141362565D01*
X173084670Y-141034128D01*
X172956521Y-140724748D01*
X172770477Y-140446313D01*
X172533687Y-140209523D01*
X172255252Y-140023479D01*
X172154860Y-139981895D01*
X172415000Y-139983072D01*
X172539482Y-139970812D01*
X172659180Y-139934502D01*
X172769494Y-139875537D01*
X172866185Y-139796185D01*
X172945537Y-139699494D01*
X173004502Y-139589180D01*
X173040812Y-139469482D01*
X173053072Y-139345000D01*
X173050000Y-138715750D01*
X172891250Y-138557000D01*
X171577000Y-138557000D01*
X171577000Y-138577000D01*
X171323000Y-138577000D01*
X171323000Y-138557000D01*
X170008750Y-138557000D01*
X169850000Y-138715750D01*
X169846928Y-139345000D01*
X169859188Y-139469482D01*
X169895498Y-139589180D01*
X169954463Y-139699494D01*
X170033815Y-139796185D01*
X170130506Y-139875537D01*
X170240820Y-139934502D01*
X170360518Y-139970812D01*
X170485000Y-139983072D01*
X170745140Y-139981895D01*
X170644748Y-140023479D01*
X170366313Y-140209523D01*
X170129523Y-140446313D01*
X169943479Y-140724748D01*
X169815330Y-141034128D01*
X169750000Y-141362565D01*
X166395000Y-141362565D01*
X166395000Y-135162565D01*
X169750000Y-135162565D01*
X169750000Y-135497435D01*
X169815330Y-135825872D01*
X169943479Y-136135252D01*
X170129523Y-136413687D01*
X170366313Y-136650477D01*
X170644748Y-136836521D01*
X170745140Y-136878105D01*
X170485000Y-136876928D01*
X170360518Y-136889188D01*
X170240820Y-136925498D01*
X170130506Y-136984463D01*
X170033815Y-137063815D01*
X169954463Y-137160506D01*
X169895498Y-137270820D01*
X169859188Y-137390518D01*
X169846928Y-137515000D01*
X169850000Y-138144250D01*
X170008750Y-138303000D01*
X171323000Y-138303000D01*
X171323000Y-138283000D01*
X171577000Y-138283000D01*
X171577000Y-138303000D01*
X172891250Y-138303000D01*
X173050000Y-138144250D01*
X173053072Y-137515000D01*
X173040812Y-137390518D01*
X173004502Y-137270820D01*
X172945537Y-137160506D01*
X172866185Y-137063815D01*
X172769494Y-136984463D01*
X172659180Y-136925498D01*
X172539482Y-136889188D01*
X172415000Y-136876928D01*
X172154860Y-136878105D01*
X172255252Y-136836521D01*
X172533687Y-136650477D01*
X172770477Y-136413687D01*
X172956521Y-136135252D01*
X173084670Y-135825872D01*
X173150000Y-135497435D01*
X173150000Y-135162565D01*
X173084670Y-134834128D01*
X172956521Y-134524748D01*
X172770477Y-134246313D01*
X172533687Y-134009523D01*
X172255252Y-133823479D01*
X171945872Y-133695330D01*
X171617435Y-133630000D01*
X171282565Y-133630000D01*
X170954128Y-133695330D01*
X170644748Y-133823479D01*
X170366313Y-134009523D01*
X170129523Y-134246313D01*
X169943479Y-134524748D01*
X169815330Y-134834128D01*
X169750000Y-135162565D01*
X166395000Y-135162565D01*
X166395000Y-123500565D01*
X169750000Y-123500565D01*
X169750000Y-123835435D01*
X169815330Y-124163872D01*
X169943479Y-124473252D01*
X170129523Y-124751687D01*
X170366313Y-124988477D01*
X170644748Y-125174521D01*
X170954128Y-125302670D01*
X171187045Y-125349000D01*
X170954128Y-125395330D01*
X170644748Y-125523479D01*
X170366313Y-125709523D01*
X170129523Y-125946313D01*
X169943479Y-126224748D01*
X169815330Y-126534128D01*
X169750000Y-126862565D01*
X169750000Y-127197435D01*
X169815330Y-127525872D01*
X169943479Y-127835252D01*
X170129523Y-128113687D01*
X170366313Y-128350477D01*
X170644748Y-128536521D01*
X170954128Y-128664670D01*
X171282565Y-128730000D01*
X171617435Y-128730000D01*
X171945872Y-128664670D01*
X172255252Y-128536521D01*
X172533687Y-128350477D01*
X172770477Y-128113687D01*
X172956521Y-127835252D01*
X173084670Y-127525872D01*
X173150000Y-127197435D01*
X173150000Y-126862565D01*
X173084670Y-126534128D01*
X172956521Y-126224748D01*
X172770477Y-125946313D01*
X172533687Y-125709523D01*
X172255252Y-125523479D01*
X171945872Y-125395330D01*
X171712955Y-125349000D01*
X171945872Y-125302670D01*
X172255252Y-125174521D01*
X172533687Y-124988477D01*
X172770477Y-124751687D01*
X172956521Y-124473252D01*
X173084670Y-124163872D01*
X173150000Y-123835435D01*
X173150000Y-123500565D01*
X173084670Y-123172128D01*
X172956521Y-122862748D01*
X172770477Y-122584313D01*
X172533687Y-122347523D01*
X172255252Y-122161479D01*
X171945872Y-122033330D01*
X171617435Y-121968000D01*
X171282565Y-121968000D01*
X170954128Y-122033330D01*
X170644748Y-122161479D01*
X170366313Y-122347523D01*
X170129523Y-122584313D01*
X169943479Y-122862748D01*
X169815330Y-123172128D01*
X169750000Y-123500565D01*
X166395000Y-123500565D01*
X166395000Y-115200565D01*
X169750000Y-115200565D01*
X169750000Y-115535435D01*
X169815330Y-115863872D01*
X169943479Y-116173252D01*
X170129523Y-116451687D01*
X170366313Y-116688477D01*
X170644748Y-116874521D01*
X170954128Y-117002670D01*
X171282565Y-117068000D01*
X171617435Y-117068000D01*
X171945872Y-117002670D01*
X172255252Y-116874521D01*
X172533687Y-116688477D01*
X172770477Y-116451687D01*
X172956521Y-116173252D01*
X173084670Y-115863872D01*
X173150000Y-115535435D01*
X173150000Y-115200565D01*
X173084670Y-114872128D01*
X172956521Y-114562748D01*
X172770477Y-114284313D01*
X172533687Y-114047523D01*
X172255252Y-113861479D01*
X172154860Y-113819895D01*
X172415000Y-113821072D01*
X172539482Y-113808812D01*
X172659180Y-113772502D01*
X172769494Y-113713537D01*
X172866185Y-113634185D01*
X172945537Y-113537494D01*
X173004502Y-113427180D01*
X173040812Y-113307482D01*
X173053072Y-113183000D01*
X173050000Y-112553750D01*
X172891250Y-112395000D01*
X171577000Y-112395000D01*
X171577000Y-112415000D01*
X171323000Y-112415000D01*
X171323000Y-112395000D01*
X170008750Y-112395000D01*
X169850000Y-112553750D01*
X169846928Y-113183000D01*
X169859188Y-113307482D01*
X169895498Y-113427180D01*
X169954463Y-113537494D01*
X170033815Y-113634185D01*
X170130506Y-113713537D01*
X170240820Y-113772502D01*
X170360518Y-113808812D01*
X170485000Y-113821072D01*
X170745140Y-113819895D01*
X170644748Y-113861479D01*
X170366313Y-114047523D01*
X170129523Y-114284313D01*
X169943479Y-114562748D01*
X169815330Y-114872128D01*
X169750000Y-115200565D01*
X166395000Y-115200565D01*
X166395000Y-109000565D01*
X169750000Y-109000565D01*
X169750000Y-109335435D01*
X169815330Y-109663872D01*
X169943479Y-109973252D01*
X170129523Y-110251687D01*
X170366313Y-110488477D01*
X170644748Y-110674521D01*
X170745140Y-110716105D01*
X170485000Y-110714928D01*
X170360518Y-110727188D01*
X170240820Y-110763498D01*
X170130506Y-110822463D01*
X170033815Y-110901815D01*
X169954463Y-110998506D01*
X169895498Y-111108820D01*
X169859188Y-111228518D01*
X169846928Y-111353000D01*
X169850000Y-111982250D01*
X170008750Y-112141000D01*
X171323000Y-112141000D01*
X171323000Y-112121000D01*
X171577000Y-112121000D01*
X171577000Y-112141000D01*
X172891250Y-112141000D01*
X173050000Y-111982250D01*
X173053072Y-111353000D01*
X173040812Y-111228518D01*
X173004502Y-111108820D01*
X172945537Y-110998506D01*
X172866185Y-110901815D01*
X172769494Y-110822463D01*
X172659180Y-110763498D01*
X172539482Y-110727188D01*
X172415000Y-110714928D01*
X172154860Y-110716105D01*
X172255252Y-110674521D01*
X172533687Y-110488477D01*
X172770477Y-110251687D01*
X172956521Y-109973252D01*
X173084670Y-109663872D01*
X173150000Y-109335435D01*
X173150000Y-109000565D01*
X173084670Y-108672128D01*
X172956521Y-108362748D01*
X172770477Y-108084313D01*
X172533687Y-107847523D01*
X172255252Y-107661479D01*
X171945872Y-107533330D01*
X171617435Y-107468000D01*
X171282565Y-107468000D01*
X170954128Y-107533330D01*
X170644748Y-107661479D01*
X170366313Y-107847523D01*
X170129523Y-108084313D01*
X169943479Y-108362748D01*
X169815330Y-108672128D01*
X169750000Y-109000565D01*
X166395000Y-109000565D01*
X166395000Y-97338565D01*
X169750000Y-97338565D01*
X169750000Y-97673435D01*
X169815330Y-98001872D01*
X169943479Y-98311252D01*
X170129523Y-98589687D01*
X170366313Y-98826477D01*
X170644748Y-99012521D01*
X170954128Y-99140670D01*
X171187045Y-99187000D01*
X170954128Y-99233330D01*
X170644748Y-99361479D01*
X170366313Y-99547523D01*
X170129523Y-99784313D01*
X169943479Y-100062748D01*
X169815330Y-100372128D01*
X169750000Y-100700565D01*
X169750000Y-101035435D01*
X169815330Y-101363872D01*
X169943479Y-101673252D01*
X170129523Y-101951687D01*
X170366313Y-102188477D01*
X170644748Y-102374521D01*
X170954128Y-102502670D01*
X171282565Y-102568000D01*
X171617435Y-102568000D01*
X171945872Y-102502670D01*
X172255252Y-102374521D01*
X172533687Y-102188477D01*
X172770477Y-101951687D01*
X172956521Y-101673252D01*
X173084670Y-101363872D01*
X173150000Y-101035435D01*
X173150000Y-100700565D01*
X173084670Y-100372128D01*
X172956521Y-100062748D01*
X172770477Y-99784313D01*
X172533687Y-99547523D01*
X172255252Y-99361479D01*
X171945872Y-99233330D01*
X171712955Y-99187000D01*
X171945872Y-99140670D01*
X172255252Y-99012521D01*
X172533687Y-98826477D01*
X172770477Y-98589687D01*
X172956521Y-98311252D01*
X173084670Y-98001872D01*
X173150000Y-97673435D01*
X173150000Y-97338565D01*
X173084670Y-97010128D01*
X172956521Y-96700748D01*
X172770477Y-96422313D01*
X172533687Y-96185523D01*
X172255252Y-95999479D01*
X171945872Y-95871330D01*
X171617435Y-95806000D01*
X171282565Y-95806000D01*
X170954128Y-95871330D01*
X170644748Y-95999479D01*
X170366313Y-96185523D01*
X170129523Y-96422313D01*
X169943479Y-96700748D01*
X169815330Y-97010128D01*
X169750000Y-97338565D01*
X166395000Y-97338565D01*
X166395000Y-89038565D01*
X169750000Y-89038565D01*
X169750000Y-89373435D01*
X169815330Y-89701872D01*
X169943479Y-90011252D01*
X170129523Y-90289687D01*
X170366313Y-90526477D01*
X170644748Y-90712521D01*
X170954128Y-90840670D01*
X171282565Y-90906000D01*
X171617435Y-90906000D01*
X171945872Y-90840670D01*
X172255252Y-90712521D01*
X172533687Y-90526477D01*
X172770477Y-90289687D01*
X172956521Y-90011252D01*
X173084670Y-89701872D01*
X173150000Y-89373435D01*
X173150000Y-89038565D01*
X173084670Y-88710128D01*
X172956521Y-88400748D01*
X172770477Y-88122313D01*
X172533687Y-87885523D01*
X172255252Y-87699479D01*
X172154860Y-87657895D01*
X172415000Y-87659072D01*
X172539482Y-87646812D01*
X172659180Y-87610502D01*
X172769494Y-87551537D01*
X172866185Y-87472185D01*
X172945537Y-87375494D01*
X173004502Y-87265180D01*
X173040812Y-87145482D01*
X173053072Y-87021000D01*
X173050000Y-86391750D01*
X172891250Y-86233000D01*
X171577000Y-86233000D01*
X171577000Y-86253000D01*
X171323000Y-86253000D01*
X171323000Y-86233000D01*
X170008750Y-86233000D01*
X169850000Y-86391750D01*
X169846928Y-87021000D01*
X169859188Y-87145482D01*
X169895498Y-87265180D01*
X169954463Y-87375494D01*
X170033815Y-87472185D01*
X170130506Y-87551537D01*
X170240820Y-87610502D01*
X170360518Y-87646812D01*
X170485000Y-87659072D01*
X170745140Y-87657895D01*
X170644748Y-87699479D01*
X170366313Y-87885523D01*
X170129523Y-88122313D01*
X169943479Y-88400748D01*
X169815330Y-88710128D01*
X169750000Y-89038565D01*
X166395000Y-89038565D01*
X166395000Y-82838565D01*
X169750000Y-82838565D01*
X169750000Y-83173435D01*
X169815330Y-83501872D01*
X169943479Y-83811252D01*
X170129523Y-84089687D01*
X170366313Y-84326477D01*
X170644748Y-84512521D01*
X170745140Y-84554105D01*
X170485000Y-84552928D01*
X170360518Y-84565188D01*
X170240820Y-84601498D01*
X170130506Y-84660463D01*
X170033815Y-84739815D01*
X169954463Y-84836506D01*
X169895498Y-84946820D01*
X169859188Y-85066518D01*
X169846928Y-85191000D01*
X169850000Y-85820250D01*
X170008750Y-85979000D01*
X171323000Y-85979000D01*
X171323000Y-85959000D01*
X171577000Y-85959000D01*
X171577000Y-85979000D01*
X172891250Y-85979000D01*
X173050000Y-85820250D01*
X173053072Y-85191000D01*
X173040812Y-85066518D01*
X173004502Y-84946820D01*
X172945537Y-84836506D01*
X172866185Y-84739815D01*
X172769494Y-84660463D01*
X172659180Y-84601498D01*
X172539482Y-84565188D01*
X172415000Y-84552928D01*
X172154860Y-84554105D01*
X172255252Y-84512521D01*
X172533687Y-84326477D01*
X172770477Y-84089687D01*
X172956521Y-83811252D01*
X173084670Y-83501872D01*
X173150000Y-83173435D01*
X173150000Y-82838565D01*
X173084670Y-82510128D01*
X172956521Y-82200748D01*
X172770477Y-81922313D01*
X172533687Y-81685523D01*
X172255252Y-81499479D01*
X171945872Y-81371330D01*
X171617435Y-81306000D01*
X171282565Y-81306000D01*
X170954128Y-81371330D01*
X170644748Y-81499479D01*
X170366313Y-81685523D01*
X170129523Y-81922313D01*
X169943479Y-82200748D01*
X169815330Y-82510128D01*
X169750000Y-82838565D01*
X166395000Y-82838565D01*
X166395000Y-71176565D01*
X169750000Y-71176565D01*
X169750000Y-71511435D01*
X169815330Y-71839872D01*
X169943479Y-72149252D01*
X170129523Y-72427687D01*
X170366313Y-72664477D01*
X170644748Y-72850521D01*
X170954128Y-72978670D01*
X171187045Y-73025000D01*
X170954128Y-73071330D01*
X170644748Y-73199479D01*
X170366313Y-73385523D01*
X170129523Y-73622313D01*
X169943479Y-73900748D01*
X169815330Y-74210128D01*
X169750000Y-74538565D01*
X169750000Y-74873435D01*
X169815330Y-75201872D01*
X169943479Y-75511252D01*
X170129523Y-75789687D01*
X170366313Y-76026477D01*
X170644748Y-76212521D01*
X170954128Y-76340670D01*
X171282565Y-76406000D01*
X171617435Y-76406000D01*
X171945872Y-76340670D01*
X172255252Y-76212521D01*
X172533687Y-76026477D01*
X172770477Y-75789687D01*
X172956521Y-75511252D01*
X173084670Y-75201872D01*
X173150000Y-74873435D01*
X173150000Y-74538565D01*
X173084670Y-74210128D01*
X172956521Y-73900748D01*
X172770477Y-73622313D01*
X172533687Y-73385523D01*
X172255252Y-73199479D01*
X171945872Y-73071330D01*
X171712955Y-73025000D01*
X171945872Y-72978670D01*
X172255252Y-72850521D01*
X172533687Y-72664477D01*
X172770477Y-72427687D01*
X172956521Y-72149252D01*
X173084670Y-71839872D01*
X173150000Y-71511435D01*
X173150000Y-71176565D01*
X173084670Y-70848128D01*
X172956521Y-70538748D01*
X172770477Y-70260313D01*
X172533687Y-70023523D01*
X172255252Y-69837479D01*
X171945872Y-69709330D01*
X171617435Y-69644000D01*
X171282565Y-69644000D01*
X170954128Y-69709330D01*
X170644748Y-69837479D01*
X170366313Y-70023523D01*
X170129523Y-70260313D01*
X169943479Y-70538748D01*
X169815330Y-70848128D01*
X169750000Y-71176565D01*
X166395000Y-71176565D01*
X166395000Y-62876565D01*
X169750000Y-62876565D01*
X169750000Y-63211435D01*
X169815330Y-63539872D01*
X169943479Y-63849252D01*
X170129523Y-64127687D01*
X170366313Y-64364477D01*
X170644748Y-64550521D01*
X170954128Y-64678670D01*
X171282565Y-64744000D01*
X171617435Y-64744000D01*
X171945872Y-64678670D01*
X172255252Y-64550521D01*
X172533687Y-64364477D01*
X172770477Y-64127687D01*
X172956521Y-63849252D01*
X173084670Y-63539872D01*
X173150000Y-63211435D01*
X173150000Y-62876565D01*
X173084670Y-62548128D01*
X172956521Y-62238748D01*
X172770477Y-61960313D01*
X172533687Y-61723523D01*
X172255252Y-61537479D01*
X172154860Y-61495895D01*
X172415000Y-61497072D01*
X172539482Y-61484812D01*
X172659180Y-61448502D01*
X172769494Y-61389537D01*
X172866185Y-61310185D01*
X172945537Y-61213494D01*
X173004502Y-61103180D01*
X173040812Y-60983482D01*
X173053072Y-60859000D01*
X173050000Y-60229750D01*
X172891250Y-60071000D01*
X171577000Y-60071000D01*
X171577000Y-60091000D01*
X171323000Y-60091000D01*
X171323000Y-60071000D01*
X170008750Y-60071000D01*
X169850000Y-60229750D01*
X169846928Y-60859000D01*
X169859188Y-60983482D01*
X169895498Y-61103180D01*
X169954463Y-61213494D01*
X170033815Y-61310185D01*
X170130506Y-61389537D01*
X170240820Y-61448502D01*
X170360518Y-61484812D01*
X170485000Y-61497072D01*
X170745140Y-61495895D01*
X170644748Y-61537479D01*
X170366313Y-61723523D01*
X170129523Y-61960313D01*
X169943479Y-62238748D01*
X169815330Y-62548128D01*
X169750000Y-62876565D01*
X166395000Y-62876565D01*
X166395000Y-56676565D01*
X169750000Y-56676565D01*
X169750000Y-57011435D01*
X169815330Y-57339872D01*
X169943479Y-57649252D01*
X170129523Y-57927687D01*
X170366313Y-58164477D01*
X170644748Y-58350521D01*
X170745140Y-58392105D01*
X170485000Y-58390928D01*
X170360518Y-58403188D01*
X170240820Y-58439498D01*
X170130506Y-58498463D01*
X170033815Y-58577815D01*
X169954463Y-58674506D01*
X169895498Y-58784820D01*
X169859188Y-58904518D01*
X169846928Y-59029000D01*
X169850000Y-59658250D01*
X170008750Y-59817000D01*
X171323000Y-59817000D01*
X171323000Y-59797000D01*
X171577000Y-59797000D01*
X171577000Y-59817000D01*
X172891250Y-59817000D01*
X173050000Y-59658250D01*
X173053072Y-59029000D01*
X173040812Y-58904518D01*
X173004502Y-58784820D01*
X172945537Y-58674506D01*
X172866185Y-58577815D01*
X172769494Y-58498463D01*
X172659180Y-58439498D01*
X172539482Y-58403188D01*
X172415000Y-58390928D01*
X172154860Y-58392105D01*
X172255252Y-58350521D01*
X172533687Y-58164477D01*
X172770477Y-57927687D01*
X172956521Y-57649252D01*
X173084670Y-57339872D01*
X173150000Y-57011435D01*
X173150000Y-56676565D01*
X173084670Y-56348128D01*
X172956521Y-56038748D01*
X172841465Y-55866553D01*
X178418009Y-55866553D01*
X178460603Y-56165907D01*
X178560778Y-56451199D01*
X178640739Y-56600792D01*
X178894920Y-56684475D01*
X179779395Y-55800000D01*
X178894920Y-54915525D01*
X178640739Y-54999208D01*
X178509842Y-55271775D01*
X178434635Y-55564642D01*
X178418009Y-55866553D01*
X172841465Y-55866553D01*
X172770477Y-55760313D01*
X172533687Y-55523523D01*
X172255252Y-55337479D01*
X171945872Y-55209330D01*
X171617435Y-55144000D01*
X171282565Y-55144000D01*
X170954128Y-55209330D01*
X170644748Y-55337479D01*
X170366313Y-55523523D01*
X170129523Y-55760313D01*
X169943479Y-56038748D01*
X169815330Y-56348128D01*
X169750000Y-56676565D01*
X166395000Y-56676565D01*
X166395000Y-48376565D01*
X169750000Y-48376565D01*
X169750000Y-48711435D01*
X169815330Y-49039872D01*
X169943479Y-49349252D01*
X170129523Y-49627687D01*
X170366313Y-49864477D01*
X170644748Y-50050521D01*
X170954128Y-50178670D01*
X171282565Y-50244000D01*
X171617435Y-50244000D01*
X171945872Y-50178670D01*
X172255252Y-50050521D01*
X172533687Y-49864477D01*
X172770477Y-49627687D01*
X172956521Y-49349252D01*
X173084670Y-49039872D01*
X173150000Y-48711435D01*
X173150000Y-48500000D01*
X185194348Y-48500000D01*
X185232867Y-48891088D01*
X185346943Y-49267147D01*
X185532193Y-49613725D01*
X185781497Y-49917503D01*
X186085275Y-50166807D01*
X186431853Y-50352057D01*
X186807912Y-50466133D01*
X187101002Y-50495000D01*
X187816998Y-50495000D01*
X188110088Y-50466133D01*
X188486147Y-50352057D01*
X188832725Y-50166807D01*
X189136503Y-49917503D01*
X189385807Y-49613725D01*
X189571057Y-49267147D01*
X189685133Y-48891088D01*
X189723652Y-48500000D01*
X189685133Y-48108912D01*
X189571057Y-47732853D01*
X189385807Y-47386275D01*
X189136503Y-47082497D01*
X188832725Y-46833193D01*
X188486147Y-46647943D01*
X188110088Y-46533867D01*
X187816998Y-46505000D01*
X187101002Y-46505000D01*
X186807912Y-46533867D01*
X186431853Y-46647943D01*
X186085275Y-46833193D01*
X185781497Y-47082497D01*
X185532193Y-47386275D01*
X185346943Y-47732853D01*
X185232867Y-48108912D01*
X185194348Y-48500000D01*
X173150000Y-48500000D01*
X173150000Y-48376565D01*
X173084670Y-48048128D01*
X172956521Y-47738748D01*
X172770477Y-47460313D01*
X172533687Y-47223523D01*
X172255252Y-47037479D01*
X171945872Y-46909330D01*
X171617435Y-46844000D01*
X171282565Y-46844000D01*
X170954128Y-46909330D01*
X170644748Y-47037479D01*
X170366313Y-47223523D01*
X170129523Y-47460313D01*
X169943479Y-47738748D01*
X169815330Y-48048128D01*
X169750000Y-48376565D01*
X166395000Y-48376565D01*
X166395000Y-43840000D01*
X205075000Y-43840000D01*
X205075000Y-54217555D01*
G36*
X199263001Y-78428750D02*
G01*
X199263000Y-81481563D01*
X199219748Y-81499479D01*
X198941313Y-81685523D01*
X198704523Y-81922313D01*
X198518479Y-82200748D01*
X198390330Y-82510128D01*
X198325000Y-82838565D01*
X198325000Y-83173435D01*
X198390330Y-83501872D01*
X198518479Y-83811252D01*
X198704523Y-84089687D01*
X198941313Y-84326477D01*
X199219748Y-84512521D01*
X199320140Y-84554105D01*
X199060000Y-84552928D01*
X198935518Y-84565188D01*
X198815820Y-84601498D01*
X198705506Y-84660463D01*
X198608815Y-84739815D01*
X198529463Y-84836506D01*
X198470498Y-84946820D01*
X198434188Y-85066518D01*
X198421928Y-85191000D01*
X198425000Y-85820250D01*
X198583750Y-85979000D01*
X199898000Y-85979000D01*
X199898000Y-85959000D01*
X200152000Y-85959000D01*
X200152000Y-85979000D01*
X200172000Y-85979000D01*
X200172000Y-86233000D01*
X200152000Y-86233000D01*
X200152000Y-86253000D01*
X199898000Y-86253000D01*
X199898000Y-86233000D01*
X198583750Y-86233000D01*
X198425000Y-86391750D01*
X198421928Y-87021000D01*
X198434188Y-87145482D01*
X198470498Y-87265180D01*
X198529463Y-87375494D01*
X198608815Y-87472185D01*
X198705506Y-87551537D01*
X198815820Y-87610502D01*
X198935518Y-87646812D01*
X199060000Y-87659072D01*
X199320140Y-87657895D01*
X199219748Y-87699479D01*
X198941313Y-87885523D01*
X198704523Y-88122313D01*
X198518479Y-88400748D01*
X198390330Y-88710128D01*
X198325000Y-89038565D01*
X198325000Y-89373435D01*
X198390330Y-89701872D01*
X198518479Y-90011252D01*
X198704523Y-90289687D01*
X198941313Y-90526477D01*
X199219748Y-90712521D01*
X199529128Y-90840670D01*
X199857565Y-90906000D01*
X200192435Y-90906000D01*
X200520872Y-90840670D01*
X200709001Y-90762744D01*
X200709001Y-95744368D01*
X200564124Y-95889245D01*
X200520872Y-95871330D01*
X200192435Y-95806000D01*
X199857565Y-95806000D01*
X199529128Y-95871330D01*
X199219748Y-95999479D01*
X198941313Y-96185523D01*
X198704523Y-96422313D01*
X198518479Y-96700748D01*
X198390330Y-97010128D01*
X198325000Y-97338565D01*
X198325000Y-97673435D01*
X198390330Y-98001872D01*
X198518479Y-98311252D01*
X198704523Y-98589687D01*
X198941313Y-98826477D01*
X199219748Y-99012521D01*
X199529128Y-99140670D01*
X199762045Y-99187000D01*
X199529128Y-99233330D01*
X199219748Y-99361479D01*
X198941313Y-99547523D01*
X198704523Y-99784313D01*
X198518479Y-100062748D01*
X198390330Y-100372128D01*
X198325000Y-100700565D01*
X198325000Y-101035435D01*
X198390330Y-101363872D01*
X198408245Y-101407124D01*
X197226639Y-102588731D01*
X197197569Y-102612588D01*
X197173712Y-102641658D01*
X197173711Y-102641659D01*
X197102345Y-102728618D01*
X197031589Y-102860995D01*
X196988017Y-103004632D01*
X196973304Y-103154010D01*
X196976991Y-103191443D01*
X196976990Y-120715369D01*
X195956649Y-121735711D01*
X195927579Y-121759568D01*
X195903722Y-121788638D01*
X195903721Y-121788639D01*
X195832355Y-121875598D01*
X195761599Y-122007975D01*
X195718027Y-122151612D01*
X195703314Y-122300990D01*
X195707001Y-122338423D01*
X195707000Y-123028457D01*
X195640414Y-123128111D01*
X195569932Y-123298271D01*
X195534000Y-123478911D01*
X195534000Y-123663089D01*
X195569932Y-123843729D01*
X195640414Y-124013889D01*
X195742738Y-124167028D01*
X195872972Y-124297262D01*
X196026111Y-124399586D01*
X196196271Y-124470068D01*
X196313820Y-124493450D01*
X197427721Y-125607352D01*
X197451578Y-125636422D01*
X197567608Y-125731645D01*
X197699985Y-125802402D01*
X197843622Y-125845974D01*
X197955574Y-125857000D01*
X197955576Y-125857000D01*
X197992999Y-125860686D01*
X198030422Y-125857000D01*
X198466458Y-125857000D01*
X198566111Y-125923586D01*
X198686413Y-125973416D01*
X198518479Y-126224748D01*
X198390330Y-126534128D01*
X198325000Y-126862565D01*
X198325000Y-127197435D01*
X198390330Y-127525872D01*
X198518479Y-127835252D01*
X198704523Y-128113687D01*
X198941313Y-128350477D01*
X199219748Y-128536521D01*
X199529128Y-128664670D01*
X199857565Y-128730000D01*
X200192435Y-128730000D01*
X200520872Y-128664670D01*
X200830252Y-128536521D01*
X201108687Y-128350477D01*
X201345477Y-128113687D01*
X201531521Y-127835252D01*
X201659670Y-127525872D01*
X201725000Y-127197435D01*
X201725000Y-126862565D01*
X201659670Y-126534128D01*
X201531521Y-126224748D01*
X201345477Y-125946313D01*
X201108687Y-125709523D01*
X200830252Y-125523479D01*
X200520872Y-125395330D01*
X200287955Y-125349000D01*
X200520872Y-125302670D01*
X200830252Y-125174521D01*
X201108687Y-124988477D01*
X201345477Y-124751687D01*
X201531521Y-124473252D01*
X201659670Y-124163872D01*
X201725000Y-123835435D01*
X201725000Y-123500565D01*
X201659670Y-123172128D01*
X201531521Y-122862748D01*
X201345477Y-122584313D01*
X201108687Y-122347523D01*
X200830252Y-122161479D01*
X200787000Y-122143563D01*
X200787000Y-121981630D01*
X201236170Y-121532460D01*
X201244012Y-121540302D01*
X201397151Y-121642626D01*
X201567311Y-121713108D01*
X201747951Y-121749040D01*
X201932129Y-121749040D01*
X202112769Y-121713108D01*
X202282929Y-121642626D01*
X202436068Y-121540302D01*
X202566302Y-121410068D01*
X202668626Y-121256929D01*
X202739108Y-121086769D01*
X202762490Y-120969220D01*
X204262011Y-119469700D01*
X204262012Y-130729011D01*
X199381404Y-130729011D01*
X199343988Y-130725326D01*
X199306572Y-130729011D01*
X199306563Y-130729011D01*
X199194611Y-130740037D01*
X199050974Y-130783609D01*
X198918597Y-130854366D01*
X198802567Y-130949589D01*
X198778709Y-130978660D01*
X198345820Y-131411550D01*
X198228271Y-131434932D01*
X198058111Y-131505414D01*
X197904972Y-131607738D01*
X197774738Y-131737972D01*
X197672414Y-131891111D01*
X197601932Y-132061271D01*
X197566000Y-132241911D01*
X197566000Y-132426089D01*
X197601932Y-132606729D01*
X197672414Y-132776889D01*
X197774738Y-132930028D01*
X197904972Y-133060262D01*
X198058111Y-133162586D01*
X198228271Y-133233068D01*
X198408911Y-133269000D01*
X198593089Y-133269000D01*
X198773729Y-133233068D01*
X198943889Y-133162586D01*
X199097028Y-133060262D01*
X199227262Y-132930028D01*
X199329586Y-132776889D01*
X199400068Y-132606729D01*
X199423450Y-132489180D01*
X199659620Y-132253011D01*
X204262011Y-132253011D01*
X204262012Y-144746753D01*
X203720765Y-145288000D01*
X202533554Y-145288000D01*
X202463267Y-145217713D01*
X202260992Y-145082557D01*
X202036236Y-144989460D01*
X201797637Y-144942000D01*
X201554363Y-144942000D01*
X201315764Y-144989460D01*
X201091008Y-145082557D01*
X200888733Y-145217713D01*
X200716713Y-145389733D01*
X200581557Y-145592008D01*
X200488460Y-145816764D01*
X200441000Y-146055363D01*
X200441000Y-146298637D01*
X200488460Y-146537236D01*
X200581557Y-146761992D01*
X200716713Y-146964267D01*
X200888733Y-147136287D01*
X200914001Y-147153171D01*
X200914001Y-148379438D01*
X200830252Y-148323479D01*
X200520872Y-148195330D01*
X200192435Y-148130000D01*
X199857565Y-148130000D01*
X199529128Y-148195330D01*
X199219748Y-148323479D01*
X198941313Y-148509523D01*
X198704523Y-148746313D01*
X198518479Y-149024748D01*
X198390330Y-149334128D01*
X198325000Y-149662565D01*
X198325000Y-149997435D01*
X198390330Y-150325872D01*
X198518479Y-150635252D01*
X198610526Y-150773010D01*
X190761881Y-150773010D01*
X190764068Y-150767729D01*
X190787450Y-150650180D01*
X192212631Y-149225000D01*
X192751458Y-149225000D01*
X192851111Y-149291586D01*
X193021271Y-149362068D01*
X193201911Y-149398000D01*
X193386089Y-149398000D01*
X193566729Y-149362068D01*
X193736889Y-149291586D01*
X193890028Y-149189262D01*
X194020262Y-149059028D01*
X194122586Y-148905889D01*
X194193068Y-148735729D01*
X194229000Y-148555089D01*
X194229000Y-148370911D01*
X194200218Y-148226218D01*
X194344911Y-148255000D01*
X194529089Y-148255000D01*
X194709729Y-148219068D01*
X194879889Y-148148586D01*
X195033028Y-148046262D01*
X195163262Y-147916028D01*
X195265586Y-147762889D01*
X195336068Y-147592729D01*
X195359450Y-147475180D01*
X195884352Y-146950278D01*
X195913423Y-146926421D01*
X196008646Y-146810391D01*
X196079403Y-146678014D01*
X196122975Y-146534377D01*
X196134001Y-146422425D01*
X196134001Y-146422423D01*
X196137687Y-146385000D01*
X196134001Y-146347577D01*
X196134001Y-141434424D01*
X196137687Y-141397001D01*
X196134296Y-141362565D01*
X198325000Y-141362565D01*
X198325000Y-141697435D01*
X198390330Y-142025872D01*
X198518479Y-142335252D01*
X198704523Y-142613687D01*
X198941313Y-142850477D01*
X199219748Y-143036521D01*
X199529128Y-143164670D01*
X199857565Y-143230000D01*
X200192435Y-143230000D01*
X200520872Y-143164670D01*
X200830252Y-143036521D01*
X201108687Y-142850477D01*
X201345477Y-142613687D01*
X201531521Y-142335252D01*
X201659670Y-142025872D01*
X201725000Y-141697435D01*
X201725000Y-141362565D01*
X201659670Y-141034128D01*
X201531521Y-140724748D01*
X201345477Y-140446313D01*
X201108687Y-140209523D01*
X200830252Y-140023479D01*
X200729860Y-139981895D01*
X200990000Y-139983072D01*
X201114482Y-139970812D01*
X201234180Y-139934502D01*
X201344494Y-139875537D01*
X201441185Y-139796185D01*
X201520537Y-139699494D01*
X201579502Y-139589180D01*
X201615812Y-139469482D01*
X201628072Y-139345000D01*
X201625000Y-138715750D01*
X201466250Y-138557000D01*
X200152000Y-138557000D01*
X200152000Y-138577000D01*
X199898000Y-138577000D01*
X199898000Y-138557000D01*
X198583750Y-138557000D01*
X198425000Y-138715750D01*
X198421928Y-139345000D01*
X198434188Y-139469482D01*
X198470498Y-139589180D01*
X198529463Y-139699494D01*
X198608815Y-139796185D01*
X198705506Y-139875537D01*
X198815820Y-139934502D01*
X198935518Y-139970812D01*
X199060000Y-139983072D01*
X199320140Y-139981895D01*
X199219748Y-140023479D01*
X198941313Y-140209523D01*
X198704523Y-140446313D01*
X198518479Y-140724748D01*
X198390330Y-141034128D01*
X198325000Y-141362565D01*
X196134296Y-141362565D01*
X196128894Y-141307725D01*
X196122975Y-141247623D01*
X196079403Y-141103986D01*
X196008647Y-140971610D01*
X196008646Y-140971608D01*
X195937280Y-140884649D01*
X195913423Y-140855579D01*
X195884354Y-140831723D01*
X195613450Y-140560820D01*
X195590068Y-140443271D01*
X195519586Y-140273111D01*
X195417262Y-140119972D01*
X195287028Y-139989738D01*
X195133889Y-139887414D01*
X194963729Y-139816932D01*
X194783089Y-139781000D01*
X194598911Y-139781000D01*
X194564000Y-139787944D01*
X194564000Y-135162565D01*
X198325000Y-135162565D01*
X198325000Y-135497435D01*
X198390330Y-135825872D01*
X198518479Y-136135252D01*
X198704523Y-136413687D01*
X198941313Y-136650477D01*
X199219748Y-136836521D01*
X199320140Y-136878105D01*
X199060000Y-136876928D01*
X198935518Y-136889188D01*
X198815820Y-136925498D01*
X198705506Y-136984463D01*
X198608815Y-137063815D01*
X198529463Y-137160506D01*
X198470498Y-137270820D01*
X198434188Y-137390518D01*
X198421928Y-137515000D01*
X198425000Y-138144250D01*
X198583750Y-138303000D01*
X199898000Y-138303000D01*
X199898000Y-138283000D01*
X200152000Y-138283000D01*
X200152000Y-138303000D01*
X201466250Y-138303000D01*
X201625000Y-138144250D01*
X201628072Y-137515000D01*
X201615812Y-137390518D01*
X201579502Y-137270820D01*
X201520537Y-137160506D01*
X201441185Y-137063815D01*
X201344494Y-136984463D01*
X201234180Y-136925498D01*
X201114482Y-136889188D01*
X200990000Y-136876928D01*
X200729860Y-136878105D01*
X200830252Y-136836521D01*
X201108687Y-136650477D01*
X201345477Y-136413687D01*
X201531521Y-136135252D01*
X201659670Y-135825872D01*
X201725000Y-135497435D01*
X201725000Y-135162565D01*
X201659670Y-134834128D01*
X201531521Y-134524748D01*
X201345477Y-134246313D01*
X201108687Y-134009523D01*
X200830252Y-133823479D01*
X200520872Y-133695330D01*
X200192435Y-133630000D01*
X199857565Y-133630000D01*
X199529128Y-133695330D01*
X199219748Y-133823479D01*
X198941313Y-134009523D01*
X198704523Y-134246313D01*
X198518479Y-134524748D01*
X198390330Y-134834128D01*
X198325000Y-135162565D01*
X194564000Y-135162565D01*
X194564000Y-134800512D01*
X194614347Y-134750165D01*
X194643423Y-134726303D01*
X194738646Y-134610273D01*
X194809403Y-134477896D01*
X194852975Y-134334259D01*
X194864001Y-134222307D01*
X194864001Y-134222298D01*
X194867686Y-134184882D01*
X194864001Y-134147466D01*
X194864001Y-132798423D01*
X194867687Y-132761000D01*
X194864001Y-132723575D01*
X194852975Y-132611623D01*
X194809403Y-132467986D01*
X194738646Y-132335609D01*
X194643423Y-132219579D01*
X194614354Y-132195723D01*
X194089450Y-131670820D01*
X194066068Y-131553271D01*
X193995586Y-131383111D01*
X193893262Y-131229972D01*
X193763028Y-131099738D01*
X193609889Y-130997414D01*
X193439729Y-130926932D01*
X193259089Y-130891000D01*
X193074911Y-130891000D01*
X192894271Y-130926932D01*
X192724111Y-130997414D01*
X192570972Y-131099738D01*
X192440738Y-131229972D01*
X192338414Y-131383111D01*
X192267932Y-131553271D01*
X192232000Y-131733911D01*
X192232000Y-131918089D01*
X192267932Y-132098729D01*
X192338414Y-132268889D01*
X192440738Y-132422028D01*
X192570972Y-132552262D01*
X192724111Y-132654586D01*
X192894271Y-132725068D01*
X193011820Y-132748450D01*
X193340001Y-133076632D01*
X193340002Y-133869250D01*
X193289654Y-133919598D01*
X193260578Y-133943460D01*
X193206362Y-134009523D01*
X193165355Y-134059490D01*
X193127535Y-134130247D01*
X193094598Y-134191868D01*
X193051026Y-134335505D01*
X193043394Y-134413000D01*
X193036314Y-134484882D01*
X193040000Y-134522305D01*
X193040000Y-137760458D01*
X193004262Y-137706972D01*
X192874028Y-137576738D01*
X192720889Y-137474414D01*
X192550729Y-137403932D01*
X192433180Y-137380550D01*
X186664649Y-131612019D01*
X186778028Y-131536262D01*
X186908262Y-131406028D01*
X187010586Y-131252889D01*
X187081068Y-131082729D01*
X187117000Y-130902089D01*
X187117000Y-130717911D01*
X187081068Y-130537271D01*
X187010586Y-130367111D01*
X186908262Y-130213972D01*
X186778028Y-130083738D01*
X186624889Y-129981414D01*
X186454729Y-129910932D01*
X186337181Y-129887550D01*
X184334284Y-127884654D01*
X184310422Y-127855578D01*
X184194392Y-127760355D01*
X184062015Y-127689598D01*
X183918378Y-127646026D01*
X183806426Y-127635000D01*
X183806423Y-127635000D01*
X183803912Y-127634753D01*
X183857028Y-127599262D01*
X183987262Y-127469028D01*
X184089586Y-127315889D01*
X184160068Y-127145729D01*
X184196000Y-126965089D01*
X184196000Y-126780911D01*
X184160068Y-126600271D01*
X184089586Y-126430111D01*
X184023000Y-126330458D01*
X184023000Y-125423471D01*
X185277209Y-124169263D01*
X185346943Y-124399147D01*
X185532193Y-124745725D01*
X185781497Y-125049503D01*
X186085275Y-125298807D01*
X186223145Y-125372500D01*
X186085275Y-125446193D01*
X185781497Y-125695497D01*
X185532193Y-125999275D01*
X185346943Y-126345853D01*
X185232867Y-126721912D01*
X185194348Y-127113000D01*
X185232867Y-127504088D01*
X185346943Y-127880147D01*
X185532193Y-128226725D01*
X185781497Y-128530503D01*
X186085275Y-128779807D01*
X186431853Y-128965057D01*
X186807912Y-129079133D01*
X187101002Y-129108000D01*
X187816998Y-129108000D01*
X188110088Y-129079133D01*
X188486147Y-128965057D01*
X188832725Y-128779807D01*
X189136503Y-128530503D01*
X189385807Y-128226725D01*
X189571057Y-127880147D01*
X189685133Y-127504088D01*
X189723652Y-127113000D01*
X189685133Y-126721912D01*
X189571057Y-126345853D01*
X189385807Y-125999275D01*
X189136503Y-125695497D01*
X188832725Y-125446193D01*
X188694855Y-125372500D01*
X188832725Y-125298807D01*
X189136503Y-125049503D01*
X189385807Y-124745725D01*
X189571057Y-124399147D01*
X189685133Y-124023088D01*
X189723652Y-123632000D01*
X189685133Y-123240912D01*
X189571057Y-122864853D01*
X189457814Y-122652990D01*
X192244379Y-122652990D01*
X192281802Y-122656676D01*
X192319225Y-122652990D01*
X192319228Y-122652990D01*
X192431180Y-122641964D01*
X192574817Y-122598392D01*
X192707194Y-122527635D01*
X192823224Y-122432412D01*
X192847086Y-122403336D01*
X194441352Y-120809071D01*
X194470422Y-120785214D01*
X194509182Y-120737985D01*
X194565645Y-120669185D01*
X194603465Y-120598428D01*
X194636402Y-120536807D01*
X194679974Y-120393170D01*
X194691000Y-120281218D01*
X194691000Y-120281215D01*
X194694686Y-120243792D01*
X194691000Y-120206369D01*
X194691000Y-117890542D01*
X194757586Y-117790889D01*
X194828068Y-117620729D01*
X194864000Y-117440089D01*
X194864000Y-117255911D01*
X194828068Y-117075271D01*
X194757586Y-116905111D01*
X194655262Y-116751972D01*
X194525028Y-116621738D01*
X194371889Y-116519414D01*
X194201729Y-116448932D01*
X194021089Y-116413000D01*
X193836911Y-116413000D01*
X193802000Y-116419944D01*
X193802000Y-113447264D01*
X193805686Y-113409841D01*
X193797708Y-113328837D01*
X193790974Y-113260463D01*
X193747402Y-113116826D01*
X193686697Y-113003255D01*
X193676645Y-112984448D01*
X193605279Y-112897489D01*
X193581422Y-112868419D01*
X193552353Y-112844563D01*
X185946443Y-105238654D01*
X185922581Y-105209578D01*
X185806551Y-105114355D01*
X185674174Y-105043598D01*
X185530537Y-105000026D01*
X185418585Y-104989000D01*
X185418582Y-104989000D01*
X185381159Y-104985314D01*
X185343736Y-104989000D01*
X181295976Y-104989000D01*
X181151312Y-104772495D01*
X181113697Y-104734880D01*
X181213494Y-104681537D01*
X181310185Y-104602185D01*
X181389537Y-104505494D01*
X181448502Y-104395180D01*
X181484812Y-104275482D01*
X181497072Y-104151000D01*
X181497072Y-102351000D01*
X181484812Y-102226518D01*
X181448502Y-102106820D01*
X181389537Y-101996506D01*
X181310185Y-101899815D01*
X181213494Y-101820463D01*
X181103180Y-101761498D01*
X180983482Y-101725188D01*
X180859000Y-101712928D01*
X179059000Y-101712928D01*
X178934518Y-101725188D01*
X178814820Y-101761498D01*
X178704506Y-101820463D01*
X178607815Y-101899815D01*
X178528463Y-101996506D01*
X178469498Y-102106820D01*
X178433188Y-102226518D01*
X178420928Y-102351000D01*
X178420928Y-104151000D01*
X178433188Y-104275482D01*
X178469498Y-104395180D01*
X178528463Y-104505494D01*
X178607815Y-104602185D01*
X178704506Y-104681537D01*
X178804303Y-104734880D01*
X178766688Y-104772495D01*
X178598701Y-105023905D01*
X178482989Y-105303257D01*
X178424000Y-105599816D01*
X178424000Y-105902184D01*
X178482989Y-106198743D01*
X178598701Y-106478095D01*
X178766688Y-106729505D01*
X178980495Y-106943312D01*
X179123310Y-107038738D01*
X179074525Y-107186920D01*
X179959000Y-108071395D01*
X180843475Y-107186920D01*
X180794690Y-107038738D01*
X180937505Y-106943312D01*
X181151312Y-106729505D01*
X181295976Y-106513000D01*
X185065529Y-106513000D01*
X187108529Y-108556000D01*
X187101002Y-108556000D01*
X186807912Y-108584867D01*
X186431853Y-108698943D01*
X186085275Y-108884193D01*
X185781497Y-109133497D01*
X185532193Y-109437275D01*
X185346943Y-109783853D01*
X185232867Y-110159912D01*
X185194348Y-110551000D01*
X185232867Y-110942088D01*
X185346943Y-111318147D01*
X185532193Y-111664725D01*
X185781497Y-111968503D01*
X186085275Y-112217807D01*
X186223145Y-112291500D01*
X186085275Y-112365193D01*
X185781497Y-112614497D01*
X185532193Y-112918275D01*
X185346943Y-113264853D01*
X185232867Y-113640912D01*
X185194348Y-114032000D01*
X185232867Y-114423088D01*
X185346943Y-114799147D01*
X185532193Y-115145725D01*
X185781497Y-115449503D01*
X186085275Y-115698807D01*
X186431853Y-115884057D01*
X186807912Y-115998133D01*
X187101002Y-116027000D01*
X187816998Y-116027000D01*
X188110088Y-115998133D01*
X188486147Y-115884057D01*
X188832725Y-115698807D01*
X189136503Y-115449503D01*
X189385807Y-115145725D01*
X189571057Y-114799147D01*
X189685133Y-114423088D01*
X189723652Y-114032000D01*
X189685133Y-113640912D01*
X189571057Y-113264853D01*
X189385807Y-112918275D01*
X189136503Y-112614497D01*
X188832725Y-112365193D01*
X188694855Y-112291500D01*
X188832725Y-112217807D01*
X189136503Y-111968503D01*
X189385807Y-111664725D01*
X189571057Y-111318147D01*
X189640791Y-111088263D01*
X192278000Y-113725472D01*
X192278001Y-117059457D01*
X192211414Y-117159111D01*
X192203845Y-117177384D01*
X192128883Y-117170001D01*
X192128880Y-117170001D01*
X192091457Y-117166315D01*
X192054034Y-117170001D01*
X181497072Y-117170001D01*
X181497072Y-115432000D01*
X181484812Y-115307518D01*
X181448502Y-115187820D01*
X181389537Y-115077506D01*
X181310185Y-114980815D01*
X181213494Y-114901463D01*
X181103180Y-114842498D01*
X180983482Y-114806188D01*
X180859000Y-114793928D01*
X179059000Y-114793928D01*
X178934518Y-114806188D01*
X178814820Y-114842498D01*
X178704506Y-114901463D01*
X178607815Y-114980815D01*
X178528463Y-115077506D01*
X178469498Y-115187820D01*
X178433188Y-115307518D01*
X178420928Y-115432000D01*
X178420928Y-117232000D01*
X178433188Y-117356482D01*
X178469498Y-117476180D01*
X178528463Y-117586494D01*
X178607815Y-117683185D01*
X178704506Y-117762537D01*
X178804303Y-117815880D01*
X178766688Y-117853495D01*
X178598701Y-118104905D01*
X178482989Y-118384257D01*
X178424000Y-118680816D01*
X178424000Y-118983184D01*
X178482989Y-119279743D01*
X178598701Y-119559095D01*
X178766688Y-119810505D01*
X178980495Y-120024312D01*
X179123310Y-120119738D01*
X179074525Y-120267920D01*
X179959000Y-121152395D01*
X180843475Y-120267920D01*
X180794690Y-120119738D01*
X180937505Y-120024312D01*
X181151312Y-119810505D01*
X181319299Y-119559095D01*
X181435011Y-119279743D01*
X181494000Y-118983184D01*
X181494000Y-118694001D01*
X191775827Y-118694001D01*
X192109006Y-119027180D01*
X192132388Y-119144729D01*
X192202870Y-119314889D01*
X192305194Y-119468028D01*
X192435428Y-119598262D01*
X192588567Y-119700586D01*
X192758727Y-119771068D01*
X192939367Y-119807000D01*
X193123545Y-119807000D01*
X193167001Y-119798356D01*
X193167001Y-119928160D01*
X191966172Y-121128990D01*
X187669641Y-121128990D01*
X187988181Y-120810450D01*
X188105729Y-120787068D01*
X188275889Y-120716586D01*
X188429028Y-120614262D01*
X188559262Y-120484028D01*
X188661586Y-120330889D01*
X188732068Y-120160729D01*
X188768000Y-119980089D01*
X188768000Y-119795911D01*
X188732068Y-119615271D01*
X188661586Y-119445111D01*
X188559262Y-119291972D01*
X188429028Y-119161738D01*
X188275889Y-119059414D01*
X188105729Y-118988932D01*
X187925089Y-118953000D01*
X187740911Y-118953000D01*
X187560271Y-118988932D01*
X187390111Y-119059414D01*
X187236972Y-119161738D01*
X187106738Y-119291972D01*
X187004414Y-119445111D01*
X186933932Y-119615271D01*
X186910550Y-119732819D01*
X186022390Y-120620980D01*
X181841324Y-120620980D01*
X181803901Y-120617294D01*
X181766478Y-120620980D01*
X181766476Y-120620980D01*
X181654524Y-120632006D01*
X181510887Y-120675578D01*
X181379961Y-120745560D01*
X181357222Y-120680801D01*
X181277261Y-120531208D01*
X181023080Y-120447525D01*
X180138605Y-121332000D01*
X180152748Y-121346143D01*
X179973143Y-121525748D01*
X179959000Y-121511605D01*
X179074525Y-122396080D01*
X179158208Y-122650261D01*
X179361407Y-122747845D01*
X177959065Y-124150187D01*
X177601813Y-124150187D01*
X177601813Y-121398553D01*
X178418009Y-121398553D01*
X178460603Y-121697907D01*
X178560778Y-121983199D01*
X178640739Y-122132792D01*
X178894920Y-122216475D01*
X179779395Y-121332000D01*
X178894920Y-120447525D01*
X178640739Y-120531208D01*
X178509842Y-120803775D01*
X178434635Y-121096642D01*
X178418009Y-121398553D01*
X177601813Y-121398553D01*
X177601813Y-109315080D01*
X179074525Y-109315080D01*
X179158208Y-109569261D01*
X179430775Y-109700158D01*
X179723642Y-109775365D01*
X180025553Y-109791991D01*
X180324907Y-109749397D01*
X180610199Y-109649222D01*
X180759792Y-109569261D01*
X180843475Y-109315080D01*
X179959000Y-108430605D01*
X179074525Y-109315080D01*
X177601813Y-109315080D01*
X177601813Y-108317553D01*
X178418009Y-108317553D01*
X178460603Y-108616907D01*
X178560778Y-108902199D01*
X178640739Y-109051792D01*
X178894920Y-109135475D01*
X179779395Y-108251000D01*
X180138605Y-108251000D01*
X181023080Y-109135475D01*
X181277261Y-109051792D01*
X181408158Y-108779225D01*
X181483365Y-108486358D01*
X181499991Y-108184447D01*
X181457397Y-107885093D01*
X181357222Y-107599801D01*
X181277261Y-107450208D01*
X181023080Y-107366525D01*
X180138605Y-108251000D01*
X179779395Y-108251000D01*
X178894920Y-107366525D01*
X178640739Y-107450208D01*
X178509842Y-107722775D01*
X178434635Y-108015642D01*
X178418009Y-108317553D01*
X177601813Y-108317553D01*
X177601813Y-97470000D01*
X185194348Y-97470000D01*
X185232867Y-97861088D01*
X185346943Y-98237147D01*
X185532193Y-98583725D01*
X185781497Y-98887503D01*
X186085275Y-99136807D01*
X186223145Y-99210500D01*
X186085275Y-99284193D01*
X185781497Y-99533497D01*
X185532193Y-99837275D01*
X185346943Y-100183853D01*
X185232867Y-100559912D01*
X185194348Y-100951000D01*
X185232867Y-101342088D01*
X185346943Y-101718147D01*
X185532193Y-102064725D01*
X185781497Y-102368503D01*
X186085275Y-102617807D01*
X186431853Y-102803057D01*
X186807912Y-102917133D01*
X187101002Y-102946000D01*
X187816998Y-102946000D01*
X188110088Y-102917133D01*
X188486147Y-102803057D01*
X188832725Y-102617807D01*
X189136503Y-102368503D01*
X189385807Y-102064725D01*
X189571057Y-101718147D01*
X189685133Y-101342088D01*
X189723652Y-100951000D01*
X189685133Y-100559912D01*
X189571057Y-100183853D01*
X189385807Y-99837275D01*
X189136503Y-99533497D01*
X188832725Y-99284193D01*
X188694855Y-99210500D01*
X188832725Y-99136807D01*
X189136503Y-98887503D01*
X189385807Y-98583725D01*
X189571057Y-98237147D01*
X189685133Y-97861088D01*
X189723652Y-97470000D01*
X189685133Y-97078912D01*
X189571057Y-96702853D01*
X189385807Y-96356275D01*
X189136503Y-96052497D01*
X188832725Y-95803193D01*
X188486147Y-95617943D01*
X188110088Y-95503867D01*
X187816998Y-95475000D01*
X187101002Y-95475000D01*
X186807912Y-95503867D01*
X186431853Y-95617943D01*
X186085275Y-95803193D01*
X185781497Y-96052497D01*
X185532193Y-96356275D01*
X185346943Y-96702853D01*
X185232867Y-97078912D01*
X185194348Y-97470000D01*
X177601813Y-97470000D01*
X177601813Y-96234080D01*
X179074525Y-96234080D01*
X179158208Y-96488261D01*
X179430775Y-96619158D01*
X179723642Y-96694365D01*
X180025553Y-96710991D01*
X180324907Y-96668397D01*
X180610199Y-96568222D01*
X180759792Y-96488261D01*
X180843475Y-96234080D01*
X179959000Y-95349605D01*
X179074525Y-96234080D01*
X177601813Y-96234080D01*
X177601813Y-95236553D01*
X178418009Y-95236553D01*
X178460603Y-95535907D01*
X178560778Y-95821199D01*
X178640739Y-95970792D01*
X178894920Y-96054475D01*
X179779395Y-95170000D01*
X180138605Y-95170000D01*
X181023080Y-96054475D01*
X181277261Y-95970792D01*
X181408158Y-95698225D01*
X181483365Y-95405358D01*
X181499991Y-95103447D01*
X181457397Y-94804093D01*
X181357222Y-94518801D01*
X181277261Y-94369208D01*
X181023080Y-94285525D01*
X180138605Y-95170000D01*
X179779395Y-95170000D01*
X178894920Y-94285525D01*
X178640739Y-94369208D01*
X178509842Y-94641775D01*
X178434635Y-94934642D01*
X178418009Y-95236553D01*
X177601813Y-95236553D01*
X177601813Y-85695124D01*
X178773453Y-85695124D01*
X178810876Y-85698810D01*
X178848299Y-85695124D01*
X178848302Y-85695124D01*
X178960254Y-85684098D01*
X179103891Y-85640526D01*
X179197000Y-85590758D01*
X179197001Y-88631928D01*
X179059000Y-88631928D01*
X178934518Y-88644188D01*
X178814820Y-88680498D01*
X178704506Y-88739463D01*
X178607815Y-88818815D01*
X178528463Y-88915506D01*
X178469498Y-89025820D01*
X178433188Y-89145518D01*
X178420928Y-89270000D01*
X178420928Y-91070000D01*
X178433188Y-91194482D01*
X178469498Y-91314180D01*
X178528463Y-91424494D01*
X178607815Y-91521185D01*
X178704506Y-91600537D01*
X178804303Y-91653880D01*
X178766688Y-91691495D01*
X178598701Y-91942905D01*
X178482989Y-92222257D01*
X178424000Y-92518816D01*
X178424000Y-92821184D01*
X178482989Y-93117743D01*
X178598701Y-93397095D01*
X178766688Y-93648505D01*
X178980495Y-93862312D01*
X179123310Y-93957738D01*
X179074525Y-94105920D01*
X179959000Y-94990395D01*
X180843475Y-94105920D01*
X180794690Y-93957738D01*
X180937505Y-93862312D01*
X181151312Y-93648505D01*
X181319299Y-93397095D01*
X181435011Y-93117743D01*
X181494000Y-92821184D01*
X181494000Y-92518816D01*
X181442539Y-92260102D01*
X181495644Y-92195394D01*
X181503185Y-92181286D01*
X185277208Y-88407263D01*
X185346943Y-88637147D01*
X185532193Y-88983725D01*
X185781497Y-89287503D01*
X186085275Y-89536807D01*
X186431853Y-89722057D01*
X186807912Y-89836133D01*
X187101002Y-89865000D01*
X187816998Y-89865000D01*
X188110088Y-89836133D01*
X188486147Y-89722057D01*
X188832725Y-89536807D01*
X189136503Y-89287503D01*
X189385807Y-88983725D01*
X189571057Y-88637147D01*
X189685133Y-88261088D01*
X189723652Y-87870000D01*
X189685133Y-87478912D01*
X189571057Y-87102853D01*
X189385807Y-86756275D01*
X189318078Y-86673747D01*
X189322142Y-86670412D01*
X189346004Y-86641336D01*
X192913000Y-83074340D01*
X192913000Y-84290577D01*
X192909314Y-84328000D01*
X192913000Y-84365423D01*
X192913000Y-84365425D01*
X192924026Y-84477377D01*
X192967598Y-84621014D01*
X192979037Y-84642414D01*
X193038355Y-84753392D01*
X193063266Y-84783746D01*
X193133578Y-84869422D01*
X193162654Y-84893284D01*
X193895550Y-85626181D01*
X193918932Y-85743729D01*
X193989414Y-85913889D01*
X194091738Y-86067028D01*
X194221972Y-86197262D01*
X194375111Y-86299586D01*
X194545271Y-86370068D01*
X194725911Y-86406000D01*
X194910089Y-86406000D01*
X195090729Y-86370068D01*
X195260889Y-86299586D01*
X195414028Y-86197262D01*
X195544262Y-86067028D01*
X195646586Y-85913889D01*
X195717068Y-85743729D01*
X195753000Y-85563089D01*
X195753000Y-85378911D01*
X195717068Y-85198271D01*
X195646586Y-85028111D01*
X195544262Y-84874972D01*
X195414028Y-84744738D01*
X195260889Y-84642414D01*
X195090729Y-84571932D01*
X194973181Y-84548550D01*
X194437000Y-84012370D01*
X194437000Y-78647542D01*
X194503586Y-78547889D01*
X194574068Y-78377729D01*
X194610000Y-78197089D01*
X194610000Y-78012911D01*
X194603056Y-77978000D01*
X197577458Y-77978000D01*
X197677111Y-78044586D01*
X197847271Y-78115068D01*
X198027911Y-78151000D01*
X198212089Y-78151000D01*
X198392729Y-78115068D01*
X198562889Y-78044586D01*
X198716028Y-77942262D01*
X198746271Y-77912019D01*
X199263001Y-78428750D01*
X199263001Y-78428750D01*
G37*
X199263001Y-78428750D02*
X199263000Y-81481563D01*
X199219748Y-81499479D01*
X198941313Y-81685523D01*
X198704523Y-81922313D01*
X198518479Y-82200748D01*
X198390330Y-82510128D01*
X198325000Y-82838565D01*
X198325000Y-83173435D01*
X198390330Y-83501872D01*
X198518479Y-83811252D01*
X198704523Y-84089687D01*
X198941313Y-84326477D01*
X199219748Y-84512521D01*
X199320140Y-84554105D01*
X199060000Y-84552928D01*
X198935518Y-84565188D01*
X198815820Y-84601498D01*
X198705506Y-84660463D01*
X198608815Y-84739815D01*
X198529463Y-84836506D01*
X198470498Y-84946820D01*
X198434188Y-85066518D01*
X198421928Y-85191000D01*
X198425000Y-85820250D01*
X198583750Y-85979000D01*
X199898000Y-85979000D01*
X199898000Y-85959000D01*
X200152000Y-85959000D01*
X200152000Y-85979000D01*
X200172000Y-85979000D01*
X200172000Y-86233000D01*
X200152000Y-86233000D01*
X200152000Y-86253000D01*
X199898000Y-86253000D01*
X199898000Y-86233000D01*
X198583750Y-86233000D01*
X198425000Y-86391750D01*
X198421928Y-87021000D01*
X198434188Y-87145482D01*
X198470498Y-87265180D01*
X198529463Y-87375494D01*
X198608815Y-87472185D01*
X198705506Y-87551537D01*
X198815820Y-87610502D01*
X198935518Y-87646812D01*
X199060000Y-87659072D01*
X199320140Y-87657895D01*
X199219748Y-87699479D01*
X198941313Y-87885523D01*
X198704523Y-88122313D01*
X198518479Y-88400748D01*
X198390330Y-88710128D01*
X198325000Y-89038565D01*
X198325000Y-89373435D01*
X198390330Y-89701872D01*
X198518479Y-90011252D01*
X198704523Y-90289687D01*
X198941313Y-90526477D01*
X199219748Y-90712521D01*
X199529128Y-90840670D01*
X199857565Y-90906000D01*
X200192435Y-90906000D01*
X200520872Y-90840670D01*
X200709001Y-90762744D01*
X200709001Y-95744368D01*
X200564124Y-95889245D01*
X200520872Y-95871330D01*
X200192435Y-95806000D01*
X199857565Y-95806000D01*
X199529128Y-95871330D01*
X199219748Y-95999479D01*
X198941313Y-96185523D01*
X198704523Y-96422313D01*
X198518479Y-96700748D01*
X198390330Y-97010128D01*
X198325000Y-97338565D01*
X198325000Y-97673435D01*
X198390330Y-98001872D01*
X198518479Y-98311252D01*
X198704523Y-98589687D01*
X198941313Y-98826477D01*
X199219748Y-99012521D01*
X199529128Y-99140670D01*
X199762045Y-99187000D01*
X199529128Y-99233330D01*
X199219748Y-99361479D01*
X198941313Y-99547523D01*
X198704523Y-99784313D01*
X198518479Y-100062748D01*
X198390330Y-100372128D01*
X198325000Y-100700565D01*
X198325000Y-101035435D01*
X198390330Y-101363872D01*
X198408245Y-101407124D01*
X197226639Y-102588731D01*
X197197569Y-102612588D01*
X197173712Y-102641658D01*
X197173711Y-102641659D01*
X197102345Y-102728618D01*
X197031589Y-102860995D01*
X196988017Y-103004632D01*
X196973304Y-103154010D01*
X196976991Y-103191443D01*
X196976990Y-120715369D01*
X195956649Y-121735711D01*
X195927579Y-121759568D01*
X195903722Y-121788638D01*
X195903721Y-121788639D01*
X195832355Y-121875598D01*
X195761599Y-122007975D01*
X195718027Y-122151612D01*
X195703314Y-122300990D01*
X195707001Y-122338423D01*
X195707000Y-123028457D01*
X195640414Y-123128111D01*
X195569932Y-123298271D01*
X195534000Y-123478911D01*
X195534000Y-123663089D01*
X195569932Y-123843729D01*
X195640414Y-124013889D01*
X195742738Y-124167028D01*
X195872972Y-124297262D01*
X196026111Y-124399586D01*
X196196271Y-124470068D01*
X196313820Y-124493450D01*
X197427721Y-125607352D01*
X197451578Y-125636422D01*
X197567608Y-125731645D01*
X197699985Y-125802402D01*
X197843622Y-125845974D01*
X197955574Y-125857000D01*
X197955576Y-125857000D01*
X197992999Y-125860686D01*
X198030422Y-125857000D01*
X198466458Y-125857000D01*
X198566111Y-125923586D01*
X198686413Y-125973416D01*
X198518479Y-126224748D01*
X198390330Y-126534128D01*
X198325000Y-126862565D01*
X198325000Y-127197435D01*
X198390330Y-127525872D01*
X198518479Y-127835252D01*
X198704523Y-128113687D01*
X198941313Y-128350477D01*
X199219748Y-128536521D01*
X199529128Y-128664670D01*
X199857565Y-128730000D01*
X200192435Y-128730000D01*
X200520872Y-128664670D01*
X200830252Y-128536521D01*
X201108687Y-128350477D01*
X201345477Y-128113687D01*
X201531521Y-127835252D01*
X201659670Y-127525872D01*
X201725000Y-127197435D01*
X201725000Y-126862565D01*
X201659670Y-126534128D01*
X201531521Y-126224748D01*
X201345477Y-125946313D01*
X201108687Y-125709523D01*
X200830252Y-125523479D01*
X200520872Y-125395330D01*
X200287955Y-125349000D01*
X200520872Y-125302670D01*
X200830252Y-125174521D01*
X201108687Y-124988477D01*
X201345477Y-124751687D01*
X201531521Y-124473252D01*
X201659670Y-124163872D01*
X201725000Y-123835435D01*
X201725000Y-123500565D01*
X201659670Y-123172128D01*
X201531521Y-122862748D01*
X201345477Y-122584313D01*
X201108687Y-122347523D01*
X200830252Y-122161479D01*
X200787000Y-122143563D01*
X200787000Y-121981630D01*
X201236170Y-121532460D01*
X201244012Y-121540302D01*
X201397151Y-121642626D01*
X201567311Y-121713108D01*
X201747951Y-121749040D01*
X201932129Y-121749040D01*
X202112769Y-121713108D01*
X202282929Y-121642626D01*
X202436068Y-121540302D01*
X202566302Y-121410068D01*
X202668626Y-121256929D01*
X202739108Y-121086769D01*
X202762490Y-120969220D01*
X204262011Y-119469700D01*
X204262012Y-130729011D01*
X199381404Y-130729011D01*
X199343988Y-130725326D01*
X199306572Y-130729011D01*
X199306563Y-130729011D01*
X199194611Y-130740037D01*
X199050974Y-130783609D01*
X198918597Y-130854366D01*
X198802567Y-130949589D01*
X198778709Y-130978660D01*
X198345820Y-131411550D01*
X198228271Y-131434932D01*
X198058111Y-131505414D01*
X197904972Y-131607738D01*
X197774738Y-131737972D01*
X197672414Y-131891111D01*
X197601932Y-132061271D01*
X197566000Y-132241911D01*
X197566000Y-132426089D01*
X197601932Y-132606729D01*
X197672414Y-132776889D01*
X197774738Y-132930028D01*
X197904972Y-133060262D01*
X198058111Y-133162586D01*
X198228271Y-133233068D01*
X198408911Y-133269000D01*
X198593089Y-133269000D01*
X198773729Y-133233068D01*
X198943889Y-133162586D01*
X199097028Y-133060262D01*
X199227262Y-132930028D01*
X199329586Y-132776889D01*
X199400068Y-132606729D01*
X199423450Y-132489180D01*
X199659620Y-132253011D01*
X204262011Y-132253011D01*
X204262012Y-144746753D01*
X203720765Y-145288000D01*
X202533554Y-145288000D01*
X202463267Y-145217713D01*
X202260992Y-145082557D01*
X202036236Y-144989460D01*
X201797637Y-144942000D01*
X201554363Y-144942000D01*
X201315764Y-144989460D01*
X201091008Y-145082557D01*
X200888733Y-145217713D01*
X200716713Y-145389733D01*
X200581557Y-145592008D01*
X200488460Y-145816764D01*
X200441000Y-146055363D01*
X200441000Y-146298637D01*
X200488460Y-146537236D01*
X200581557Y-146761992D01*
X200716713Y-146964267D01*
X200888733Y-147136287D01*
X200914001Y-147153171D01*
X200914001Y-148379438D01*
X200830252Y-148323479D01*
X200520872Y-148195330D01*
X200192435Y-148130000D01*
X199857565Y-148130000D01*
X199529128Y-148195330D01*
X199219748Y-148323479D01*
X198941313Y-148509523D01*
X198704523Y-148746313D01*
X198518479Y-149024748D01*
X198390330Y-149334128D01*
X198325000Y-149662565D01*
X198325000Y-149997435D01*
X198390330Y-150325872D01*
X198518479Y-150635252D01*
X198610526Y-150773010D01*
X190761881Y-150773010D01*
X190764068Y-150767729D01*
X190787450Y-150650180D01*
X192212631Y-149225000D01*
X192751458Y-149225000D01*
X192851111Y-149291586D01*
X193021271Y-149362068D01*
X193201911Y-149398000D01*
X193386089Y-149398000D01*
X193566729Y-149362068D01*
X193736889Y-149291586D01*
X193890028Y-149189262D01*
X194020262Y-149059028D01*
X194122586Y-148905889D01*
X194193068Y-148735729D01*
X194229000Y-148555089D01*
X194229000Y-148370911D01*
X194200218Y-148226218D01*
X194344911Y-148255000D01*
X194529089Y-148255000D01*
X194709729Y-148219068D01*
X194879889Y-148148586D01*
X195033028Y-148046262D01*
X195163262Y-147916028D01*
X195265586Y-147762889D01*
X195336068Y-147592729D01*
X195359450Y-147475180D01*
X195884352Y-146950278D01*
X195913423Y-146926421D01*
X196008646Y-146810391D01*
X196079403Y-146678014D01*
X196122975Y-146534377D01*
X196134001Y-146422425D01*
X196134001Y-146422423D01*
X196137687Y-146385000D01*
X196134001Y-146347577D01*
X196134001Y-141434424D01*
X196137687Y-141397001D01*
X196134296Y-141362565D01*
X198325000Y-141362565D01*
X198325000Y-141697435D01*
X198390330Y-142025872D01*
X198518479Y-142335252D01*
X198704523Y-142613687D01*
X198941313Y-142850477D01*
X199219748Y-143036521D01*
X199529128Y-143164670D01*
X199857565Y-143230000D01*
X200192435Y-143230000D01*
X200520872Y-143164670D01*
X200830252Y-143036521D01*
X201108687Y-142850477D01*
X201345477Y-142613687D01*
X201531521Y-142335252D01*
X201659670Y-142025872D01*
X201725000Y-141697435D01*
X201725000Y-141362565D01*
X201659670Y-141034128D01*
X201531521Y-140724748D01*
X201345477Y-140446313D01*
X201108687Y-140209523D01*
X200830252Y-140023479D01*
X200729860Y-139981895D01*
X200990000Y-139983072D01*
X201114482Y-139970812D01*
X201234180Y-139934502D01*
X201344494Y-139875537D01*
X201441185Y-139796185D01*
X201520537Y-139699494D01*
X201579502Y-139589180D01*
X201615812Y-139469482D01*
X201628072Y-139345000D01*
X201625000Y-138715750D01*
X201466250Y-138557000D01*
X200152000Y-138557000D01*
X200152000Y-138577000D01*
X199898000Y-138577000D01*
X199898000Y-138557000D01*
X198583750Y-138557000D01*
X198425000Y-138715750D01*
X198421928Y-139345000D01*
X198434188Y-139469482D01*
X198470498Y-139589180D01*
X198529463Y-139699494D01*
X198608815Y-139796185D01*
X198705506Y-139875537D01*
X198815820Y-139934502D01*
X198935518Y-139970812D01*
X199060000Y-139983072D01*
X199320140Y-139981895D01*
X199219748Y-140023479D01*
X198941313Y-140209523D01*
X198704523Y-140446313D01*
X198518479Y-140724748D01*
X198390330Y-141034128D01*
X198325000Y-141362565D01*
X196134296Y-141362565D01*
X196128894Y-141307725D01*
X196122975Y-141247623D01*
X196079403Y-141103986D01*
X196008647Y-140971610D01*
X196008646Y-140971608D01*
X195937280Y-140884649D01*
X195913423Y-140855579D01*
X195884354Y-140831723D01*
X195613450Y-140560820D01*
X195590068Y-140443271D01*
X195519586Y-140273111D01*
X195417262Y-140119972D01*
X195287028Y-139989738D01*
X195133889Y-139887414D01*
X194963729Y-139816932D01*
X194783089Y-139781000D01*
X194598911Y-139781000D01*
X194564000Y-139787944D01*
X194564000Y-135162565D01*
X198325000Y-135162565D01*
X198325000Y-135497435D01*
X198390330Y-135825872D01*
X198518479Y-136135252D01*
X198704523Y-136413687D01*
X198941313Y-136650477D01*
X199219748Y-136836521D01*
X199320140Y-136878105D01*
X199060000Y-136876928D01*
X198935518Y-136889188D01*
X198815820Y-136925498D01*
X198705506Y-136984463D01*
X198608815Y-137063815D01*
X198529463Y-137160506D01*
X198470498Y-137270820D01*
X198434188Y-137390518D01*
X198421928Y-137515000D01*
X198425000Y-138144250D01*
X198583750Y-138303000D01*
X199898000Y-138303000D01*
X199898000Y-138283000D01*
X200152000Y-138283000D01*
X200152000Y-138303000D01*
X201466250Y-138303000D01*
X201625000Y-138144250D01*
X201628072Y-137515000D01*
X201615812Y-137390518D01*
X201579502Y-137270820D01*
X201520537Y-137160506D01*
X201441185Y-137063815D01*
X201344494Y-136984463D01*
X201234180Y-136925498D01*
X201114482Y-136889188D01*
X200990000Y-136876928D01*
X200729860Y-136878105D01*
X200830252Y-136836521D01*
X201108687Y-136650477D01*
X201345477Y-136413687D01*
X201531521Y-136135252D01*
X201659670Y-135825872D01*
X201725000Y-135497435D01*
X201725000Y-135162565D01*
X201659670Y-134834128D01*
X201531521Y-134524748D01*
X201345477Y-134246313D01*
X201108687Y-134009523D01*
X200830252Y-133823479D01*
X200520872Y-133695330D01*
X200192435Y-133630000D01*
X199857565Y-133630000D01*
X199529128Y-133695330D01*
X199219748Y-133823479D01*
X198941313Y-134009523D01*
X198704523Y-134246313D01*
X198518479Y-134524748D01*
X198390330Y-134834128D01*
X198325000Y-135162565D01*
X194564000Y-135162565D01*
X194564000Y-134800512D01*
X194614347Y-134750165D01*
X194643423Y-134726303D01*
X194738646Y-134610273D01*
X194809403Y-134477896D01*
X194852975Y-134334259D01*
X194864001Y-134222307D01*
X194864001Y-134222298D01*
X194867686Y-134184882D01*
X194864001Y-134147466D01*
X194864001Y-132798423D01*
X194867687Y-132761000D01*
X194864001Y-132723575D01*
X194852975Y-132611623D01*
X194809403Y-132467986D01*
X194738646Y-132335609D01*
X194643423Y-132219579D01*
X194614354Y-132195723D01*
X194089450Y-131670820D01*
X194066068Y-131553271D01*
X193995586Y-131383111D01*
X193893262Y-131229972D01*
X193763028Y-131099738D01*
X193609889Y-130997414D01*
X193439729Y-130926932D01*
X193259089Y-130891000D01*
X193074911Y-130891000D01*
X192894271Y-130926932D01*
X192724111Y-130997414D01*
X192570972Y-131099738D01*
X192440738Y-131229972D01*
X192338414Y-131383111D01*
X192267932Y-131553271D01*
X192232000Y-131733911D01*
X192232000Y-131918089D01*
X192267932Y-132098729D01*
X192338414Y-132268889D01*
X192440738Y-132422028D01*
X192570972Y-132552262D01*
X192724111Y-132654586D01*
X192894271Y-132725068D01*
X193011820Y-132748450D01*
X193340001Y-133076632D01*
X193340002Y-133869250D01*
X193289654Y-133919598D01*
X193260578Y-133943460D01*
X193206362Y-134009523D01*
X193165355Y-134059490D01*
X193127535Y-134130247D01*
X193094598Y-134191868D01*
X193051026Y-134335505D01*
X193043394Y-134413000D01*
X193036314Y-134484882D01*
X193040000Y-134522305D01*
X193040000Y-137760458D01*
X193004262Y-137706972D01*
X192874028Y-137576738D01*
X192720889Y-137474414D01*
X192550729Y-137403932D01*
X192433180Y-137380550D01*
X186664649Y-131612019D01*
X186778028Y-131536262D01*
X186908262Y-131406028D01*
X187010586Y-131252889D01*
X187081068Y-131082729D01*
X187117000Y-130902089D01*
X187117000Y-130717911D01*
X187081068Y-130537271D01*
X187010586Y-130367111D01*
X186908262Y-130213972D01*
X186778028Y-130083738D01*
X186624889Y-129981414D01*
X186454729Y-129910932D01*
X186337181Y-129887550D01*
X184334284Y-127884654D01*
X184310422Y-127855578D01*
X184194392Y-127760355D01*
X184062015Y-127689598D01*
X183918378Y-127646026D01*
X183806426Y-127635000D01*
X183806423Y-127635000D01*
X183803912Y-127634753D01*
X183857028Y-127599262D01*
X183987262Y-127469028D01*
X184089586Y-127315889D01*
X184160068Y-127145729D01*
X184196000Y-126965089D01*
X184196000Y-126780911D01*
X184160068Y-126600271D01*
X184089586Y-126430111D01*
X184023000Y-126330458D01*
X184023000Y-125423471D01*
X185277209Y-124169263D01*
X185346943Y-124399147D01*
X185532193Y-124745725D01*
X185781497Y-125049503D01*
X186085275Y-125298807D01*
X186223145Y-125372500D01*
X186085275Y-125446193D01*
X185781497Y-125695497D01*
X185532193Y-125999275D01*
X185346943Y-126345853D01*
X185232867Y-126721912D01*
X185194348Y-127113000D01*
X185232867Y-127504088D01*
X185346943Y-127880147D01*
X185532193Y-128226725D01*
X185781497Y-128530503D01*
X186085275Y-128779807D01*
X186431853Y-128965057D01*
X186807912Y-129079133D01*
X187101002Y-129108000D01*
X187816998Y-129108000D01*
X188110088Y-129079133D01*
X188486147Y-128965057D01*
X188832725Y-128779807D01*
X189136503Y-128530503D01*
X189385807Y-128226725D01*
X189571057Y-127880147D01*
X189685133Y-127504088D01*
X189723652Y-127113000D01*
X189685133Y-126721912D01*
X189571057Y-126345853D01*
X189385807Y-125999275D01*
X189136503Y-125695497D01*
X188832725Y-125446193D01*
X188694855Y-125372500D01*
X188832725Y-125298807D01*
X189136503Y-125049503D01*
X189385807Y-124745725D01*
X189571057Y-124399147D01*
X189685133Y-124023088D01*
X189723652Y-123632000D01*
X189685133Y-123240912D01*
X189571057Y-122864853D01*
X189457814Y-122652990D01*
X192244379Y-122652990D01*
X192281802Y-122656676D01*
X192319225Y-122652990D01*
X192319228Y-122652990D01*
X192431180Y-122641964D01*
X192574817Y-122598392D01*
X192707194Y-122527635D01*
X192823224Y-122432412D01*
X192847086Y-122403336D01*
X194441352Y-120809071D01*
X194470422Y-120785214D01*
X194509182Y-120737985D01*
X194565645Y-120669185D01*
X194603465Y-120598428D01*
X194636402Y-120536807D01*
X194679974Y-120393170D01*
X194691000Y-120281218D01*
X194691000Y-120281215D01*
X194694686Y-120243792D01*
X194691000Y-120206369D01*
X194691000Y-117890542D01*
X194757586Y-117790889D01*
X194828068Y-117620729D01*
X194864000Y-117440089D01*
X194864000Y-117255911D01*
X194828068Y-117075271D01*
X194757586Y-116905111D01*
X194655262Y-116751972D01*
X194525028Y-116621738D01*
X194371889Y-116519414D01*
X194201729Y-116448932D01*
X194021089Y-116413000D01*
X193836911Y-116413000D01*
X193802000Y-116419944D01*
X193802000Y-113447264D01*
X193805686Y-113409841D01*
X193797708Y-113328837D01*
X193790974Y-113260463D01*
X193747402Y-113116826D01*
X193686697Y-113003255D01*
X193676645Y-112984448D01*
X193605279Y-112897489D01*
X193581422Y-112868419D01*
X193552353Y-112844563D01*
X185946443Y-105238654D01*
X185922581Y-105209578D01*
X185806551Y-105114355D01*
X185674174Y-105043598D01*
X185530537Y-105000026D01*
X185418585Y-104989000D01*
X185418582Y-104989000D01*
X185381159Y-104985314D01*
X185343736Y-104989000D01*
X181295976Y-104989000D01*
X181151312Y-104772495D01*
X181113697Y-104734880D01*
X181213494Y-104681537D01*
X181310185Y-104602185D01*
X181389537Y-104505494D01*
X181448502Y-104395180D01*
X181484812Y-104275482D01*
X181497072Y-104151000D01*
X181497072Y-102351000D01*
X181484812Y-102226518D01*
X181448502Y-102106820D01*
X181389537Y-101996506D01*
X181310185Y-101899815D01*
X181213494Y-101820463D01*
X181103180Y-101761498D01*
X180983482Y-101725188D01*
X180859000Y-101712928D01*
X179059000Y-101712928D01*
X178934518Y-101725188D01*
X178814820Y-101761498D01*
X178704506Y-101820463D01*
X178607815Y-101899815D01*
X178528463Y-101996506D01*
X178469498Y-102106820D01*
X178433188Y-102226518D01*
X178420928Y-102351000D01*
X178420928Y-104151000D01*
X178433188Y-104275482D01*
X178469498Y-104395180D01*
X178528463Y-104505494D01*
X178607815Y-104602185D01*
X178704506Y-104681537D01*
X178804303Y-104734880D01*
X178766688Y-104772495D01*
X178598701Y-105023905D01*
X178482989Y-105303257D01*
X178424000Y-105599816D01*
X178424000Y-105902184D01*
X178482989Y-106198743D01*
X178598701Y-106478095D01*
X178766688Y-106729505D01*
X178980495Y-106943312D01*
X179123310Y-107038738D01*
X179074525Y-107186920D01*
X179959000Y-108071395D01*
X180843475Y-107186920D01*
X180794690Y-107038738D01*
X180937505Y-106943312D01*
X181151312Y-106729505D01*
X181295976Y-106513000D01*
X185065529Y-106513000D01*
X187108529Y-108556000D01*
X187101002Y-108556000D01*
X186807912Y-108584867D01*
X186431853Y-108698943D01*
X186085275Y-108884193D01*
X185781497Y-109133497D01*
X185532193Y-109437275D01*
X185346943Y-109783853D01*
X185232867Y-110159912D01*
X185194348Y-110551000D01*
X185232867Y-110942088D01*
X185346943Y-111318147D01*
X185532193Y-111664725D01*
X185781497Y-111968503D01*
X186085275Y-112217807D01*
X186223145Y-112291500D01*
X186085275Y-112365193D01*
X185781497Y-112614497D01*
X185532193Y-112918275D01*
X185346943Y-113264853D01*
X185232867Y-113640912D01*
X185194348Y-114032000D01*
X185232867Y-114423088D01*
X185346943Y-114799147D01*
X185532193Y-115145725D01*
X185781497Y-115449503D01*
X186085275Y-115698807D01*
X186431853Y-115884057D01*
X186807912Y-115998133D01*
X187101002Y-116027000D01*
X187816998Y-116027000D01*
X188110088Y-115998133D01*
X188486147Y-115884057D01*
X188832725Y-115698807D01*
X189136503Y-115449503D01*
X189385807Y-115145725D01*
X189571057Y-114799147D01*
X189685133Y-114423088D01*
X189723652Y-114032000D01*
X189685133Y-113640912D01*
X189571057Y-113264853D01*
X189385807Y-112918275D01*
X189136503Y-112614497D01*
X188832725Y-112365193D01*
X188694855Y-112291500D01*
X188832725Y-112217807D01*
X189136503Y-111968503D01*
X189385807Y-111664725D01*
X189571057Y-111318147D01*
X189640791Y-111088263D01*
X192278000Y-113725472D01*
X192278001Y-117059457D01*
X192211414Y-117159111D01*
X192203845Y-117177384D01*
X192128883Y-117170001D01*
X192128880Y-117170001D01*
X192091457Y-117166315D01*
X192054034Y-117170001D01*
X181497072Y-117170001D01*
X181497072Y-115432000D01*
X181484812Y-115307518D01*
X181448502Y-115187820D01*
X181389537Y-115077506D01*
X181310185Y-114980815D01*
X181213494Y-114901463D01*
X181103180Y-114842498D01*
X180983482Y-114806188D01*
X180859000Y-114793928D01*
X179059000Y-114793928D01*
X178934518Y-114806188D01*
X178814820Y-114842498D01*
X178704506Y-114901463D01*
X178607815Y-114980815D01*
X178528463Y-115077506D01*
X178469498Y-115187820D01*
X178433188Y-115307518D01*
X178420928Y-115432000D01*
X178420928Y-117232000D01*
X178433188Y-117356482D01*
X178469498Y-117476180D01*
X178528463Y-117586494D01*
X178607815Y-117683185D01*
X178704506Y-117762537D01*
X178804303Y-117815880D01*
X178766688Y-117853495D01*
X178598701Y-118104905D01*
X178482989Y-118384257D01*
X178424000Y-118680816D01*
X178424000Y-118983184D01*
X178482989Y-119279743D01*
X178598701Y-119559095D01*
X178766688Y-119810505D01*
X178980495Y-120024312D01*
X179123310Y-120119738D01*
X179074525Y-120267920D01*
X179959000Y-121152395D01*
X180843475Y-120267920D01*
X180794690Y-120119738D01*
X180937505Y-120024312D01*
X181151312Y-119810505D01*
X181319299Y-119559095D01*
X181435011Y-119279743D01*
X181494000Y-118983184D01*
X181494000Y-118694001D01*
X191775827Y-118694001D01*
X192109006Y-119027180D01*
X192132388Y-119144729D01*
X192202870Y-119314889D01*
X192305194Y-119468028D01*
X192435428Y-119598262D01*
X192588567Y-119700586D01*
X192758727Y-119771068D01*
X192939367Y-119807000D01*
X193123545Y-119807000D01*
X193167001Y-119798356D01*
X193167001Y-119928160D01*
X191966172Y-121128990D01*
X187669641Y-121128990D01*
X187988181Y-120810450D01*
X188105729Y-120787068D01*
X188275889Y-120716586D01*
X188429028Y-120614262D01*
X188559262Y-120484028D01*
X188661586Y-120330889D01*
X188732068Y-120160729D01*
X188768000Y-119980089D01*
X188768000Y-119795911D01*
X188732068Y-119615271D01*
X188661586Y-119445111D01*
X188559262Y-119291972D01*
X188429028Y-119161738D01*
X188275889Y-119059414D01*
X188105729Y-118988932D01*
X187925089Y-118953000D01*
X187740911Y-118953000D01*
X187560271Y-118988932D01*
X187390111Y-119059414D01*
X187236972Y-119161738D01*
X187106738Y-119291972D01*
X187004414Y-119445111D01*
X186933932Y-119615271D01*
X186910550Y-119732819D01*
X186022390Y-120620980D01*
X181841324Y-120620980D01*
X181803901Y-120617294D01*
X181766478Y-120620980D01*
X181766476Y-120620980D01*
X181654524Y-120632006D01*
X181510887Y-120675578D01*
X181379961Y-120745560D01*
X181357222Y-120680801D01*
X181277261Y-120531208D01*
X181023080Y-120447525D01*
X180138605Y-121332000D01*
X180152748Y-121346143D01*
X179973143Y-121525748D01*
X179959000Y-121511605D01*
X179074525Y-122396080D01*
X179158208Y-122650261D01*
X179361407Y-122747845D01*
X177959065Y-124150187D01*
X177601813Y-124150187D01*
X177601813Y-121398553D01*
X178418009Y-121398553D01*
X178460603Y-121697907D01*
X178560778Y-121983199D01*
X178640739Y-122132792D01*
X178894920Y-122216475D01*
X179779395Y-121332000D01*
X178894920Y-120447525D01*
X178640739Y-120531208D01*
X178509842Y-120803775D01*
X178434635Y-121096642D01*
X178418009Y-121398553D01*
X177601813Y-121398553D01*
X177601813Y-109315080D01*
X179074525Y-109315080D01*
X179158208Y-109569261D01*
X179430775Y-109700158D01*
X179723642Y-109775365D01*
X180025553Y-109791991D01*
X180324907Y-109749397D01*
X180610199Y-109649222D01*
X180759792Y-109569261D01*
X180843475Y-109315080D01*
X179959000Y-108430605D01*
X179074525Y-109315080D01*
X177601813Y-109315080D01*
X177601813Y-108317553D01*
X178418009Y-108317553D01*
X178460603Y-108616907D01*
X178560778Y-108902199D01*
X178640739Y-109051792D01*
X178894920Y-109135475D01*
X179779395Y-108251000D01*
X180138605Y-108251000D01*
X181023080Y-109135475D01*
X181277261Y-109051792D01*
X181408158Y-108779225D01*
X181483365Y-108486358D01*
X181499991Y-108184447D01*
X181457397Y-107885093D01*
X181357222Y-107599801D01*
X181277261Y-107450208D01*
X181023080Y-107366525D01*
X180138605Y-108251000D01*
X179779395Y-108251000D01*
X178894920Y-107366525D01*
X178640739Y-107450208D01*
X178509842Y-107722775D01*
X178434635Y-108015642D01*
X178418009Y-108317553D01*
X177601813Y-108317553D01*
X177601813Y-97470000D01*
X185194348Y-97470000D01*
X185232867Y-97861088D01*
X185346943Y-98237147D01*
X185532193Y-98583725D01*
X185781497Y-98887503D01*
X186085275Y-99136807D01*
X186223145Y-99210500D01*
X186085275Y-99284193D01*
X185781497Y-99533497D01*
X185532193Y-99837275D01*
X185346943Y-100183853D01*
X185232867Y-100559912D01*
X185194348Y-100951000D01*
X185232867Y-101342088D01*
X185346943Y-101718147D01*
X185532193Y-102064725D01*
X185781497Y-102368503D01*
X186085275Y-102617807D01*
X186431853Y-102803057D01*
X186807912Y-102917133D01*
X187101002Y-102946000D01*
X187816998Y-102946000D01*
X188110088Y-102917133D01*
X188486147Y-102803057D01*
X188832725Y-102617807D01*
X189136503Y-102368503D01*
X189385807Y-102064725D01*
X189571057Y-101718147D01*
X189685133Y-101342088D01*
X189723652Y-100951000D01*
X189685133Y-100559912D01*
X189571057Y-100183853D01*
X189385807Y-99837275D01*
X189136503Y-99533497D01*
X188832725Y-99284193D01*
X188694855Y-99210500D01*
X188832725Y-99136807D01*
X189136503Y-98887503D01*
X189385807Y-98583725D01*
X189571057Y-98237147D01*
X189685133Y-97861088D01*
X189723652Y-97470000D01*
X189685133Y-97078912D01*
X189571057Y-96702853D01*
X189385807Y-96356275D01*
X189136503Y-96052497D01*
X188832725Y-95803193D01*
X188486147Y-95617943D01*
X188110088Y-95503867D01*
X187816998Y-95475000D01*
X187101002Y-95475000D01*
X186807912Y-95503867D01*
X186431853Y-95617943D01*
X186085275Y-95803193D01*
X185781497Y-96052497D01*
X185532193Y-96356275D01*
X185346943Y-96702853D01*
X185232867Y-97078912D01*
X185194348Y-97470000D01*
X177601813Y-97470000D01*
X177601813Y-96234080D01*
X179074525Y-96234080D01*
X179158208Y-96488261D01*
X179430775Y-96619158D01*
X179723642Y-96694365D01*
X180025553Y-96710991D01*
X180324907Y-96668397D01*
X180610199Y-96568222D01*
X180759792Y-96488261D01*
X180843475Y-96234080D01*
X179959000Y-95349605D01*
X179074525Y-96234080D01*
X177601813Y-96234080D01*
X177601813Y-95236553D01*
X178418009Y-95236553D01*
X178460603Y-95535907D01*
X178560778Y-95821199D01*
X178640739Y-95970792D01*
X178894920Y-96054475D01*
X179779395Y-95170000D01*
X180138605Y-95170000D01*
X181023080Y-96054475D01*
X181277261Y-95970792D01*
X181408158Y-95698225D01*
X181483365Y-95405358D01*
X181499991Y-95103447D01*
X181457397Y-94804093D01*
X181357222Y-94518801D01*
X181277261Y-94369208D01*
X181023080Y-94285525D01*
X180138605Y-95170000D01*
X179779395Y-95170000D01*
X178894920Y-94285525D01*
X178640739Y-94369208D01*
X178509842Y-94641775D01*
X178434635Y-94934642D01*
X178418009Y-95236553D01*
X177601813Y-95236553D01*
X177601813Y-85695124D01*
X178773453Y-85695124D01*
X178810876Y-85698810D01*
X178848299Y-85695124D01*
X178848302Y-85695124D01*
X178960254Y-85684098D01*
X179103891Y-85640526D01*
X179197000Y-85590758D01*
X179197001Y-88631928D01*
X179059000Y-88631928D01*
X178934518Y-88644188D01*
X178814820Y-88680498D01*
X178704506Y-88739463D01*
X178607815Y-88818815D01*
X178528463Y-88915506D01*
X178469498Y-89025820D01*
X178433188Y-89145518D01*
X178420928Y-89270000D01*
X178420928Y-91070000D01*
X178433188Y-91194482D01*
X178469498Y-91314180D01*
X178528463Y-91424494D01*
X178607815Y-91521185D01*
X178704506Y-91600537D01*
X178804303Y-91653880D01*
X178766688Y-91691495D01*
X178598701Y-91942905D01*
X178482989Y-92222257D01*
X178424000Y-92518816D01*
X178424000Y-92821184D01*
X178482989Y-93117743D01*
X178598701Y-93397095D01*
X178766688Y-93648505D01*
X178980495Y-93862312D01*
X179123310Y-93957738D01*
X179074525Y-94105920D01*
X179959000Y-94990395D01*
X180843475Y-94105920D01*
X180794690Y-93957738D01*
X180937505Y-93862312D01*
X181151312Y-93648505D01*
X181319299Y-93397095D01*
X181435011Y-93117743D01*
X181494000Y-92821184D01*
X181494000Y-92518816D01*
X181442539Y-92260102D01*
X181495644Y-92195394D01*
X181503185Y-92181286D01*
X185277208Y-88407263D01*
X185346943Y-88637147D01*
X185532193Y-88983725D01*
X185781497Y-89287503D01*
X186085275Y-89536807D01*
X186431853Y-89722057D01*
X186807912Y-89836133D01*
X187101002Y-89865000D01*
X187816998Y-89865000D01*
X188110088Y-89836133D01*
X188486147Y-89722057D01*
X188832725Y-89536807D01*
X189136503Y-89287503D01*
X189385807Y-88983725D01*
X189571057Y-88637147D01*
X189685133Y-88261088D01*
X189723652Y-87870000D01*
X189685133Y-87478912D01*
X189571057Y-87102853D01*
X189385807Y-86756275D01*
X189318078Y-86673747D01*
X189322142Y-86670412D01*
X189346004Y-86641336D01*
X192913000Y-83074340D01*
X192913000Y-84290577D01*
X192909314Y-84328000D01*
X192913000Y-84365423D01*
X192913000Y-84365425D01*
X192924026Y-84477377D01*
X192967598Y-84621014D01*
X192979037Y-84642414D01*
X193038355Y-84753392D01*
X193063266Y-84783746D01*
X193133578Y-84869422D01*
X193162654Y-84893284D01*
X193895550Y-85626181D01*
X193918932Y-85743729D01*
X193989414Y-85913889D01*
X194091738Y-86067028D01*
X194221972Y-86197262D01*
X194375111Y-86299586D01*
X194545271Y-86370068D01*
X194725911Y-86406000D01*
X194910089Y-86406000D01*
X195090729Y-86370068D01*
X195260889Y-86299586D01*
X195414028Y-86197262D01*
X195544262Y-86067028D01*
X195646586Y-85913889D01*
X195717068Y-85743729D01*
X195753000Y-85563089D01*
X195753000Y-85378911D01*
X195717068Y-85198271D01*
X195646586Y-85028111D01*
X195544262Y-84874972D01*
X195414028Y-84744738D01*
X195260889Y-84642414D01*
X195090729Y-84571932D01*
X194973181Y-84548550D01*
X194437000Y-84012370D01*
X194437000Y-78647542D01*
X194503586Y-78547889D01*
X194574068Y-78377729D01*
X194610000Y-78197089D01*
X194610000Y-78012911D01*
X194603056Y-77978000D01*
X197577458Y-77978000D01*
X197677111Y-78044586D01*
X197847271Y-78115068D01*
X198027911Y-78151000D01*
X198212089Y-78151000D01*
X198392729Y-78115068D01*
X198562889Y-78044586D01*
X198716028Y-77942262D01*
X198746271Y-77912019D01*
X199263001Y-78428750D01*
G36*
X180478001Y-136659737D02*
G01*
X180474315Y-136697160D01*
X180478001Y-136734583D01*
X180478001Y-136734585D01*
X180489027Y-136846537D01*
X180532599Y-136990174D01*
X180565536Y-137051795D01*
X180603356Y-137122552D01*
X180634504Y-137160506D01*
X180698579Y-137238582D01*
X180727655Y-137262444D01*
X187487557Y-144022346D01*
X187511419Y-144051422D01*
X187577957Y-144106028D01*
X187627448Y-144146645D01*
X187698205Y-144184465D01*
X187759826Y-144217402D01*
X187903463Y-144260974D01*
X188015415Y-144272000D01*
X188015418Y-144272000D01*
X188052841Y-144275686D01*
X188090264Y-144272000D01*
X192497458Y-144272000D01*
X192597111Y-144338586D01*
X192767271Y-144409068D01*
X192947911Y-144445000D01*
X193132089Y-144445000D01*
X193312729Y-144409068D01*
X193482889Y-144338586D01*
X193636028Y-144236262D01*
X193766262Y-144106028D01*
X193868586Y-143952889D01*
X193939068Y-143782729D01*
X193975000Y-143602089D01*
X193975000Y-143539906D01*
X194074729Y-143520068D01*
X194244889Y-143449586D01*
X194398028Y-143347262D01*
X194528262Y-143217028D01*
X194610001Y-143094696D01*
X194610002Y-146069367D01*
X194281820Y-146397550D01*
X194164271Y-146420932D01*
X193994111Y-146491414D01*
X193840972Y-146593738D01*
X193710738Y-146723972D01*
X193608414Y-146877111D01*
X193537932Y-147047271D01*
X193502000Y-147227911D01*
X193502000Y-147412089D01*
X193530782Y-147556782D01*
X193386089Y-147528000D01*
X193201911Y-147528000D01*
X193021271Y-147563932D01*
X192851111Y-147634414D01*
X192751458Y-147701000D01*
X191934423Y-147701000D01*
X191897000Y-147697314D01*
X191859577Y-147701000D01*
X191859574Y-147701000D01*
X191747622Y-147712026D01*
X191603985Y-147755598D01*
X191542364Y-147788535D01*
X191471607Y-147826355D01*
X191388904Y-147894228D01*
X191355578Y-147921578D01*
X191331721Y-147950648D01*
X189709820Y-149572550D01*
X189701994Y-149574106D01*
X189685133Y-149402912D01*
X189571057Y-149026853D01*
X189385807Y-148680275D01*
X189136503Y-148376497D01*
X188832725Y-148127193D01*
X188486147Y-147941943D01*
X188110088Y-147827867D01*
X187816998Y-147799000D01*
X187101002Y-147799000D01*
X186807912Y-147827867D01*
X186431853Y-147941943D01*
X186085275Y-148127193D01*
X185781497Y-148376497D01*
X185532193Y-148680275D01*
X185346943Y-149026853D01*
X185232867Y-149402912D01*
X185194348Y-149794000D01*
X185232867Y-150185088D01*
X185346943Y-150561147D01*
X185460186Y-150773010D01*
X182419759Y-150773010D01*
X180557481Y-148910733D01*
X180610199Y-148892222D01*
X180759792Y-148812261D01*
X180843475Y-148558080D01*
X179959000Y-147673605D01*
X179944858Y-147687748D01*
X179765253Y-147508143D01*
X179779395Y-147494000D01*
X179765253Y-147479858D01*
X179944858Y-147300253D01*
X179959000Y-147314395D01*
X179973143Y-147300253D01*
X180152748Y-147479858D01*
X180138605Y-147494000D01*
X181023080Y-148378475D01*
X181277261Y-148294792D01*
X181408158Y-148022225D01*
X181483365Y-147729358D01*
X181499991Y-147427447D01*
X181457397Y-147128093D01*
X181357222Y-146842801D01*
X181277261Y-146693208D01*
X181164241Y-146655999D01*
X192226314Y-146655999D01*
X192263737Y-146659685D01*
X192301160Y-146655999D01*
X192301163Y-146655999D01*
X192413115Y-146644973D01*
X192556752Y-146601401D01*
X192689129Y-146530644D01*
X192792229Y-146446032D01*
X192947911Y-146477000D01*
X193132089Y-146477000D01*
X193312729Y-146441068D01*
X193482889Y-146370586D01*
X193636028Y-146268262D01*
X193766262Y-146138028D01*
X193868586Y-145984889D01*
X193939068Y-145814729D01*
X193975000Y-145634089D01*
X193975000Y-145449911D01*
X193939068Y-145269271D01*
X193868586Y-145099111D01*
X193766262Y-144945972D01*
X193636028Y-144815738D01*
X193482889Y-144713414D01*
X193312729Y-144642932D01*
X193132089Y-144607000D01*
X192947911Y-144607000D01*
X192767271Y-144642932D01*
X192597111Y-144713414D01*
X192483480Y-144789340D01*
X192466358Y-144791026D01*
X192322721Y-144834598D01*
X192190344Y-144905355D01*
X192074314Y-145000578D01*
X192050452Y-145029654D01*
X191948107Y-145131999D01*
X181494000Y-145131999D01*
X181494000Y-144842816D01*
X181435011Y-144546257D01*
X181319299Y-144266905D01*
X181151312Y-144015495D01*
X181113697Y-143977880D01*
X181213494Y-143924537D01*
X181310185Y-143845185D01*
X181389537Y-143748494D01*
X181448502Y-143638180D01*
X181484812Y-143518482D01*
X181497072Y-143394000D01*
X181497072Y-142052362D01*
X181521972Y-142077262D01*
X181675111Y-142179586D01*
X181845271Y-142250068D01*
X182025911Y-142286000D01*
X182210089Y-142286000D01*
X182390729Y-142250068D01*
X182560889Y-142179586D01*
X182714028Y-142077262D01*
X182844262Y-141947028D01*
X182946586Y-141793889D01*
X183017068Y-141623729D01*
X183053000Y-141443089D01*
X183053000Y-141258911D01*
X183017068Y-141078271D01*
X182946586Y-140908111D01*
X182844262Y-140754972D01*
X182714028Y-140624738D01*
X182560889Y-140522414D01*
X182390729Y-140451932D01*
X182273181Y-140428550D01*
X179439999Y-137595369D01*
X179439999Y-135864527D01*
X179723642Y-135937365D01*
X180025553Y-135953991D01*
X180324907Y-135911397D01*
X180478001Y-135857641D01*
X180478001Y-136659737D01*
X180478001Y-136659737D01*
G37*
X180478001Y-136659737D02*
X180474315Y-136697160D01*
X180478001Y-136734583D01*
X180478001Y-136734585D01*
X180489027Y-136846537D01*
X180532599Y-136990174D01*
X180565536Y-137051795D01*
X180603356Y-137122552D01*
X180634504Y-137160506D01*
X180698579Y-137238582D01*
X180727655Y-137262444D01*
X187487557Y-144022346D01*
X187511419Y-144051422D01*
X187577957Y-144106028D01*
X187627448Y-144146645D01*
X187698205Y-144184465D01*
X187759826Y-144217402D01*
X187903463Y-144260974D01*
X188015415Y-144272000D01*
X188015418Y-144272000D01*
X188052841Y-144275686D01*
X188090264Y-144272000D01*
X192497458Y-144272000D01*
X192597111Y-144338586D01*
X192767271Y-144409068D01*
X192947911Y-144445000D01*
X193132089Y-144445000D01*
X193312729Y-144409068D01*
X193482889Y-144338586D01*
X193636028Y-144236262D01*
X193766262Y-144106028D01*
X193868586Y-143952889D01*
X193939068Y-143782729D01*
X193975000Y-143602089D01*
X193975000Y-143539906D01*
X194074729Y-143520068D01*
X194244889Y-143449586D01*
X194398028Y-143347262D01*
X194528262Y-143217028D01*
X194610001Y-143094696D01*
X194610002Y-146069367D01*
X194281820Y-146397550D01*
X194164271Y-146420932D01*
X193994111Y-146491414D01*
X193840972Y-146593738D01*
X193710738Y-146723972D01*
X193608414Y-146877111D01*
X193537932Y-147047271D01*
X193502000Y-147227911D01*
X193502000Y-147412089D01*
X193530782Y-147556782D01*
X193386089Y-147528000D01*
X193201911Y-147528000D01*
X193021271Y-147563932D01*
X192851111Y-147634414D01*
X192751458Y-147701000D01*
X191934423Y-147701000D01*
X191897000Y-147697314D01*
X191859577Y-147701000D01*
X191859574Y-147701000D01*
X191747622Y-147712026D01*
X191603985Y-147755598D01*
X191542364Y-147788535D01*
X191471607Y-147826355D01*
X191388904Y-147894228D01*
X191355578Y-147921578D01*
X191331721Y-147950648D01*
X189709820Y-149572550D01*
X189701994Y-149574106D01*
X189685133Y-149402912D01*
X189571057Y-149026853D01*
X189385807Y-148680275D01*
X189136503Y-148376497D01*
X188832725Y-148127193D01*
X188486147Y-147941943D01*
X188110088Y-147827867D01*
X187816998Y-147799000D01*
X187101002Y-147799000D01*
X186807912Y-147827867D01*
X186431853Y-147941943D01*
X186085275Y-148127193D01*
X185781497Y-148376497D01*
X185532193Y-148680275D01*
X185346943Y-149026853D01*
X185232867Y-149402912D01*
X185194348Y-149794000D01*
X185232867Y-150185088D01*
X185346943Y-150561147D01*
X185460186Y-150773010D01*
X182419759Y-150773010D01*
X180557481Y-148910733D01*
X180610199Y-148892222D01*
X180759792Y-148812261D01*
X180843475Y-148558080D01*
X179959000Y-147673605D01*
X179944858Y-147687748D01*
X179765253Y-147508143D01*
X179779395Y-147494000D01*
X179765253Y-147479858D01*
X179944858Y-147300253D01*
X179959000Y-147314395D01*
X179973143Y-147300253D01*
X180152748Y-147479858D01*
X180138605Y-147494000D01*
X181023080Y-148378475D01*
X181277261Y-148294792D01*
X181408158Y-148022225D01*
X181483365Y-147729358D01*
X181499991Y-147427447D01*
X181457397Y-147128093D01*
X181357222Y-146842801D01*
X181277261Y-146693208D01*
X181164241Y-146655999D01*
X192226314Y-146655999D01*
X192263737Y-146659685D01*
X192301160Y-146655999D01*
X192301163Y-146655999D01*
X192413115Y-146644973D01*
X192556752Y-146601401D01*
X192689129Y-146530644D01*
X192792229Y-146446032D01*
X192947911Y-146477000D01*
X193132089Y-146477000D01*
X193312729Y-146441068D01*
X193482889Y-146370586D01*
X193636028Y-146268262D01*
X193766262Y-146138028D01*
X193868586Y-145984889D01*
X193939068Y-145814729D01*
X193975000Y-145634089D01*
X193975000Y-145449911D01*
X193939068Y-145269271D01*
X193868586Y-145099111D01*
X193766262Y-144945972D01*
X193636028Y-144815738D01*
X193482889Y-144713414D01*
X193312729Y-144642932D01*
X193132089Y-144607000D01*
X192947911Y-144607000D01*
X192767271Y-144642932D01*
X192597111Y-144713414D01*
X192483480Y-144789340D01*
X192466358Y-144791026D01*
X192322721Y-144834598D01*
X192190344Y-144905355D01*
X192074314Y-145000578D01*
X192050452Y-145029654D01*
X191948107Y-145131999D01*
X181494000Y-145131999D01*
X181494000Y-144842816D01*
X181435011Y-144546257D01*
X181319299Y-144266905D01*
X181151312Y-144015495D01*
X181113697Y-143977880D01*
X181213494Y-143924537D01*
X181310185Y-143845185D01*
X181389537Y-143748494D01*
X181448502Y-143638180D01*
X181484812Y-143518482D01*
X181497072Y-143394000D01*
X181497072Y-142052362D01*
X181521972Y-142077262D01*
X181675111Y-142179586D01*
X181845271Y-142250068D01*
X182025911Y-142286000D01*
X182210089Y-142286000D01*
X182390729Y-142250068D01*
X182560889Y-142179586D01*
X182714028Y-142077262D01*
X182844262Y-141947028D01*
X182946586Y-141793889D01*
X183017068Y-141623729D01*
X183053000Y-141443089D01*
X183053000Y-141258911D01*
X183017068Y-141078271D01*
X182946586Y-140908111D01*
X182844262Y-140754972D01*
X182714028Y-140624738D01*
X182560889Y-140522414D01*
X182390729Y-140451932D01*
X182273181Y-140428550D01*
X179439999Y-137595369D01*
X179439999Y-135864527D01*
X179723642Y-135937365D01*
X180025553Y-135953991D01*
X180324907Y-135911397D01*
X180478001Y-135857641D01*
X180478001Y-136659737D01*
G36*
X180152748Y-134398858D02*
G01*
X180138605Y-134413000D01*
X180152748Y-134427143D01*
X179973143Y-134606748D01*
X179959000Y-134592605D01*
X179944858Y-134606748D01*
X179765253Y-134427143D01*
X179779395Y-134413000D01*
X179765253Y-134398858D01*
X179944858Y-134219253D01*
X179959000Y-134233395D01*
X179973143Y-134219253D01*
X180152748Y-134398858D01*
X180152748Y-134398858D01*
G37*
X180152748Y-134398858D02*
X180138605Y-134413000D01*
X180152748Y-134427143D01*
X179973143Y-134606748D01*
X179959000Y-134592605D01*
X179944858Y-134606748D01*
X179765253Y-134427143D01*
X179779395Y-134413000D01*
X179765253Y-134398858D01*
X179944858Y-134219253D01*
X179959000Y-134233395D01*
X179973143Y-134219253D01*
X180152748Y-134398858D01*
G36*
X198663000Y-103372637D02*
G01*
X198710460Y-103611236D01*
X198803557Y-103835992D01*
X198938713Y-104038267D01*
X199110733Y-104210287D01*
X199313008Y-104345443D01*
X199537764Y-104438540D01*
X199776363Y-104486000D01*
X199875765Y-104486000D01*
X204262011Y-108872246D01*
X204262012Y-117020838D01*
X204107729Y-116956932D01*
X203927089Y-116921000D01*
X203742911Y-116921000D01*
X203562271Y-116956932D01*
X203392111Y-117027414D01*
X203238972Y-117129738D01*
X203108738Y-117259972D01*
X203009500Y-117408492D01*
X202946000Y-117313458D01*
X202946000Y-115424341D01*
X202949686Y-115386918D01*
X202941866Y-115307518D01*
X202934974Y-115237540D01*
X202891402Y-115093903D01*
X202858465Y-115032282D01*
X202820645Y-114961525D01*
X202749279Y-114874566D01*
X202725422Y-114845496D01*
X202696352Y-114821639D01*
X201471707Y-113596994D01*
X201520537Y-113537494D01*
X201579502Y-113427180D01*
X201615812Y-113307482D01*
X201628072Y-113183000D01*
X201625000Y-112553750D01*
X201466250Y-112395000D01*
X200152000Y-112395000D01*
X200152000Y-112415000D01*
X199898000Y-112415000D01*
X199898000Y-112395000D01*
X199878000Y-112395000D01*
X199878000Y-112141000D01*
X199898000Y-112141000D01*
X199898000Y-112121000D01*
X200152000Y-112121000D01*
X200152000Y-112141000D01*
X201466250Y-112141000D01*
X201625000Y-111982250D01*
X201628072Y-111353000D01*
X201615812Y-111228518D01*
X201579502Y-111108820D01*
X201520537Y-110998506D01*
X201441185Y-110901815D01*
X201344494Y-110822463D01*
X201234180Y-110763498D01*
X201114482Y-110727188D01*
X200990000Y-110714928D01*
X200729860Y-110716105D01*
X200830252Y-110674521D01*
X201108687Y-110488477D01*
X201345477Y-110251687D01*
X201531521Y-109973252D01*
X201659670Y-109663872D01*
X201725000Y-109335435D01*
X201725000Y-109000565D01*
X201659670Y-108672128D01*
X201531521Y-108362748D01*
X201345477Y-108084313D01*
X201108687Y-107847523D01*
X200830252Y-107661479D01*
X200520872Y-107533330D01*
X200192435Y-107468000D01*
X199857565Y-107468000D01*
X199529128Y-107533330D01*
X199219748Y-107661479D01*
X198941313Y-107847523D01*
X198704523Y-108084313D01*
X198518479Y-108362748D01*
X198500990Y-108404970D01*
X198500990Y-103469640D01*
X198663000Y-103307630D01*
X198663000Y-103372637D01*
X198663000Y-103372637D01*
G37*
X198663000Y-103372637D02*
X198710460Y-103611236D01*
X198803557Y-103835992D01*
X198938713Y-104038267D01*
X199110733Y-104210287D01*
X199313008Y-104345443D01*
X199537764Y-104438540D01*
X199776363Y-104486000D01*
X199875765Y-104486000D01*
X204262011Y-108872246D01*
X204262012Y-117020838D01*
X204107729Y-116956932D01*
X203927089Y-116921000D01*
X203742911Y-116921000D01*
X203562271Y-116956932D01*
X203392111Y-117027414D01*
X203238972Y-117129738D01*
X203108738Y-117259972D01*
X203009500Y-117408492D01*
X202946000Y-117313458D01*
X202946000Y-115424341D01*
X202949686Y-115386918D01*
X202941866Y-115307518D01*
X202934974Y-115237540D01*
X202891402Y-115093903D01*
X202858465Y-115032282D01*
X202820645Y-114961525D01*
X202749279Y-114874566D01*
X202725422Y-114845496D01*
X202696352Y-114821639D01*
X201471707Y-113596994D01*
X201520537Y-113537494D01*
X201579502Y-113427180D01*
X201615812Y-113307482D01*
X201628072Y-113183000D01*
X201625000Y-112553750D01*
X201466250Y-112395000D01*
X200152000Y-112395000D01*
X200152000Y-112415000D01*
X199898000Y-112415000D01*
X199898000Y-112395000D01*
X199878000Y-112395000D01*
X199878000Y-112141000D01*
X199898000Y-112141000D01*
X199898000Y-112121000D01*
X200152000Y-112121000D01*
X200152000Y-112141000D01*
X201466250Y-112141000D01*
X201625000Y-111982250D01*
X201628072Y-111353000D01*
X201615812Y-111228518D01*
X201579502Y-111108820D01*
X201520537Y-110998506D01*
X201441185Y-110901815D01*
X201344494Y-110822463D01*
X201234180Y-110763498D01*
X201114482Y-110727188D01*
X200990000Y-110714928D01*
X200729860Y-110716105D01*
X200830252Y-110674521D01*
X201108687Y-110488477D01*
X201345477Y-110251687D01*
X201531521Y-109973252D01*
X201659670Y-109663872D01*
X201725000Y-109335435D01*
X201725000Y-109000565D01*
X201659670Y-108672128D01*
X201531521Y-108362748D01*
X201345477Y-108084313D01*
X201108687Y-107847523D01*
X200830252Y-107661479D01*
X200520872Y-107533330D01*
X200192435Y-107468000D01*
X199857565Y-107468000D01*
X199529128Y-107533330D01*
X199219748Y-107661479D01*
X198941313Y-107847523D01*
X198704523Y-108084313D01*
X198518479Y-108362748D01*
X198500990Y-108404970D01*
X198500990Y-103469640D01*
X198663000Y-103307630D01*
X198663000Y-103372637D01*
G36*
X192343111Y-78933586D02*
G01*
X192513271Y-79004068D01*
X192693911Y-79040000D01*
X192878089Y-79040000D01*
X192913001Y-79033056D01*
X192913001Y-81150171D01*
X192732450Y-81150171D01*
X192551810Y-81186103D01*
X192381650Y-81256585D01*
X192228511Y-81358909D01*
X192098277Y-81489143D01*
X191995953Y-81642282D01*
X191925471Y-81812442D01*
X191902089Y-81929991D01*
X189709883Y-84122197D01*
X189685133Y-83870912D01*
X189571057Y-83494853D01*
X189385807Y-83148275D01*
X189136503Y-82844497D01*
X188832725Y-82595193D01*
X188486147Y-82409943D01*
X188110088Y-82295867D01*
X187816998Y-82267000D01*
X187161630Y-82267000D01*
X187988180Y-81440450D01*
X188105729Y-81417068D01*
X188275889Y-81346586D01*
X188429028Y-81244262D01*
X188559262Y-81114028D01*
X188661586Y-80960889D01*
X188732068Y-80790729D01*
X188768000Y-80610089D01*
X188768000Y-80425911D01*
X188732068Y-80245271D01*
X188661586Y-80075111D01*
X188559262Y-79921972D01*
X188429028Y-79791738D01*
X188275889Y-79689414D01*
X188105729Y-79618932D01*
X187925089Y-79583000D01*
X187740911Y-79583000D01*
X187560271Y-79618932D01*
X187390111Y-79689414D01*
X187236972Y-79791738D01*
X187106738Y-79921972D01*
X187004414Y-80075111D01*
X186933932Y-80245271D01*
X186910550Y-80362820D01*
X185531371Y-81741999D01*
X181478157Y-81741999D01*
X181457397Y-81596093D01*
X181357222Y-81310801D01*
X181277261Y-81161208D01*
X181023080Y-81077525D01*
X180138605Y-81962000D01*
X180152748Y-81976143D01*
X179973143Y-82155748D01*
X179959000Y-82141605D01*
X179074525Y-83026080D01*
X179158208Y-83280261D01*
X179312170Y-83354200D01*
X178495246Y-84171124D01*
X178478043Y-84171124D01*
X178501586Y-84135889D01*
X178572068Y-83965729D01*
X178608000Y-83785089D01*
X178608000Y-83600911D01*
X178572068Y-83420271D01*
X178501586Y-83250111D01*
X178435000Y-83150458D01*
X178435000Y-82147967D01*
X178460603Y-82327907D01*
X178560778Y-82613199D01*
X178640739Y-82762792D01*
X178894920Y-82846475D01*
X179779395Y-81962000D01*
X178894920Y-81077525D01*
X178640739Y-81161208D01*
X178509842Y-81433775D01*
X178435000Y-81725221D01*
X178435000Y-79668485D01*
X178482989Y-79909743D01*
X178598701Y-80189095D01*
X178766688Y-80440505D01*
X178980495Y-80654312D01*
X179123310Y-80749738D01*
X179074525Y-80897920D01*
X179959000Y-81782395D01*
X180843475Y-80897920D01*
X180794690Y-80749738D01*
X180937505Y-80654312D01*
X181151312Y-80440505D01*
X181319299Y-80189095D01*
X181435011Y-79909743D01*
X181494000Y-79613184D01*
X181494000Y-79310816D01*
X181443201Y-79055430D01*
X181631631Y-78867000D01*
X192243458Y-78867000D01*
X192343111Y-78933586D01*
X192343111Y-78933586D01*
G37*
X192343111Y-78933586D02*
X192513271Y-79004068D01*
X192693911Y-79040000D01*
X192878089Y-79040000D01*
X192913001Y-79033056D01*
X192913001Y-81150171D01*
X192732450Y-81150171D01*
X192551810Y-81186103D01*
X192381650Y-81256585D01*
X192228511Y-81358909D01*
X192098277Y-81489143D01*
X191995953Y-81642282D01*
X191925471Y-81812442D01*
X191902089Y-81929991D01*
X189709883Y-84122197D01*
X189685133Y-83870912D01*
X189571057Y-83494853D01*
X189385807Y-83148275D01*
X189136503Y-82844497D01*
X188832725Y-82595193D01*
X188486147Y-82409943D01*
X188110088Y-82295867D01*
X187816998Y-82267000D01*
X187161630Y-82267000D01*
X187988180Y-81440450D01*
X188105729Y-81417068D01*
X188275889Y-81346586D01*
X188429028Y-81244262D01*
X188559262Y-81114028D01*
X188661586Y-80960889D01*
X188732068Y-80790729D01*
X188768000Y-80610089D01*
X188768000Y-80425911D01*
X188732068Y-80245271D01*
X188661586Y-80075111D01*
X188559262Y-79921972D01*
X188429028Y-79791738D01*
X188275889Y-79689414D01*
X188105729Y-79618932D01*
X187925089Y-79583000D01*
X187740911Y-79583000D01*
X187560271Y-79618932D01*
X187390111Y-79689414D01*
X187236972Y-79791738D01*
X187106738Y-79921972D01*
X187004414Y-80075111D01*
X186933932Y-80245271D01*
X186910550Y-80362820D01*
X185531371Y-81741999D01*
X181478157Y-81741999D01*
X181457397Y-81596093D01*
X181357222Y-81310801D01*
X181277261Y-81161208D01*
X181023080Y-81077525D01*
X180138605Y-81962000D01*
X180152748Y-81976143D01*
X179973143Y-82155748D01*
X179959000Y-82141605D01*
X179074525Y-83026080D01*
X179158208Y-83280261D01*
X179312170Y-83354200D01*
X178495246Y-84171124D01*
X178478043Y-84171124D01*
X178501586Y-84135889D01*
X178572068Y-83965729D01*
X178608000Y-83785089D01*
X178608000Y-83600911D01*
X178572068Y-83420271D01*
X178501586Y-83250111D01*
X178435000Y-83150458D01*
X178435000Y-82147967D01*
X178460603Y-82327907D01*
X178560778Y-82613199D01*
X178640739Y-82762792D01*
X178894920Y-82846475D01*
X179779395Y-81962000D01*
X178894920Y-81077525D01*
X178640739Y-81161208D01*
X178509842Y-81433775D01*
X178435000Y-81725221D01*
X178435000Y-79668485D01*
X178482989Y-79909743D01*
X178598701Y-80189095D01*
X178766688Y-80440505D01*
X178980495Y-80654312D01*
X179123310Y-80749738D01*
X179074525Y-80897920D01*
X179959000Y-81782395D01*
X180843475Y-80897920D01*
X180794690Y-80749738D01*
X180937505Y-80654312D01*
X181151312Y-80440505D01*
X181319299Y-80189095D01*
X181435011Y-79909743D01*
X181494000Y-79613184D01*
X181494000Y-79310816D01*
X181443201Y-79055430D01*
X181631631Y-78867000D01*
X192243458Y-78867000D01*
X192343111Y-78933586D01*
M02*
