G04 #@! TF.GenerationSoftware,KiCad,Pcbnew,(5.1.2)-2*
G04 #@! TF.CreationDate,2021-07-18T13:36:31+02:00*
G04 #@! TF.ProjectId,Octal,4f637461-6c2e-46b6-9963-61645f706362,1.0.0*
G04 #@! TF.SameCoordinates,Original*
G04 #@! TF.FileFunction,Soldermask,Top*
G04 #@! TF.FilePolarity,Negative*
%FSLAX46Y46*%
G04 Gerber Fmt 4.6, Leading zero omitted, Abs format (unit mm)*
G04 Created by KiCad (PCBNEW (5.1.2)-2) date 2021-07-18 13:36:31*
%MOMM*%
%LPD*%
G04 APERTURE LIST*
%ADD10C,0.150000*%
G04 APERTURE END LIST*
D10*
G36*
X187857412Y-148389805D02*
G01*
X187995604Y-148403416D01*
X188261579Y-148484099D01*
X188261581Y-148484100D01*
X188506701Y-148615119D01*
X188721556Y-148791444D01*
X188897881Y-149006299D01*
X189028900Y-149251419D01*
X189028901Y-149251421D01*
X189109584Y-149517396D01*
X189136827Y-149794000D01*
X189109584Y-150070604D01*
X189083823Y-150155525D01*
X189028900Y-150336581D01*
X188897881Y-150581701D01*
X188721556Y-150796556D01*
X188506701Y-150972881D01*
X188261581Y-151103900D01*
X188261579Y-151103901D01*
X187995604Y-151184584D01*
X187857412Y-151198195D01*
X187788317Y-151205000D01*
X187129683Y-151205000D01*
X187060588Y-151198195D01*
X186922396Y-151184584D01*
X186656421Y-151103901D01*
X186656419Y-151103900D01*
X186411299Y-150972881D01*
X186196444Y-150796556D01*
X186020119Y-150581701D01*
X185889100Y-150336581D01*
X185834177Y-150155525D01*
X185808416Y-150070604D01*
X185781173Y-149794000D01*
X185808416Y-149517396D01*
X185889099Y-149251421D01*
X185889100Y-149251419D01*
X186020119Y-149006299D01*
X186196444Y-148791444D01*
X186411299Y-148615119D01*
X186656419Y-148484100D01*
X186656421Y-148484099D01*
X186922396Y-148403416D01*
X187060588Y-148389805D01*
X187129683Y-148383000D01*
X187788317Y-148383000D01*
X187857412Y-148389805D01*
X187857412Y-148389805D01*
G37*
G36*
X200278655Y-148742591D02*
G01*
X200350525Y-148756887D01*
X200553624Y-148841013D01*
X200736409Y-148963146D01*
X200891854Y-149118591D01*
X201013987Y-149301376D01*
X201098113Y-149504475D01*
X201141000Y-149720084D01*
X201141000Y-149939916D01*
X201098113Y-150155525D01*
X201013987Y-150358624D01*
X200891854Y-150541409D01*
X200736409Y-150696854D01*
X200553624Y-150818987D01*
X200350525Y-150903113D01*
X200278655Y-150917409D01*
X200134918Y-150946000D01*
X199915082Y-150946000D01*
X199771345Y-150917409D01*
X199699475Y-150903113D01*
X199496376Y-150818987D01*
X199313591Y-150696854D01*
X199158146Y-150541409D01*
X199036013Y-150358624D01*
X198951887Y-150155525D01*
X198909000Y-149939916D01*
X198909000Y-149720084D01*
X198951887Y-149504475D01*
X199036013Y-149301376D01*
X199158146Y-149118591D01*
X199313591Y-148963146D01*
X199496376Y-148841013D01*
X199699475Y-148756887D01*
X199771345Y-148742591D01*
X199915082Y-148714000D01*
X200134918Y-148714000D01*
X200278655Y-148742591D01*
X200278655Y-148742591D01*
G37*
G36*
X171703655Y-148742591D02*
G01*
X171775525Y-148756887D01*
X171978624Y-148841013D01*
X172161409Y-148963146D01*
X172316854Y-149118591D01*
X172438987Y-149301376D01*
X172523113Y-149504475D01*
X172566000Y-149720084D01*
X172566000Y-149939916D01*
X172523113Y-150155525D01*
X172438987Y-150358624D01*
X172316854Y-150541409D01*
X172161409Y-150696854D01*
X171978624Y-150818987D01*
X171775525Y-150903113D01*
X171703655Y-150917409D01*
X171559918Y-150946000D01*
X171340082Y-150946000D01*
X171196345Y-150917409D01*
X171124475Y-150903113D01*
X170921376Y-150818987D01*
X170738591Y-150696854D01*
X170583146Y-150541409D01*
X170461013Y-150358624D01*
X170376887Y-150155525D01*
X170334000Y-149939916D01*
X170334000Y-149720084D01*
X170376887Y-149504475D01*
X170461013Y-149301376D01*
X170583146Y-149118591D01*
X170738591Y-148963146D01*
X170921376Y-148841013D01*
X171124475Y-148756887D01*
X171196345Y-148742591D01*
X171340082Y-148714000D01*
X171559918Y-148714000D01*
X171703655Y-148742591D01*
X171703655Y-148742591D01*
G37*
G36*
X180236395Y-146579546D02*
G01*
X180409466Y-146651234D01*
X180409467Y-146651235D01*
X180565227Y-146755310D01*
X180697690Y-146887773D01*
X180697691Y-146887775D01*
X180801766Y-147043534D01*
X180873454Y-147216605D01*
X180910000Y-147400333D01*
X180910000Y-147587667D01*
X180873454Y-147771395D01*
X180801766Y-147944466D01*
X180801765Y-147944467D01*
X180697690Y-148100227D01*
X180565227Y-148232690D01*
X180486818Y-148285081D01*
X180409466Y-148336766D01*
X180236395Y-148408454D01*
X180052667Y-148445000D01*
X179865333Y-148445000D01*
X179681605Y-148408454D01*
X179508534Y-148336766D01*
X179431182Y-148285081D01*
X179352773Y-148232690D01*
X179220310Y-148100227D01*
X179116235Y-147944467D01*
X179116234Y-147944466D01*
X179044546Y-147771395D01*
X179008000Y-147587667D01*
X179008000Y-147400333D01*
X179044546Y-147216605D01*
X179116234Y-147043534D01*
X179220309Y-146887775D01*
X179220310Y-146887773D01*
X179352773Y-146755310D01*
X179508533Y-146651235D01*
X179508534Y-146651234D01*
X179681605Y-146579546D01*
X179865333Y-146543000D01*
X180052667Y-146543000D01*
X180236395Y-146579546D01*
X180236395Y-146579546D01*
G37*
G36*
X180236395Y-144079546D02*
G01*
X180409466Y-144151234D01*
X180409467Y-144151235D01*
X180565227Y-144255310D01*
X180697690Y-144387773D01*
X180697691Y-144387775D01*
X180801766Y-144543534D01*
X180873454Y-144716605D01*
X180910000Y-144900333D01*
X180910000Y-145087667D01*
X180873454Y-145271395D01*
X180801766Y-145444466D01*
X180801765Y-145444467D01*
X180697690Y-145600227D01*
X180565227Y-145732690D01*
X180486818Y-145785081D01*
X180409466Y-145836766D01*
X180236395Y-145908454D01*
X180052667Y-145945000D01*
X179865333Y-145945000D01*
X179681605Y-145908454D01*
X179508534Y-145836766D01*
X179431182Y-145785081D01*
X179352773Y-145732690D01*
X179220310Y-145600227D01*
X179116235Y-145444467D01*
X179116234Y-145444466D01*
X179044546Y-145271395D01*
X179008000Y-145087667D01*
X179008000Y-144900333D01*
X179044546Y-144716605D01*
X179116234Y-144543534D01*
X179220309Y-144387775D01*
X179220310Y-144387773D01*
X179352773Y-144255310D01*
X179508533Y-144151235D01*
X179508534Y-144151234D01*
X179681605Y-144079546D01*
X179865333Y-144043000D01*
X180052667Y-144043000D01*
X180236395Y-144079546D01*
X180236395Y-144079546D01*
G37*
G36*
X180910000Y-143445000D02*
G01*
X179008000Y-143445000D01*
X179008000Y-141543000D01*
X180910000Y-141543000D01*
X180910000Y-143445000D01*
X180910000Y-143445000D01*
G37*
G36*
X200278655Y-140442591D02*
G01*
X200350525Y-140456887D01*
X200553624Y-140541013D01*
X200736409Y-140663146D01*
X200891854Y-140818591D01*
X201013987Y-141001376D01*
X201098113Y-141204475D01*
X201141000Y-141420084D01*
X201141000Y-141639916D01*
X201098113Y-141855525D01*
X201013987Y-142058624D01*
X200891854Y-142241409D01*
X200736409Y-142396854D01*
X200553624Y-142518987D01*
X200350525Y-142603113D01*
X200278655Y-142617409D01*
X200134918Y-142646000D01*
X199915082Y-142646000D01*
X199771345Y-142617409D01*
X199699475Y-142603113D01*
X199496376Y-142518987D01*
X199313591Y-142396854D01*
X199158146Y-142241409D01*
X199036013Y-142058624D01*
X198951887Y-141855525D01*
X198909000Y-141639916D01*
X198909000Y-141420084D01*
X198951887Y-141204475D01*
X199036013Y-141001376D01*
X199158146Y-140818591D01*
X199313591Y-140663146D01*
X199496376Y-140541013D01*
X199699475Y-140456887D01*
X199771345Y-140442591D01*
X199915082Y-140414000D01*
X200134918Y-140414000D01*
X200278655Y-140442591D01*
X200278655Y-140442591D01*
G37*
G36*
X171703655Y-140442591D02*
G01*
X171775525Y-140456887D01*
X171978624Y-140541013D01*
X172161409Y-140663146D01*
X172316854Y-140818591D01*
X172438987Y-141001376D01*
X172523113Y-141204475D01*
X172566000Y-141420084D01*
X172566000Y-141639916D01*
X172523113Y-141855525D01*
X172438987Y-142058624D01*
X172316854Y-142241409D01*
X172161409Y-142396854D01*
X171978624Y-142518987D01*
X171775525Y-142603113D01*
X171703655Y-142617409D01*
X171559918Y-142646000D01*
X171340082Y-142646000D01*
X171196345Y-142617409D01*
X171124475Y-142603113D01*
X170921376Y-142518987D01*
X170738591Y-142396854D01*
X170583146Y-142241409D01*
X170461013Y-142058624D01*
X170376887Y-141855525D01*
X170334000Y-141639916D01*
X170334000Y-141420084D01*
X170376887Y-141204475D01*
X170461013Y-141001376D01*
X170583146Y-140818591D01*
X170738591Y-140663146D01*
X170921376Y-140541013D01*
X171124475Y-140456887D01*
X171196345Y-140442591D01*
X171340082Y-140414000D01*
X171559918Y-140414000D01*
X171703655Y-140442591D01*
X171703655Y-140442591D01*
G37*
G36*
X187857412Y-138789805D02*
G01*
X187995604Y-138803416D01*
X188261579Y-138884099D01*
X188261581Y-138884100D01*
X188506701Y-139015119D01*
X188721556Y-139191444D01*
X188889429Y-139396000D01*
X188897880Y-139406298D01*
X189028901Y-139651421D01*
X189109584Y-139917396D01*
X189136827Y-140194000D01*
X189109584Y-140470604D01*
X189028901Y-140736579D01*
X189028900Y-140736581D01*
X188897881Y-140981701D01*
X188721556Y-141196556D01*
X188506701Y-141372881D01*
X188418390Y-141420084D01*
X188261579Y-141503901D01*
X187995604Y-141584584D01*
X187857412Y-141598195D01*
X187788317Y-141605000D01*
X187129683Y-141605000D01*
X187060588Y-141598195D01*
X186922396Y-141584584D01*
X186656421Y-141503901D01*
X186499610Y-141420084D01*
X186411299Y-141372881D01*
X186196444Y-141196556D01*
X186020119Y-140981701D01*
X185889100Y-140736581D01*
X185889099Y-140736579D01*
X185808416Y-140470604D01*
X185781173Y-140194000D01*
X185808416Y-139917396D01*
X185889099Y-139651421D01*
X186020120Y-139406298D01*
X186028571Y-139396000D01*
X186196444Y-139191444D01*
X186411299Y-139015119D01*
X186656419Y-138884100D01*
X186656421Y-138884099D01*
X186922396Y-138803416D01*
X187060588Y-138789805D01*
X187129683Y-138783000D01*
X187788317Y-138783000D01*
X187857412Y-138789805D01*
X187857412Y-138789805D01*
G37*
G36*
X172466000Y-139396000D02*
G01*
X170434000Y-139396000D01*
X170434000Y-137464000D01*
X172466000Y-137464000D01*
X172466000Y-139396000D01*
X172466000Y-139396000D01*
G37*
G36*
X201041000Y-139396000D02*
G01*
X199009000Y-139396000D01*
X199009000Y-137464000D01*
X201041000Y-137464000D01*
X201041000Y-139396000D01*
X201041000Y-139396000D01*
G37*
G36*
X187857412Y-135308805D02*
G01*
X187995604Y-135322416D01*
X188261579Y-135403099D01*
X188261581Y-135403100D01*
X188506701Y-135534119D01*
X188721556Y-135710444D01*
X188897880Y-135925298D01*
X189028901Y-136170421D01*
X189109584Y-136436396D01*
X189136827Y-136713000D01*
X189109584Y-136989604D01*
X189028901Y-137255579D01*
X189028900Y-137255581D01*
X188897881Y-137500701D01*
X188721556Y-137715556D01*
X188506701Y-137891881D01*
X188261581Y-138022900D01*
X188261579Y-138022901D01*
X187995604Y-138103584D01*
X187857412Y-138117195D01*
X187788317Y-138124000D01*
X187129683Y-138124000D01*
X187060588Y-138117195D01*
X186922396Y-138103584D01*
X186656421Y-138022901D01*
X186656419Y-138022900D01*
X186411299Y-137891881D01*
X186196444Y-137715556D01*
X186020119Y-137500701D01*
X185889100Y-137255581D01*
X185889099Y-137255579D01*
X185808416Y-136989604D01*
X185781173Y-136713000D01*
X185808416Y-136436396D01*
X185889099Y-136170421D01*
X186020120Y-135925298D01*
X186196444Y-135710444D01*
X186411299Y-135534119D01*
X186656419Y-135403100D01*
X186656421Y-135403099D01*
X186922396Y-135322416D01*
X187060588Y-135308805D01*
X187129683Y-135302000D01*
X187788317Y-135302000D01*
X187857412Y-135308805D01*
X187857412Y-135308805D01*
G37*
G36*
X171703655Y-134242591D02*
G01*
X171775525Y-134256887D01*
X171978624Y-134341013D01*
X172161409Y-134463146D01*
X172316854Y-134618591D01*
X172438987Y-134801376D01*
X172523113Y-135004475D01*
X172566000Y-135220084D01*
X172566000Y-135439916D01*
X172523113Y-135655525D01*
X172438987Y-135858624D01*
X172316854Y-136041409D01*
X172161409Y-136196854D01*
X171978624Y-136318987D01*
X171775525Y-136403113D01*
X171703655Y-136417409D01*
X171559918Y-136446000D01*
X171340082Y-136446000D01*
X171196345Y-136417409D01*
X171124475Y-136403113D01*
X170921376Y-136318987D01*
X170738591Y-136196854D01*
X170583146Y-136041409D01*
X170461013Y-135858624D01*
X170376887Y-135655525D01*
X170334000Y-135439916D01*
X170334000Y-135220084D01*
X170376887Y-135004475D01*
X170461013Y-134801376D01*
X170583146Y-134618591D01*
X170738591Y-134463146D01*
X170921376Y-134341013D01*
X171124475Y-134256887D01*
X171196345Y-134242591D01*
X171340082Y-134214000D01*
X171559918Y-134214000D01*
X171703655Y-134242591D01*
X171703655Y-134242591D01*
G37*
G36*
X200278655Y-134242591D02*
G01*
X200350525Y-134256887D01*
X200553624Y-134341013D01*
X200736409Y-134463146D01*
X200891854Y-134618591D01*
X201013987Y-134801376D01*
X201098113Y-135004475D01*
X201141000Y-135220084D01*
X201141000Y-135439916D01*
X201098113Y-135655525D01*
X201013987Y-135858624D01*
X200891854Y-136041409D01*
X200736409Y-136196854D01*
X200553624Y-136318987D01*
X200350525Y-136403113D01*
X200278655Y-136417409D01*
X200134918Y-136446000D01*
X199915082Y-136446000D01*
X199771345Y-136417409D01*
X199699475Y-136403113D01*
X199496376Y-136318987D01*
X199313591Y-136196854D01*
X199158146Y-136041409D01*
X199036013Y-135858624D01*
X198951887Y-135655525D01*
X198909000Y-135439916D01*
X198909000Y-135220084D01*
X198951887Y-135004475D01*
X199036013Y-134801376D01*
X199158146Y-134618591D01*
X199313591Y-134463146D01*
X199496376Y-134341013D01*
X199699475Y-134256887D01*
X199771345Y-134242591D01*
X199915082Y-134214000D01*
X200134918Y-134214000D01*
X200278655Y-134242591D01*
X200278655Y-134242591D01*
G37*
G36*
X180236395Y-133498546D02*
G01*
X180409466Y-133570234D01*
X180409467Y-133570235D01*
X180565227Y-133674310D01*
X180697690Y-133806773D01*
X180697691Y-133806775D01*
X180801766Y-133962534D01*
X180873454Y-134135605D01*
X180910000Y-134319333D01*
X180910000Y-134506667D01*
X180873454Y-134690395D01*
X180801766Y-134863466D01*
X180801765Y-134863467D01*
X180697690Y-135019227D01*
X180565227Y-135151690D01*
X180486818Y-135204081D01*
X180409466Y-135255766D01*
X180236395Y-135327454D01*
X180052667Y-135364000D01*
X179865333Y-135364000D01*
X179681605Y-135327454D01*
X179508534Y-135255766D01*
X179431182Y-135204081D01*
X179352773Y-135151690D01*
X179220310Y-135019227D01*
X179116235Y-134863467D01*
X179116234Y-134863466D01*
X179044546Y-134690395D01*
X179008000Y-134506667D01*
X179008000Y-134319333D01*
X179044546Y-134135605D01*
X179116234Y-133962534D01*
X179220309Y-133806775D01*
X179220310Y-133806773D01*
X179352773Y-133674310D01*
X179508533Y-133570235D01*
X179508534Y-133570234D01*
X179681605Y-133498546D01*
X179865333Y-133462000D01*
X180052667Y-133462000D01*
X180236395Y-133498546D01*
X180236395Y-133498546D01*
G37*
G36*
X180236395Y-130998546D02*
G01*
X180409466Y-131070234D01*
X180409467Y-131070235D01*
X180565227Y-131174310D01*
X180697690Y-131306773D01*
X180697691Y-131306775D01*
X180801766Y-131462534D01*
X180873454Y-131635605D01*
X180910000Y-131819333D01*
X180910000Y-132006667D01*
X180873454Y-132190395D01*
X180801766Y-132363466D01*
X180801765Y-132363467D01*
X180697690Y-132519227D01*
X180565227Y-132651690D01*
X180486818Y-132704081D01*
X180409466Y-132755766D01*
X180236395Y-132827454D01*
X180052667Y-132864000D01*
X179865333Y-132864000D01*
X179681605Y-132827454D01*
X179508534Y-132755766D01*
X179431182Y-132704081D01*
X179352773Y-132651690D01*
X179220310Y-132519227D01*
X179116235Y-132363467D01*
X179116234Y-132363466D01*
X179044546Y-132190395D01*
X179008000Y-132006667D01*
X179008000Y-131819333D01*
X179044546Y-131635605D01*
X179116234Y-131462534D01*
X179220309Y-131306775D01*
X179220310Y-131306773D01*
X179352773Y-131174310D01*
X179508533Y-131070235D01*
X179508534Y-131070234D01*
X179681605Y-130998546D01*
X179865333Y-130962000D01*
X180052667Y-130962000D01*
X180236395Y-130998546D01*
X180236395Y-130998546D01*
G37*
G36*
X180910000Y-130364000D02*
G01*
X179008000Y-130364000D01*
X179008000Y-128462000D01*
X180910000Y-128462000D01*
X180910000Y-130364000D01*
X180910000Y-130364000D01*
G37*
G36*
X187857412Y-125708805D02*
G01*
X187995604Y-125722416D01*
X188261579Y-125803099D01*
X188261581Y-125803100D01*
X188506701Y-125934119D01*
X188721556Y-126110444D01*
X188892376Y-126318591D01*
X188897880Y-126325298D01*
X189028901Y-126570421D01*
X189109584Y-126836396D01*
X189136827Y-127113000D01*
X189109584Y-127389604D01*
X189058312Y-127558623D01*
X189028900Y-127655581D01*
X188897881Y-127900701D01*
X188721556Y-128115556D01*
X188506701Y-128291881D01*
X188261581Y-128422900D01*
X188261579Y-128422901D01*
X187995604Y-128503584D01*
X187857412Y-128517195D01*
X187788317Y-128524000D01*
X187129683Y-128524000D01*
X187060588Y-128517195D01*
X186922396Y-128503584D01*
X186656421Y-128422901D01*
X186656419Y-128422900D01*
X186411299Y-128291881D01*
X186196444Y-128115556D01*
X186020119Y-127900701D01*
X185889100Y-127655581D01*
X185859688Y-127558623D01*
X185808416Y-127389604D01*
X185781173Y-127113000D01*
X185808416Y-126836396D01*
X185889099Y-126570421D01*
X186020120Y-126325298D01*
X186025624Y-126318591D01*
X186196444Y-126110444D01*
X186411299Y-125934119D01*
X186656419Y-125803100D01*
X186656421Y-125803099D01*
X186922396Y-125722416D01*
X187060588Y-125708805D01*
X187129683Y-125702000D01*
X187788317Y-125702000D01*
X187857412Y-125708805D01*
X187857412Y-125708805D01*
G37*
G36*
X200236062Y-125934119D02*
G01*
X200350525Y-125956887D01*
X200553624Y-126041013D01*
X200736409Y-126163146D01*
X200891854Y-126318591D01*
X201013987Y-126501376D01*
X201098113Y-126704475D01*
X201141000Y-126920084D01*
X201141000Y-127139916D01*
X201098113Y-127355525D01*
X201013987Y-127558624D01*
X200891854Y-127741409D01*
X200736409Y-127896854D01*
X200553624Y-128018987D01*
X200350525Y-128103113D01*
X200287974Y-128115555D01*
X200134918Y-128146000D01*
X199915082Y-128146000D01*
X199762026Y-128115555D01*
X199699475Y-128103113D01*
X199496376Y-128018987D01*
X199313591Y-127896854D01*
X199158146Y-127741409D01*
X199036013Y-127558624D01*
X198951887Y-127355525D01*
X198909000Y-127139916D01*
X198909000Y-126920084D01*
X198951887Y-126704475D01*
X199036013Y-126501376D01*
X199158146Y-126318591D01*
X199313591Y-126163146D01*
X199496376Y-126041013D01*
X199699475Y-125956887D01*
X199813938Y-125934119D01*
X199915082Y-125914000D01*
X200134918Y-125914000D01*
X200236062Y-125934119D01*
X200236062Y-125934119D01*
G37*
G36*
X171661062Y-125934119D02*
G01*
X171775525Y-125956887D01*
X171978624Y-126041013D01*
X172161409Y-126163146D01*
X172316854Y-126318591D01*
X172438987Y-126501376D01*
X172523113Y-126704475D01*
X172566000Y-126920084D01*
X172566000Y-127139916D01*
X172523113Y-127355525D01*
X172438987Y-127558624D01*
X172316854Y-127741409D01*
X172161409Y-127896854D01*
X171978624Y-128018987D01*
X171775525Y-128103113D01*
X171712974Y-128115555D01*
X171559918Y-128146000D01*
X171340082Y-128146000D01*
X171187026Y-128115555D01*
X171124475Y-128103113D01*
X170921376Y-128018987D01*
X170738591Y-127896854D01*
X170583146Y-127741409D01*
X170461013Y-127558624D01*
X170376887Y-127355525D01*
X170334000Y-127139916D01*
X170334000Y-126920084D01*
X170376887Y-126704475D01*
X170461013Y-126501376D01*
X170583146Y-126318591D01*
X170738591Y-126163146D01*
X170921376Y-126041013D01*
X171124475Y-125956887D01*
X171238938Y-125934119D01*
X171340082Y-125914000D01*
X171559918Y-125914000D01*
X171661062Y-125934119D01*
X171661062Y-125934119D01*
G37*
G36*
X187857412Y-122227805D02*
G01*
X187995604Y-122241416D01*
X188261579Y-122322099D01*
X188261581Y-122322100D01*
X188506701Y-122453119D01*
X188721556Y-122629444D01*
X188897881Y-122844299D01*
X189028900Y-123089419D01*
X189028901Y-123089421D01*
X189109584Y-123355396D01*
X189136827Y-123632000D01*
X189109584Y-123908604D01*
X189083823Y-123993525D01*
X189028900Y-124174581D01*
X188897881Y-124419701D01*
X188721556Y-124634556D01*
X188506701Y-124810881D01*
X188261581Y-124941900D01*
X188261579Y-124941901D01*
X187995604Y-125022584D01*
X187857412Y-125036195D01*
X187788317Y-125043000D01*
X187129683Y-125043000D01*
X187060588Y-125036195D01*
X186922396Y-125022584D01*
X186656421Y-124941901D01*
X186656419Y-124941900D01*
X186411299Y-124810881D01*
X186196444Y-124634556D01*
X186020119Y-124419701D01*
X185889100Y-124174581D01*
X185834177Y-123993525D01*
X185808416Y-123908604D01*
X185781173Y-123632000D01*
X185808416Y-123355396D01*
X185889099Y-123089421D01*
X185889100Y-123089419D01*
X186020119Y-122844299D01*
X186196444Y-122629444D01*
X186411299Y-122453119D01*
X186656419Y-122322100D01*
X186656421Y-122322099D01*
X186922396Y-122241416D01*
X187060588Y-122227805D01*
X187129683Y-122221000D01*
X187788317Y-122221000D01*
X187857412Y-122227805D01*
X187857412Y-122227805D01*
G37*
G36*
X200278655Y-122580591D02*
G01*
X200350525Y-122594887D01*
X200553624Y-122679013D01*
X200736409Y-122801146D01*
X200891854Y-122956591D01*
X201013987Y-123139376D01*
X201098113Y-123342475D01*
X201141000Y-123558084D01*
X201141000Y-123777916D01*
X201098113Y-123993525D01*
X201013987Y-124196624D01*
X200891854Y-124379409D01*
X200736409Y-124534854D01*
X200553624Y-124656987D01*
X200350525Y-124741113D01*
X200278655Y-124755409D01*
X200134918Y-124784000D01*
X199915082Y-124784000D01*
X199771345Y-124755409D01*
X199699475Y-124741113D01*
X199496376Y-124656987D01*
X199313591Y-124534854D01*
X199158146Y-124379409D01*
X199036013Y-124196624D01*
X198951887Y-123993525D01*
X198909000Y-123777916D01*
X198909000Y-123558084D01*
X198951887Y-123342475D01*
X199036013Y-123139376D01*
X199158146Y-122956591D01*
X199313591Y-122801146D01*
X199496376Y-122679013D01*
X199699475Y-122594887D01*
X199771345Y-122580591D01*
X199915082Y-122552000D01*
X200134918Y-122552000D01*
X200278655Y-122580591D01*
X200278655Y-122580591D01*
G37*
G36*
X171703655Y-122580591D02*
G01*
X171775525Y-122594887D01*
X171978624Y-122679013D01*
X172161409Y-122801146D01*
X172316854Y-122956591D01*
X172438987Y-123139376D01*
X172523113Y-123342475D01*
X172566000Y-123558084D01*
X172566000Y-123777916D01*
X172523113Y-123993525D01*
X172438987Y-124196624D01*
X172316854Y-124379409D01*
X172161409Y-124534854D01*
X171978624Y-124656987D01*
X171775525Y-124741113D01*
X171703655Y-124755409D01*
X171559918Y-124784000D01*
X171340082Y-124784000D01*
X171196345Y-124755409D01*
X171124475Y-124741113D01*
X170921376Y-124656987D01*
X170738591Y-124534854D01*
X170583146Y-124379409D01*
X170461013Y-124196624D01*
X170376887Y-123993525D01*
X170334000Y-123777916D01*
X170334000Y-123558084D01*
X170376887Y-123342475D01*
X170461013Y-123139376D01*
X170583146Y-122956591D01*
X170738591Y-122801146D01*
X170921376Y-122679013D01*
X171124475Y-122594887D01*
X171196345Y-122580591D01*
X171340082Y-122552000D01*
X171559918Y-122552000D01*
X171703655Y-122580591D01*
X171703655Y-122580591D01*
G37*
G36*
X180236395Y-120417546D02*
G01*
X180409466Y-120489234D01*
X180409467Y-120489235D01*
X180565227Y-120593310D01*
X180697690Y-120725773D01*
X180697691Y-120725775D01*
X180801766Y-120881534D01*
X180873454Y-121054605D01*
X180910000Y-121238333D01*
X180910000Y-121425667D01*
X180873454Y-121609395D01*
X180801766Y-121782466D01*
X180801765Y-121782467D01*
X180697690Y-121938227D01*
X180565227Y-122070690D01*
X180486818Y-122123081D01*
X180409466Y-122174766D01*
X180236395Y-122246454D01*
X180052667Y-122283000D01*
X179865333Y-122283000D01*
X179681605Y-122246454D01*
X179508534Y-122174766D01*
X179431182Y-122123081D01*
X179352773Y-122070690D01*
X179220310Y-121938227D01*
X179116235Y-121782467D01*
X179116234Y-121782466D01*
X179044546Y-121609395D01*
X179008000Y-121425667D01*
X179008000Y-121238333D01*
X179044546Y-121054605D01*
X179116234Y-120881534D01*
X179220309Y-120725775D01*
X179220310Y-120725773D01*
X179352773Y-120593310D01*
X179508533Y-120489235D01*
X179508534Y-120489234D01*
X179681605Y-120417546D01*
X179865333Y-120381000D01*
X180052667Y-120381000D01*
X180236395Y-120417546D01*
X180236395Y-120417546D01*
G37*
G36*
X180236395Y-117917546D02*
G01*
X180409466Y-117989234D01*
X180409467Y-117989235D01*
X180565227Y-118093310D01*
X180697690Y-118225773D01*
X180697691Y-118225775D01*
X180801766Y-118381534D01*
X180873454Y-118554605D01*
X180910000Y-118738333D01*
X180910000Y-118925667D01*
X180873454Y-119109395D01*
X180801766Y-119282466D01*
X180801765Y-119282467D01*
X180697690Y-119438227D01*
X180565227Y-119570690D01*
X180486818Y-119623081D01*
X180409466Y-119674766D01*
X180236395Y-119746454D01*
X180052667Y-119783000D01*
X179865333Y-119783000D01*
X179681605Y-119746454D01*
X179508534Y-119674766D01*
X179431182Y-119623081D01*
X179352773Y-119570690D01*
X179220310Y-119438227D01*
X179116235Y-119282467D01*
X179116234Y-119282466D01*
X179044546Y-119109395D01*
X179008000Y-118925667D01*
X179008000Y-118738333D01*
X179044546Y-118554605D01*
X179116234Y-118381534D01*
X179220309Y-118225775D01*
X179220310Y-118225773D01*
X179352773Y-118093310D01*
X179508533Y-117989235D01*
X179508534Y-117989234D01*
X179681605Y-117917546D01*
X179865333Y-117881000D01*
X180052667Y-117881000D01*
X180236395Y-117917546D01*
X180236395Y-117917546D01*
G37*
G36*
X180910000Y-117283000D02*
G01*
X179008000Y-117283000D01*
X179008000Y-115381000D01*
X180910000Y-115381000D01*
X180910000Y-117283000D01*
X180910000Y-117283000D01*
G37*
G36*
X171703655Y-114280591D02*
G01*
X171775525Y-114294887D01*
X171978624Y-114379013D01*
X172161409Y-114501146D01*
X172316854Y-114656591D01*
X172438987Y-114839376D01*
X172523113Y-115042475D01*
X172566000Y-115258084D01*
X172566000Y-115477916D01*
X172523113Y-115693525D01*
X172438987Y-115896624D01*
X172316854Y-116079409D01*
X172161409Y-116234854D01*
X171978624Y-116356987D01*
X171775525Y-116441113D01*
X171703655Y-116455409D01*
X171559918Y-116484000D01*
X171340082Y-116484000D01*
X171196345Y-116455409D01*
X171124475Y-116441113D01*
X170921376Y-116356987D01*
X170738591Y-116234854D01*
X170583146Y-116079409D01*
X170461013Y-115896624D01*
X170376887Y-115693525D01*
X170334000Y-115477916D01*
X170334000Y-115258084D01*
X170376887Y-115042475D01*
X170461013Y-114839376D01*
X170583146Y-114656591D01*
X170738591Y-114501146D01*
X170921376Y-114379013D01*
X171124475Y-114294887D01*
X171196345Y-114280591D01*
X171340082Y-114252000D01*
X171559918Y-114252000D01*
X171703655Y-114280591D01*
X171703655Y-114280591D01*
G37*
G36*
X200278655Y-114280591D02*
G01*
X200350525Y-114294887D01*
X200553624Y-114379013D01*
X200736409Y-114501146D01*
X200891854Y-114656591D01*
X201013987Y-114839376D01*
X201098113Y-115042475D01*
X201141000Y-115258084D01*
X201141000Y-115477916D01*
X201098113Y-115693525D01*
X201013987Y-115896624D01*
X200891854Y-116079409D01*
X200736409Y-116234854D01*
X200553624Y-116356987D01*
X200350525Y-116441113D01*
X200278655Y-116455409D01*
X200134918Y-116484000D01*
X199915082Y-116484000D01*
X199771345Y-116455409D01*
X199699475Y-116441113D01*
X199496376Y-116356987D01*
X199313591Y-116234854D01*
X199158146Y-116079409D01*
X199036013Y-115896624D01*
X198951887Y-115693525D01*
X198909000Y-115477916D01*
X198909000Y-115258084D01*
X198951887Y-115042475D01*
X199036013Y-114839376D01*
X199158146Y-114656591D01*
X199313591Y-114501146D01*
X199496376Y-114379013D01*
X199699475Y-114294887D01*
X199771345Y-114280591D01*
X199915082Y-114252000D01*
X200134918Y-114252000D01*
X200278655Y-114280591D01*
X200278655Y-114280591D01*
G37*
G36*
X187857412Y-112627805D02*
G01*
X187995604Y-112641416D01*
X188261579Y-112722099D01*
X188261581Y-112722100D01*
X188506701Y-112853119D01*
X188721556Y-113029444D01*
X188889429Y-113234000D01*
X188897880Y-113244298D01*
X189028901Y-113489421D01*
X189109584Y-113755396D01*
X189136827Y-114032000D01*
X189109584Y-114308604D01*
X189028901Y-114574579D01*
X189028900Y-114574581D01*
X188897881Y-114819701D01*
X188721556Y-115034556D01*
X188506701Y-115210881D01*
X188418390Y-115258084D01*
X188261579Y-115341901D01*
X187995604Y-115422584D01*
X187857412Y-115436195D01*
X187788317Y-115443000D01*
X187129683Y-115443000D01*
X187060588Y-115436195D01*
X186922396Y-115422584D01*
X186656421Y-115341901D01*
X186499610Y-115258084D01*
X186411299Y-115210881D01*
X186196444Y-115034556D01*
X186020119Y-114819701D01*
X185889100Y-114574581D01*
X185889099Y-114574579D01*
X185808416Y-114308604D01*
X185781173Y-114032000D01*
X185808416Y-113755396D01*
X185889099Y-113489421D01*
X186020120Y-113244298D01*
X186028571Y-113234000D01*
X186196444Y-113029444D01*
X186411299Y-112853119D01*
X186656419Y-112722100D01*
X186656421Y-112722099D01*
X186922396Y-112641416D01*
X187060588Y-112627805D01*
X187129683Y-112621000D01*
X187788317Y-112621000D01*
X187857412Y-112627805D01*
X187857412Y-112627805D01*
G37*
G36*
X172466000Y-113234000D02*
G01*
X170434000Y-113234000D01*
X170434000Y-111302000D01*
X172466000Y-111302000D01*
X172466000Y-113234000D01*
X172466000Y-113234000D01*
G37*
G36*
X201041000Y-113234000D02*
G01*
X199009000Y-113234000D01*
X199009000Y-111302000D01*
X201041000Y-111302000D01*
X201041000Y-113234000D01*
X201041000Y-113234000D01*
G37*
G36*
X187857412Y-109146805D02*
G01*
X187995604Y-109160416D01*
X188261579Y-109241099D01*
X188261581Y-109241100D01*
X188506701Y-109372119D01*
X188721556Y-109548444D01*
X188897880Y-109763298D01*
X189028901Y-110008421D01*
X189109584Y-110274396D01*
X189136827Y-110551000D01*
X189109584Y-110827604D01*
X189028901Y-111093579D01*
X189028900Y-111093581D01*
X188897881Y-111338701D01*
X188721556Y-111553556D01*
X188506701Y-111729881D01*
X188261581Y-111860900D01*
X188261579Y-111860901D01*
X187995604Y-111941584D01*
X187857412Y-111955195D01*
X187788317Y-111962000D01*
X187129683Y-111962000D01*
X187060588Y-111955195D01*
X186922396Y-111941584D01*
X186656421Y-111860901D01*
X186656419Y-111860900D01*
X186411299Y-111729881D01*
X186196444Y-111553556D01*
X186020119Y-111338701D01*
X185889100Y-111093581D01*
X185889099Y-111093579D01*
X185808416Y-110827604D01*
X185781173Y-110551000D01*
X185808416Y-110274396D01*
X185889099Y-110008421D01*
X186020120Y-109763298D01*
X186196444Y-109548444D01*
X186411299Y-109372119D01*
X186656419Y-109241100D01*
X186656421Y-109241099D01*
X186922396Y-109160416D01*
X187060588Y-109146805D01*
X187129683Y-109140000D01*
X187788317Y-109140000D01*
X187857412Y-109146805D01*
X187857412Y-109146805D01*
G37*
G36*
X200278655Y-108080591D02*
G01*
X200350525Y-108094887D01*
X200553624Y-108179013D01*
X200736409Y-108301146D01*
X200891854Y-108456591D01*
X201013987Y-108639376D01*
X201098113Y-108842475D01*
X201141000Y-109058084D01*
X201141000Y-109277916D01*
X201098113Y-109493525D01*
X201013987Y-109696624D01*
X200891854Y-109879409D01*
X200736409Y-110034854D01*
X200553624Y-110156987D01*
X200350525Y-110241113D01*
X200278655Y-110255409D01*
X200134918Y-110284000D01*
X199915082Y-110284000D01*
X199771345Y-110255409D01*
X199699475Y-110241113D01*
X199496376Y-110156987D01*
X199313591Y-110034854D01*
X199158146Y-109879409D01*
X199036013Y-109696624D01*
X198951887Y-109493525D01*
X198909000Y-109277916D01*
X198909000Y-109058084D01*
X198951887Y-108842475D01*
X199036013Y-108639376D01*
X199158146Y-108456591D01*
X199313591Y-108301146D01*
X199496376Y-108179013D01*
X199699475Y-108094887D01*
X199771345Y-108080591D01*
X199915082Y-108052000D01*
X200134918Y-108052000D01*
X200278655Y-108080591D01*
X200278655Y-108080591D01*
G37*
G36*
X171703655Y-108080591D02*
G01*
X171775525Y-108094887D01*
X171978624Y-108179013D01*
X172161409Y-108301146D01*
X172316854Y-108456591D01*
X172438987Y-108639376D01*
X172523113Y-108842475D01*
X172566000Y-109058084D01*
X172566000Y-109277916D01*
X172523113Y-109493525D01*
X172438987Y-109696624D01*
X172316854Y-109879409D01*
X172161409Y-110034854D01*
X171978624Y-110156987D01*
X171775525Y-110241113D01*
X171703655Y-110255409D01*
X171559918Y-110284000D01*
X171340082Y-110284000D01*
X171196345Y-110255409D01*
X171124475Y-110241113D01*
X170921376Y-110156987D01*
X170738591Y-110034854D01*
X170583146Y-109879409D01*
X170461013Y-109696624D01*
X170376887Y-109493525D01*
X170334000Y-109277916D01*
X170334000Y-109058084D01*
X170376887Y-108842475D01*
X170461013Y-108639376D01*
X170583146Y-108456591D01*
X170738591Y-108301146D01*
X170921376Y-108179013D01*
X171124475Y-108094887D01*
X171196345Y-108080591D01*
X171340082Y-108052000D01*
X171559918Y-108052000D01*
X171703655Y-108080591D01*
X171703655Y-108080591D01*
G37*
G36*
X180236395Y-107336546D02*
G01*
X180409466Y-107408234D01*
X180409467Y-107408235D01*
X180565227Y-107512310D01*
X180697690Y-107644773D01*
X180697691Y-107644775D01*
X180801766Y-107800534D01*
X180873454Y-107973605D01*
X180910000Y-108157333D01*
X180910000Y-108344667D01*
X180873454Y-108528395D01*
X180801766Y-108701466D01*
X180801765Y-108701467D01*
X180697690Y-108857227D01*
X180565227Y-108989690D01*
X180486818Y-109042081D01*
X180409466Y-109093766D01*
X180236395Y-109165454D01*
X180052667Y-109202000D01*
X179865333Y-109202000D01*
X179681605Y-109165454D01*
X179508534Y-109093766D01*
X179431182Y-109042081D01*
X179352773Y-108989690D01*
X179220310Y-108857227D01*
X179116235Y-108701467D01*
X179116234Y-108701466D01*
X179044546Y-108528395D01*
X179008000Y-108344667D01*
X179008000Y-108157333D01*
X179044546Y-107973605D01*
X179116234Y-107800534D01*
X179220309Y-107644775D01*
X179220310Y-107644773D01*
X179352773Y-107512310D01*
X179508533Y-107408235D01*
X179508534Y-107408234D01*
X179681605Y-107336546D01*
X179865333Y-107300000D01*
X180052667Y-107300000D01*
X180236395Y-107336546D01*
X180236395Y-107336546D01*
G37*
G36*
X180236395Y-104836546D02*
G01*
X180409466Y-104908234D01*
X180409467Y-104908235D01*
X180565227Y-105012310D01*
X180697690Y-105144773D01*
X180697691Y-105144775D01*
X180801766Y-105300534D01*
X180873454Y-105473605D01*
X180910000Y-105657333D01*
X180910000Y-105844667D01*
X180873454Y-106028395D01*
X180801766Y-106201466D01*
X180801765Y-106201467D01*
X180697690Y-106357227D01*
X180565227Y-106489690D01*
X180486818Y-106542081D01*
X180409466Y-106593766D01*
X180236395Y-106665454D01*
X180052667Y-106702000D01*
X179865333Y-106702000D01*
X179681605Y-106665454D01*
X179508534Y-106593766D01*
X179431182Y-106542081D01*
X179352773Y-106489690D01*
X179220310Y-106357227D01*
X179116235Y-106201467D01*
X179116234Y-106201466D01*
X179044546Y-106028395D01*
X179008000Y-105844667D01*
X179008000Y-105657333D01*
X179044546Y-105473605D01*
X179116234Y-105300534D01*
X179220309Y-105144775D01*
X179220310Y-105144773D01*
X179352773Y-105012310D01*
X179508533Y-104908235D01*
X179508534Y-104908234D01*
X179681605Y-104836546D01*
X179865333Y-104800000D01*
X180052667Y-104800000D01*
X180236395Y-104836546D01*
X180236395Y-104836546D01*
G37*
G36*
X180910000Y-104202000D02*
G01*
X179008000Y-104202000D01*
X179008000Y-102300000D01*
X180910000Y-102300000D01*
X180910000Y-104202000D01*
X180910000Y-104202000D01*
G37*
G36*
X187857412Y-99546805D02*
G01*
X187995604Y-99560416D01*
X188261579Y-99641099D01*
X188261581Y-99641100D01*
X188506701Y-99772119D01*
X188721556Y-99948444D01*
X188892376Y-100156591D01*
X188897880Y-100163298D01*
X189028901Y-100408421D01*
X189109584Y-100674396D01*
X189136827Y-100951000D01*
X189109584Y-101227604D01*
X189058312Y-101396623D01*
X189028900Y-101493581D01*
X188897881Y-101738701D01*
X188721556Y-101953556D01*
X188506701Y-102129881D01*
X188261581Y-102260900D01*
X188261579Y-102260901D01*
X187995604Y-102341584D01*
X187857412Y-102355195D01*
X187788317Y-102362000D01*
X187129683Y-102362000D01*
X187060588Y-102355195D01*
X186922396Y-102341584D01*
X186656421Y-102260901D01*
X186656419Y-102260900D01*
X186411299Y-102129881D01*
X186196444Y-101953556D01*
X186020119Y-101738701D01*
X185889100Y-101493581D01*
X185859688Y-101396623D01*
X185808416Y-101227604D01*
X185781173Y-100951000D01*
X185808416Y-100674396D01*
X185889099Y-100408421D01*
X186020120Y-100163298D01*
X186025624Y-100156591D01*
X186196444Y-99948444D01*
X186411299Y-99772119D01*
X186656419Y-99641100D01*
X186656421Y-99641099D01*
X186922396Y-99560416D01*
X187060588Y-99546805D01*
X187129683Y-99540000D01*
X187788317Y-99540000D01*
X187857412Y-99546805D01*
X187857412Y-99546805D01*
G37*
G36*
X171661062Y-99772119D02*
G01*
X171775525Y-99794887D01*
X171978624Y-99879013D01*
X172161409Y-100001146D01*
X172316854Y-100156591D01*
X172438987Y-100339376D01*
X172523113Y-100542475D01*
X172566000Y-100758084D01*
X172566000Y-100977916D01*
X172523113Y-101193525D01*
X172438987Y-101396624D01*
X172316854Y-101579409D01*
X172161409Y-101734854D01*
X171978624Y-101856987D01*
X171775525Y-101941113D01*
X171712974Y-101953555D01*
X171559918Y-101984000D01*
X171340082Y-101984000D01*
X171187026Y-101953555D01*
X171124475Y-101941113D01*
X170921376Y-101856987D01*
X170738591Y-101734854D01*
X170583146Y-101579409D01*
X170461013Y-101396624D01*
X170376887Y-101193525D01*
X170334000Y-100977916D01*
X170334000Y-100758084D01*
X170376887Y-100542475D01*
X170461013Y-100339376D01*
X170583146Y-100156591D01*
X170738591Y-100001146D01*
X170921376Y-99879013D01*
X171124475Y-99794887D01*
X171238938Y-99772119D01*
X171340082Y-99752000D01*
X171559918Y-99752000D01*
X171661062Y-99772119D01*
X171661062Y-99772119D01*
G37*
G36*
X200236062Y-99772119D02*
G01*
X200350525Y-99794887D01*
X200553624Y-99879013D01*
X200736409Y-100001146D01*
X200891854Y-100156591D01*
X201013987Y-100339376D01*
X201098113Y-100542475D01*
X201141000Y-100758084D01*
X201141000Y-100977916D01*
X201098113Y-101193525D01*
X201013987Y-101396624D01*
X200891854Y-101579409D01*
X200736409Y-101734854D01*
X200553624Y-101856987D01*
X200350525Y-101941113D01*
X200287974Y-101953555D01*
X200134918Y-101984000D01*
X199915082Y-101984000D01*
X199762026Y-101953555D01*
X199699475Y-101941113D01*
X199496376Y-101856987D01*
X199313591Y-101734854D01*
X199158146Y-101579409D01*
X199036013Y-101396624D01*
X198951887Y-101193525D01*
X198909000Y-100977916D01*
X198909000Y-100758084D01*
X198951887Y-100542475D01*
X199036013Y-100339376D01*
X199158146Y-100156591D01*
X199313591Y-100001146D01*
X199496376Y-99879013D01*
X199699475Y-99794887D01*
X199813938Y-99772119D01*
X199915082Y-99752000D01*
X200134918Y-99752000D01*
X200236062Y-99772119D01*
X200236062Y-99772119D01*
G37*
G36*
X187857412Y-96065805D02*
G01*
X187995604Y-96079416D01*
X188261579Y-96160099D01*
X188261581Y-96160100D01*
X188506701Y-96291119D01*
X188721556Y-96467444D01*
X188897881Y-96682299D01*
X189028900Y-96927419D01*
X189028901Y-96927421D01*
X189109584Y-97193396D01*
X189136827Y-97470000D01*
X189109584Y-97746604D01*
X189083823Y-97831525D01*
X189028900Y-98012581D01*
X188897881Y-98257701D01*
X188721556Y-98472556D01*
X188506701Y-98648881D01*
X188261581Y-98779900D01*
X188261579Y-98779901D01*
X187995604Y-98860584D01*
X187857412Y-98874195D01*
X187788317Y-98881000D01*
X187129683Y-98881000D01*
X187060588Y-98874195D01*
X186922396Y-98860584D01*
X186656421Y-98779901D01*
X186656419Y-98779900D01*
X186411299Y-98648881D01*
X186196444Y-98472556D01*
X186020119Y-98257701D01*
X185889100Y-98012581D01*
X185834177Y-97831525D01*
X185808416Y-97746604D01*
X185781173Y-97470000D01*
X185808416Y-97193396D01*
X185889099Y-96927421D01*
X185889100Y-96927419D01*
X186020119Y-96682299D01*
X186196444Y-96467444D01*
X186411299Y-96291119D01*
X186656419Y-96160100D01*
X186656421Y-96160099D01*
X186922396Y-96079416D01*
X187060588Y-96065805D01*
X187129683Y-96059000D01*
X187788317Y-96059000D01*
X187857412Y-96065805D01*
X187857412Y-96065805D01*
G37*
G36*
X200278655Y-96418591D02*
G01*
X200350525Y-96432887D01*
X200553624Y-96517013D01*
X200736409Y-96639146D01*
X200891854Y-96794591D01*
X201013987Y-96977376D01*
X201098113Y-97180475D01*
X201141000Y-97396084D01*
X201141000Y-97615916D01*
X201098113Y-97831525D01*
X201013987Y-98034624D01*
X200891854Y-98217409D01*
X200736409Y-98372854D01*
X200553624Y-98494987D01*
X200350525Y-98579113D01*
X200278655Y-98593409D01*
X200134918Y-98622000D01*
X199915082Y-98622000D01*
X199771345Y-98593409D01*
X199699475Y-98579113D01*
X199496376Y-98494987D01*
X199313591Y-98372854D01*
X199158146Y-98217409D01*
X199036013Y-98034624D01*
X198951887Y-97831525D01*
X198909000Y-97615916D01*
X198909000Y-97396084D01*
X198951887Y-97180475D01*
X199036013Y-96977376D01*
X199158146Y-96794591D01*
X199313591Y-96639146D01*
X199496376Y-96517013D01*
X199699475Y-96432887D01*
X199771345Y-96418591D01*
X199915082Y-96390000D01*
X200134918Y-96390000D01*
X200278655Y-96418591D01*
X200278655Y-96418591D01*
G37*
G36*
X171703655Y-96418591D02*
G01*
X171775525Y-96432887D01*
X171978624Y-96517013D01*
X172161409Y-96639146D01*
X172316854Y-96794591D01*
X172438987Y-96977376D01*
X172523113Y-97180475D01*
X172566000Y-97396084D01*
X172566000Y-97615916D01*
X172523113Y-97831525D01*
X172438987Y-98034624D01*
X172316854Y-98217409D01*
X172161409Y-98372854D01*
X171978624Y-98494987D01*
X171775525Y-98579113D01*
X171703655Y-98593409D01*
X171559918Y-98622000D01*
X171340082Y-98622000D01*
X171196345Y-98593409D01*
X171124475Y-98579113D01*
X170921376Y-98494987D01*
X170738591Y-98372854D01*
X170583146Y-98217409D01*
X170461013Y-98034624D01*
X170376887Y-97831525D01*
X170334000Y-97615916D01*
X170334000Y-97396084D01*
X170376887Y-97180475D01*
X170461013Y-96977376D01*
X170583146Y-96794591D01*
X170738591Y-96639146D01*
X170921376Y-96517013D01*
X171124475Y-96432887D01*
X171196345Y-96418591D01*
X171340082Y-96390000D01*
X171559918Y-96390000D01*
X171703655Y-96418591D01*
X171703655Y-96418591D01*
G37*
G36*
X180236395Y-94255546D02*
G01*
X180409466Y-94327234D01*
X180409467Y-94327235D01*
X180565227Y-94431310D01*
X180697690Y-94563773D01*
X180697691Y-94563775D01*
X180801766Y-94719534D01*
X180873454Y-94892605D01*
X180910000Y-95076333D01*
X180910000Y-95263667D01*
X180873454Y-95447395D01*
X180801766Y-95620466D01*
X180801765Y-95620467D01*
X180697690Y-95776227D01*
X180565227Y-95908690D01*
X180486818Y-95961081D01*
X180409466Y-96012766D01*
X180236395Y-96084454D01*
X180052667Y-96121000D01*
X179865333Y-96121000D01*
X179681605Y-96084454D01*
X179508534Y-96012766D01*
X179431182Y-95961081D01*
X179352773Y-95908690D01*
X179220310Y-95776227D01*
X179116235Y-95620467D01*
X179116234Y-95620466D01*
X179044546Y-95447395D01*
X179008000Y-95263667D01*
X179008000Y-95076333D01*
X179044546Y-94892605D01*
X179116234Y-94719534D01*
X179220309Y-94563775D01*
X179220310Y-94563773D01*
X179352773Y-94431310D01*
X179508533Y-94327235D01*
X179508534Y-94327234D01*
X179681605Y-94255546D01*
X179865333Y-94219000D01*
X180052667Y-94219000D01*
X180236395Y-94255546D01*
X180236395Y-94255546D01*
G37*
G36*
X180236395Y-91755546D02*
G01*
X180409466Y-91827234D01*
X180409467Y-91827235D01*
X180565227Y-91931310D01*
X180697690Y-92063773D01*
X180697691Y-92063775D01*
X180801766Y-92219534D01*
X180873454Y-92392605D01*
X180910000Y-92576333D01*
X180910000Y-92763667D01*
X180873454Y-92947395D01*
X180801766Y-93120466D01*
X180801765Y-93120467D01*
X180697690Y-93276227D01*
X180565227Y-93408690D01*
X180486818Y-93461081D01*
X180409466Y-93512766D01*
X180236395Y-93584454D01*
X180052667Y-93621000D01*
X179865333Y-93621000D01*
X179681605Y-93584454D01*
X179508534Y-93512766D01*
X179431182Y-93461081D01*
X179352773Y-93408690D01*
X179220310Y-93276227D01*
X179116235Y-93120467D01*
X179116234Y-93120466D01*
X179044546Y-92947395D01*
X179008000Y-92763667D01*
X179008000Y-92576333D01*
X179044546Y-92392605D01*
X179116234Y-92219534D01*
X179220309Y-92063775D01*
X179220310Y-92063773D01*
X179352773Y-91931310D01*
X179508533Y-91827235D01*
X179508534Y-91827234D01*
X179681605Y-91755546D01*
X179865333Y-91719000D01*
X180052667Y-91719000D01*
X180236395Y-91755546D01*
X180236395Y-91755546D01*
G37*
G36*
X180910000Y-91121000D02*
G01*
X179008000Y-91121000D01*
X179008000Y-89219000D01*
X180910000Y-89219000D01*
X180910000Y-91121000D01*
X180910000Y-91121000D01*
G37*
G36*
X200278655Y-88118591D02*
G01*
X200350525Y-88132887D01*
X200553624Y-88217013D01*
X200736409Y-88339146D01*
X200891854Y-88494591D01*
X201013987Y-88677376D01*
X201098113Y-88880475D01*
X201141000Y-89096084D01*
X201141000Y-89315916D01*
X201098113Y-89531525D01*
X201013987Y-89734624D01*
X200891854Y-89917409D01*
X200736409Y-90072854D01*
X200553624Y-90194987D01*
X200350525Y-90279113D01*
X200278655Y-90293409D01*
X200134918Y-90322000D01*
X199915082Y-90322000D01*
X199771345Y-90293409D01*
X199699475Y-90279113D01*
X199496376Y-90194987D01*
X199313591Y-90072854D01*
X199158146Y-89917409D01*
X199036013Y-89734624D01*
X198951887Y-89531525D01*
X198909000Y-89315916D01*
X198909000Y-89096084D01*
X198951887Y-88880475D01*
X199036013Y-88677376D01*
X199158146Y-88494591D01*
X199313591Y-88339146D01*
X199496376Y-88217013D01*
X199699475Y-88132887D01*
X199771345Y-88118591D01*
X199915082Y-88090000D01*
X200134918Y-88090000D01*
X200278655Y-88118591D01*
X200278655Y-88118591D01*
G37*
G36*
X171703655Y-88118591D02*
G01*
X171775525Y-88132887D01*
X171978624Y-88217013D01*
X172161409Y-88339146D01*
X172316854Y-88494591D01*
X172438987Y-88677376D01*
X172523113Y-88880475D01*
X172566000Y-89096084D01*
X172566000Y-89315916D01*
X172523113Y-89531525D01*
X172438987Y-89734624D01*
X172316854Y-89917409D01*
X172161409Y-90072854D01*
X171978624Y-90194987D01*
X171775525Y-90279113D01*
X171703655Y-90293409D01*
X171559918Y-90322000D01*
X171340082Y-90322000D01*
X171196345Y-90293409D01*
X171124475Y-90279113D01*
X170921376Y-90194987D01*
X170738591Y-90072854D01*
X170583146Y-89917409D01*
X170461013Y-89734624D01*
X170376887Y-89531525D01*
X170334000Y-89315916D01*
X170334000Y-89096084D01*
X170376887Y-88880475D01*
X170461013Y-88677376D01*
X170583146Y-88494591D01*
X170738591Y-88339146D01*
X170921376Y-88217013D01*
X171124475Y-88132887D01*
X171196345Y-88118591D01*
X171340082Y-88090000D01*
X171559918Y-88090000D01*
X171703655Y-88118591D01*
X171703655Y-88118591D01*
G37*
G36*
X187857412Y-86465805D02*
G01*
X187995604Y-86479416D01*
X188261579Y-86560099D01*
X188261581Y-86560100D01*
X188506701Y-86691119D01*
X188721556Y-86867444D01*
X188889429Y-87072000D01*
X188897880Y-87082298D01*
X189028901Y-87327421D01*
X189109584Y-87593396D01*
X189136827Y-87870000D01*
X189109584Y-88146604D01*
X189028901Y-88412579D01*
X189028900Y-88412581D01*
X188897881Y-88657701D01*
X188721556Y-88872556D01*
X188506701Y-89048881D01*
X188418390Y-89096084D01*
X188261579Y-89179901D01*
X187995604Y-89260584D01*
X187857412Y-89274195D01*
X187788317Y-89281000D01*
X187129683Y-89281000D01*
X187060588Y-89274195D01*
X186922396Y-89260584D01*
X186656421Y-89179901D01*
X186499610Y-89096084D01*
X186411299Y-89048881D01*
X186196444Y-88872556D01*
X186020119Y-88657701D01*
X185889100Y-88412581D01*
X185889099Y-88412579D01*
X185808416Y-88146604D01*
X185781173Y-87870000D01*
X185808416Y-87593396D01*
X185889099Y-87327421D01*
X186020120Y-87082298D01*
X186028571Y-87072000D01*
X186196444Y-86867444D01*
X186411299Y-86691119D01*
X186656419Y-86560100D01*
X186656421Y-86560099D01*
X186922396Y-86479416D01*
X187060588Y-86465805D01*
X187129683Y-86459000D01*
X187788317Y-86459000D01*
X187857412Y-86465805D01*
X187857412Y-86465805D01*
G37*
G36*
X201041000Y-87072000D02*
G01*
X199009000Y-87072000D01*
X199009000Y-85140000D01*
X201041000Y-85140000D01*
X201041000Y-87072000D01*
X201041000Y-87072000D01*
G37*
G36*
X172466000Y-87072000D02*
G01*
X170434000Y-87072000D01*
X170434000Y-85140000D01*
X172466000Y-85140000D01*
X172466000Y-87072000D01*
X172466000Y-87072000D01*
G37*
G36*
X187857412Y-82857805D02*
G01*
X187995604Y-82871416D01*
X188261579Y-82952099D01*
X188261581Y-82952100D01*
X188506701Y-83083119D01*
X188721556Y-83259444D01*
X188897881Y-83474299D01*
X188930125Y-83534624D01*
X189028901Y-83719421D01*
X189109584Y-83985396D01*
X189136827Y-84262000D01*
X189109584Y-84538604D01*
X189028901Y-84804579D01*
X189028900Y-84804581D01*
X188897881Y-85049701D01*
X188721556Y-85264556D01*
X188506701Y-85440881D01*
X188261581Y-85571900D01*
X188261579Y-85571901D01*
X187995604Y-85652584D01*
X187857412Y-85666195D01*
X187788317Y-85673000D01*
X187129683Y-85673000D01*
X187060588Y-85666195D01*
X186922396Y-85652584D01*
X186656421Y-85571901D01*
X186656419Y-85571900D01*
X186411299Y-85440881D01*
X186196444Y-85264556D01*
X186020119Y-85049701D01*
X185889100Y-84804581D01*
X185889099Y-84804579D01*
X185808416Y-84538604D01*
X185781173Y-84262000D01*
X185808416Y-83985396D01*
X185889099Y-83719421D01*
X185987875Y-83534624D01*
X186020119Y-83474299D01*
X186196444Y-83259444D01*
X186411299Y-83083119D01*
X186656419Y-82952100D01*
X186656421Y-82952099D01*
X186922396Y-82871416D01*
X187060588Y-82857805D01*
X187129683Y-82851000D01*
X187788317Y-82851000D01*
X187857412Y-82857805D01*
X187857412Y-82857805D01*
G37*
G36*
X200278655Y-81918591D02*
G01*
X200350525Y-81932887D01*
X200553624Y-82017013D01*
X200736409Y-82139146D01*
X200891854Y-82294591D01*
X201013987Y-82477376D01*
X201098113Y-82680475D01*
X201098113Y-82680476D01*
X201137096Y-82876454D01*
X201141000Y-82896084D01*
X201141000Y-83115916D01*
X201098113Y-83331525D01*
X201013987Y-83534624D01*
X200891854Y-83717409D01*
X200736409Y-83872854D01*
X200553624Y-83994987D01*
X200350525Y-84079113D01*
X200278655Y-84093409D01*
X200134918Y-84122000D01*
X199915082Y-84122000D01*
X199771345Y-84093409D01*
X199699475Y-84079113D01*
X199496376Y-83994987D01*
X199313591Y-83872854D01*
X199158146Y-83717409D01*
X199036013Y-83534624D01*
X198951887Y-83331525D01*
X198909000Y-83115916D01*
X198909000Y-82896084D01*
X198912905Y-82876454D01*
X198951887Y-82680476D01*
X198951887Y-82680475D01*
X199036013Y-82477376D01*
X199158146Y-82294591D01*
X199313591Y-82139146D01*
X199496376Y-82017013D01*
X199699475Y-81932887D01*
X199771345Y-81918591D01*
X199915082Y-81890000D01*
X200134918Y-81890000D01*
X200278655Y-81918591D01*
X200278655Y-81918591D01*
G37*
G36*
X171703655Y-81918591D02*
G01*
X171775525Y-81932887D01*
X171978624Y-82017013D01*
X172161409Y-82139146D01*
X172316854Y-82294591D01*
X172438987Y-82477376D01*
X172523113Y-82680475D01*
X172523113Y-82680476D01*
X172562096Y-82876454D01*
X172566000Y-82896084D01*
X172566000Y-83115916D01*
X172523113Y-83331525D01*
X172438987Y-83534624D01*
X172316854Y-83717409D01*
X172161409Y-83872854D01*
X171978624Y-83994987D01*
X171775525Y-84079113D01*
X171703655Y-84093409D01*
X171559918Y-84122000D01*
X171340082Y-84122000D01*
X171196345Y-84093409D01*
X171124475Y-84079113D01*
X170921376Y-83994987D01*
X170738591Y-83872854D01*
X170583146Y-83717409D01*
X170461013Y-83534624D01*
X170376887Y-83331525D01*
X170334000Y-83115916D01*
X170334000Y-82896084D01*
X170337905Y-82876454D01*
X170376887Y-82680476D01*
X170376887Y-82680475D01*
X170461013Y-82477376D01*
X170583146Y-82294591D01*
X170738591Y-82139146D01*
X170921376Y-82017013D01*
X171124475Y-81932887D01*
X171196345Y-81918591D01*
X171340082Y-81890000D01*
X171559918Y-81890000D01*
X171703655Y-81918591D01*
X171703655Y-81918591D01*
G37*
G36*
X180236395Y-81047546D02*
G01*
X180409466Y-81119234D01*
X180409467Y-81119235D01*
X180565227Y-81223310D01*
X180697690Y-81355773D01*
X180697691Y-81355775D01*
X180801766Y-81511534D01*
X180873454Y-81684605D01*
X180910000Y-81868333D01*
X180910000Y-82055667D01*
X180873454Y-82239395D01*
X180801766Y-82412466D01*
X180801765Y-82412467D01*
X180697690Y-82568227D01*
X180565227Y-82700690D01*
X180486818Y-82753081D01*
X180409466Y-82804766D01*
X180236395Y-82876454D01*
X180052667Y-82913000D01*
X179865333Y-82913000D01*
X179681605Y-82876454D01*
X179508534Y-82804766D01*
X179431182Y-82753081D01*
X179352773Y-82700690D01*
X179220310Y-82568227D01*
X179116235Y-82412467D01*
X179116234Y-82412466D01*
X179044546Y-82239395D01*
X179008000Y-82055667D01*
X179008000Y-81868333D01*
X179044546Y-81684605D01*
X179116234Y-81511534D01*
X179220309Y-81355775D01*
X179220310Y-81355773D01*
X179352773Y-81223310D01*
X179508533Y-81119235D01*
X179508534Y-81119234D01*
X179681605Y-81047546D01*
X179865333Y-81011000D01*
X180052667Y-81011000D01*
X180236395Y-81047546D01*
X180236395Y-81047546D01*
G37*
G36*
X180236395Y-78547546D02*
G01*
X180409466Y-78619234D01*
X180409467Y-78619235D01*
X180565227Y-78723310D01*
X180697690Y-78855773D01*
X180697691Y-78855775D01*
X180801766Y-79011534D01*
X180873454Y-79184605D01*
X180910000Y-79368333D01*
X180910000Y-79555667D01*
X180873454Y-79739395D01*
X180801766Y-79912466D01*
X180801765Y-79912467D01*
X180697690Y-80068227D01*
X180565227Y-80200690D01*
X180486818Y-80253081D01*
X180409466Y-80304766D01*
X180236395Y-80376454D01*
X180052667Y-80413000D01*
X179865333Y-80413000D01*
X179681605Y-80376454D01*
X179508534Y-80304766D01*
X179431182Y-80253081D01*
X179352773Y-80200690D01*
X179220310Y-80068227D01*
X179116235Y-79912467D01*
X179116234Y-79912466D01*
X179044546Y-79739395D01*
X179008000Y-79555667D01*
X179008000Y-79368333D01*
X179044546Y-79184605D01*
X179116234Y-79011534D01*
X179220309Y-78855775D01*
X179220310Y-78855773D01*
X179352773Y-78723310D01*
X179508533Y-78619235D01*
X179508534Y-78619234D01*
X179681605Y-78547546D01*
X179865333Y-78511000D01*
X180052667Y-78511000D01*
X180236395Y-78547546D01*
X180236395Y-78547546D01*
G37*
G36*
X180910000Y-77913000D02*
G01*
X179008000Y-77913000D01*
X179008000Y-76011000D01*
X180910000Y-76011000D01*
X180910000Y-77913000D01*
X180910000Y-77913000D01*
G37*
G36*
X187857412Y-73257805D02*
G01*
X187995604Y-73271416D01*
X188261579Y-73352099D01*
X188261581Y-73352100D01*
X188506701Y-73483119D01*
X188721556Y-73659444D01*
X188897881Y-73874299D01*
X189028900Y-74119419D01*
X189028901Y-74119421D01*
X189109584Y-74385396D01*
X189136827Y-74662000D01*
X189109584Y-74938604D01*
X189028901Y-75204579D01*
X189028900Y-75204581D01*
X188897881Y-75449701D01*
X188721556Y-75664556D01*
X188506701Y-75840881D01*
X188261581Y-75971900D01*
X188261579Y-75971901D01*
X187995604Y-76052584D01*
X187857412Y-76066195D01*
X187788317Y-76073000D01*
X187129683Y-76073000D01*
X187060588Y-76066195D01*
X186922396Y-76052584D01*
X186656421Y-75971901D01*
X186656419Y-75971900D01*
X186411299Y-75840881D01*
X186196444Y-75664556D01*
X186020119Y-75449701D01*
X185889100Y-75204581D01*
X185889099Y-75204579D01*
X185808416Y-74938604D01*
X185781173Y-74662000D01*
X185808416Y-74385396D01*
X185889099Y-74119421D01*
X185889100Y-74119419D01*
X186020119Y-73874299D01*
X186196444Y-73659444D01*
X186411299Y-73483119D01*
X186656419Y-73352100D01*
X186656421Y-73352099D01*
X186922396Y-73271416D01*
X187060588Y-73257805D01*
X187129683Y-73251000D01*
X187788317Y-73251000D01*
X187857412Y-73257805D01*
X187857412Y-73257805D01*
G37*
G36*
X200278655Y-73618591D02*
G01*
X200350525Y-73632887D01*
X200553624Y-73717013D01*
X200736409Y-73839146D01*
X200891854Y-73994591D01*
X201013987Y-74177376D01*
X201098113Y-74380475D01*
X201141000Y-74596084D01*
X201141000Y-74815916D01*
X201098113Y-75031525D01*
X201013987Y-75234624D01*
X200891854Y-75417409D01*
X200736409Y-75572854D01*
X200553624Y-75694987D01*
X200350525Y-75779113D01*
X200278655Y-75793409D01*
X200134918Y-75822000D01*
X199915082Y-75822000D01*
X199771345Y-75793409D01*
X199699475Y-75779113D01*
X199496376Y-75694987D01*
X199313591Y-75572854D01*
X199158146Y-75417409D01*
X199036013Y-75234624D01*
X198951887Y-75031525D01*
X198909000Y-74815916D01*
X198909000Y-74596084D01*
X198951887Y-74380475D01*
X199036013Y-74177376D01*
X199158146Y-73994591D01*
X199313591Y-73839146D01*
X199496376Y-73717013D01*
X199699475Y-73632887D01*
X199771345Y-73618591D01*
X199915082Y-73590000D01*
X200134918Y-73590000D01*
X200278655Y-73618591D01*
X200278655Y-73618591D01*
G37*
G36*
X171703655Y-73618591D02*
G01*
X171775525Y-73632887D01*
X171978624Y-73717013D01*
X172161409Y-73839146D01*
X172316854Y-73994591D01*
X172438987Y-74177376D01*
X172523113Y-74380475D01*
X172566000Y-74596084D01*
X172566000Y-74815916D01*
X172523113Y-75031525D01*
X172438987Y-75234624D01*
X172316854Y-75417409D01*
X172161409Y-75572854D01*
X171978624Y-75694987D01*
X171775525Y-75779113D01*
X171703655Y-75793409D01*
X171559918Y-75822000D01*
X171340082Y-75822000D01*
X171196345Y-75793409D01*
X171124475Y-75779113D01*
X170921376Y-75694987D01*
X170738591Y-75572854D01*
X170583146Y-75417409D01*
X170461013Y-75234624D01*
X170376887Y-75031525D01*
X170334000Y-74815916D01*
X170334000Y-74596084D01*
X170376887Y-74380475D01*
X170461013Y-74177376D01*
X170583146Y-73994591D01*
X170738591Y-73839146D01*
X170921376Y-73717013D01*
X171124475Y-73632887D01*
X171196345Y-73618591D01*
X171340082Y-73590000D01*
X171559918Y-73590000D01*
X171703655Y-73618591D01*
X171703655Y-73618591D01*
G37*
G36*
X187857412Y-69903805D02*
G01*
X187995604Y-69917416D01*
X188261579Y-69998099D01*
X188261581Y-69998100D01*
X188506701Y-70129119D01*
X188721556Y-70305444D01*
X188897881Y-70520299D01*
X189028900Y-70765419D01*
X189028901Y-70765421D01*
X189109584Y-71031396D01*
X189136827Y-71308000D01*
X189109584Y-71584604D01*
X189083823Y-71669525D01*
X189028900Y-71850581D01*
X188897881Y-72095701D01*
X188721556Y-72310556D01*
X188506701Y-72486881D01*
X188261581Y-72617900D01*
X188261579Y-72617901D01*
X187995604Y-72698584D01*
X187857412Y-72712195D01*
X187788317Y-72719000D01*
X187129683Y-72719000D01*
X187060588Y-72712195D01*
X186922396Y-72698584D01*
X186656421Y-72617901D01*
X186656419Y-72617900D01*
X186411299Y-72486881D01*
X186196444Y-72310556D01*
X186020119Y-72095701D01*
X185889100Y-71850581D01*
X185834177Y-71669525D01*
X185808416Y-71584604D01*
X185781173Y-71308000D01*
X185808416Y-71031396D01*
X185889099Y-70765421D01*
X185889100Y-70765419D01*
X186020119Y-70520299D01*
X186196444Y-70305444D01*
X186411299Y-70129119D01*
X186656419Y-69998100D01*
X186656421Y-69998099D01*
X186922396Y-69917416D01*
X187060588Y-69903805D01*
X187129683Y-69897000D01*
X187788317Y-69897000D01*
X187857412Y-69903805D01*
X187857412Y-69903805D01*
G37*
G36*
X171703655Y-70256591D02*
G01*
X171775525Y-70270887D01*
X171978624Y-70355013D01*
X172161409Y-70477146D01*
X172316854Y-70632591D01*
X172438987Y-70815376D01*
X172523113Y-71018475D01*
X172566000Y-71234084D01*
X172566000Y-71453916D01*
X172523113Y-71669525D01*
X172438987Y-71872624D01*
X172316854Y-72055409D01*
X172161409Y-72210854D01*
X171978624Y-72332987D01*
X171775525Y-72417113D01*
X171703655Y-72431409D01*
X171559918Y-72460000D01*
X171340082Y-72460000D01*
X171196345Y-72431409D01*
X171124475Y-72417113D01*
X170921376Y-72332987D01*
X170738591Y-72210854D01*
X170583146Y-72055409D01*
X170461013Y-71872624D01*
X170376887Y-71669525D01*
X170334000Y-71453916D01*
X170334000Y-71234084D01*
X170376887Y-71018475D01*
X170461013Y-70815376D01*
X170583146Y-70632591D01*
X170738591Y-70477146D01*
X170921376Y-70355013D01*
X171124475Y-70270887D01*
X171196345Y-70256591D01*
X171340082Y-70228000D01*
X171559918Y-70228000D01*
X171703655Y-70256591D01*
X171703655Y-70256591D01*
G37*
G36*
X200278655Y-70256591D02*
G01*
X200350525Y-70270887D01*
X200553624Y-70355013D01*
X200736409Y-70477146D01*
X200891854Y-70632591D01*
X201013987Y-70815376D01*
X201098113Y-71018475D01*
X201141000Y-71234084D01*
X201141000Y-71453916D01*
X201098113Y-71669525D01*
X201013987Y-71872624D01*
X200891854Y-72055409D01*
X200736409Y-72210854D01*
X200553624Y-72332987D01*
X200350525Y-72417113D01*
X200278655Y-72431409D01*
X200134918Y-72460000D01*
X199915082Y-72460000D01*
X199771345Y-72431409D01*
X199699475Y-72417113D01*
X199496376Y-72332987D01*
X199313591Y-72210854D01*
X199158146Y-72055409D01*
X199036013Y-71872624D01*
X198951887Y-71669525D01*
X198909000Y-71453916D01*
X198909000Y-71234084D01*
X198951887Y-71018475D01*
X199036013Y-70815376D01*
X199158146Y-70632591D01*
X199313591Y-70477146D01*
X199496376Y-70355013D01*
X199699475Y-70270887D01*
X199771345Y-70256591D01*
X199915082Y-70228000D01*
X200134918Y-70228000D01*
X200278655Y-70256591D01*
X200278655Y-70256591D01*
G37*
G36*
X180236395Y-68093546D02*
G01*
X180409466Y-68165234D01*
X180409467Y-68165235D01*
X180565227Y-68269310D01*
X180697690Y-68401773D01*
X180697691Y-68401775D01*
X180801766Y-68557534D01*
X180873454Y-68730605D01*
X180910000Y-68914333D01*
X180910000Y-69101667D01*
X180873454Y-69285395D01*
X180801766Y-69458466D01*
X180801765Y-69458467D01*
X180697690Y-69614227D01*
X180565227Y-69746690D01*
X180486818Y-69799081D01*
X180409466Y-69850766D01*
X180236395Y-69922454D01*
X180052667Y-69959000D01*
X179865333Y-69959000D01*
X179681605Y-69922454D01*
X179508534Y-69850766D01*
X179431182Y-69799081D01*
X179352773Y-69746690D01*
X179220310Y-69614227D01*
X179116235Y-69458467D01*
X179116234Y-69458466D01*
X179044546Y-69285395D01*
X179008000Y-69101667D01*
X179008000Y-68914333D01*
X179044546Y-68730605D01*
X179116234Y-68557534D01*
X179220309Y-68401775D01*
X179220310Y-68401773D01*
X179352773Y-68269310D01*
X179508533Y-68165235D01*
X179508534Y-68165234D01*
X179681605Y-68093546D01*
X179865333Y-68057000D01*
X180052667Y-68057000D01*
X180236395Y-68093546D01*
X180236395Y-68093546D01*
G37*
G36*
X180236395Y-65593546D02*
G01*
X180409466Y-65665234D01*
X180409467Y-65665235D01*
X180565227Y-65769310D01*
X180697690Y-65901773D01*
X180697691Y-65901775D01*
X180801766Y-66057534D01*
X180873454Y-66230605D01*
X180910000Y-66414333D01*
X180910000Y-66601667D01*
X180873454Y-66785395D01*
X180801766Y-66958466D01*
X180801765Y-66958467D01*
X180697690Y-67114227D01*
X180565227Y-67246690D01*
X180486818Y-67299081D01*
X180409466Y-67350766D01*
X180236395Y-67422454D01*
X180052667Y-67459000D01*
X179865333Y-67459000D01*
X179681605Y-67422454D01*
X179508534Y-67350766D01*
X179431182Y-67299081D01*
X179352773Y-67246690D01*
X179220310Y-67114227D01*
X179116235Y-66958467D01*
X179116234Y-66958466D01*
X179044546Y-66785395D01*
X179008000Y-66601667D01*
X179008000Y-66414333D01*
X179044546Y-66230605D01*
X179116234Y-66057534D01*
X179220309Y-65901775D01*
X179220310Y-65901773D01*
X179352773Y-65769310D01*
X179508533Y-65665235D01*
X179508534Y-65665234D01*
X179681605Y-65593546D01*
X179865333Y-65557000D01*
X180052667Y-65557000D01*
X180236395Y-65593546D01*
X180236395Y-65593546D01*
G37*
G36*
X180910000Y-64959000D02*
G01*
X179008000Y-64959000D01*
X179008000Y-63057000D01*
X180910000Y-63057000D01*
X180910000Y-64959000D01*
X180910000Y-64959000D01*
G37*
G36*
X171703655Y-61956591D02*
G01*
X171775525Y-61970887D01*
X171978624Y-62055013D01*
X172161409Y-62177146D01*
X172316854Y-62332591D01*
X172438987Y-62515376D01*
X172523113Y-62718475D01*
X172566000Y-62934084D01*
X172566000Y-63153916D01*
X172523113Y-63369525D01*
X172438987Y-63572624D01*
X172316854Y-63755409D01*
X172161409Y-63910854D01*
X171978624Y-64032987D01*
X171775525Y-64117113D01*
X171703655Y-64131409D01*
X171559918Y-64160000D01*
X171340082Y-64160000D01*
X171196345Y-64131409D01*
X171124475Y-64117113D01*
X170921376Y-64032987D01*
X170738591Y-63910854D01*
X170583146Y-63755409D01*
X170461013Y-63572624D01*
X170376887Y-63369525D01*
X170334000Y-63153916D01*
X170334000Y-62934084D01*
X170376887Y-62718475D01*
X170461013Y-62515376D01*
X170583146Y-62332591D01*
X170738591Y-62177146D01*
X170921376Y-62055013D01*
X171124475Y-61970887D01*
X171196345Y-61956591D01*
X171340082Y-61928000D01*
X171559918Y-61928000D01*
X171703655Y-61956591D01*
X171703655Y-61956591D01*
G37*
G36*
X200278655Y-61956591D02*
G01*
X200350525Y-61970887D01*
X200553624Y-62055013D01*
X200736409Y-62177146D01*
X200891854Y-62332591D01*
X201013987Y-62515376D01*
X201098113Y-62718475D01*
X201141000Y-62934084D01*
X201141000Y-63153916D01*
X201098113Y-63369525D01*
X201013987Y-63572624D01*
X200891854Y-63755409D01*
X200736409Y-63910854D01*
X200553624Y-64032987D01*
X200350525Y-64117113D01*
X200278655Y-64131409D01*
X200134918Y-64160000D01*
X199915082Y-64160000D01*
X199771345Y-64131409D01*
X199699475Y-64117113D01*
X199496376Y-64032987D01*
X199313591Y-63910854D01*
X199158146Y-63755409D01*
X199036013Y-63572624D01*
X198951887Y-63369525D01*
X198909000Y-63153916D01*
X198909000Y-62934084D01*
X198951887Y-62718475D01*
X199036013Y-62515376D01*
X199158146Y-62332591D01*
X199313591Y-62177146D01*
X199496376Y-62055013D01*
X199699475Y-61970887D01*
X199771345Y-61956591D01*
X199915082Y-61928000D01*
X200134918Y-61928000D01*
X200278655Y-61956591D01*
X200278655Y-61956591D01*
G37*
G36*
X187857412Y-60303805D02*
G01*
X187995604Y-60317416D01*
X188261579Y-60398099D01*
X188261581Y-60398100D01*
X188506701Y-60529119D01*
X188721556Y-60705444D01*
X188889429Y-60910000D01*
X188897880Y-60920298D01*
X189028901Y-61165421D01*
X189109584Y-61431396D01*
X189136827Y-61708000D01*
X189109584Y-61984604D01*
X189028901Y-62250579D01*
X189028900Y-62250581D01*
X188897881Y-62495701D01*
X188721556Y-62710556D01*
X188506701Y-62886881D01*
X188418390Y-62934084D01*
X188261579Y-63017901D01*
X187995604Y-63098584D01*
X187857412Y-63112195D01*
X187788317Y-63119000D01*
X187129683Y-63119000D01*
X187060588Y-63112195D01*
X186922396Y-63098584D01*
X186656421Y-63017901D01*
X186499610Y-62934084D01*
X186411299Y-62886881D01*
X186196444Y-62710556D01*
X186020119Y-62495701D01*
X185889100Y-62250581D01*
X185889099Y-62250579D01*
X185808416Y-61984604D01*
X185781173Y-61708000D01*
X185808416Y-61431396D01*
X185889099Y-61165421D01*
X186020120Y-60920298D01*
X186028571Y-60910000D01*
X186196444Y-60705444D01*
X186411299Y-60529119D01*
X186656419Y-60398100D01*
X186656421Y-60398099D01*
X186922396Y-60317416D01*
X187060588Y-60303805D01*
X187129683Y-60297000D01*
X187788317Y-60297000D01*
X187857412Y-60303805D01*
X187857412Y-60303805D01*
G37*
G36*
X172466000Y-60910000D02*
G01*
X170434000Y-60910000D01*
X170434000Y-58978000D01*
X172466000Y-58978000D01*
X172466000Y-60910000D01*
X172466000Y-60910000D01*
G37*
G36*
X201041000Y-60910000D02*
G01*
X199009000Y-60910000D01*
X199009000Y-58978000D01*
X201041000Y-58978000D01*
X201041000Y-60910000D01*
X201041000Y-60910000D01*
G37*
G36*
X187857412Y-56695805D02*
G01*
X187995604Y-56709416D01*
X188261579Y-56790099D01*
X188261581Y-56790100D01*
X188506701Y-56921119D01*
X188721556Y-57097444D01*
X188897881Y-57312299D01*
X188930125Y-57372624D01*
X189028901Y-57557421D01*
X189109584Y-57823396D01*
X189136827Y-58100000D01*
X189109584Y-58376604D01*
X189028901Y-58642579D01*
X189028900Y-58642581D01*
X188897881Y-58887701D01*
X188721556Y-59102556D01*
X188506701Y-59278881D01*
X188261581Y-59409900D01*
X188261579Y-59409901D01*
X187995604Y-59490584D01*
X187857412Y-59504195D01*
X187788317Y-59511000D01*
X187129683Y-59511000D01*
X187060588Y-59504195D01*
X186922396Y-59490584D01*
X186656421Y-59409901D01*
X186656419Y-59409900D01*
X186411299Y-59278881D01*
X186196444Y-59102556D01*
X186020119Y-58887701D01*
X185889100Y-58642581D01*
X185889099Y-58642579D01*
X185808416Y-58376604D01*
X185781173Y-58100000D01*
X185808416Y-57823396D01*
X185889099Y-57557421D01*
X185987875Y-57372624D01*
X186020119Y-57312299D01*
X186196444Y-57097444D01*
X186411299Y-56921119D01*
X186656419Y-56790100D01*
X186656421Y-56790099D01*
X186922396Y-56709416D01*
X187060588Y-56695805D01*
X187129683Y-56689000D01*
X187788317Y-56689000D01*
X187857412Y-56695805D01*
X187857412Y-56695805D01*
G37*
G36*
X171703655Y-55756591D02*
G01*
X171775525Y-55770887D01*
X171978624Y-55855013D01*
X172161409Y-55977146D01*
X172316854Y-56132591D01*
X172438987Y-56315376D01*
X172523113Y-56518475D01*
X172523113Y-56518476D01*
X172562096Y-56714454D01*
X172566000Y-56734084D01*
X172566000Y-56953916D01*
X172523113Y-57169525D01*
X172438987Y-57372624D01*
X172316854Y-57555409D01*
X172161409Y-57710854D01*
X171978624Y-57832987D01*
X171775525Y-57917113D01*
X171703655Y-57931409D01*
X171559918Y-57960000D01*
X171340082Y-57960000D01*
X171196345Y-57931409D01*
X171124475Y-57917113D01*
X170921376Y-57832987D01*
X170738591Y-57710854D01*
X170583146Y-57555409D01*
X170461013Y-57372624D01*
X170376887Y-57169525D01*
X170334000Y-56953916D01*
X170334000Y-56734084D01*
X170337905Y-56714454D01*
X170376887Y-56518476D01*
X170376887Y-56518475D01*
X170461013Y-56315376D01*
X170583146Y-56132591D01*
X170738591Y-55977146D01*
X170921376Y-55855013D01*
X171124475Y-55770887D01*
X171196345Y-55756591D01*
X171340082Y-55728000D01*
X171559918Y-55728000D01*
X171703655Y-55756591D01*
X171703655Y-55756591D01*
G37*
G36*
X200278655Y-55756591D02*
G01*
X200350525Y-55770887D01*
X200553624Y-55855013D01*
X200736409Y-55977146D01*
X200891854Y-56132591D01*
X201013987Y-56315376D01*
X201098113Y-56518475D01*
X201098113Y-56518476D01*
X201137096Y-56714454D01*
X201141000Y-56734084D01*
X201141000Y-56953916D01*
X201098113Y-57169525D01*
X201013987Y-57372624D01*
X200891854Y-57555409D01*
X200736409Y-57710854D01*
X200553624Y-57832987D01*
X200350525Y-57917113D01*
X200278655Y-57931409D01*
X200134918Y-57960000D01*
X199915082Y-57960000D01*
X199771345Y-57931409D01*
X199699475Y-57917113D01*
X199496376Y-57832987D01*
X199313591Y-57710854D01*
X199158146Y-57555409D01*
X199036013Y-57372624D01*
X198951887Y-57169525D01*
X198909000Y-56953916D01*
X198909000Y-56734084D01*
X198912905Y-56714454D01*
X198951887Y-56518476D01*
X198951887Y-56518475D01*
X199036013Y-56315376D01*
X199158146Y-56132591D01*
X199313591Y-55977146D01*
X199496376Y-55855013D01*
X199699475Y-55770887D01*
X199771345Y-55756591D01*
X199915082Y-55728000D01*
X200134918Y-55728000D01*
X200278655Y-55756591D01*
X200278655Y-55756591D01*
G37*
G36*
X180236395Y-54885546D02*
G01*
X180409466Y-54957234D01*
X180409467Y-54957235D01*
X180565227Y-55061310D01*
X180697690Y-55193773D01*
X180697691Y-55193775D01*
X180801766Y-55349534D01*
X180873454Y-55522605D01*
X180910000Y-55706333D01*
X180910000Y-55893667D01*
X180873454Y-56077395D01*
X180801766Y-56250466D01*
X180801765Y-56250467D01*
X180697690Y-56406227D01*
X180565227Y-56538690D01*
X180486818Y-56591081D01*
X180409466Y-56642766D01*
X180236395Y-56714454D01*
X180052667Y-56751000D01*
X179865333Y-56751000D01*
X179681605Y-56714454D01*
X179508534Y-56642766D01*
X179431182Y-56591081D01*
X179352773Y-56538690D01*
X179220310Y-56406227D01*
X179116235Y-56250467D01*
X179116234Y-56250466D01*
X179044546Y-56077395D01*
X179008000Y-55893667D01*
X179008000Y-55706333D01*
X179044546Y-55522605D01*
X179116234Y-55349534D01*
X179220309Y-55193775D01*
X179220310Y-55193773D01*
X179352773Y-55061310D01*
X179508533Y-54957235D01*
X179508534Y-54957234D01*
X179681605Y-54885546D01*
X179865333Y-54849000D01*
X180052667Y-54849000D01*
X180236395Y-54885546D01*
X180236395Y-54885546D01*
G37*
G36*
X180236395Y-52385546D02*
G01*
X180409466Y-52457234D01*
X180409467Y-52457235D01*
X180565227Y-52561310D01*
X180697690Y-52693773D01*
X180697691Y-52693775D01*
X180801766Y-52849534D01*
X180873454Y-53022605D01*
X180910000Y-53206333D01*
X180910000Y-53393667D01*
X180873454Y-53577395D01*
X180801766Y-53750466D01*
X180801765Y-53750467D01*
X180697690Y-53906227D01*
X180565227Y-54038690D01*
X180486818Y-54091081D01*
X180409466Y-54142766D01*
X180236395Y-54214454D01*
X180052667Y-54251000D01*
X179865333Y-54251000D01*
X179681605Y-54214454D01*
X179508534Y-54142766D01*
X179431182Y-54091081D01*
X179352773Y-54038690D01*
X179220310Y-53906227D01*
X179116235Y-53750467D01*
X179116234Y-53750466D01*
X179044546Y-53577395D01*
X179008000Y-53393667D01*
X179008000Y-53206333D01*
X179044546Y-53022605D01*
X179116234Y-52849534D01*
X179220309Y-52693775D01*
X179220310Y-52693773D01*
X179352773Y-52561310D01*
X179508533Y-52457235D01*
X179508534Y-52457234D01*
X179681605Y-52385546D01*
X179865333Y-52349000D01*
X180052667Y-52349000D01*
X180236395Y-52385546D01*
X180236395Y-52385546D01*
G37*
G36*
X180910000Y-51751000D02*
G01*
X179008000Y-51751000D01*
X179008000Y-49849000D01*
X180910000Y-49849000D01*
X180910000Y-51751000D01*
X180910000Y-51751000D01*
G37*
G36*
X187857412Y-47095805D02*
G01*
X187995604Y-47109416D01*
X188261579Y-47190099D01*
X188261581Y-47190100D01*
X188506701Y-47321119D01*
X188721556Y-47497444D01*
X188897881Y-47712299D01*
X189028900Y-47957419D01*
X189028901Y-47957421D01*
X189109584Y-48223396D01*
X189136827Y-48500000D01*
X189109584Y-48776604D01*
X189028901Y-49042579D01*
X189028900Y-49042581D01*
X188897881Y-49287701D01*
X188721556Y-49502556D01*
X188506701Y-49678881D01*
X188261581Y-49809900D01*
X188261579Y-49809901D01*
X187995604Y-49890584D01*
X187857412Y-49904195D01*
X187788317Y-49911000D01*
X187129683Y-49911000D01*
X187060588Y-49904195D01*
X186922396Y-49890584D01*
X186656421Y-49809901D01*
X186656419Y-49809900D01*
X186411299Y-49678881D01*
X186196444Y-49502556D01*
X186020119Y-49287701D01*
X185889100Y-49042581D01*
X185889099Y-49042579D01*
X185808416Y-48776604D01*
X185781173Y-48500000D01*
X185808416Y-48223396D01*
X185889099Y-47957421D01*
X185889100Y-47957419D01*
X186020119Y-47712299D01*
X186196444Y-47497444D01*
X186411299Y-47321119D01*
X186656419Y-47190100D01*
X186656421Y-47190099D01*
X186922396Y-47109416D01*
X187060588Y-47095805D01*
X187129683Y-47089000D01*
X187788317Y-47089000D01*
X187857412Y-47095805D01*
X187857412Y-47095805D01*
G37*
G36*
X171703655Y-47456591D02*
G01*
X171775525Y-47470887D01*
X171978624Y-47555013D01*
X172161409Y-47677146D01*
X172316854Y-47832591D01*
X172438987Y-48015376D01*
X172523113Y-48218475D01*
X172566000Y-48434084D01*
X172566000Y-48653916D01*
X172523113Y-48869525D01*
X172438987Y-49072624D01*
X172316854Y-49255409D01*
X172161409Y-49410854D01*
X171978624Y-49532987D01*
X171775525Y-49617113D01*
X171703655Y-49631409D01*
X171559918Y-49660000D01*
X171340082Y-49660000D01*
X171196345Y-49631409D01*
X171124475Y-49617113D01*
X170921376Y-49532987D01*
X170738591Y-49410854D01*
X170583146Y-49255409D01*
X170461013Y-49072624D01*
X170376887Y-48869525D01*
X170334000Y-48653916D01*
X170334000Y-48434084D01*
X170376887Y-48218475D01*
X170461013Y-48015376D01*
X170583146Y-47832591D01*
X170738591Y-47677146D01*
X170921376Y-47555013D01*
X171124475Y-47470887D01*
X171196345Y-47456591D01*
X171340082Y-47428000D01*
X171559918Y-47428000D01*
X171703655Y-47456591D01*
X171703655Y-47456591D01*
G37*
G36*
X200278655Y-47456591D02*
G01*
X200350525Y-47470887D01*
X200553624Y-47555013D01*
X200736409Y-47677146D01*
X200891854Y-47832591D01*
X201013987Y-48015376D01*
X201098113Y-48218475D01*
X201141000Y-48434084D01*
X201141000Y-48653916D01*
X201098113Y-48869525D01*
X201013987Y-49072624D01*
X200891854Y-49255409D01*
X200736409Y-49410854D01*
X200553624Y-49532987D01*
X200350525Y-49617113D01*
X200278655Y-49631409D01*
X200134918Y-49660000D01*
X199915082Y-49660000D01*
X199771345Y-49631409D01*
X199699475Y-49617113D01*
X199496376Y-49532987D01*
X199313591Y-49410854D01*
X199158146Y-49255409D01*
X199036013Y-49072624D01*
X198951887Y-48869525D01*
X198909000Y-48653916D01*
X198909000Y-48434084D01*
X198951887Y-48218475D01*
X199036013Y-48015376D01*
X199158146Y-47832591D01*
X199313591Y-47677146D01*
X199496376Y-47555013D01*
X199699475Y-47470887D01*
X199771345Y-47456591D01*
X199915082Y-47428000D01*
X200134918Y-47428000D01*
X200278655Y-47456591D01*
X200278655Y-47456591D01*
G37*
M02*
