G04 #@! TF.GenerationSoftware,KiCad,Pcbnew,(5.1.2)-2*
G04 #@! TF.CreationDate,2021-07-18T13:36:31+02:00*
G04 #@! TF.ProjectId,Octal,4f637461-6c2e-46b6-9963-61645f706362,1.0.0*
G04 #@! TF.SameCoordinates,Original*
G04 #@! TF.FileFunction,Legend,Top*
G04 #@! TF.FilePolarity,Positive*
%FSLAX46Y46*%
G04 Gerber Fmt 4.6, Leading zero omitted, Abs format (unit mm)*
G04 Created by KiCad (PCBNEW (5.1.2)-2) date 2021-07-18 13:36:31*
%MOMM*%
%LPD*%
G04 APERTURE LIST*
%ADD10C,0.120000*%
%ADD11C,0.150000*%
G04 APERTURE END LIST*
D10*
X166950000Y-114248000D02*
X166950000Y-124748000D01*
X175950000Y-114248000D02*
X175950000Y-124748000D01*
X175950000Y-124748000D02*
X171950000Y-124748000D01*
X170950000Y-124748000D02*
X166950000Y-124748000D01*
X175950000Y-114248000D02*
X171800000Y-114248000D01*
X171100000Y-114248000D02*
X166950000Y-114248000D01*
X173250000Y-118748000D02*
G75*
G03X173250000Y-118748000I-1800000J0D01*
G01*
X170390000Y-111268000D02*
X170390000Y-112068000D01*
X170390000Y-111268000D02*
X171250000Y-111268000D01*
X195525000Y-114248000D02*
X195525000Y-124748000D01*
X204525000Y-114248000D02*
X204525000Y-124748000D01*
X204525000Y-124748000D02*
X200525000Y-124748000D01*
X199525000Y-124748000D02*
X195525000Y-124748000D01*
X204525000Y-114248000D02*
X200375000Y-114248000D01*
X199675000Y-114248000D02*
X195525000Y-114248000D01*
X201825000Y-118748000D02*
G75*
G03X201825000Y-118748000I-1800000J0D01*
G01*
X198965000Y-111268000D02*
X198965000Y-112068000D01*
X198965000Y-111268000D02*
X199825000Y-111268000D01*
X204525000Y-57964000D02*
X204525000Y-47464000D01*
X195525000Y-57964000D02*
X195525000Y-47464000D01*
X195525000Y-47464000D02*
X199525000Y-47464000D01*
X200525000Y-47464000D02*
X204525000Y-47464000D01*
X195525000Y-57964000D02*
X199675000Y-57964000D01*
X200375000Y-57964000D02*
X204525000Y-57964000D01*
X201825000Y-53464000D02*
G75*
G03X201825000Y-53464000I-1800000J0D01*
G01*
X201085000Y-60944000D02*
X201085000Y-60144000D01*
X201085000Y-60944000D02*
X200225000Y-60944000D01*
X192429000Y-58170000D02*
X192429000Y-48430000D01*
X180839000Y-58170000D02*
X180839000Y-56680000D01*
X189369000Y-58170000D02*
X192429000Y-58170000D01*
X180839000Y-48420000D02*
X185559000Y-48420000D01*
X189369000Y-48430000D02*
X192429000Y-48430000D01*
X180839000Y-58170000D02*
X185559000Y-58170000D01*
X180839000Y-49610000D02*
X180839000Y-48430000D01*
X180839000Y-52510000D02*
X180839000Y-51980000D01*
X180839000Y-54960000D02*
X180839000Y-54130000D01*
X175950000Y-57964000D02*
X175950000Y-47464000D01*
X166950000Y-57964000D02*
X166950000Y-47464000D01*
X166950000Y-47464000D02*
X170950000Y-47464000D01*
X171950000Y-47464000D02*
X175950000Y-47464000D01*
X166950000Y-57964000D02*
X171100000Y-57964000D01*
X171800000Y-57964000D02*
X175950000Y-57964000D01*
X173250000Y-53464000D02*
G75*
G03X173250000Y-53464000I-1800000J0D01*
G01*
X172510000Y-60944000D02*
X172510000Y-60144000D01*
X172510000Y-60944000D02*
X171650000Y-60944000D01*
X166950000Y-61924000D02*
X166950000Y-72424000D01*
X175950000Y-61924000D02*
X175950000Y-72424000D01*
X175950000Y-72424000D02*
X171950000Y-72424000D01*
X170950000Y-72424000D02*
X166950000Y-72424000D01*
X175950000Y-61924000D02*
X171800000Y-61924000D01*
X171100000Y-61924000D02*
X166950000Y-61924000D01*
X173250000Y-66424000D02*
G75*
G03X173250000Y-66424000I-1800000J0D01*
G01*
X170390000Y-58944000D02*
X170390000Y-59744000D01*
X170390000Y-58944000D02*
X171250000Y-58944000D01*
X175950000Y-84126000D02*
X175950000Y-73626000D01*
X166950000Y-84126000D02*
X166950000Y-73626000D01*
X166950000Y-73626000D02*
X170950000Y-73626000D01*
X171950000Y-73626000D02*
X175950000Y-73626000D01*
X166950000Y-84126000D02*
X171100000Y-84126000D01*
X171800000Y-84126000D02*
X175950000Y-84126000D01*
X173250000Y-79626000D02*
G75*
G03X173250000Y-79626000I-1800000J0D01*
G01*
X172510000Y-87106000D02*
X172510000Y-86306000D01*
X172510000Y-87106000D02*
X171650000Y-87106000D01*
X170390000Y-85106000D02*
X171250000Y-85106000D01*
X170390000Y-85106000D02*
X170390000Y-85906000D01*
X173250000Y-92586000D02*
G75*
G03X173250000Y-92586000I-1800000J0D01*
G01*
X171100000Y-88086000D02*
X166950000Y-88086000D01*
X175950000Y-88086000D02*
X171800000Y-88086000D01*
X170950000Y-98586000D02*
X166950000Y-98586000D01*
X175950000Y-98586000D02*
X171950000Y-98586000D01*
X175950000Y-88086000D02*
X175950000Y-98586000D01*
X166950000Y-88086000D02*
X166950000Y-98586000D01*
X198965000Y-58944000D02*
X199825000Y-58944000D01*
X198965000Y-58944000D02*
X198965000Y-59744000D01*
X201825000Y-66424000D02*
G75*
G03X201825000Y-66424000I-1800000J0D01*
G01*
X199675000Y-61924000D02*
X195525000Y-61924000D01*
X204525000Y-61924000D02*
X200375000Y-61924000D01*
X199525000Y-72424000D02*
X195525000Y-72424000D01*
X204525000Y-72424000D02*
X200525000Y-72424000D01*
X204525000Y-61924000D02*
X204525000Y-72424000D01*
X195525000Y-61924000D02*
X195525000Y-72424000D01*
X201085000Y-87106000D02*
X200225000Y-87106000D01*
X201085000Y-87106000D02*
X201085000Y-86306000D01*
X201825000Y-79626000D02*
G75*
G03X201825000Y-79626000I-1800000J0D01*
G01*
X200375000Y-84126000D02*
X204525000Y-84126000D01*
X195525000Y-84126000D02*
X199675000Y-84126000D01*
X200525000Y-73626000D02*
X204525000Y-73626000D01*
X195525000Y-73626000D02*
X199525000Y-73626000D01*
X195525000Y-84126000D02*
X195525000Y-73626000D01*
X204525000Y-84126000D02*
X204525000Y-73626000D01*
X198965000Y-85106000D02*
X199825000Y-85106000D01*
X198965000Y-85106000D02*
X198965000Y-85906000D01*
X201825000Y-92586000D02*
G75*
G03X201825000Y-92586000I-1800000J0D01*
G01*
X199675000Y-88086000D02*
X195525000Y-88086000D01*
X204525000Y-88086000D02*
X200375000Y-88086000D01*
X199525000Y-98586000D02*
X195525000Y-98586000D01*
X204525000Y-98586000D02*
X200525000Y-98586000D01*
X204525000Y-88086000D02*
X204525000Y-98586000D01*
X195525000Y-88086000D02*
X195525000Y-98586000D01*
X172510000Y-113268000D02*
X171650000Y-113268000D01*
X172510000Y-113268000D02*
X172510000Y-112468000D01*
X173250000Y-105788000D02*
G75*
G03X173250000Y-105788000I-1800000J0D01*
G01*
X171800000Y-110288000D02*
X175950000Y-110288000D01*
X166950000Y-110288000D02*
X171100000Y-110288000D01*
X171950000Y-99788000D02*
X175950000Y-99788000D01*
X166950000Y-99788000D02*
X170950000Y-99788000D01*
X166950000Y-110288000D02*
X166950000Y-99788000D01*
X175950000Y-110288000D02*
X175950000Y-99788000D01*
X175950000Y-136450000D02*
X175950000Y-125950000D01*
X166950000Y-136450000D02*
X166950000Y-125950000D01*
X166950000Y-125950000D02*
X170950000Y-125950000D01*
X171950000Y-125950000D02*
X175950000Y-125950000D01*
X166950000Y-136450000D02*
X171100000Y-136450000D01*
X171800000Y-136450000D02*
X175950000Y-136450000D01*
X173250000Y-131950000D02*
G75*
G03X173250000Y-131950000I-1800000J0D01*
G01*
X172510000Y-139430000D02*
X172510000Y-138630000D01*
X172510000Y-139430000D02*
X171650000Y-139430000D01*
X170390000Y-137430000D02*
X171250000Y-137430000D01*
X170390000Y-137430000D02*
X170390000Y-138230000D01*
X173250000Y-144910000D02*
G75*
G03X173250000Y-144910000I-1800000J0D01*
G01*
X171100000Y-140410000D02*
X166950000Y-140410000D01*
X175950000Y-140410000D02*
X171800000Y-140410000D01*
X170950000Y-150910000D02*
X166950000Y-150910000D01*
X175950000Y-150910000D02*
X171950000Y-150910000D01*
X175950000Y-140410000D02*
X175950000Y-150910000D01*
X166950000Y-140410000D02*
X166950000Y-150910000D01*
X204525000Y-110288000D02*
X204525000Y-99788000D01*
X195525000Y-110288000D02*
X195525000Y-99788000D01*
X195525000Y-99788000D02*
X199525000Y-99788000D01*
X200525000Y-99788000D02*
X204525000Y-99788000D01*
X195525000Y-110288000D02*
X199675000Y-110288000D01*
X200375000Y-110288000D02*
X204525000Y-110288000D01*
X201825000Y-105788000D02*
G75*
G03X201825000Y-105788000I-1800000J0D01*
G01*
X201085000Y-113268000D02*
X201085000Y-112468000D01*
X201085000Y-113268000D02*
X200225000Y-113268000D01*
X204525000Y-136450000D02*
X204525000Y-125950000D01*
X195525000Y-136450000D02*
X195525000Y-125950000D01*
X195525000Y-125950000D02*
X199525000Y-125950000D01*
X200525000Y-125950000D02*
X204525000Y-125950000D01*
X195525000Y-136450000D02*
X199675000Y-136450000D01*
X200375000Y-136450000D02*
X204525000Y-136450000D01*
X201825000Y-131950000D02*
G75*
G03X201825000Y-131950000I-1800000J0D01*
G01*
X201085000Y-139430000D02*
X201085000Y-138630000D01*
X201085000Y-139430000D02*
X200225000Y-139430000D01*
X198965000Y-137430000D02*
X199825000Y-137430000D01*
X198965000Y-137430000D02*
X198965000Y-138230000D01*
X201825000Y-144910000D02*
G75*
G03X201825000Y-144910000I-1800000J0D01*
G01*
X199675000Y-140410000D02*
X195525000Y-140410000D01*
X204525000Y-140410000D02*
X200375000Y-140410000D01*
X199525000Y-150910000D02*
X195525000Y-150910000D01*
X204525000Y-150910000D02*
X200525000Y-150910000D01*
X204525000Y-140410000D02*
X204525000Y-150910000D01*
X195525000Y-140410000D02*
X195525000Y-150910000D01*
X180839000Y-68168000D02*
X180839000Y-67338000D01*
X180839000Y-65718000D02*
X180839000Y-65188000D01*
X180839000Y-62818000D02*
X180839000Y-61638000D01*
X180839000Y-71378000D02*
X185559000Y-71378000D01*
X189369000Y-61638000D02*
X192429000Y-61638000D01*
X180839000Y-61628000D02*
X185559000Y-61628000D01*
X189369000Y-71378000D02*
X192429000Y-71378000D01*
X180839000Y-71378000D02*
X180839000Y-69888000D01*
X192429000Y-71378000D02*
X192429000Y-61638000D01*
X192429000Y-84332000D02*
X192429000Y-74592000D01*
X180839000Y-84332000D02*
X180839000Y-82842000D01*
X189369000Y-84332000D02*
X192429000Y-84332000D01*
X180839000Y-74582000D02*
X185559000Y-74582000D01*
X189369000Y-74592000D02*
X192429000Y-74592000D01*
X180839000Y-84332000D02*
X185559000Y-84332000D01*
X180839000Y-75772000D02*
X180839000Y-74592000D01*
X180839000Y-78672000D02*
X180839000Y-78142000D01*
X180839000Y-81122000D02*
X180839000Y-80292000D01*
X180839000Y-94330000D02*
X180839000Y-93500000D01*
X180839000Y-91880000D02*
X180839000Y-91350000D01*
X180839000Y-88980000D02*
X180839000Y-87800000D01*
X180839000Y-97540000D02*
X185559000Y-97540000D01*
X189369000Y-87800000D02*
X192429000Y-87800000D01*
X180839000Y-87790000D02*
X185559000Y-87790000D01*
X189369000Y-97540000D02*
X192429000Y-97540000D01*
X180839000Y-97540000D02*
X180839000Y-96050000D01*
X192429000Y-97540000D02*
X192429000Y-87800000D01*
X192429000Y-110621000D02*
X192429000Y-100881000D01*
X180839000Y-110621000D02*
X180839000Y-109131000D01*
X189369000Y-110621000D02*
X192429000Y-110621000D01*
X180839000Y-100871000D02*
X185559000Y-100871000D01*
X189369000Y-100881000D02*
X192429000Y-100881000D01*
X180839000Y-110621000D02*
X185559000Y-110621000D01*
X180839000Y-102061000D02*
X180839000Y-100881000D01*
X180839000Y-104961000D02*
X180839000Y-104431000D01*
X180839000Y-107411000D02*
X180839000Y-106581000D01*
X180839000Y-120492000D02*
X180839000Y-119662000D01*
X180839000Y-118042000D02*
X180839000Y-117512000D01*
X180839000Y-115142000D02*
X180839000Y-113962000D01*
X180839000Y-123702000D02*
X185559000Y-123702000D01*
X189369000Y-113962000D02*
X192429000Y-113962000D01*
X180839000Y-113952000D02*
X185559000Y-113952000D01*
X189369000Y-123702000D02*
X192429000Y-123702000D01*
X180839000Y-123702000D02*
X180839000Y-122212000D01*
X192429000Y-123702000D02*
X192429000Y-113962000D01*
X192429000Y-136783000D02*
X192429000Y-127043000D01*
X180839000Y-136783000D02*
X180839000Y-135293000D01*
X189369000Y-136783000D02*
X192429000Y-136783000D01*
X180839000Y-127033000D02*
X185559000Y-127033000D01*
X189369000Y-127043000D02*
X192429000Y-127043000D01*
X180839000Y-136783000D02*
X185559000Y-136783000D01*
X180839000Y-128223000D02*
X180839000Y-127043000D01*
X180839000Y-131123000D02*
X180839000Y-130593000D01*
X180839000Y-133573000D02*
X180839000Y-132743000D01*
X180839000Y-146654000D02*
X180839000Y-145824000D01*
X180839000Y-144204000D02*
X180839000Y-143674000D01*
X180839000Y-141304000D02*
X180839000Y-140124000D01*
X180839000Y-149864000D02*
X185559000Y-149864000D01*
X189369000Y-140124000D02*
X192429000Y-140124000D01*
X180839000Y-140114000D02*
X185559000Y-140114000D01*
X189369000Y-149864000D02*
X192429000Y-149864000D01*
X180839000Y-149864000D02*
X180839000Y-148374000D01*
X192429000Y-149864000D02*
X192429000Y-140124000D01*
D11*
X166610476Y-112800380D02*
X166610476Y-113514666D01*
X166562857Y-113657523D01*
X166467619Y-113752761D01*
X166324761Y-113800380D01*
X166229523Y-113800380D01*
X167610476Y-113800380D02*
X167039047Y-113800380D01*
X167324761Y-113800380D02*
X167324761Y-112800380D01*
X167229523Y-112943238D01*
X167134285Y-113038476D01*
X167039047Y-113086095D01*
X168229523Y-112800380D02*
X168324761Y-112800380D01*
X168420000Y-112848000D01*
X168467619Y-112895619D01*
X168515238Y-112990857D01*
X168562857Y-113181333D01*
X168562857Y-113419428D01*
X168515238Y-113609904D01*
X168467619Y-113705142D01*
X168420000Y-113752761D01*
X168324761Y-113800380D01*
X168229523Y-113800380D01*
X168134285Y-113752761D01*
X168086666Y-113705142D01*
X168039047Y-113609904D01*
X167991428Y-113419428D01*
X167991428Y-113181333D01*
X168039047Y-112990857D01*
X168086666Y-112895619D01*
X168134285Y-112848000D01*
X168229523Y-112800380D01*
X195185476Y-112800380D02*
X195185476Y-113514666D01*
X195137857Y-113657523D01*
X195042619Y-113752761D01*
X194899761Y-113800380D01*
X194804523Y-113800380D01*
X196185476Y-113800380D02*
X195614047Y-113800380D01*
X195899761Y-113800380D02*
X195899761Y-112800380D01*
X195804523Y-112943238D01*
X195709285Y-113038476D01*
X195614047Y-113086095D01*
X197042619Y-113133714D02*
X197042619Y-113800380D01*
X196804523Y-112752761D02*
X196566428Y-113467047D01*
X197185476Y-113467047D01*
X203721666Y-58316380D02*
X203721666Y-59030666D01*
X203674047Y-59173523D01*
X203578809Y-59268761D01*
X203435952Y-59316380D01*
X203340714Y-59316380D01*
X204674047Y-58316380D02*
X204197857Y-58316380D01*
X204150238Y-58792571D01*
X204197857Y-58744952D01*
X204293095Y-58697333D01*
X204531190Y-58697333D01*
X204626428Y-58744952D01*
X204674047Y-58792571D01*
X204721666Y-58887809D01*
X204721666Y-59125904D01*
X204674047Y-59221142D01*
X204626428Y-59268761D01*
X204531190Y-59316380D01*
X204293095Y-59316380D01*
X204197857Y-59268761D01*
X204150238Y-59221142D01*
X186073761Y-46612380D02*
X185740428Y-46136190D01*
X185502333Y-46612380D02*
X185502333Y-45612380D01*
X185883285Y-45612380D01*
X185978523Y-45660000D01*
X186026142Y-45707619D01*
X186073761Y-45802857D01*
X186073761Y-45945714D01*
X186026142Y-46040952D01*
X185978523Y-46088571D01*
X185883285Y-46136190D01*
X185502333Y-46136190D01*
X186359476Y-45612380D02*
X186692809Y-46612380D01*
X187026142Y-45612380D01*
X187883285Y-46612380D02*
X187311857Y-46612380D01*
X187597571Y-46612380D02*
X187597571Y-45612380D01*
X187502333Y-45755238D01*
X187407095Y-45850476D01*
X187311857Y-45898095D01*
X175146666Y-58316380D02*
X175146666Y-59030666D01*
X175099047Y-59173523D01*
X175003809Y-59268761D01*
X174860952Y-59316380D01*
X174765714Y-59316380D01*
X176146666Y-59316380D02*
X175575238Y-59316380D01*
X175860952Y-59316380D02*
X175860952Y-58316380D01*
X175765714Y-58459238D01*
X175670476Y-58554476D01*
X175575238Y-58602095D01*
X167086666Y-60476380D02*
X167086666Y-61190666D01*
X167039047Y-61333523D01*
X166943809Y-61428761D01*
X166800952Y-61476380D01*
X166705714Y-61476380D01*
X167515238Y-60571619D02*
X167562857Y-60524000D01*
X167658095Y-60476380D01*
X167896190Y-60476380D01*
X167991428Y-60524000D01*
X168039047Y-60571619D01*
X168086666Y-60666857D01*
X168086666Y-60762095D01*
X168039047Y-60904952D01*
X167467619Y-61476380D01*
X168086666Y-61476380D01*
X175146666Y-84478380D02*
X175146666Y-85192666D01*
X175099047Y-85335523D01*
X175003809Y-85430761D01*
X174860952Y-85478380D01*
X174765714Y-85478380D01*
X175527619Y-84478380D02*
X176146666Y-84478380D01*
X175813333Y-84859333D01*
X175956190Y-84859333D01*
X176051428Y-84906952D01*
X176099047Y-84954571D01*
X176146666Y-85049809D01*
X176146666Y-85287904D01*
X176099047Y-85383142D01*
X176051428Y-85430761D01*
X175956190Y-85478380D01*
X175670476Y-85478380D01*
X175575238Y-85430761D01*
X175527619Y-85383142D01*
X167086666Y-86638380D02*
X167086666Y-87352666D01*
X167039047Y-87495523D01*
X166943809Y-87590761D01*
X166800952Y-87638380D01*
X166705714Y-87638380D01*
X167991428Y-86971714D02*
X167991428Y-87638380D01*
X167753333Y-86590761D02*
X167515238Y-87305047D01*
X168134285Y-87305047D01*
X195661666Y-60476380D02*
X195661666Y-61190666D01*
X195614047Y-61333523D01*
X195518809Y-61428761D01*
X195375952Y-61476380D01*
X195280714Y-61476380D01*
X196566428Y-60476380D02*
X196375952Y-60476380D01*
X196280714Y-60524000D01*
X196233095Y-60571619D01*
X196137857Y-60714476D01*
X196090238Y-60904952D01*
X196090238Y-61285904D01*
X196137857Y-61381142D01*
X196185476Y-61428761D01*
X196280714Y-61476380D01*
X196471190Y-61476380D01*
X196566428Y-61428761D01*
X196614047Y-61381142D01*
X196661666Y-61285904D01*
X196661666Y-61047809D01*
X196614047Y-60952571D01*
X196566428Y-60904952D01*
X196471190Y-60857333D01*
X196280714Y-60857333D01*
X196185476Y-60904952D01*
X196137857Y-60952571D01*
X196090238Y-61047809D01*
X203721666Y-84478380D02*
X203721666Y-85192666D01*
X203674047Y-85335523D01*
X203578809Y-85430761D01*
X203435952Y-85478380D01*
X203340714Y-85478380D01*
X204102619Y-84478380D02*
X204769285Y-84478380D01*
X204340714Y-85478380D01*
X195661666Y-86638380D02*
X195661666Y-87352666D01*
X195614047Y-87495523D01*
X195518809Y-87590761D01*
X195375952Y-87638380D01*
X195280714Y-87638380D01*
X196280714Y-87066952D02*
X196185476Y-87019333D01*
X196137857Y-86971714D01*
X196090238Y-86876476D01*
X196090238Y-86828857D01*
X196137857Y-86733619D01*
X196185476Y-86686000D01*
X196280714Y-86638380D01*
X196471190Y-86638380D01*
X196566428Y-86686000D01*
X196614047Y-86733619D01*
X196661666Y-86828857D01*
X196661666Y-86876476D01*
X196614047Y-86971714D01*
X196566428Y-87019333D01*
X196471190Y-87066952D01*
X196280714Y-87066952D01*
X196185476Y-87114571D01*
X196137857Y-87162190D01*
X196090238Y-87257428D01*
X196090238Y-87447904D01*
X196137857Y-87543142D01*
X196185476Y-87590761D01*
X196280714Y-87638380D01*
X196471190Y-87638380D01*
X196566428Y-87590761D01*
X196614047Y-87543142D01*
X196661666Y-87447904D01*
X196661666Y-87257428D01*
X196614047Y-87162190D01*
X196566428Y-87114571D01*
X196471190Y-87066952D01*
X175146666Y-110640380D02*
X175146666Y-111354666D01*
X175099047Y-111497523D01*
X175003809Y-111592761D01*
X174860952Y-111640380D01*
X174765714Y-111640380D01*
X175670476Y-111640380D02*
X175860952Y-111640380D01*
X175956190Y-111592761D01*
X176003809Y-111545142D01*
X176099047Y-111402285D01*
X176146666Y-111211809D01*
X176146666Y-110830857D01*
X176099047Y-110735619D01*
X176051428Y-110688000D01*
X175956190Y-110640380D01*
X175765714Y-110640380D01*
X175670476Y-110688000D01*
X175622857Y-110735619D01*
X175575238Y-110830857D01*
X175575238Y-111068952D01*
X175622857Y-111164190D01*
X175670476Y-111211809D01*
X175765714Y-111259428D01*
X175956190Y-111259428D01*
X176051428Y-111211809D01*
X176099047Y-111164190D01*
X176146666Y-111068952D01*
X174670476Y-136802380D02*
X174670476Y-137516666D01*
X174622857Y-137659523D01*
X174527619Y-137754761D01*
X174384761Y-137802380D01*
X174289523Y-137802380D01*
X175670476Y-137802380D02*
X175099047Y-137802380D01*
X175384761Y-137802380D02*
X175384761Y-136802380D01*
X175289523Y-136945238D01*
X175194285Y-137040476D01*
X175099047Y-137088095D01*
X176622857Y-137802380D02*
X176051428Y-137802380D01*
X176337142Y-137802380D02*
X176337142Y-136802380D01*
X176241904Y-136945238D01*
X176146666Y-137040476D01*
X176051428Y-137088095D01*
X166610476Y-138962380D02*
X166610476Y-139676666D01*
X166562857Y-139819523D01*
X166467619Y-139914761D01*
X166324761Y-139962380D01*
X166229523Y-139962380D01*
X167610476Y-139962380D02*
X167039047Y-139962380D01*
X167324761Y-139962380D02*
X167324761Y-138962380D01*
X167229523Y-139105238D01*
X167134285Y-139200476D01*
X167039047Y-139248095D01*
X167991428Y-139057619D02*
X168039047Y-139010000D01*
X168134285Y-138962380D01*
X168372380Y-138962380D01*
X168467619Y-139010000D01*
X168515238Y-139057619D01*
X168562857Y-139152857D01*
X168562857Y-139248095D01*
X168515238Y-139390952D01*
X167943809Y-139962380D01*
X168562857Y-139962380D01*
X203245476Y-110640380D02*
X203245476Y-111354666D01*
X203197857Y-111497523D01*
X203102619Y-111592761D01*
X202959761Y-111640380D01*
X202864523Y-111640380D01*
X204245476Y-111640380D02*
X203674047Y-111640380D01*
X203959761Y-111640380D02*
X203959761Y-110640380D01*
X203864523Y-110783238D01*
X203769285Y-110878476D01*
X203674047Y-110926095D01*
X204578809Y-110640380D02*
X205197857Y-110640380D01*
X204864523Y-111021333D01*
X205007380Y-111021333D01*
X205102619Y-111068952D01*
X205150238Y-111116571D01*
X205197857Y-111211809D01*
X205197857Y-111449904D01*
X205150238Y-111545142D01*
X205102619Y-111592761D01*
X205007380Y-111640380D01*
X204721666Y-111640380D01*
X204626428Y-111592761D01*
X204578809Y-111545142D01*
X203245476Y-136802380D02*
X203245476Y-137516666D01*
X203197857Y-137659523D01*
X203102619Y-137754761D01*
X202959761Y-137802380D01*
X202864523Y-137802380D01*
X204245476Y-137802380D02*
X203674047Y-137802380D01*
X203959761Y-137802380D02*
X203959761Y-136802380D01*
X203864523Y-136945238D01*
X203769285Y-137040476D01*
X203674047Y-137088095D01*
X205150238Y-136802380D02*
X204674047Y-136802380D01*
X204626428Y-137278571D01*
X204674047Y-137230952D01*
X204769285Y-137183333D01*
X205007380Y-137183333D01*
X205102619Y-137230952D01*
X205150238Y-137278571D01*
X205197857Y-137373809D01*
X205197857Y-137611904D01*
X205150238Y-137707142D01*
X205102619Y-137754761D01*
X205007380Y-137802380D01*
X204769285Y-137802380D01*
X204674047Y-137754761D01*
X204626428Y-137707142D01*
X195185476Y-138962380D02*
X195185476Y-139676666D01*
X195137857Y-139819523D01*
X195042619Y-139914761D01*
X194899761Y-139962380D01*
X194804523Y-139962380D01*
X196185476Y-139962380D02*
X195614047Y-139962380D01*
X195899761Y-139962380D02*
X195899761Y-138962380D01*
X195804523Y-139105238D01*
X195709285Y-139200476D01*
X195614047Y-139248095D01*
X197042619Y-138962380D02*
X196852142Y-138962380D01*
X196756904Y-139010000D01*
X196709285Y-139057619D01*
X196614047Y-139200476D01*
X196566428Y-139390952D01*
X196566428Y-139771904D01*
X196614047Y-139867142D01*
X196661666Y-139914761D01*
X196756904Y-139962380D01*
X196947380Y-139962380D01*
X197042619Y-139914761D01*
X197090238Y-139867142D01*
X197137857Y-139771904D01*
X197137857Y-139533809D01*
X197090238Y-139438571D01*
X197042619Y-139390952D01*
X196947380Y-139343333D01*
X196756904Y-139343333D01*
X196661666Y-139390952D01*
X196614047Y-139438571D01*
X196566428Y-139533809D01*
X186073761Y-59820380D02*
X185740428Y-59344190D01*
X185502333Y-59820380D02*
X185502333Y-58820380D01*
X185883285Y-58820380D01*
X185978523Y-58868000D01*
X186026142Y-58915619D01*
X186073761Y-59010857D01*
X186073761Y-59153714D01*
X186026142Y-59248952D01*
X185978523Y-59296571D01*
X185883285Y-59344190D01*
X185502333Y-59344190D01*
X186359476Y-58820380D02*
X186692809Y-59820380D01*
X187026142Y-58820380D01*
X187311857Y-58915619D02*
X187359476Y-58868000D01*
X187454714Y-58820380D01*
X187692809Y-58820380D01*
X187788047Y-58868000D01*
X187835666Y-58915619D01*
X187883285Y-59010857D01*
X187883285Y-59106095D01*
X187835666Y-59248952D01*
X187264238Y-59820380D01*
X187883285Y-59820380D01*
X186073761Y-72774380D02*
X185740428Y-72298190D01*
X185502333Y-72774380D02*
X185502333Y-71774380D01*
X185883285Y-71774380D01*
X185978523Y-71822000D01*
X186026142Y-71869619D01*
X186073761Y-71964857D01*
X186073761Y-72107714D01*
X186026142Y-72202952D01*
X185978523Y-72250571D01*
X185883285Y-72298190D01*
X185502333Y-72298190D01*
X186359476Y-71774380D02*
X186692809Y-72774380D01*
X187026142Y-71774380D01*
X187264238Y-71774380D02*
X187883285Y-71774380D01*
X187549952Y-72155333D01*
X187692809Y-72155333D01*
X187788047Y-72202952D01*
X187835666Y-72250571D01*
X187883285Y-72345809D01*
X187883285Y-72583904D01*
X187835666Y-72679142D01*
X187788047Y-72726761D01*
X187692809Y-72774380D01*
X187407095Y-72774380D01*
X187311857Y-72726761D01*
X187264238Y-72679142D01*
X186073761Y-85982380D02*
X185740428Y-85506190D01*
X185502333Y-85982380D02*
X185502333Y-84982380D01*
X185883285Y-84982380D01*
X185978523Y-85030000D01*
X186026142Y-85077619D01*
X186073761Y-85172857D01*
X186073761Y-85315714D01*
X186026142Y-85410952D01*
X185978523Y-85458571D01*
X185883285Y-85506190D01*
X185502333Y-85506190D01*
X186359476Y-84982380D02*
X186692809Y-85982380D01*
X187026142Y-84982380D01*
X187788047Y-85315714D02*
X187788047Y-85982380D01*
X187549952Y-84934761D02*
X187311857Y-85649047D01*
X187930904Y-85649047D01*
X186073761Y-99063380D02*
X185740428Y-98587190D01*
X185502333Y-99063380D02*
X185502333Y-98063380D01*
X185883285Y-98063380D01*
X185978523Y-98111000D01*
X186026142Y-98158619D01*
X186073761Y-98253857D01*
X186073761Y-98396714D01*
X186026142Y-98491952D01*
X185978523Y-98539571D01*
X185883285Y-98587190D01*
X185502333Y-98587190D01*
X186359476Y-98063380D02*
X186692809Y-99063380D01*
X187026142Y-98063380D01*
X187835666Y-98063380D02*
X187359476Y-98063380D01*
X187311857Y-98539571D01*
X187359476Y-98491952D01*
X187454714Y-98444333D01*
X187692809Y-98444333D01*
X187788047Y-98491952D01*
X187835666Y-98539571D01*
X187883285Y-98634809D01*
X187883285Y-98872904D01*
X187835666Y-98968142D01*
X187788047Y-99015761D01*
X187692809Y-99063380D01*
X187454714Y-99063380D01*
X187359476Y-99015761D01*
X187311857Y-98968142D01*
X186073761Y-112144380D02*
X185740428Y-111668190D01*
X185502333Y-112144380D02*
X185502333Y-111144380D01*
X185883285Y-111144380D01*
X185978523Y-111192000D01*
X186026142Y-111239619D01*
X186073761Y-111334857D01*
X186073761Y-111477714D01*
X186026142Y-111572952D01*
X185978523Y-111620571D01*
X185883285Y-111668190D01*
X185502333Y-111668190D01*
X186359476Y-111144380D02*
X186692809Y-112144380D01*
X187026142Y-111144380D01*
X187788047Y-111144380D02*
X187597571Y-111144380D01*
X187502333Y-111192000D01*
X187454714Y-111239619D01*
X187359476Y-111382476D01*
X187311857Y-111572952D01*
X187311857Y-111953904D01*
X187359476Y-112049142D01*
X187407095Y-112096761D01*
X187502333Y-112144380D01*
X187692809Y-112144380D01*
X187788047Y-112096761D01*
X187835666Y-112049142D01*
X187883285Y-111953904D01*
X187883285Y-111715809D01*
X187835666Y-111620571D01*
X187788047Y-111572952D01*
X187692809Y-111525333D01*
X187502333Y-111525333D01*
X187407095Y-111572952D01*
X187359476Y-111620571D01*
X187311857Y-111715809D01*
X186073761Y-125225380D02*
X185740428Y-124749190D01*
X185502333Y-125225380D02*
X185502333Y-124225380D01*
X185883285Y-124225380D01*
X185978523Y-124273000D01*
X186026142Y-124320619D01*
X186073761Y-124415857D01*
X186073761Y-124558714D01*
X186026142Y-124653952D01*
X185978523Y-124701571D01*
X185883285Y-124749190D01*
X185502333Y-124749190D01*
X186359476Y-124225380D02*
X186692809Y-125225380D01*
X187026142Y-124225380D01*
X187264238Y-124225380D02*
X187930904Y-124225380D01*
X187502333Y-125225380D01*
X186073761Y-138306380D02*
X185740428Y-137830190D01*
X185502333Y-138306380D02*
X185502333Y-137306380D01*
X185883285Y-137306380D01*
X185978523Y-137354000D01*
X186026142Y-137401619D01*
X186073761Y-137496857D01*
X186073761Y-137639714D01*
X186026142Y-137734952D01*
X185978523Y-137782571D01*
X185883285Y-137830190D01*
X185502333Y-137830190D01*
X186359476Y-137306380D02*
X186692809Y-138306380D01*
X187026142Y-137306380D01*
X187502333Y-137734952D02*
X187407095Y-137687333D01*
X187359476Y-137639714D01*
X187311857Y-137544476D01*
X187311857Y-137496857D01*
X187359476Y-137401619D01*
X187407095Y-137354000D01*
X187502333Y-137306380D01*
X187692809Y-137306380D01*
X187788047Y-137354000D01*
X187835666Y-137401619D01*
X187883285Y-137496857D01*
X187883285Y-137544476D01*
X187835666Y-137639714D01*
X187788047Y-137687333D01*
X187692809Y-137734952D01*
X187502333Y-137734952D01*
X187407095Y-137782571D01*
X187359476Y-137830190D01*
X187311857Y-137925428D01*
X187311857Y-138115904D01*
X187359476Y-138211142D01*
X187407095Y-138258761D01*
X187502333Y-138306380D01*
X187692809Y-138306380D01*
X187788047Y-138258761D01*
X187835666Y-138211142D01*
X187883285Y-138115904D01*
X187883285Y-137925428D01*
X187835666Y-137830190D01*
X187788047Y-137782571D01*
X187692809Y-137734952D01*
M02*
