<?xml version="1.0" encoding="UTF-8" standalone="no"?>
<svg
   xmlns:dc="http://purl.org/dc/elements/1.1/"
   xmlns:cc="http://creativecommons.org/ns#"
   xmlns:rdf="http://www.w3.org/1999/02/22-rdf-syntax-ns#"
   xmlns:svg="http://www.w3.org/2000/svg"
   xmlns="http://www.w3.org/2000/svg"
   xmlns:sodipodi="http://sodipodi.sourceforge.net/DTD/sodipodi-0.dtd"
   xmlns:inkscape="http://www.inkscape.org/namespaces/inkscape"
   width="100.0mm"
   height="100.0mm"
   viewBox="0 0 100.0 100.0"
   version="1.1"
   id="svg5"
   sodipodi:docname="drawing.svg"
   inkscape:version="1.0 (4035a4fb49, 2020-05-01)">
  <metadata
     id="metadata27">
    <rdf:RDF>
      <cc:Work
         rdf:about="">
        <dc:format>image/svg+xml</dc:format>
        <dc:type
           rdf:resource="http://purl.org/dc/dcmitype/StillImage" />
      </cc:Work>
    </rdf:RDF>
  </metadata>
  <sodipodi:namedview
     id="namedview7"
     pagecolor="#ffffff"
     bordercolor="#666666"
     borderopacity="1.0"
     inkscape:pageshadow="2"
     inkscape:pageopacity="0.0"
     inkscape:pagecheckerboard="0"
     inkscape:document-units="mm"
     showgrid="false"
     inkscape:zoom="1.4142136"
     inkscape:cx="233.33774"
     inkscape:cy="132.64207"
     inkscape:window-width="2560"
     inkscape:window-height="1387"
     inkscape:window-x="-8"
     inkscape:window-y="-8"
     inkscape:window-maximized="1"
     inkscape:current-layer="g19"
     showguides="false"
     inkscape:document-rotation="0" />
  <defs
     id="defs2">
    <rect
       x="128.58187"
       y="172.94261"
       width="633.22389"
       height="274.34351"
       id="rect2764" />
  </defs>
  <g
     inkscape:label="[fixed] BG"
     inkscape:groupmode="layer"
     sodipodi:insensitive="true"
     id="g17">
    <rect
       x="0"
       y="0"
       width="100.0"
       height="100.0"
       style="fill:#FFFFFF;fill-opacity:1;stroke:none"
       id="rect15" />
  </g>
  <g
     inkscape:label="F.SilkS"
     inkscape:groupmode="layer"
     id="g19">
    <g
       style="font-style:normal;font-weight:normal;font-size:40px;line-height:0;font-family:sans-serif;white-space:pre;shape-inside:url(#rect2764);fill:#000000;fill-opacity:1;stroke:none"
       id="text2762"
       transform="matrix(0.04329475,0,0,0.04419127,38.830006,43.327415)"
       aria-label="Octane
MINDREAU AUDIO">
      <path
         id="path72"
         style="font-weight:bold;line-height:0.75;font-family:Poppins;-inkscape-font-specification:'Poppins Bold'"
         d="m 144.38203,169.22336 q 4,0 7.24,1.88 3.28,1.84 5.16,5.16 1.88,3.28 1.88,7.44 0,4.16 -1.92,7.48 -1.88,3.32 -5.16,5.2 -3.24,1.84 -7.2,1.84 -3.96,0 -7.24,-1.84 -3.24,-1.88 -5.16,-5.2 -1.88,-3.32 -1.88,-7.48 0,-4.16 1.88,-7.44 1.92,-3.32 5.16,-5.16 3.28,-1.88 7.24,-1.88 z m 0,6.36 q -3.36,0 -5.36,2.2 -1.96,2.16 -1.96,5.92 0,3.72 1.96,5.92 2,2.2 5.36,2.2 3.32,0 5.32,-2.2 2,-2.2 2,-5.92 0,-3.72 -2,-5.92 -1.96,-2.2 -5.32,-2.2 z" />
      <path
         id="path74"
         style="font-weight:bold;line-height:0.75;font-family:Poppins;-inkscape-font-specification:'Poppins Bold'"
         d="m 172.58453,175.34336 q 4.32,0 7.24,2.4 2.92,2.36 3.68,6.52 h -7.24 q -0.32,-1.44 -1.32,-2.24 -1,-0.8 -2.52,-0.8 -1.8,0 -2.96,1.44 -1.16,1.4 -1.16,4.12 0,2.72 1.16,4.16 1.16,1.4 2.96,1.4 1.52,0 2.52,-0.8 1,-0.8 1.32,-2.24 h 7.24 q -0.76,4.16 -3.68,6.56 -2.92,2.36 -7.24,2.36 -3.28,0 -5.84,-1.36 -2.52,-1.4 -3.96,-4 -1.44,-2.6 -1.44,-6.08 0,-3.52 1.4,-6.08 1.44,-2.6 4,-3.96 2.56,-1.4 5.84,-1.4 z" />
      <path
         id="path76"
         style="font-weight:bold;line-height:0.75;font-family:Poppins;-inkscape-font-specification:'Poppins Bold'"
         d="m 199.67578,192.06336 v 5.88 h -3.08 q -3.92,0 -6.12,-1.92 -2.16,-1.96 -2.16,-6.44 v -8.2 h -3 v -5.76 h 3 v -5.48 h 6.84 v 5.48 h 4.48 v 5.76 h -4.48 v 8.32 q 0,1.32 0.52,1.84 0.56,0.52 1.84,0.52 z" />
      <path
         id="path78"
         style="font-weight:bold;line-height:0.75;font-family:Poppins;-inkscape-font-specification:'Poppins Bold'"
         d="m 212.00016,175.34336 q 2.56,0 4.4,1.16 1.84,1.16 2.72,3.16 v -4.04 h 6.8 v 22.32 h -6.8 v -4.04 q -0.88,2 -2.72,3.16 -1.84,1.16 -4.4,1.16 -2.76,0 -4.96,-1.36 -2.16,-1.4 -3.44,-4 -1.24,-2.6 -1.24,-6.08 0,-3.52 1.24,-6.08 1.28,-2.6 3.44,-3.96 2.2,-1.4 4.96,-1.4 z m 2.2,6 q -2.2,0 -3.56,1.44 -1.32,1.44 -1.32,4 0,2.56 1.32,4 1.36,1.44 3.56,1.44 2.16,0 3.52,-1.48 1.4,-1.48 1.4,-3.96 0,-2.52 -1.4,-3.96 -1.36,-1.48 -3.52,-1.48 z" />
      <path
         id="path80"
         style="font-weight:bold;line-height:0.75;font-family:Poppins;-inkscape-font-specification:'Poppins Bold'"
         d="m 244.78953,175.38336 q 3.84,0 6.08,2.56 2.28,2.56 2.28,7.04 v 12.96 h -6.84 v -12.16 q 0,-2.24 -1.2,-3.48 -1.16,-1.28 -3.12,-1.28 -2.08,0 -3.32,1.32 -1.2,1.32 -1.2,3.76 v 11.84 h -6.84 v -22.32 h 6.84 v 4.08 q 0.96,-2 2.84,-3.16 1.92,-1.16 4.48,-1.16 z" />
      <path
         id="path82"
         style="font-weight:bold;line-height:0.75;font-family:Poppins;-inkscape-font-specification:'Poppins Bold'"
         d="m 278.86078,186.18336 q 0,0.84 -0.2,1.84 h -15.48 q 0.12,2.52 1.28,3.64 1.16,1.08 2.96,1.08 1.52,0 2.52,-0.76 1,-0.76 1.32,-1.96 h 7.24 q -0.44,2.36 -1.92,4.24 -1.48,1.84 -3.76,2.92 -2.28,1.04 -5.08,1.04 -3.28,0 -5.84,-1.36 -2.52,-1.4 -3.96,-4 -1.44,-2.6 -1.44,-6.08 0,-3.52 1.4,-6.08 1.44,-2.6 4,-3.96 2.56,-1.4 5.84,-1.4 3.32,0 5.84,1.36 2.52,1.36 3.88,3.84 1.4,2.44 1.4,5.64 z m -6.92,-1.04 q 0.04,-2.2 -1.2,-3.28 -1.2,-1.12 -3,-1.12 -1.88,0 -3.12,1.12 -1.24,1.12 -1.4,3.28 z" />
      <path
         id="path84"
         style="font-size:28.5834px;line-height:1;font-family:Poppins;-inkscape-font-specification:Poppins;letter-spacing:6.69922px"
         d="m 150.8485,204.57261 v 19.8083 h -2.60109 v -15.80662 l -6.31693,15.80662 h -2.31526 l -6.34551,-15.74945 v 15.74945 h -2.60109 v -19.8083 h 3.11559 l 7.03152,16.63554 6.91718,-16.63554 z" />
      <path
         id="path86"
         style="font-size:28.5834px;line-height:1;font-family:Poppins;-inkscape-font-specification:Poppins;letter-spacing:6.69922px"
         d="m 164.30948,204.22961 v 20.1513 h -2.60109 v -20.1513 z" />
      <path
         id="path88"
         style="font-size:28.5834px;line-height:1;font-family:Poppins;-inkscape-font-specification:Poppins;letter-spacing:6.69922px"
         d="m 190.82638,224.38091 h -2.60109 l -10.46153,-15.92095 v 15.92095 h -2.60109 v -20.1513 h 2.60109 l 10.46153,15.94954 v -15.94954 h 2.60109 z" />
      <path
         id="path90"
         style="font-size:28.5834px;line-height:1;font-family:Poppins;-inkscape-font-specification:Poppins;letter-spacing:6.69922px"
         d="m 218.659,214.29097 q 0,3.05842 -1.22909,5.3451 -1.22908,2.25808 -3.63009,3.51575 -2.37242,1.22909 -5.71668,1.22909 h -6.40268 v -20.1513 h 6.40268 q 3.34426,0 5.71668,1.22909 2.40101,1.2005 3.63009,3.48717 1.22909,2.25809 1.22909,5.3451 z m -10.77594,7.7461 q 3.94451,0 6.0311,-2.02942 2.08658,-2.02942 2.08658,-5.71668 0,-3.68726 -2.08658,-5.71668 -2.05801,-2.05801 -6.0311,-2.05801 h -3.60151 v 15.52079 z" />
      <path
         id="path92"
         style="font-size:28.5834px;line-height:1;font-family:Poppins;-inkscape-font-specification:Poppins;letter-spacing:6.69922px"
         d="m 239.55837,224.38091 -5.25935,-8.23202 h -2.82976 v 8.23202 h -2.60109 v -20.1513 h 6.63135 q 3.43001,0 5.14502,1.65784 1.715,1.62925 1.715,4.34468 0,2.45817 -1.372,3.97309 -1.37201,1.48634 -3.9731,1.85792 l 5.48802,8.31777 z m -8.08911,-10.11852 h 3.8016 q 4.43042,0 4.43042,-3.88735 0,-3.88734 -4.43042,-3.88734 h -3.8016 z" />
      <path
         id="path94"
         style="font-size:28.5834px;line-height:1;font-family:Poppins;-inkscape-font-specification:Poppins;letter-spacing:6.69922px"
         d="m 254.86074,206.34478 v 6.8886 h 7.66035 v 2.00084 h -7.66035 v 7.03152 h 8.51786 v 2.11517 h -11.11895 v -20.1513 h 11.11895 v 2.11517 z" />
      <path
         id="path96"
         style="font-size:28.5834px;line-height:1;font-family:Poppins;-inkscape-font-specification:Poppins;letter-spacing:6.69922px"
         d="m 285.223,219.72182 h -8.86085 l -1.68643,4.65909 h -2.80117 l 7.46027,-19.77971 h 2.94409 l 7.43168,19.77971 h -2.80117 z m -0.74317,-2.02943 -3.68726,-10.17569 -3.68726,10.17569 z" />
      <path
         id="path98"
         style="font-size:28.5834px;line-height:1;font-family:Poppins;-inkscape-font-specification:Poppins;letter-spacing:6.69922px"
         d="m 301.50078,204.22961 v 12.09078 q 0,2.97267 1.31484,4.40184 1.31484,1.40059 3.63009,1.40059 2.28668,0 3.57293,-1.42917 1.28625,-1.42917 1.28625,-4.37326 v -12.09078 h 2.60109 v 12.09078 q 0,4.11601 -2.058,6.2026 -2.02943,2.058 -5.45943,2.058 -3.40143,0 -5.45943,-2.058 -2.02942,-2.08659 -2.02942,-6.2026 v -12.09078 z" />
      <path
         id="path100"
         style="font-size:28.5834px;line-height:1;font-family:Poppins;-inkscape-font-specification:Poppins;letter-spacing:6.69922px"
         d="m 350.14971,219.72182 h -8.86085 l -1.68642,4.65909 h -2.80118 l 7.46027,-19.77971 h 2.94409 l 7.43169,19.77971 h -2.80118 z m -0.74317,-2.02943 -3.68726,-10.17569 -3.68725,10.17569 z" />
      <path
         id="path102"
         style="font-size:28.5834px;line-height:1;font-family:Poppins;-inkscape-font-specification:Poppins;letter-spacing:6.69922px"
         d="m 366.42748,204.22961 v 12.09078 q 0,2.97267 1.31484,4.40184 1.31483,1.40059 3.63009,1.40059 2.28667,0 3.57293,-1.42917 1.28625,-1.42917 1.28625,-4.37326 v -12.09078 h 2.60109 v 12.09078 q 0,4.11601 -2.05801,6.2026 -2.02942,2.058 -5.45943,2.058 -3.40142,0 -5.45943,-2.058 -2.02942,-2.08659 -2.02942,-6.2026 v -12.09078 z" />
      <path
         id="path104"
         style="font-size:28.5834px;line-height:1;font-family:Poppins;-inkscape-font-specification:Poppins;letter-spacing:6.69922px"
         d="m 406.51657,214.29097 q 0,3.05842 -1.22908,5.3451 -1.22909,2.25808 -3.63009,3.51575 -2.37243,1.22909 -5.71668,1.22909 h -6.40269 v -20.1513 h 6.40269 q 3.34425,0 5.71668,1.22909 2.401,1.2005 3.63009,3.48717 1.22908,2.25809 1.22908,5.3451 z m -10.77594,7.7461 q 3.94451,0 6.0311,-2.02942 2.08659,-2.02942 2.08659,-5.71668 0,-3.68726 -2.08659,-5.71668 -2.058,-2.05801 -6.0311,-2.05801 h -3.60151 v 15.52079 z" />
      <path
         id="path106"
         style="font-size:28.5834px;line-height:1;font-family:Poppins;-inkscape-font-specification:Poppins;letter-spacing:6.69922px"
         d="m 419.32684,204.22961 v 20.1513 h -2.60109 v -20.1513 z" />
      <path
         id="path108"
         style="font-size:28.5834px;line-height:1;font-family:Poppins;-inkscape-font-specification:Poppins;letter-spacing:6.69922px"
         d="m 439.41247,203.97236 q 2.80117,0 5.03068,1.31484 2.25809,1.31483 3.54434,3.68726 1.28625,2.34384 1.28625,5.31651 0,2.97267 -1.28625,5.3451 -1.28625,2.34383 -3.54434,3.65867 -2.22951,1.31484 -5.03068,1.31484 -2.80117,0 -5.08784,-1.31484 -2.25809,-1.31484 -3.54435,-3.65867 -1.28625,-2.37243 -1.28625,-5.3451 0,-2.97267 1.28625,-5.31651 1.28626,-2.37243 3.54435,-3.68726 2.28667,-1.31484 5.08784,-1.31484 z m 0,2.42959 q -2.08659,0 -3.74442,0.97184 -1.62926,0.94325 -2.57251,2.744 -0.91467,1.77217 -0.91467,4.17318 0,2.37242 0.91467,4.17318 0.94325,1.80075 2.57251,2.77259 1.65783,0.94325 3.74442,0.94325 2.05801,0 3.68726,-0.97184 1.65784,-0.97183 2.57251,-2.744 0.94325,-1.80076 0.94325,-4.17318 0,-2.40101 -0.94325,-4.17318 -0.91467,-1.80075 -2.57251,-2.744 -1.62925,-0.97184 -3.68726,-0.97184 z" />
    </g>
    <path
       id="path124"
       d="m 41.145001,48.899187 -2.071852,0.971502 -0.79195,2.182375 0.95185,2.114755 2.138045,0.808352 2.07185,-0.971559 0.792007,-2.18232 -0.0185,-0.04087 -0.933417,-2.07387 z m 0.0087,0.2351 1.972645,0.745785 0.878175,1.951152 -0.730657,2.013493 -1.911568,0.896359 -1.972645,-0.745787 -0.878175,-1.951152 0.730713,-2.013493 z"
       style="color:#000000;font-style:normal;font-variant:normal;font-weight:normal;font-stretch:normal;font-size:medium;line-height:normal;font-family:sans-serif;font-variant-ligatures:normal;font-variant-position:normal;font-variant-caps:normal;font-variant-numeric:normal;font-variant-alternates:normal;font-variant-east-asian:normal;font-feature-settings:normal;font-variation-settings:normal;text-indent:0;text-align:start;text-decoration:none;text-decoration-line:none;text-decoration-style:solid;text-decoration-color:#000000;letter-spacing:normal;word-spacing:normal;text-transform:none;writing-mode:lr-tb;direction:ltr;text-orientation:mixed;dominant-baseline:auto;baseline-shift:baseline;text-anchor:start;white-space:normal;shape-padding:0;shape-margin:0;inline-size:0;clip-rule:nonzero;display:inline;overflow:visible;visibility:visible;opacity:1;isolation:auto;mix-blend-mode:normal;color-interpolation:sRGB;color-interpolation-filters:linearRGB;solid-color:#000000;solid-opacity:1;vector-effect:none;fill:#000000;fill-opacity:1;fill-rule:nonzero;stroke:none;stroke-width:0.215147;stroke-linecap:butt;stroke-linejoin:miter;stroke-miterlimit:4;stroke-dasharray:none;stroke-dashoffset:0;stroke-opacity:1;color-rendering:auto;image-rendering:auto;shape-rendering:auto;text-rendering:auto;enable-background:accumulate;stop-color:#000000;stop-opacity:1" />
    <g
       transform="matrix(0.22150208,0,0,0.22150208,36.763842,41.300275)"
       style="opacity:1"
       id="g115">
      <path
         id="path117"
         d="m 13.195697,55.784608 7.376796,2.791127"
         style="color:#000000;font-style:normal;font-variant:normal;font-weight:normal;font-stretch:normal;font-size:medium;line-height:normal;font-family:sans-serif;font-variant-ligatures:normal;font-variant-position:normal;font-variant-caps:normal;font-variant-numeric:normal;font-variant-alternates:normal;font-variant-east-asian:normal;font-feature-settings:normal;font-variation-settings:normal;text-indent:0;text-align:start;text-decoration:none;text-decoration-line:none;text-decoration-style:solid;text-decoration-color:#000000;letter-spacing:normal;word-spacing:normal;text-transform:none;writing-mode:lr-tb;direction:ltr;text-orientation:mixed;dominant-baseline:auto;baseline-shift:baseline;text-anchor:start;white-space:normal;shape-padding:0;shape-margin:0;inline-size:0;clip-rule:nonzero;display:inline;overflow:visible;visibility:visible;isolation:auto;mix-blend-mode:normal;color-interpolation:sRGB;color-interpolation-filters:linearRGB;solid-color:#000000;solid-opacity:1;vector-effect:none;fill:#000000;fill-opacity:1;fill-rule:nonzero;stroke:none;stroke-width:0.971308;stroke-linecap:round;stroke-linejoin:miter;stroke-miterlimit:4;stroke-dasharray:none;stroke-dashoffset:0;stroke-opacity:1;color-rendering:auto;image-rendering:auto;shape-rendering:auto;text-rendering:auto;enable-background:accumulate;stop-color:#000000;stop-opacity:1" />
      <path
         id="path119"
         d="m 13.195312,55.298828 a 0.485654,0.485654 0 0 0 -0.453124,0.314453 0.485654,0.485654 0 0 0 0.28125,0.625 l 7.376953,2.791016 a 0.485654,0.485654 0 0 0 0.626953,-0.28125 0.485654,0.485654 0 0 0 -0.283203,-0.626953 l -7.376953,-2.791016 a 0.485654,0.485654 0 0 0 -0.171876,-0.03125 z"
         style="color:#000000;font-style:normal;font-variant:normal;font-weight:normal;font-stretch:normal;font-size:medium;line-height:normal;font-family:sans-serif;font-variant-ligatures:normal;font-variant-position:normal;font-variant-caps:normal;font-variant-numeric:normal;font-variant-alternates:normal;font-variant-east-asian:normal;font-feature-settings:normal;font-variation-settings:normal;text-indent:0;text-align:start;text-decoration:none;text-decoration-line:none;text-decoration-style:solid;text-decoration-color:#000000;letter-spacing:normal;word-spacing:normal;text-transform:none;writing-mode:lr-tb;direction:ltr;text-orientation:mixed;dominant-baseline:auto;baseline-shift:baseline;text-anchor:start;white-space:normal;shape-padding:0;shape-margin:0;inline-size:0;clip-rule:nonzero;display:inline;overflow:visible;visibility:visible;isolation:auto;mix-blend-mode:normal;color-interpolation:sRGB;color-interpolation-filters:linearRGB;solid-color:#000000;solid-opacity:1;vector-effect:none;fill:#000000;fill-opacity:1;fill-rule:nonzero;stroke:none;stroke-width:0.971308;stroke-linecap:round;stroke-linejoin:miter;stroke-miterlimit:4;stroke-dasharray:none;stroke-dashoffset:0;stroke-opacity:1;color-rendering:auto;image-rendering:auto;shape-rendering:auto;text-rendering:auto;enable-background:accumulate;stop-color:#000000;stop-opacity:1" />
    </g>
    <path
       style="fill:none;stroke:#000000;stroke-width:0.215147;stroke-linecap:round;stroke-linejoin:miter;stroke-miterlimit:4;stroke-dasharray:none;stroke-opacity:1"
       d="m 42.926494,53.469772 0.56344,-1.595923"
       id="path40153" />
    <path
       id="path113"
       d="m 41.171819,49.451724 a 0.10757337,0.10757337 0 0 0 -0.03762,0.01 l -1.620165,0.761848 a 0.10757337,0.10757337 0 0 0 -0.05147,0.1432 0.10757337,0.10757337 0 0 0 0.1432,0.05147 l 1.619732,-0.761848 a 0.10757337,0.10757337 0 0 0 0.05192,-0.1432 0.10757337,0.10757337 0 0 0 -0.10555,-0.06142 z"
       style="color:#000000;font-style:normal;font-variant:normal;font-weight:normal;font-stretch:normal;font-size:medium;line-height:normal;font-family:sans-serif;font-variant-ligatures:normal;font-variant-position:normal;font-variant-caps:normal;font-variant-numeric:normal;font-variant-alternates:normal;font-variant-east-asian:normal;font-feature-settings:normal;font-variation-settings:normal;text-indent:0;text-align:start;text-decoration:none;text-decoration-line:none;text-decoration-style:solid;text-decoration-color:#000000;letter-spacing:normal;word-spacing:normal;text-transform:none;writing-mode:lr-tb;direction:ltr;text-orientation:mixed;dominant-baseline:auto;baseline-shift:baseline;text-anchor:start;white-space:normal;shape-padding:0;shape-margin:0;inline-size:0;clip-rule:nonzero;display:inline;overflow:visible;visibility:visible;opacity:1;isolation:auto;mix-blend-mode:normal;color-interpolation:sRGB;color-interpolation-filters:linearRGB;solid-color:#000000;solid-opacity:1;vector-effect:none;fill:#000000;fill-opacity:1;fill-rule:nonzero;stroke:none;stroke-width:0.215147;stroke-linecap:round;stroke-linejoin:miter;stroke-miterlimit:4;stroke-dasharray:none;stroke-dashoffset:0;stroke-opacity:1;color-rendering:auto;image-rendering:auto;shape-rendering:auto;text-rendering:auto;enable-background:accumulate;stop-color:#000000;stop-opacity:1" />
  </g>
</svg>
