  0
SECTION
  2
HEADER
  9
$MEASUREMENT
  70
  1
  9
$INSUNITS
  70
  4
  0
ENDSEC
  0
SECTION
  2
TABLES
  0
TABLE
  2
LTYPE
 70
     1
  0
LTYPE
  2
CONTINUOUS
 70
    64
  3
Ausgezogene Linie
 72
    65
 73
     0
 40
0.0
  0
ENDTAB
  0
TABLE
  2
LAYER
 70
     3
  0
LAYER
  2
Contour
 70
    64
 62
     7
  6
CONTINUOUS
  0
LAYER
  2
Engraving
 70
    64
 62
     7
  6
CONTINUOUS
  0
LAYER
  2
Reference_points
 70
    64
 62
     1
  6
CONTINUOUS
  0
ENDTAB
  0
TABLE
  2
STYLE
 70
     1
  0
STYLE
  2
TXT
 70
    64
 40
0.0
 41
1.0
 50
0.0
 71
     0
 42
3.500000
  3
TXT
  0
ENDTAB
  0
ENDSEC
  0
SECTION
  2
BLOCKS
  0
ENDSEC
  0
SECTION
  2
ENTITIES
  0
LINE
  8
Contour
 62
   7
 39
0.100
  6
CONTINUOUS
 10
100.00000
 20
100.00000
 30
 0
 11
100.00000
 21
0.00000
  0
LINE
  8
Contour
 62
   7
 39
0.100
  6
CONTINUOUS
 10
100.00000
 20
0.00000
 30
 0
 11
0.00000
 21
0.00000
  0
LINE
  8
Contour
 62
   7
 39
0.100
  6
CONTINUOUS
 10
0.00000
 20
0.00000
 30
 0
 11
0.00000
 21
100.00000
  0
LINE
  8
Contour
 62
   7
 39
0.100
  6
CONTINUOUS
 10
0.00000
 20
100.00000
 30
 0
 11
100.00000
 21
100.00000
  0
CIRCLE
  8
Contour
 62
   7
 39
0.100
  6
CONTINUOUS
 10
50.00000
 20
60.00000
 30
 0
 40
3.00000
  0
CIRCLE
  8
Contour
 62
   7
 39
0.100
  6
CONTINUOUS
 10
12.50000
 20
15.00000
 30
 0
 40
4.60000
  0
CIRCLE
  8
Contour
 62
   7
 39
0.100
  6
CONTINUOUS
 10
37.50000
 20
15.00000
 30
 0
 40
4.60000
  0
CIRCLE
  8
Contour
 62
   7
 39
0.100
  6
CONTINUOUS
 10
62.50000
 20
15.00000
 30
 0
 40
4.60000
  0
CIRCLE
  8
Contour
 62
   7
 39
0.100
  6
CONTINUOUS
 10
87.50000
 20
15.00000
 30
 0
 40
4.60000
  0
CIRCLE
  8
Contour
 62
   7
 39
0.100
  6
CONTINUOUS
 10
4.00000
 20
4.00000
 30
 0
 40
2.50000
  0
CIRCLE
  8
Contour
 62
   7
 39
0.100
  6
CONTINUOUS
 10
4.00000
 20
96.00000
 30
 0
 40
2.50000
  0
CIRCLE
  8
Contour
 62
   7
 39
0.100
  6
CONTINUOUS
 10
96.00000
 20
96.00000
 30
 0
 40
2.50000
  0
CIRCLE
  8
Contour
 62
   7
 39
0.100
  6
CONTINUOUS
 10
96.00000
 20
4.00000
 30
 0
 40
2.50000
  0
CIRCLE
  8
Contour
 62
   7
 39
0.100
  6
CONTINUOUS
 10
12.50000
 20
24.00000
 30
 0
 40
1.50000
  0
CIRCLE
  8
Contour
 62
   7
 39
0.100
  6
CONTINUOUS
 10
37.50000
 20
24.00000
 30
 0
 40
1.50000
  0
CIRCLE
  8
Contour
 62
   7
 39
0.100
  6
CONTINUOUS
 10
62.50000
 20
24.00000
 30
 0
 40
1.50000
  0
CIRCLE
  8
Contour
 62
   7
 39
0.100
  6
CONTINUOUS
 10
87.50000
 20
24.00000
 30
 0
 40
1.50000
  0
CIRCLE
  8
Contour
 62
   7
 39
0.100
  6
CONTINUOUS
 10
80.00000
 20
70.00000
 30
 0
 40
3.10000
  0
LINE
  8
Reference_points
 62
   1
 39
0.100
  6
CONTINUOUS
 10
-0.71900
 20
0.00000
 30
 0
 11
0.71900
 21
0.00000
  0
LINE
  8
Reference_points
 62
   1
 39
0.100
  6
CONTINUOUS
 10
0.00000
 20
-0.71900
 30
 0
 11
0.00000
 21
0.71900
  0
LINE
  8
Reference_points
 62
   1
 39
0.100
  6
CONTINUOUS
 10
49.28100
 20
60.00000
 30
 0
 11
50.71900
 21
60.00000
  0
LINE
  8
Reference_points
 62
   1
 39
0.100
  6
CONTINUOUS
 10
50.00000
 20
59.28100
 30
 0
 11
50.00000
 21
60.71900
  0
LINE
  8
Reference_points
 62
   1
 39
0.100
  6
CONTINUOUS
 10
11.78100
 20
15.00000
 30
 0
 11
13.21900
 21
15.00000
  0
LINE
  8
Reference_points
 62
   1
 39
0.100
  6
CONTINUOUS
 10
12.50000
 20
14.28100
 30
 0
 11
12.50000
 21
15.71900
  0
LINE
  8
Reference_points
 62
   1
 39
0.100
  6
CONTINUOUS
 10
36.78100
 20
15.00000
 30
 0
 11
38.21900
 21
15.00000
  0
LINE
  8
Reference_points
 62
   1
 39
0.100
  6
CONTINUOUS
 10
37.50000
 20
14.28100
 30
 0
 11
37.50000
 21
15.71900
  0
LINE
  8
Reference_points
 62
   1
 39
0.100
  6
CONTINUOUS
 10
61.78100
 20
15.00000
 30
 0
 11
63.21900
 21
15.00000
  0
LINE
  8
Reference_points
 62
   1
 39
0.100
  6
CONTINUOUS
 10
62.50000
 20
14.28100
 30
 0
 11
62.50000
 21
15.71900
  0
LINE
  8
Reference_points
 62
   1
 39
0.100
  6
CONTINUOUS
 10
86.78100
 20
15.00000
 30
 0
 11
88.21900
 21
15.00000
  0
LINE
  8
Reference_points
 62
   1
 39
0.100
  6
CONTINUOUS
 10
87.50000
 20
14.28100
 30
 0
 11
87.50000
 21
15.71900
  0
LINE
  8
Reference_points
 62
   1
 39
0.100
  6
CONTINUOUS
 10
3.28100
 20
4.00000
 30
 0
 11
4.71900
 21
4.00000
  0
LINE
  8
Reference_points
 62
   1
 39
0.100
  6
CONTINUOUS
 10
4.00000
 20
3.28100
 30
 0
 11
4.00000
 21
4.71900
  0
LINE
  8
Reference_points
 62
   1
 39
0.100
  6
CONTINUOUS
 10
3.28100
 20
96.00000
 30
 0
 11
4.71900
 21
96.00000
  0
LINE
  8
Reference_points
 62
   1
 39
0.100
  6
CONTINUOUS
 10
4.00000
 20
95.28100
 30
 0
 11
4.00000
 21
96.71900
  0
LINE
  8
Reference_points
 62
   1
 39
0.100
  6
CONTINUOUS
 10
95.28100
 20
96.00000
 30
 0
 11
96.71900
 21
96.00000
  0
LINE
  8
Reference_points
 62
   1
 39
0.100
  6
CONTINUOUS
 10
96.00000
 20
95.28100
 30
 0
 11
96.00000
 21
96.71900
  0
LINE
  8
Reference_points
 62
   1
 39
0.100
  6
CONTINUOUS
 10
95.28100
 20
4.00000
 30
 0
 11
96.71900
 21
4.00000
  0
LINE
  8
Reference_points
 62
   1
 39
0.100
  6
CONTINUOUS
 10
96.00000
 20
3.28100
 30
 0
 11
96.00000
 21
4.71900
  0
LINE
  8
Reference_points
 62
   1
 39
0.100
  6
CONTINUOUS
 10
11.78100
 20
24.00000
 30
 0
 11
13.21900
 21
24.00000
  0
LINE
  8
Reference_points
 62
   1
 39
0.100
  6
CONTINUOUS
 10
12.50000
 20
23.28100
 30
 0
 11
12.50000
 21
24.71900
  0
LINE
  8
Reference_points
 62
   1
 39
0.100
  6
CONTINUOUS
 10
36.78100
 20
24.00000
 30
 0
 11
38.21900
 21
24.00000
  0
LINE
  8
Reference_points
 62
   1
 39
0.100
  6
CONTINUOUS
 10
37.50000
 20
23.28100
 30
 0
 11
37.50000
 21
24.71900
  0
LINE
  8
Reference_points
 62
   1
 39
0.100
  6
CONTINUOUS
 10
61.78100
 20
24.00000
 30
 0
 11
63.21900
 21
24.00000
  0
LINE
  8
Reference_points
 62
   1
 39
0.100
  6
CONTINUOUS
 10
62.50000
 20
23.28100
 30
 0
 11
62.50000
 21
24.71900
  0
LINE
  8
Reference_points
 62
   1
 39
0.100
  6
CONTINUOUS
 10
86.78100
 20
24.00000
 30
 0
 11
88.21900
 21
24.00000
  0
LINE
  8
Reference_points
 62
   1
 39
0.100
  6
CONTINUOUS
 10
87.50000
 20
23.28100
 30
 0
 11
87.50000
 21
24.71900
  0
LINE
  8
Reference_points
 62
   1
 39
0.100
  6
CONTINUOUS
 10
79.28100
 20
70.00000
 30
 0
 11
80.71900
 21
70.00000
  0
LINE
  8
Reference_points
 62
   1
 39
0.100
  6
CONTINUOUS
 10
80.00000
 20
69.28100
 30
 0
 11
80.00000
 21
70.71900
  0
LINE
  8
Reference_points
 62
   1
 39
0.100
  6
CONTINUOUS
 10
25.78100
 20
98.50000
 30
 0
 11
27.21900
 21
98.50000
  0
LINE
  8
Reference_points
 62
   1
 39
0.100
  6
CONTINUOUS
 10
26.50000
 20
97.78100
 30
 0
 11
26.50000
 21
99.21900
  0
ENDSEC
  0
EOF
