G04 #@! TF.GenerationSoftware,KiCad,Pcbnew,(5.1.2)-2*
G04 #@! TF.CreationDate,2023-03-12T16:53:55+01:00*
G04 #@! TF.ProjectId,Panel,50616e65-6c2e-46b6-9963-61645f706362,rev?*
G04 #@! TF.SameCoordinates,Original*
G04 #@! TF.FileFunction,Legend,Bot*
G04 #@! TF.FilePolarity,Positive*
%FSLAX46Y46*%
G04 Gerber Fmt 4.6, Leading zero omitted, Abs format (unit mm)*
G04 Created by KiCad (PCBNEW (5.1.2)-2) date 2023-03-12 16:53:55*
%MOMM*%
%LPD*%
G04 APERTURE LIST*
%ADD10C,0.150000*%
G04 APERTURE END LIST*
D10*
X129859404Y-121452380D02*
X129859404Y-122166666D01*
X129907023Y-122309523D01*
X130002261Y-122404761D01*
X130145119Y-122452380D01*
X130240357Y-122452380D01*
X128907023Y-122452380D02*
X129383214Y-122452380D01*
X129383214Y-121452380D01*
X128002261Y-122357142D02*
X128049880Y-122404761D01*
X128192738Y-122452380D01*
X128287976Y-122452380D01*
X128430833Y-122404761D01*
X128526071Y-122309523D01*
X128573690Y-122214285D01*
X128621309Y-122023809D01*
X128621309Y-121880952D01*
X128573690Y-121690476D01*
X128526071Y-121595238D01*
X128430833Y-121500000D01*
X128287976Y-121452380D01*
X128192738Y-121452380D01*
X128049880Y-121500000D01*
X128002261Y-121547619D01*
X127287976Y-121452380D02*
X127287976Y-122166666D01*
X127335595Y-122309523D01*
X127430833Y-122404761D01*
X127573690Y-122452380D01*
X127668928Y-122452380D01*
X126335595Y-122452380D02*
X126811785Y-122452380D01*
X126811785Y-121452380D01*
X125430833Y-122357142D02*
X125478452Y-122404761D01*
X125621309Y-122452380D01*
X125716547Y-122452380D01*
X125859404Y-122404761D01*
X125954642Y-122309523D01*
X126002261Y-122214285D01*
X126049880Y-122023809D01*
X126049880Y-121880952D01*
X126002261Y-121690476D01*
X125954642Y-121595238D01*
X125859404Y-121500000D01*
X125716547Y-121452380D01*
X125621309Y-121452380D01*
X125478452Y-121500000D01*
X125430833Y-121547619D01*
X124716547Y-121452380D02*
X124716547Y-122166666D01*
X124764166Y-122309523D01*
X124859404Y-122404761D01*
X125002261Y-122452380D01*
X125097500Y-122452380D01*
X123764166Y-122452380D02*
X124240357Y-122452380D01*
X124240357Y-121452380D01*
X122859404Y-122357142D02*
X122907023Y-122404761D01*
X123049880Y-122452380D01*
X123145119Y-122452380D01*
X123287976Y-122404761D01*
X123383214Y-122309523D01*
X123430833Y-122214285D01*
X123478452Y-122023809D01*
X123478452Y-121880952D01*
X123430833Y-121690476D01*
X123383214Y-121595238D01*
X123287976Y-121500000D01*
X123145119Y-121452380D01*
X123049880Y-121452380D01*
X122907023Y-121500000D01*
X122859404Y-121547619D01*
X122145119Y-121452380D02*
X122145119Y-122166666D01*
X122192738Y-122309523D01*
X122287976Y-122404761D01*
X122430833Y-122452380D01*
X122526071Y-122452380D01*
X121192738Y-122452380D02*
X121668928Y-122452380D01*
X121668928Y-121452380D01*
X120287976Y-122357142D02*
X120335595Y-122404761D01*
X120478452Y-122452380D01*
X120573690Y-122452380D01*
X120716547Y-122404761D01*
X120811785Y-122309523D01*
X120859404Y-122214285D01*
X120907023Y-122023809D01*
X120907023Y-121880952D01*
X120859404Y-121690476D01*
X120811785Y-121595238D01*
X120716547Y-121500000D01*
X120573690Y-121452380D01*
X120478452Y-121452380D01*
X120335595Y-121500000D01*
X120287976Y-121547619D01*
%LPC*%
M02*
